<svg xmlns="http://www.w3.org/2000/svg"><symbol viewBox="0 0 36 36" version="1.1" xmlns="http://www.w3.org/2000/svg" xmlns:xlink="http://www.w3.org/1999/xlink" id="add_36"><g fill="none" fill-rule="evenodd"><path d="M0 0h36v36H0z"/><path fill="currentColor" d="M19.5 19.5v9a1.5 1.5 0 0 1-3 0v-9h-9a1.5 1.5 0 0 1 0-3h9v-9a1.5 1.5 0 0 1 3 0v9h9a1.5 1.5 0 0 1 0 3z"/></g></symbol><symbol xmlns="http://www.w3.org/2000/svg" fill="none" viewBox="0 0 36 36" id="add_circle_fill_36"><path fill="currentColor" d="M36 18c0 9.941-8.059 18-18 18S0 27.941 0 18 8.059 0 18 0s18 8.059 18 18"/><path fill="#2688EB" fill-rule="evenodd" d="M18 8.75c.69 0 1.25.56 1.25 1.25v6.75H26a1.25 1.25 0 1 1 0 2.5h-6.75V26a1.25 1.25 0 1 1-2.5 0v-6.75H10a1.25 1.25 0 1 1 0-2.5h6.75V10c0-.69.56-1.25 1.25-1.25" clip-rule="evenodd"/></symbol><symbol viewBox="0 0 36 36" fill="none" xmlns="http://www.w3.org/2000/svg" id="advertising_outline_36"><path fill="currentColor" fill-rule="evenodd" d="M21.022 9.983H9.604A7.106 7.106 0 0 0 8.429 24.1l.844 4.135a3.792 3.792 0 0 0 7.431-1.518l-.514-2.52h4.832l5.167 3.532c2.455 1.68 5.788-.08 5.788-3.054V9.506c0-2.975-3.333-4.734-5.788-3.055zm.755 11.701v-9.188l5.823-3.98a1.2 1.2 0 0 1 1.877.99v15.168a1.2 1.2 0 0 1-1.877.99zm-2.503-9.2v9.212H9.585a4.606 4.606 0 0 1 .019-9.213zM11 24.196h2.638l.617 3.02a1.292 1.292 0 0 1-2.532.518z" clip-rule="evenodd"/></symbol><symbol xmlns="http://www.w3.org/2000/svg" fill="none" viewBox="0 0 36 36" id="arrow_uturn_left_outline_36"><path fill="currentColor" fill-rule="evenodd" d="M15.634 4.366a1.25 1.25 0 0 1 0 1.768L11.268 10.5H18.3c5.91 0 10.7 4.79 10.7 10.7C29 27.165 24.165 32 18.2 32h-4.95a1.25 1.25 0 1 1 0-2.5h4.95a8.3 8.3 0 0 0 8.3-8.3 8.2 8.2 0 0 0-8.2-8.2h-7.032l4.366 4.366a1.25 1.25 0 0 1-1.768 1.768l-6.5-6.5a1.25 1.25 0 0 1 0-1.768l6.5-6.5a1.25 1.25 0 0 1 1.768 0" clip-rule="evenodd"/></symbol><symbol xmlns="http://www.w3.org/2000/svg" fill="none" viewBox="0 0 36 36" id="arrow_uturn_right_outline_36"><path fill="currentColor" fill-rule="evenodd" d="M20.366 4.366a1.25 1.25 0 0 0 0 1.768l4.366 4.366H17.7C11.79 10.5 7 15.29 7 21.2 7 27.165 11.835 32 17.8 32h4.95a1.25 1.25 0 1 0 0-2.5H17.8a8.3 8.3 0 0 1-8.3-8.3 8.2 8.2 0 0 1 8.2-8.2h7.032l-4.366 4.366a1.25 1.25 0 0 0 1.768 1.768l6.5-6.5a1.25 1.25 0 0 0 0-1.768l-6.5-6.5a1.25 1.25 0 0 0-1.768 0" clip-rule="evenodd"/></symbol><symbol viewBox="0 0 36 36" version="1.1" xmlns="http://www.w3.org/2000/svg" xmlns:xlink="http://www.w3.org/1999/xlink" id="article_36"><g fill="none" fill-rule="evenodd"><path d="M0 0h36v36H0z"/><path fill="currentColor" d="M28 17H8a1 1 0 0 0 0 2h20a1 1 0 0 0 0-2m0-7H8a1 1 0 0 0 0 2h20a1 1 0 0 0 0-2M8 26h12a1 1 0 0 0 0-2H8a1 1 0 0 0 0 2"/></g></symbol><symbol xmlns="http://www.w3.org/2000/svg" fill="currentColor" viewBox="0 0 36 36" id="building_outline_36"><path fill-rule="evenodd" d="M18.202 3h6.596c.66 0 1.228 0 1.696.038.494.04.986.13 1.459.37a3.75 3.75 0 0 1 1.638 1.64c.241.473.33.964.37 1.458.04.468.039 1.037.039 1.696v19.596c0 .66 0 1.228-.038 1.696-.04.494-.13.986-.37 1.459a3.75 3.75 0 0 1-1.64 1.638c-.473.241-.964.33-1.458.37-.468.039-1.037.039-1.696.039H11.202c-.66 0-1.228 0-1.696-.038-.494-.04-.985-.13-1.458-.37a3.75 3.75 0 0 1-1.64-1.64c-.24-.473-.33-.964-.37-1.458C6 29.026 6 28.457 6 27.798V22.65c0-.539-.001-1.014.115-1.472a3.8 3.8 0 0 1 .499-1.133c.259-.396.61-.716 1.007-1.08l.081-.074 2-1.834.034-.03c.448-.412.837-.768 1.182-1.037.366-.287.76-.538 1.235-.684q.417-.126.847-.155V8.202c0-.66 0-1.228.038-1.696.04-.494.13-.985.37-1.458a3.75 3.75 0 0 1 1.64-1.64c.473-.24.964-.33 1.458-.37C16.974 3 17.543 3 18.202 3M22.5 30.5h-2v-7.851c0-.539.001-1.014-.115-1.472a3.8 3.8 0 0 0-.499-1.133c-.259-.396-.61-.716-1.007-1.08l-.081-.074-2-1.834-.034-.03a21 21 0 0 0-1.182-1.037l-.082-.064V8.25c0-.72.001-1.186.03-1.54.028-.34.075-.466.106-.527a1.25 1.25 0 0 1 .547-.547c.061-.031.187-.078.527-.106.354-.029.82-.03 1.54-.03h6.5c.72 0 1.186.001 1.54.03.34.028.466.075.527.106.236.12.427.311.547.547.031.061.078.187.106.527.029.354.03.82.03 1.54v19.5c0 .72-.001 1.186-.03 1.54-.028.34-.075.466-.106.527a1.25 1.25 0 0 1-.547.547c-.061.031-.187.078-.527.106-.311.026-.709.03-1.29.03v-1.46c0-.364 0-.546-.07-.685a.65.65 0 0 0-.285-.284C24.506 28 24.324 28 23.96 28h-.42c-.364 0-.546 0-.685.07a.65.65 0 0 0-.284.285c-.071.139-.071.321-.071.685zm-8.884-12.804a1.25 1.25 0 0 0-.732 0c-.064.02-.18.07-.426.262-.259.202-.575.49-1.066.941l-2 1.833c-.525.481-.622.582-.687.683a1.3 1.3 0 0 0-.167.377c-.029.116-.038.256-.038.968v4.99c0 .72.001 1.186.03 1.54.028.34.075.466.106.527.12.236.311.427.547.547.061.031.187.078.527.106.354.029.82.03 1.54.03H12v-2.96c0-.364 0-.546.07-.685a.65.65 0 0 1 .285-.284c.139-.071.321-.071.685-.071h.42c.364 0 .546 0 .685.07a.65.65 0 0 1 .284.285c.071.139.071.321.071.685v2.96H18v-7.74c0-.712-.009-.852-.038-.968a1.3 1.3 0 0 0-.166-.378c-.066-.1-.163-.2-.688-.682l-2-1.833c-.491-.45-.807-.739-1.066-.94-.246-.193-.362-.243-.426-.263M12 22.54c0-.364 0-.546.07-.685a.65.65 0 0 1 .285-.284c.139-.071.321-.071.685-.071h.42c.364 0 .546 0 .685.07a.65.65 0 0 1 .284.285c.071.139.071.321.071.685v.42c0 .364 0 .546-.07.685a.65.65 0 0 1-.285.284c-.139.071-.321.071-.685.071h-.42c-.364 0-.546 0-.685-.07a.65.65 0 0 1-.284-.285C12 23.506 12 23.324 12 22.96zm6.07-14.185c-.07.139-.07.321-.07.685v.42c0 .364 0 .546.07.685a.65.65 0 0 0 .285.284c.139.071.321.071.685.071h.42c.364 0 .546 0 .685-.07a.65.65 0 0 0 .284-.285c.071-.139.071-.321.071-.685v-.42c0-.364 0-.546-.07-.685a.65.65 0 0 0-.285-.284C20.006 8 19.824 8 19.46 8h-.42c-.364 0-.546 0-.685.07a.65.65 0 0 0-.284.285Zm4.43.685c0-.364 0-.546.07-.685a.65.65 0 0 1 .285-.284C22.994 8 23.176 8 23.54 8h.42c.364 0 .546 0 .685.07a.65.65 0 0 1 .284.285c.071.139.071.321.071.685v.42c0 .364 0 .546-.07.685a.65.65 0 0 1-.285.284c-.139.071-.321.071-.685.071h-.42c-.364 0-.546 0-.685-.07a.65.65 0 0 1-.284-.285c-.071-.139-.071-.321-.071-.685zm.07 4.315c-.07.139-.07.321-.07.685v.42c0 .364 0 .546.07.685a.65.65 0 0 0 .285.284c.139.071.321.071.685.071h.42c.364 0 .546 0 .685-.07a.65.65 0 0 0 .284-.285c.071-.139.071-.321.071-.685v-.42c0-.364 0-.546-.07-.685a.65.65 0 0 0-.285-.284C24.506 13 24.324 13 23.96 13h-.42c-.364 0-.546 0-.685.07a.65.65 0 0 0-.284.285Zm-.07 5.685c0-.364 0-.546.07-.685a.65.65 0 0 1 .285-.284c.139-.071.321-.071.685-.071h.42c.364 0 .546 0 .685.07a.65.65 0 0 1 .284.285c.071.139.071.321.071.685v.42c0 .364 0 .546-.07.685a.65.65 0 0 1-.285.284c-.139.071-.321.071-.685.071h-.42c-.364 0-.546 0-.685-.07a.65.65 0 0 1-.284-.285c-.071-.139-.071-.321-.071-.685zm.07 4.315c-.07.139-.07.321-.07.685v.42c0 .364 0 .546.07.685a.65.65 0 0 0 .285.284c.139.071.321.071.685.071h.42c.364 0 .546 0 .685-.07a.65.65 0 0 0 .284-.285c.071-.139.071-.321.071-.685v-.42c0-.364 0-.546-.07-.685a.65.65 0 0 0-.285-.284C24.506 23 24.324 23 23.96 23h-.42c-.364 0-.546 0-.685.07a.65.65 0 0 0-.284.285ZM18 14.04c0-.364 0-.546.07-.685a.65.65 0 0 1 .285-.284c.139-.071.321-.071.685-.071h.42c.364 0 .546 0 .685.07a.65.65 0 0 1 .284.285c.071.139.071.321.071.685v.42c0 .364 0 .546-.07.685a.65.65 0 0 1-.285.284c-.139.071-.321.071-.685.071h-.42c-.364 0-.546 0-.685-.07a.65.65 0 0 1-.284-.285C18 15.006 18 14.824 18 14.46z" clip-rule="evenodd"/></symbol><symbol xmlns="http://www.w3.org/2000/svg" fill="currentColor" viewBox="0 0 36 36" id="calendar_outline_36"><path fill-rule="evenodd" d="M10 2.58a1.25 1.25 0 1 1 2.5 0v1.458q.628-.03 1.395-.037L21.745 4c.657 0 1.238.013 1.755.038V2.58a1.25 1.25 0 1 1 2.5 0v1.762c.763.176 1.334.42 1.907.727a7.27 7.27 0 0 1 3.024 3.024c.609 1.137.97 2.267 1.051 4.907H32v2.5h-.001L32 21.744c0 3.567-.371 4.86-1.069 6.163a7.27 7.27 0 0 1-3.024 3.024l-.27.14c-1.223.607-2.572.929-5.893.929h-7.489l-.706-.005c-3.038-.048-4.243-.414-5.456-1.064a7.27 7.27 0 0 1-3.024-3.024l-.14-.27C4.322 26.414 4 25.065 4 21.744V13h.018c.082-2.64.442-3.77 1.05-4.907a7.27 7.27 0 0 1 3.025-3.024l.27-.14A7.2 7.2 0 0 1 10 4.342zm13.5 3.956V8.08a1.25 1.25 0 1 0 2.5 0V6.945c.255.092.49.201.728.328a4.77 4.77 0 0 1 1.999 1.999c.48.897.698 1.773.757 3.728H6.516c.053-1.775.238-2.661.632-3.481l.125-.247a4.77 4.77 0 0 1 1.999-1.999c.237-.127.473-.236.728-.328V8.08a1.25 1.25 0 1 0 2.5 0V6.536c.5-.025 1.076-.036 1.755-.036h7.813c.542.004 1.014.015 1.432.036m-17 15.208V15.5h23v6.244l-.004.632c-.03 2.402-.24 3.365-.77 4.352a4.77 4.77 0 0 1-1.998 1.999c-1.07.572-2.11.773-4.984.773h-7.812c-2.63-.016-3.632-.223-4.66-.773a4.77 4.77 0 0 1-1.999-1.999c-.572-1.07-.773-2.11-.773-4.984" clip-rule="evenodd"/></symbol><symbol fill="none" viewBox="0 0 36 36" xmlns="http://www.w3.org/2000/svg" id="camera_36"><g fill="currentColor"><path d="M23 19a5 5 0 1 1-10 0 5 5 0 0 1 10 0"/><path fill-rule="evenodd" d="M21.557 5c1.034 0 1.64.304 2.235 1.01l.307.382c.2.252.479.6.77.963.546.68 1.657 1.433 2.676 1.433h.682c3.273 0 4.773 2.02 4.773 5.387v10.438C33 27.588 30.558 30 27.546 30H8.455C5.442 30 3 27.588 3 24.613V14.175c0-3.367 1.5-5.387 4.773-5.387h.682c1.02 0 2.13-.753 2.676-1.433l1.077-1.346C12.802 5.304 13.408 5 14.443 5zM25 19a7 7 0 1 1-14 0 7 7 0 0 1 14 0" clip-rule="evenodd"/></g></symbol><symbol xmlns="http://www.w3.org/2000/svg" fill="currentColor" viewBox="0 0 36 36" id="camera_outline_36"><path fill-rule="evenodd" d="M16.073 4h3.854c.398 0 .691 0 .975.03a5.25 5.25 0 0 1 3.433 1.82c.185.217.35.46.573.79l.035.05.102.15c.102.15.127.187.15.218.312.41.788.662 1.302.69.038.002.084.002.265.002h.06c.395 0 .672 0 .917.02a5.75 5.75 0 0 1 5.24 5.24c.021.246.021.523.021.918v4.477c0 1.773 0 3.181-.093 4.316-.095 1.161-.293 2.147-.752 3.047a7.75 7.75 0 0 1-3.387 3.387c-.9.46-1.886.657-3.047.752-1.135.093-2.542.093-4.316.093h-6.81c-1.774 0-3.181 0-4.316-.093-1.161-.095-2.147-.293-3.047-.752a7.75 7.75 0 0 1-3.387-3.387c-.46-.9-.657-1.886-.752-3.047C3 21.586 3 20.178 3 18.405v-4.477c0-.395 0-.672.02-.917a5.75 5.75 0 0 1 5.24-5.24c.246-.021.523-.021.918-.021h.06c.182 0 .227 0 .265-.002a1.75 1.75 0 0 0 1.302-.69c.023-.03.048-.068.15-.218l.102-.15.034-.05c.224-.33.389-.573.574-.79a5.25 5.25 0 0 1 3.433-1.82c.284-.03.577-.03.975-.03m.062 2.5c-.486 0-.635.002-.767.016a2.75 2.75 0 0 0-1.799.953c-.086.101-.17.224-.444.626l-.116.171a7 7 0 0 1-.213.303 4.25 4.25 0 0 1-3.161 1.675c-.113.006-.228.006-.37.006h-.027c-.479 0-.64.001-.765.012a3.25 3.25 0 0 0-2.961 2.961c-.01.125-.012.286-.012.765v4.362c0 1.84.001 3.146.084 4.167.083 1.007.239 1.627.488 2.116a5.25 5.25 0 0 0 2.295 2.295c.49.25 1.109.405 2.116.488 1.02.083 2.326.084 4.167.084h6.7c1.84 0 3.146-.001 4.167-.084 1.007-.083 1.627-.239 2.117-.488a5.25 5.25 0 0 0 2.294-2.295c.25-.49.405-1.109.488-2.116.083-1.02.084-2.326.084-4.167v-4.362c0-.479-.001-.64-.012-.764a3.25 3.25 0 0 0-2.962-2.962c-.124-.01-.285-.012-.764-.012h-.027c-.142 0-.257 0-.37-.006a4.25 4.25 0 0 1-3.16-1.675 7 7 0 0 1-.214-.303l-.116-.171c-.273-.402-.358-.525-.445-.626a2.75 2.75 0 0 0-1.798-.953c-.132-.014-.281-.016-.767-.016zm1.865 8a3.5 3.5 0 1 0 0 7 3.5 3.5 0 0 0 0-7M12 18a6 6 0 1 1 12 0 6 6 0 0 1-12 0" clip-rule="evenodd"/></symbol><symbol viewBox="0 0 36 36" version="1.1" xmlns="http://www.w3.org/2000/svg" xmlns:xlink="http://www.w3.org/1999/xlink" id="cancel_36"><g fill="none" fill-rule="evenodd"><path d="M0 0h36v36H0z"/><path fill="currentColor" fill-rule="nonzero" d="m19.414 18 7.793 7.793a1 1 0 0 1-1.414 1.414L18 19.414l-7.793 7.793a1 1 0 1 1-1.414-1.414L16.586 18l-7.793-7.793a1 1 0 0 1 1.414-1.414L18 16.586l7.793-7.793a1 1 0 0 1 1.414 1.414z"/></g></symbol><symbol fill="none" viewBox="0 0 36 36" xmlns="http://www.w3.org/2000/svg" id="cancel_outline_36"><path fill="currentColor" fill-rule="evenodd" d="M7.366 7.366a1.25 1.25 0 0 1 1.768 0L18 16.232l8.866-8.866a1.25 1.25 0 0 1 1.768 1.768L19.768 18l8.866 8.866a1.25 1.25 0 0 1-1.768 1.768L18 19.768l-8.866 8.866a1.25 1.25 0 0 1-1.768-1.768L16.232 18 7.366 9.134a1.25 1.25 0 0 1 0-1.768" clip-rule="evenodd"/></symbol><symbol xmlns="http://www.w3.org/2000/svg" fill="none" viewBox="0 0 36 36" id="chain_outline_36"><path fill="currentColor" fill-rule="evenodd" d="M14.355 21.634a1.25 1.25 0 1 0 1.767-1.768c-1.55-1.549-1.49-4.193.153-5.834l6.34-6.336a4.09 4.09 0 0 1 5.78 0c1.531 1.53 1.47 3.754-.178 5.41l-1.83 1.738a1.25 1.25 0 1 0 1.721 1.812l1.843-1.75.011-.01.011-.012c2.51-2.508 2.822-6.326.189-8.957a6.59 6.59 0 0 0-9.313 0l-6.341 6.337c-2.526 2.523-2.77 6.754-.153 9.37m7.29-7.268a1.25 1.25 0 0 0-1.767 1.768c1.55 1.549 1.49 4.193-.153 5.834l-6.34 6.336a4.09 4.09 0 0 1-5.78 0c-1.531-1.53-1.47-3.754.178-5.41l1.83-1.738a1.25 1.25 0 0 0-1.721-1.812l-1.843 1.75-.011.01-.011.012c-2.51 2.508-2.822 6.326-.189 8.957a6.59 6.59 0 0 0 9.313 0l6.341-6.337c2.526-2.523 2.77-6.754.153-9.37" clip-rule="evenodd"/></symbol><symbol fill="none" viewBox="0 0 36 36" xmlns="http://www.w3.org/2000/svg" id="chevron_down_outline_36"><path fill="currentColor" d="M25.187 15.801a1.25 1.25 0 0 1 1.725 1.804l-.099.094-8 6.857a1.25 1.25 0 0 1-1.515.086l-.112-.086-8-6.857a1.25 1.25 0 0 1 1.52-1.981l.107.083L18 21.961z"/></symbol><symbol xmlns="http://www.w3.org/2000/svg" fill="currentColor" viewBox="0 0 36 36" id="chevron_left_outline_36"><path d="M22.884 7.116a1.25 1.25 0 0 1 0 1.768L13.768 18l9.116 9.116a1.25 1.25 0 0 1-1.768 1.768l-10-10a1.25 1.25 0 0 1 0-1.768l10-10a1.25 1.25 0 0 1 1.768 0"/></symbol><symbol xmlns="http://www.w3.org/2000/svg" fill="currentColor" viewBox="0 0 36 36" id="chevron_right_outline_36"><path d="M13.116 7.116a1.25 1.25 0 0 1 1.768 0l10 10a1.25 1.25 0 0 1 0 1.768l-10 10a1.25 1.25 0 0 1-1.768-1.768L22.232 18l-9.116-9.116a1.25 1.25 0 0 1 0-1.768"/></symbol><symbol xmlns="http://www.w3.org/2000/svg" fill="none" viewBox="0 0 36 36" id="clock_outline_36"><path fill="currentColor" fill-rule="evenodd" d="M17.25 11c.69 0 1.25.56 1.25 1.25v5.898l6.207 2.439a1.25 1.25 0 1 1-.914 2.326l-7-2.75A1.25 1.25 0 0 1 16 19v-6.75c0-.69.56-1.25 1.25-1.25" clip-rule="evenodd"/><path fill="currentColor" fill-rule="evenodd" d="M18 30.5c6.904 0 12.5-5.596 12.5-12.5S24.904 5.5 18 5.5 5.5 11.096 5.5 18 11.096 30.5 18 30.5m0 2.5c8.284 0 15-6.716 15-15S26.284 3 18 3 3 9.716 3 18s6.716 15 15 15" clip-rule="evenodd"/></symbol><symbol viewBox="0 0 36 36" xmlns="http://www.w3.org/2000/svg" id="coins_36"><g fill="none" fill-rule="evenodd"><path d="M0 0h36v36H0z" opacity=".1"/><path fill="currentColor" fill-rule="nonzero" d="M31.995 26.707C31.801 31.037 25.51 34 18 34c-7.63 0-14-3.058-14-7.5v-16C4 6.058 10.37 3 18 3c7.51 0 13.8 2.963 13.995 7.293L32 10.5v16zM18 18c-4.42 0-8.419-1.027-11-2.754V18.5c0 2.185 4.822 4.5 11 4.5s11-2.315 11-4.5v-3.255C26.42 16.973 22.422 18 18 18m0-12C11.822 6 7 8.315 7 10.5S11.822 15 18 15s11-2.315 11-4.5S24.178 6 18 6m11 17.245C26.42 24.973 22.422 26 18 26c-4.42 0-8.419-1.027-11-2.754V26.5l.005.12C7.175 28.768 11.935 31 18 31c6.178 0 11-2.315 11-4.5z"/></g></symbol><symbol fill="none" viewBox="0 0 36 36" xmlns="http://www.w3.org/2000/svg" id="coins_stack_high_outline_36"><path fill="currentColor" d="M26.995 26.176C26.835 29.03 22.802 31 18 31c-4.9 0-9-2.05-9-5V11l.005-.176C9.165 7.97 13.198 6 18 6c4.9 0 9 2.05 9 5v15zm-1.994-6.97C23.34 20.33 20.802 21 18 21c-2.8 0-5.339-.67-7-1.794V21c0 1.468 3.063 3 7 3s7-1.532 7-3zm0-5C23.34 15.33 20.802 16 18 16c-2.8 0-5.339-.67-7-1.794V16c0 1.468 3.063 3 7 3s7-1.532 7-3zM18 8c-3.937 0-7 1.532-7 3s3.063 3 7 3 7-1.532 7-3-3.063-3-7-3m7.002 16.206C23.34 25.33 20.8 26 18 26s-5.339-.67-7-1.794V26l.005.108C11.15 27.542 14.16 29 18 29c3.937 0 7-1.532 7-3z"/></symbol><symbol fill="none" viewBox="0 0 36 36" xmlns="http://www.w3.org/2000/svg" id="coins_stack_outline_36"><path fill="currentColor" d="M11.005 23.108C11.15 24.542 14.16 26 18 26c3.937 0 7-1.532 7-3l.002-1.794C23.34 22.33 20.8 23 18 23s-5.339-.67-7-1.794V23zm13.997-6.902C23.34 17.33 20.8 18 18 18s-5.339-.67-7-1.794V18c0 1.468 3.063 3 7 3s7-1.532 7-3zM18 10c-3.937 0-7 1.532-7 3s3.063 3 7 3 7-1.532 7-3-3.063-3-7-3m-9 3 .005-.176C9.165 9.97 13.198 8 18 8c4.9 0 9 2.05 9 5v10l-.005.176C26.835 26.03 22.802 28 18 28c-4.9 0-9-2.05-9-5z"/></symbol><symbol fill="none" viewBox="0 0 36 36" xmlns="http://www.w3.org/2000/svg" id="coins_stacks_2_outline_36"><path fill="currentColor" d="M23 6c4.802 0 8.836 1.969 8.995 4.824L32 11v15l-.005.176C31.835 29.03 27.802 31 23 31c-4.347 0-8.065-1.614-8.848-4.038Q13.586 27 13 27c-4.9 0-9-2.05-9-5V12l.005-.176C4.165 8.97 8.198 7 13 7c1.29 0 2.525.142 3.644.405C18.282 6.517 20.54 6 23 6m7.002 18.206C28.34 25.33 25.8 26 23 26s-5.339-.67-7-1.794V26l.005.108C16.15 27.542 19.16 29 23 29s6.85-1.458 6.995-2.892L30 26zM6 20.206V22l.005.108C6.15 23.542 9.16 25 13 25q.511 0 1-.033l.001-2.996q-.495.03-1.001.029c-2.8 0-5.339-.67-7-1.794m24.002-1C28.34 20.33 25.8 21 23 21s-5.339-.67-7-1.794V21c0 1.468 3.063 3 7 3 3.84 0 6.85-1.458 6.995-2.892L30 21zM6 15.206V17c0 1.468 3.063 3 7 3q.511 0 1-.033l.001-2.996q-.495.03-1.001.029c-2.8 0-5.339-.67-7-1.794m24.002-1C28.34 15.33 25.8 16 23 16s-5.339-.67-7-1.794V16c0 1.468 3.063 3 7 3 3.84 0 6.85-1.458 6.995-2.892L30 16zM13 9c-3.937 0-7 1.532-7 3s3.063 3 7 3q.511 0 1-.033V11l.005-.176c.035-.624.255-1.206.627-1.734C14.112 9.032 13.565 9 13 9m10-1c-3.937 0-7 1.532-7 3s3.063 3 7 3 7-1.532 7-3-3.063-3-7-3"/></symbol><symbol fill="none" viewBox="0 0 36 36" xmlns="http://www.w3.org/2000/svg" id="coins_stacks_3_outline_36"><path fill="currentColor" d="M18 3c3.795 0 7 1.602 7 4v4.038c3.257.248 5.864 1.702 5.995 3.796L31 15v12l-.005.166C30.85 29.471 27.707 31 24 31c-3.363 0-6.263-1.259-6.88-3.214C15.832 28.556 13.997 29 12 29c-3.707 0-6.85-1.529-6.995-3.834L5 25v-8l.005-.166c.131-2.095 2.739-3.548 5.995-3.796V7l.005-.166C11.15 4.529 14.293 3 18 3m11 22.856C27.72 26.583 25.937 27 24 27s-3.718-.417-5-1.143V27l.006.086C19.136 27.983 21.256 29 24 29s4.864-1.017 4.994-1.914L29 27zm-12-2C15.72 24.583 13.937 25 12 25s-3.718-.417-5-1.143V25l.006.086C7.136 25.983 9.256 27 12 27s4.864-1.017 4.994-1.914L17 25zm12-2C27.72 22.583 25.937 23 24 23s-3.718-.417-5-1.143V23c0 .916 2.168 2 5 2 2.744 0 4.864-1.017 4.994-1.914L29 23zm-12-2C15.72 20.583 13.937 21 12 21s-3.718-.417-5-1.143V21c0 .916 2.168 2 5 2 2.744 0 4.864-1.017 4.994-1.914L17 21zm12-2C27.72 18.583 25.937 19 24 19s-3.718-.417-5-1.143V19c0 .916 2.168 2 5 2 2.744 0 4.864-1.017 4.994-1.914L29 19zM12 15c-2.832 0-5 1.084-5 2s2.168 2 5 2 5-1.084 5-2-2.168-2-5-2m12-2c-2.832 0-5 1.084-5 2s2.168 2 5 2 5-1.084 5-2-2.168-2-5-2m-1-3.144C21.72 10.583 19.937 11 18 11s-3.718-.417-5-1.144V11c0 .916 2.168 2 5 2l-.13-.002c1.048-1.083 2.941-1.793 5.127-1.96L23 11zM18 5c-2.832 0-5 1.084-5 2s2.168 2 5 2 5-1.084 5-2-2.168-2-5-2"/></symbol><symbol xmlns="http://www.w3.org/2000/svg" fill="currentColor" viewBox="0 0 36 36" id="compass_36"><path d="M19.414 19.414a2 2 0 1 1-2.828-2.828 2 2 0 0 1 2.828 2.828"/><path fill-rule="evenodd" d="M7.393 28.607c5.858 5.858 15.356 5.858 21.214 0s5.858-15.356 0-21.214-15.356-5.857-21.214 0-5.857 15.356 0 21.214m8.11-15.286 8.598-2.15a.6.6 0 0 1 .727.728l-2.149 8.597a3 3 0 0 1-2.183 2.183L11.9 24.83a.6.6 0 0 1-.727-.728l2.149-8.597a3 3 0 0 1 2.183-2.183Z" clip-rule="evenodd"/></symbol><symbol viewBox="0 0 36 36" version="1.1" xmlns="http://www.w3.org/2000/svg" xmlns:xlink="http://www.w3.org/1999/xlink" id="delete_36"><g fill="none" fill-rule="evenodd"><path d="M0 0h36v36H0z"/><path fill="currentColor" d="M13.433 4a3.75 3.75 0 0 1 3.317-2h2.5a3.75 3.75 0 0 1 3.317 2H28.5A1.5 1.5 0 0 1 30 5.5v1.125a.375.375 0 0 1-.375.375H6.375A.375.375 0 0 1 6 6.625V5.5A1.5 1.5 0 0 1 7.5 4zM7.5 9h21l-1.693 20.558A3.75 3.75 0 0 1 23.07 33H12.93a3.75 3.75 0 0 1-3.737-3.442zm16.184 3.027a1 1 0 0 0-1.075.918l-1.216 15.453a1 1 0 1 0 1.994.157l1.216-15.453a1 1 0 0 0-.919-1.075M18 12a1 1 0 0 0-1 1v15.5a1 1 0 0 0 2 0V13a1 1 0 0 0-1-1m-5.689.027a1 1 0 0 0-.918 1.075l1.216 15.453a1 1 0 0 0 1.994-.157l-1.216-15.453a1 1 0 0 0-1.076-.918"/></g></symbol><symbol fill="none" viewBox="0 0 36 36" xmlns="http://www.w3.org/2000/svg" id="diamond_outline_36"><path fill="currentColor" d="M4 14.965v-.012l.006-.06.002-.023a1 1 0 0 1 .023-.116l.004-.016.004-.017q.017-.058.042-.115l-.033.086a1 1 0 0 1 .137-.272l.01-.014.013-.016 4.484-5.981a1 1 0 0 1 .158-.17l.03-.024a1 1 0 0 1 .124-.083l-.08.05.067-.043.013-.007 3.5-2A1 1 0 0 1 13 6h10a1 1 0 0 1 .496.132l3.5 2a1 1 0 0 1 .12.08l.044.036q.085.075.148.16L31.8 14.4l.011.015a1 1 0 0 1 .108.191l-.045-.093.033.065.016.037a1 1 0 0 1 .036.1l.004.014.003.01a1 1 0 0 1 .02.088v.01a1 1 0 0 1 .012.102l.001.014a1 1 0 0 1-.007.172l-.005.035-.003.02-.016.07-.004.017-.007.022-.022.067-.006.015-.012.028-.03.065-.02.035-.018.03-.005.008q-.039.06-.088.118l.07-.09a1 1 0 0 1-.08.101l-12.97 14.967a1 1 0 0 1-.29.243l-.024.011-.012.006a1 1 0 0 1-.093.042l-.02.007a1 1 0 0 1-.091.028l-.023.005a1 1 0 0 1-.092.017q-.015 0-.028.003a1 1 0 0 1-.326-.02l-.023-.005a1 1 0 0 1-.087-.026l-.028-.01a.96.96 0 0 1-.41-.295L4.245 15.655a.4.4 0 0 1-.045-.056l-.028-.04-.003-.004-.009-.013-.026-.043-.015-.028-.008-.015-.004-.007a1 1 0 0 1-.048-.111l-.004-.014a1 1 0 0 1-.033-.118l-.003-.015-.012-.085-.002-.017L4 15.01v-.023zM22.38 19h-8.762L18 27.764zm5.014-1.367-2.664 1.142-2.284 4.568zm-18.79 0 4.948 5.708-2.283-4.567zM22.133 12h-8.266l-.714 5h9.694zM9.77 10.306l-3.206 4.276 4.63 1.985.72-5.036zm16.46 0-2.144 1.225.719 5.035 4.63-1.985zM22.734 8h-9.468l-1.75 1 1.75 1h9.468l1.75-1z"/></symbol><symbol fill="none" viewBox="0 0 36 36" xmlns="http://www.w3.org/2000/svg" id="discount_outline_36"><g fill="currentColor"><path d="M22.832 12.555a1 1 0 0 0-1.664-1.11l-8 12a1 1 0 1 0 1.664 1.11z"/><g fill-rule="evenodd" clip-rule="evenodd"><path d="M19.5 21.25a2.75 2.75 0 1 1 5.5 0v1a2.75 2.75 0 1 1-5.5 0zm2.75-.75a.75.75 0 0 0-.75.75v1a.75.75 0 0 0 1.5 0v-1a.75.75 0 0 0-.75-.75M13.75 11A2.75 2.75 0 0 0 11 13.75v1a2.75 2.75 0 1 0 5.5 0v-1A2.75 2.75 0 0 0 13.75 11M13 13.75a.75.75 0 0 1 1.5 0v1a.75.75 0 0 1-1.5 0z"/><path d="M20.917 4.249a4.095 4.095 0 0 0-5.89 0l-.967 1a1.56 1.56 0 0 1-1.287.47l-1.379-.145a4.1 4.1 0 0 0-4.517 3.79l-.097 1.384c-.034.48-.286.916-.685 1.185l-1.154.779a4.095 4.095 0 0 0-1.022 5.8l.817 1.127c.283.389.37.886.238 1.348l-.383 1.338a4.095 4.095 0 0 0 2.945 5.1l1.35.338c.467.116.853.441 1.05.88l.566 1.272a4.095 4.095 0 0 0 5.534 2.014l1.252-.61c.432-.21.937-.21 1.369 0l1.251.61a4.095 4.095 0 0 0 5.535-2.014l.566-1.272a1.56 1.56 0 0 1 1.049-.88l1.35-.337a4.095 4.095 0 0 0 2.945-5.1l-.383-1.339a1.56 1.56 0 0 1 .238-1.348l.818-1.127a4.095 4.095 0 0 0-1.023-5.8l-1.154-.779a1.56 1.56 0 0 1-.684-1.185l-.098-1.39a4.095 4.095 0 0 0-4.512-3.785l-1.384.145a1.56 1.56 0 0 1-1.287-.468zm-4.092 1.737a1.595 1.595 0 0 1 2.294 0l.967 1.001a4.06 4.06 0 0 0 3.345 1.218l1.385-.146a1.595 1.595 0 0 1 1.757 1.475l.098 1.389a4.06 4.06 0 0 0 1.78 3.082l1.153.78c.748.504.929 1.528.399 2.258l-.818 1.127a4.06 4.06 0 0 0-.618 3.505l.383 1.339A1.595 1.595 0 0 1 27.803 25l-1.35.338a4.06 4.06 0 0 0-2.727 2.288l-.567 1.271a1.595 1.595 0 0 1-2.156.785l-1.251-.61a4.06 4.06 0 0 0-3.56 0l-1.251.61a1.595 1.595 0 0 1-2.156-.785l-.566-1.271a4.06 4.06 0 0 0-2.727-2.288L8.142 25a1.595 1.595 0 0 1-1.148-1.986l.384-1.339a4.06 4.06 0 0 0-.619-3.505l-.818-1.127c-.53-.73-.35-1.754.399-2.259l1.154-.779a4.06 4.06 0 0 0 1.78-3.082l.097-1.384a1.6 1.6 0 0 1 1.762-1.479l1.38.145a4.06 4.06 0 0 0 3.345-1.218z"/></g></g></symbol><symbol fill="none" viewBox="0 0 36 36" xmlns="http://www.w3.org/2000/svg" id="document_36"><path fill="currentColor" fill-rule="evenodd" d="M22.948 3.653a3.9 3.9 0 0 0-1.227-.508c-.445-.103-.847-.145-2.01-.145H11.77c-2.006 0-2.734.209-3.467.601a4.1 4.1 0 0 0-1.701 1.701C6.209 6.035 6 6.762 6 8.77V25.73c0 2.006.209 2.734.601 3.467s.968 1.309 1.701 1.701 1.46.601 3.467.601H25.73c2.006 0 2.734-.209 3.467-.601a4.1 4.1 0 0 0 1.701-1.701c.392-.733.601-1.46.601-3.467V14.788c0-1.162-.042-1.564-.145-2.01s-.266-.839-.508-1.226-.497-.702-1.319-1.524l-5.056-5.056c-.822-.822-1.136-1.077-1.524-1.319m-2.096 2.511A.5.5 0 0 0 20 6.52V12.5a.5.5 0 0 0 .5.5h6.035a.5.5 0 0 0 .352-.855z" clip-rule="evenodd"/></symbol><symbol viewBox="0 0 36 36" version="1.1" xmlns="http://www.w3.org/2000/svg" xmlns:xlink="http://www.w3.org/1999/xlink" id="done_36"><g fill="none" fill-rule="evenodd"><path d="M0 0h36v36H0z"/><path fill="currentColor" fill-rule="nonzero" d="m13.535 24.914-6.474-6.475a1.5 1.5 0 0 0-2.122 2.122l7.538 7.537a1.5 1.5 0 0 0 2.123-.002l17.213-17.288a1.5 1.5 0 1 0-2.126-2.116z"/></g></symbol><symbol fill="none" viewBox="0 0 36 36" xmlns="http://www.w3.org/2000/svg" id="done_outline_36"><path fill="currentColor" fill-rule="evenodd" d="M31.634 8.367a1.254 1.254 0 0 1 0 1.77L14.61 27.19l-.007.007c-.03.03-.096.096-.163.153-.084.072-.25.2-.492.279a1.45 1.45 0 0 1-1.388-.28 3 3 0 0 1-.163-.152l-.007-.007-7.024-7.036a1.254 1.254 0 0 1 0-1.77 1.25 1.25 0 0 1 1.768 0L13.5 24.76 29.866 8.367a1.25 1.25 0 0 1 1.768 0" clip-rule="evenodd"/></symbol><symbol xmlns="http://www.w3.org/2000/svg" fill="currentColor" viewBox="0 0 36 36" id="favorite_36"><path d="m23.054 12.779 6.69.633c2.329.22 3.043 2.464 1.245 3.938l-5.238 4.296 1.944 6.997c.64 2.298-1.342 3.69-3.327 2.307l-6.365-4.436-6.365 4.436c-1.977 1.377-3.966-.008-3.327-2.307l1.944-6.997-5.238-4.296c-1.805-1.48-1.094-3.717 1.244-3.938l6.69-.633 2.947-6.705c.923-2.1 3.287-2.098 4.21 0z"/></symbol><symbol xmlns="http://www.w3.org/2000/svg" fill="currentColor" viewBox="0 0 36 36" id="favorite_outline_36"><path fill-rule="evenodd" d="M18.832 7.04c-.307-.74-1.357-.74-1.664 0l-2.42 5.851a1.35 1.35 0 0 1-1.161.831l-6.188.4c-.801.051-1.139 1.046-.535 1.575l4.9 4.287c.378.33.541.844.423 1.333l-1.394 5.778c-.186.768.64 1.386 1.324.99l5.208-3.004a1.35 1.35 0 0 1 1.35 0l5.208 3.004c.685.396 1.51-.222 1.324-.99l-1.394-5.778a1.35 1.35 0 0 1 .423-1.333l4.9-4.287c.604-.529.266-1.524-.535-1.576l-6.188-.399a1.35 1.35 0 0 1-1.16-.83zm-4.159-1.032c1.227-2.965 5.427-2.965 6.653 0l2.1 5.074 5.349.345c3.204.207 4.555 4.187 2.139 6.302l-4.285 3.749 1.203 4.983c.742 3.075-2.558 5.544-5.299 3.963L18 27.809l-4.534 2.615c-2.74 1.581-6.04-.888-5.298-3.963l1.203-4.983-4.285-3.75c-2.416-2.114-1.065-6.094 2.14-6.3l5.348-.346 2.1-5.074Z" clip-rule="evenodd"/></symbol><symbol fill="none" viewBox="0 0 36 36" xmlns="http://www.w3.org/2000/svg" id="game_outline_36"><g fill="currentColor"><path d="M11.286 13.286a1.25 1.25 0 0 1 2.5 0v1.5h1.5a1.25 1.25 0 1 1 0 2.5h-1.5v1.5a1.25 1.25 0 1 1-2.5 0v-1.5h-1.5a1.25 1.25 0 1 1 0-2.5h1.5zM19.466 16.036c0-.233 0-.349.019-.445a1 1 0 0 1 .786-.786c.096-.02.212-.02.445-.02s.348 0 .445.02a1 1 0 0 1 .785.786c.02.096.02.212.02.445s0 .348-.02.445a1 1 0 0 1-.785.785c-.097.02-.213.02-.445.02s-.349 0-.445-.02a1 1 0 0 1-.786-.785c-.02-.097-.02-.213-.02-.445M24.485 15.59c-.02.097-.02.213-.02.446s0 .348.02.445a1 1 0 0 0 .786.785c.096.02.212.02.445.02s.348 0 .445-.02a1 1 0 0 0 .785-.785c.02-.097.02-.213.02-.445s0-.349-.02-.445a1 1 0 0 0-.785-.786c-.097-.02-.213-.02-.445-.02s-.349 0-.445.02a1 1 0 0 0-.786.786M21.966 13.536c0-.233 0-.349.019-.445a1 1 0 0 1 .786-.786c.096-.02.212-.02.445-.02s.348 0 .445.02a1 1 0 0 1 .785.786c.02.096.02.212.02.445s0 .348-.02.445a1 1 0 0 1-.785.786c-.097.019-.213.019-.445.019s-.349 0-.445-.02a1 1 0 0 1-.786-.785c-.02-.097-.02-.213-.02-.445M21.985 18.09c-.02.097-.02.213-.02.446s0 .348.02.445a1 1 0 0 0 .786.785c.096.02.212.02.445.02s.348 0 .445-.02a1 1 0 0 0 .785-.785c.02-.097.02-.213.02-.445s0-.349-.02-.445a1 1 0 0 0-.785-.786c-.097-.02-.213-.02-.445-.02s-.349 0-.445.02a1 1 0 0 0-.786.786"/><path fill-rule="evenodd" d="M14.036 6h7.93c4.825 0 8.078 2.077 9.877 5.673 1.236 2.473 1.658 5.249 1.658 8.434 0 5.489-2.172 8.964-5.75 8.964-1.93 0-3.108-.77-4.842-2.615l-.533-.567c-1.406-1.466-2.24-1.86-3.625-1.86H17.25c-1.45 0-2.297.442-3.83 2.076l-.55.585c-1.615 1.677-2.773 2.381-4.62 2.381-3.578 0-5.75-3.475-5.75-8.964 0-3.185.423-5.961 1.659-8.434C5.957 8.077 9.21 6 14.036 6m7.93 2.536h-7.93C7.247 8.536 5 13.03 5 20.143c0 4.283 1.363 6.464 3.25 6.464 1.04 0 1.723-.446 3.02-1.827l.56-.595c1.841-1.917 3.186-2.62 5.42-2.62h1.501c2.327 0 3.69.771 5.653 2.866l.517.549c1.177 1.224 1.842 1.627 2.83 1.627 1.887 0 3.25-2.181 3.25-6.464 0-7.113-2.247-11.607-9.035-11.607" clip-rule="evenodd"/></g></symbol><symbol xmlns="http://www.w3.org/2000/svg" fill="currentColor" viewBox="0 0 36 36" id="ghost_simple_outline_36"><path d="M16 17a2 2 0 1 0 0-4 2 2 0 0 0 0 4m10-2a2 2 0 1 1-4 0 2 2 0 0 1 4 0"/><path fill-rule="evenodd" d="M4 15.95V26.2c0 2.266.858 3.963 2.324 4.849 1.426.86 3.161.787 4.582.086.767-.379.927-.442 1.22-.466.27-.023.606.033.854.143.22.097.294.146.323.167.032.023.057.045.193.182.989 1 2.433 1.84 4.504 1.84 2.055 0 3.498-.82 4.49-1.802.146-.144.18-.174.22-.202.033-.024.107-.072.32-.165.249-.109.569-.162.84-.14.287.023.454.088 1.241.469 1.42.686 3.151.75 4.572-.114C31.143 30.159 32 28.464 32 26.2V15.906C31.72 8.094 24.524 3 18 3S4.28 8.094 4 15.906zm2.5.024V26.2c0 1.631.585 2.388 1.116 2.709.573.345 1.389.376 2.184-.016l.086-.042c.664-.328 1.226-.606 2.032-.674a4.4 4.4 0 0 1 2.072.348c.3.133.55.263.777.427.214.155.373.316.489.433l.018.018C15.864 30 16.693 30.5 18 30.5c1.308 0 2.14-.492 2.733-1.078l.019-.019c.122-.121.285-.282.497-.435.23-.166.48-.296.781-.428a4.35 4.35 0 0 1 2.042-.34c.794.065 1.363.34 2.036.666l.09.044c.796.384 1.612.35 2.186 0 .532-.323 1.116-1.08 1.116-2.71V15.973C29.266 9.796 23.469 5.5 18 5.5S6.734 9.797 6.5 15.974" clip-rule="evenodd"/></symbol><symbol viewBox="0 0 36 36" fill="none" xmlns="http://www.w3.org/2000/svg" id="gift_36"><path fill="currentColor" d="M19.61 10.95c7.008-.571 8.716-5.74 6.45-8.007-2.375-2.374-7.938-.402-8.058 7.472C17.88 2.541 12.318.57 9.943 2.943c-2.323 2.324-.485 7.7 6.973 8.044l-.64.013H9a4 4 0 0 0-4 4v2.25a2 2 0 0 0 2 2h22a2 2 0 0 0 2-2V15a4 4 0 0 0-4-4h-8.445q.315-.005.62-.02c1.918-.038 1.488-.04.434-.03M16.75 21.75H8V29a3 3 0 0 0 3 3h5.75zM19.25 21.75H28V29a3 3 0 0 1-3 3h-5.75z"/></symbol><symbol xmlns="http://www.w3.org/2000/svg" fill="none" viewBox="0 0 36 36" id="gift_circe_filled_36"><circle cx="18" cy="18" r="18" fill="url(#m51992519a)"/><path fill="#fff" d="M16.436 7.693c.629.426 1.156 1.017 1.565 1.756.408-.74.935-1.33 1.564-1.756 1.49-1.01 3.376-.902 4.51.232 1.135 1.135 1.242 3.02.233 4.51a4.6 4.6 0 0 1-.453.565H25c.799 0 1.51.178 2.102.504a3.5 3.5 0 0 1 1.393 1.394C28.822 15.49 29 16.2 29 17v.429c0 1.007-.14 1.547-.4 2.036a2.73 2.73 0 0 1-1.135 1.134 3 3 0 0 1-.463.201L27 23.872c0 1.783-.186 2.43-.534 3.081a3.64 3.64 0 0 1-1.512 1.512c-.652.349-1.299.535-3.082.535h-7.744c-1.783 0-2.43-.186-3.082-.535a3.64 3.64 0 0 1-1.512-1.512C9.186 26.301 9 25.655 9 23.872V20.8a3 3 0 0 1-.465-.201A2.73 2.73 0 0 1 7.4 19.465c-.24-.448-.377-.94-.398-1.794L7 17c0-.8.178-1.51.505-2.102.326-.593.8-1.067 1.393-1.394S10.201 13 11 13l1.146.001a4.6 4.6 0 0 1-.453-.565c-1.01-1.49-.902-3.375.233-4.51 1.134-1.134 3.02-1.242 4.51-.232ZM17 20.999h-6v2.873c0 1.323.078 1.727.298 2.138.162.303.388.53.691.692.412.22.815.297 2.139.297H17zm2 0v6h2.872c1.324 0 1.727-.077 2.139-.297.303-.163.529-.389.691-.692.22-.411.298-.815.298-2.138V21zm-2-6h-6c-.458 0-.84.093-1.137.257a1.5 1.5 0 0 0-.607.606C9.092 16.16 9 16.542 9 17l.002.609c.009.506.06.722.162.913a.73.73 0 0 0 .314.313c.21.113.45.163 1.075.165L17 18.998zm8 0h-6v4h6.446l.163-.001c.506-.01.722-.06.913-.163a.73.73 0 0 0 .314-.313c.102-.191.153-.407.163-.913l.001-.61c0-.458-.093-.839-.256-1.137a1.5 1.5 0 0 0-.607-.606c-.298-.164-.679-.257-1.137-.257m-6-2c3.65-.35 4.695-2.704 3.7-3.7-.995-.995-3.35.05-3.7 3.7m-5.699-3.7c-.995.996.05 3.35 3.7 3.7-.35-3.65-2.705-4.695-3.7-3.7"/><defs><linearGradient id="m51992519a" x1="-18" x2="18" y1="18" y2="54" gradientUnits="userSpaceOnUse"><stop stop-color="#928FFF"/><stop offset="1" stop-color="#4B47B2"/></linearGradient></defs></symbol><symbol xmlns="http://www.w3.org/2000/svg" fill="currentColor" viewBox="0 0 36 36" id="gift_outline_36"><path fill-rule="evenodd" d="M12.008 8.823c.655.925 2.092 1.916 4.733 2.164-.248-2.641-1.239-4.079-2.163-4.734-1.101-.78-2.154-.563-2.644-.073s-.706 1.543.074 2.643m-1.842-4.411c1.51-1.51 3.957-1.544 5.857-.199.767.544 1.442 1.298 1.977 2.261.535-.963 1.21-1.717 1.977-2.26 1.9-1.346 4.347-1.312 5.857.198s1.544 3.957.198 5.856q-.27.383-.61.732h1.328c.984 0 1.92.22 2.733.675a4.76 4.76 0 0 1 1.842 1.842c.454.813.675 1.749.675 2.733v.521c0 1.101-.123 1.913-.534 2.683a3.65 3.65 0 0 1-1.47 1.488v.657c0 3.64 0 5.459-.707 6.849a6.5 6.5 0 0 1-2.84 2.84c-1.39.708-3.21.708-6.85.708h-3.205c-3.64 0-5.459 0-6.849-.708a6.5 6.5 0 0 1-2.84-2.84c-.708-1.39-.708-3.21-.708-6.85v-.66a3.65 3.65 0 0 1-1.463-1.484C4.123 18.684 4 17.872 4 16.77v-.521c0-.984.22-1.92.675-2.733a4.76 4.76 0 0 1 1.842-1.842C7.33 11.221 8.266 11 9.25 11h1.328a6 6 0 0 1-.61-.732c-1.346-1.899-1.312-4.346.198-5.856m13.826 4.411c-.655.925-2.092 1.916-4.733 2.164.248-2.641 1.239-4.079 2.163-4.734 1.101-.78 2.154-.563 2.644-.073s.706 1.543-.074 2.643M9.25 13.5h7.494V19H8.626c-.842-.008-1.163-.111-1.4-.239a1.15 1.15 0 0 1-.487-.486c-.133-.248-.239-.584-.239-1.503v-.522c0-.611.136-1.117.357-1.513a2.27 2.27 0 0 1 .88-.88c.396-.22.902-.357 1.513-.357m9.994 0V19h8.13c.843-.008 1.163-.111 1.4-.239.214-.114.373-.273.487-.486.133-.248.239-.584.239-1.503v-.522c0-.611-.136-1.117-.357-1.513a2.26 2.26 0 0 0-.88-.88c-.396-.22-.902-.357-1.513-.357zm-10.515 8h8.015v7.996h-.35c-1.86 0-3.106-.002-4.064-.08-.93-.076-1.366-.211-1.65-.356a4 4 0 0 1-1.747-1.747c-.145-.284-.28-.72-.356-1.65-.078-.958-.08-2.203-.08-4.064v-.1h.117zm10.515 0v7.996h.356c1.86 0 3.106-.002 4.064-.08.93-.076 1.366-.211 1.65-.356a4 4 0 0 0 1.747-1.747c.145-.284.28-.72.356-1.65.078-.958.08-2.203.08-4.064v-.1h-.111l-.114.001z" clip-rule="evenodd"/></symbol><symbol xmlns="http://www.w3.org/2000/svg" fill="currentColor" viewBox="0 0 36 36" id="hashtag_outline_36"><path fill-rule="evenodd" d="M15.65 3.031a1.25 1.25 0 0 1 .98 1.47l-1.4 7h8.14l1.498-7.49a1.25 1.25 0 0 1 2.452.491l-1.4 7h2.822a1.25 1.25 0 0 1 0 2.5H25.42L23.82 22h2.927a1.25 1.25 0 0 1 0 2.5H23.32l-1.5 7.502a1.25 1.25 0 0 1-2.452-.49L20.77 24.5h-8.138l-1.501 7.505a1.25 1.25 0 1 1-2.451-.49l1.4-7.015H7.25a1.25 1.25 0 1 1 0-2.5h3.332l1.6-7.999h-2.94a1.25 1.25 0 1 1 0-2.5h3.44l1.497-7.49a1.25 1.25 0 0 1 1.471-.98M21.27 22l1.6-7.999h-8.14L13.132 22h8.139Z" clip-rule="evenodd"/></symbol><symbol fill="none" viewBox="0 0 36 36" xmlns="http://www.w3.org/2000/svg" id="health_outline_36"><g fill="currentColor" fill-rule="evenodd" clip-rule="evenodd"><path d="M7.393 7.393C10.107 4.68 13.858 3 18 3s7.894 1.68 10.607 4.393S33 13.858 33 18s-1.68 7.894-4.393 10.607S22.142 33 18 33s-7.893-1.68-10.607-4.393S3 22.142 3 18s1.68-7.893 4.393-10.607M18 5.5c-3.452 0-6.575 1.398-8.839 3.661S5.5 14.548 5.5 18s1.398 6.575 3.661 8.839C11.425 29.102 14.548 30.5 18 30.5s6.575-1.398 8.839-3.661C29.102 24.575 30.5 21.452 30.5 18s-1.398-6.575-3.661-8.839A12.46 12.46 0 0 0 18 5.5"/><path d="M9.75 16.356c0-2.75 2.245-4.956 4.969-4.956 1.239 0 2.334.432 3.275 1.203.938-.774 2.038-1.203 3.287-1.203 2.724 0 4.969 2.207 4.969 4.956 0 1.432-.387 2.564-1.306 3.706-.844 1.05-2.151 2.118-3.91 3.5l-.004.003-1.818 1.418a1.97 1.97 0 0 1-2.424 0l-1.818-1.418-.004-.003c-1.759-1.382-3.066-2.45-3.91-3.5-.92-1.142-1.306-2.274-1.306-3.706m4.969-2.456a2.467 2.467 0 0 0-2.469 2.456c0 .87.197 1.447.754 2.14.631.784 1.693 1.676 3.505 3.1h.001L18 22.759l1.49-1.161.002-.002c1.811-1.423 2.873-2.315 3.504-3.1.557-.692.754-1.27.754-2.14a2.467 2.467 0 0 0-2.469-2.455c-.819 0-1.575.348-2.306 1.26a1.25 1.25 0 0 1-1.942.009c-.757-.924-1.519-1.269-2.314-1.269"/></g></symbol><symbol xmlns="http://www.w3.org/2000/svg" fill="currentColor" viewBox="0 0 36 36" id="heart_unlock_36"><path fill-rule="evenodd" d="M23.622 12c-2.115 0-3.999.928-5.622 2.715-1.33-1.464-2.835-2.352-4.5-2.625v-1.84c0-2.619 2.133-4.75 4.774-4.75a4.78 4.78 0 0 1 4.341 2.77 1.25 1.25 0 1 0 2.27-1.048A7.28 7.28 0 0 0 18.274 3C14.261 3 11 6.241 11 10.25v1.874l-.11.02C7.53 12.81 5 15.683 5 19.126c0 3.945 1.633 5.92 8.47 11.055l3.142 2.36c.816.613 1.96.613 2.776 0l3.141-2.36C29.366 25.044 31 23.07 31 19.125 31 15.19 27.697 12 23.622 12m-4.372 8.25a1.25 1.25 0 1 0-2.5 0v2.5a1.25 1.25 0 1 0 2.5 0z" clip-rule="evenodd"/></symbol><symbol xmlns="http://www.w3.org/2000/svg" fill="currentColor" viewBox="0 0 36 36" id="hearts_2_outline_36"><path fill-rule="evenodd" d="M3 20.54C3 16.907 5.998 14 9.645 14c1.872 0 3.492.82 4.855 2.257C15.864 14.82 17.483 14 19.355 14 23.002 14 26 16.906 26 20.54c0 1.926-.529 3.443-1.791 4.993-1.191 1.461-3.049 2.965-5.639 4.94l-2.712 2.07c-.8.61-1.915.61-2.715 0l-2.713-2.07c-2.59-1.975-4.447-3.479-5.638-4.94C3.529 23.983 3 22.466 3 20.54m6.645-4.04c-2.312 0-4.145 1.832-4.145 4.04 0 1.348.33 2.308 1.23 3.414.972 1.193 2.584 2.523 5.216 4.531l2.554 1.948 2.554-1.948c2.633-2.008 4.244-3.338 5.216-4.531.901-1.106 1.23-2.066 1.23-3.413 0-2.209-1.832-4.041-4.145-4.041-1.254 0-2.481.627-3.685 2.247a1.458 1.458 0 0 1-2.34 0c-1.203-1.62-2.43-2.247-3.685-2.247" clip-rule="evenodd"/><path fill-rule="evenodd" d="M11 10.06C11 6.638 13.935 4 17.382 4c1.77 0 3.312.738 4.618 2.042C23.306 4.738 24.848 4 26.618 4 30.065 4 33 6.638 33 10.06c0 1.273-.26 2.39-.904 3.48-.622 1.052-1.562 2.009-2.793 3.04a1.25 1.25 0 1 1-1.605-1.917c1.154-.966 1.839-1.707 2.245-2.396.385-.65.557-1.315.557-2.207 0-1.891-1.66-3.56-3.882-3.56-1.19 0-2.342.567-3.468 2.013a1.46 1.46 0 0 1-2.3 0C19.724 7.067 18.573 6.5 17.382 6.5c-2.222 0-3.882 1.669-3.882 3.56q0 .235.016.448a1.25 1.25 0 0 1-2.493.187A9 9 0 0 1 11 10.06" clip-rule="evenodd"/></symbol><symbol xmlns="http://www.w3.org/2000/svg" fill="none" viewBox="0 0 36 36" id="help_outline_36"><path fill="currentColor" d="M18 11.5c-1.18 0-2.064.687-2.29 1.562a1.25 1.25 0 1 1-2.42-.624C13.848 10.268 15.89 9 18 9c2.56 0 4.75 1.872 4.75 4.588 0 1.001-.254 1.805-.668 2.483-.392.643-.907 1.13-1.312 1.51l-.024.022c-.828.776-1.359 1.274-1.509 2.324a1.25 1.25 0 1 1-2.475-.354c.276-1.932 1.387-2.967 2.182-3.707l.117-.109c.415-.389.692-.67.887-.989.174-.284.302-.637.302-1.18 0-1.182-.912-2.088-2.25-2.088M18 27a1.75 1.75 0 1 0 0-3.5 1.75 1.75 0 0 0 0 3.5"/><path fill="currentColor" fill-rule="evenodd" d="M18 3C9.716 3 3 9.716 3 18s6.716 15 15 15 15-6.716 15-15S26.284 3 18 3M5.5 18c0 6.904 5.596 12.5 12.5 12.5S30.5 24.904 30.5 18 24.904 5.5 18 5.5 5.5 11.096 5.5 18" clip-rule="evenodd"/></symbol><symbol fill="none" viewBox="0 0 36 36" xmlns="http://www.w3.org/2000/svg" id="home_outline_36"><path fill="currentColor" fill-rule="evenodd" d="M16.594 4.597 4.979 15.317a3.82 3.82 0 0 0-1.229 2.809V29.07a3.18 3.18 0 0 0 3.179 3.179h9.321V24a1.75 1.75 0 1 1 3.5 0v8.25h9.321a3.18 3.18 0 0 0 3.179-3.179V18.126a3.82 3.82 0 0 0-1.23-2.808l-3.807-3.515q.037-.146.037-.303V7l-.006-.128A1.25 1.25 0 0 0 24.75 7v2.53l-5.344-4.933a2.073 2.073 0 0 0-2.812 0M6.675 17.155 18 6.7l11.325 10.455c.27.25.425.602.425.97v10.946l-.007.1a.68.68 0 0 1-.672.579H22.25V24A4.25 4.25 0 0 0 18 19.75l-.206.005A4.25 4.25 0 0 0 13.75 24v5.75H6.929a.68.68 0 0 1-.679-.678V18.126c0-.369.154-.721.425-.971" clip-rule="evenodd"/></symbol><symbol xmlns="http://www.w3.org/2000/svg" fill="none" viewBox="0 0 36 36" id="incognito_outline_36"><path fill="currentColor" fill-rule="evenodd" d="M14.746 4h6.508c.78 0 1.432 0 1.971.04.566.042 1.093.133 1.608.358a4.75 4.75 0 0 1 1.993 1.633c.321.46.513.96.665 1.506.145.521.273 1.161.426 1.925L28.825 14h3.425a1.25 1.25 0 1 1 0 2.5H3.75a1.25 1.25 0 1 1 0-2.5h3.425l.908-4.538c.153-.764.28-1.404.426-1.925.152-.546.344-1.045.665-1.506a4.75 4.75 0 0 1 1.993-1.634c.515-.225 1.042-.315 1.608-.357.539-.04 1.191-.04 1.97-.04m10.729 5.997.8 4.003H9.725l.8-4.003c.164-.82.275-1.368.392-1.789.113-.406.21-.607.307-.746a2.25 2.25 0 0 1 .944-.774c.156-.068.372-.124.792-.155.436-.032.995-.033 1.83-.033h6.42c.835 0 1.394 0 1.83.033.42.031.636.087.792.155.38.166.706.434.944.774.097.14.194.34.307.746.117.42.228.97.392 1.789M16.75 25.599v.026a6.375 6.375 0 1 1-.5-2.478A10.4 10.4 0 0 1 18 23q.895 0 1.75.147A6.377 6.377 0 0 1 32 25.625a6.375 6.375 0 0 1-12.75 0v-.026A8 8 0 0 0 18 25.5q-.64 0-1.25.099m-10.25.026a3.875 3.875 0 1 1 7.75 0 3.875 3.875 0 0 1-7.75 0m15.31-.687a4 4 0 0 0-.06.687 3.875 3.875 0 1 0 .088-.827 1 1 0 0 1-.027.14" clip-rule="evenodd"/></symbol><symbol xmlns="http://www.w3.org/2000/svg" fill="currentColor" viewBox="0 0 36 36" id="lightbulb_outline_36"><path fill-rule="evenodd" d="M18 3C10.923 3 5.25 8.269 5.25 15.5c0 3.335 1.105 5.552 2.502 7.282.653.808 1.368 1.508 2.006 2.132l.067.065c.675.66 1.249 1.23 1.712 1.84.055.073.074.098.091.123a1.6 1.6 0 0 1 .139.258l.056.132.005.014c.034.1.049.162.11.464l.348 1.744c.082.408.156.779.241 1.086.093.333.22.675.448 1 .335.481.796.86 1.333 1.094.364.16.725.217 1.07.242.317.024.695.024 1.112.024h3.02c.416 0 .794 0 1.113-.024a3.2 3.2 0 0 0 1.069-.242 3.2 3.2 0 0 0 1.333-1.093c.228-.326.355-.668.448-1 .085-.308.16-.679.241-1.087l.349-1.744c.06-.302.075-.365.109-.464l.005-.014.006-.015.008-.02a3 3 0 0 1 .104-.227l.003-.005a1.6 1.6 0 0 1 .165-.246c.463-.61 1.037-1.18 1.712-1.84l.067-.065c.638-.624 1.353-1.324 2.006-2.132 1.397-1.73 2.502-3.947 2.502-7.282C30.75 8.269 25.077 3 18 3M7.75 15.5c0-5.769 4.47-10 10.25-10s10.25 4.231 10.25 10c0 2.685-.856 4.36-1.947 5.71-.56.694-1.183 1.304-1.847 1.953l-.03.03c-.654.64-1.362 1.334-1.954 2.114-.05.067-.096.127-.143.193H19.25v-2.982l2.134-2.134a1.25 1.25 0 0 0-1.768-1.768L18 20.232l-1.616-1.616a1.25 1.25 0 1 0-1.768 1.768l2.134 2.134V25.5h-3.08a6 6 0 0 0-.142-.193c-.592-.78-1.3-1.474-1.954-2.114l-.03-.03c-.664-.649-1.287-1.26-1.847-1.952C8.606 19.86 7.75 18.185 7.75 15.5M14.525 28l.205 1.024c.092.46.148.738.206.945.052.19.084.235.088.24a.7.7 0 0 0 .285.234c.007.003.058.026.253.04.215.016.499.017.968.017h2.94c.47 0 .753 0 .968-.017.195-.014.246-.037.252-.04a.7.7 0 0 0 .285-.233c.004-.006.037-.052.09-.24.057-.208.113-.486.205-.946L21.475 28z" clip-rule="evenodd"/></symbol><symbol xmlns="http://www.w3.org/2000/svg" fill="currentColor" viewBox="0 0 36 36" id="like_36"><path d="M11.559 6.004c-4.74 0-8.555 3.98-8.555 8.822 0 2.62.66 4.638 2.284 6.738 1.553 2.008 4 4.102 7.482 6.948l.004.003 3.572 2.896c.97.787 2.345.787 3.316 0l3.572-2.896.004-.003c3.482-2.846 5.929-4.94 7.482-6.948 1.624-2.1 2.284-4.117 2.284-6.738 0-4.842-3.815-8.822-8.555-8.822-2.483 0-4.64 1.01-6.453 2.877-1.83-1.863-3.981-2.877-6.437-2.877"/></symbol><symbol xmlns="http://www.w3.org/2000/svg" fill="currentColor" viewBox="0 0 36 36" id="like_outline_36"><path fill-rule="evenodd" d="M3.004 14.826c0-4.842 3.815-8.822 8.555-8.822 2.456 0 4.606 1.014 6.437 2.877 1.813-1.867 3.97-2.877 6.453-2.877 4.74 0 8.555 3.98 8.555 8.822 0 2.62-.66 4.638-2.284 6.738-1.553 2.008-4 4.102-7.482 6.948l-.004.003-3.572 2.896a2.624 2.624 0 0 1-3.316 0l-3.572-2.896-.004-.003c-3.482-2.846-5.929-4.94-7.482-6.948-1.624-2.1-2.284-4.117-2.284-6.738m8.555-6.322c-3.282 0-6.055 2.783-6.055 6.322 0 2.084.486 3.56 1.761 5.208 1.346 1.74 3.553 3.653 7.085 6.54l.002.002 3.568 2.893a.13.13 0 0 0 .084.033.13.13 0 0 0 .083-.033l3.569-2.893.002-.001c3.532-2.888 5.738-4.8 7.084-6.54 1.276-1.65 1.762-3.125 1.762-5.209 0-3.54-2.773-6.322-6.055-6.322-2.017 0-3.826.929-5.455 3.042a1.25 1.25 0 0 1-1.972.01c-1.675-2.126-3.488-3.052-5.463-3.052" clip-rule="evenodd"/></symbol><symbol fill="none" viewBox="0 0 36 36" xmlns="http://www.w3.org/2000/svg" id="link_outline_36"><path stroke="currentColor" stroke-linecap="round" stroke-linejoin="bevel" stroke-width="2.5" d="M8.5 27.232 26.732 9"/><path stroke="currentColor" stroke-linecap="round" stroke-linejoin="round" stroke-width="2.5" d="M13 8h15v15"/><path fill="currentColor" fill-rule="evenodd" d="M11.75 8c0-.69.56-1.25 1.25-1.25h15c.69 0 1.25.56 1.25 1.25v15a1.25 1.25 0 1 1-2.5 0V10.75L9.384 28.116a1.25 1.25 0 1 1-1.768-1.768L24.715 9.25H13c-.69 0-1.25-.56-1.25-1.25" clip-rule="evenodd"/></symbol><symbol xmlns="http://www.w3.org/2000/svg" fill="currentColor" viewBox="0 0 36 36" id="list_play_outline_36"><path fill-rule="evenodd" d="M4 9.25C4 8.56 4.56 8 5.25 8h23.5a1.25 1.25 0 1 1 0 2.5H5.25C4.56 10.5 4 9.94 4 9.25m0 8c0-.69.56-1.25 1.25-1.25h11.5a1.25 1.25 0 1 1 0 2.5H5.25c-.69 0-1.25-.56-1.25-1.25m0 8c0-.69.56-1.25 1.25-1.25h11.5a1.25 1.25 0 1 1 0 2.5H5.25c-.69 0-1.25-.56-1.25-1.25m28.416-1.801a1.238 1.238 0 0 1 0 2.102l-8.575 5.269c-.808.497-1.841-.093-1.841-1.051V19.23c0-.958 1.033-1.548 1.841-1.051l8.575 5.269Z"/></symbol><symbol fill="none" viewBox="0 0 36 36" xmlns="http://www.w3.org/2000/svg" id="live_outline_36"><g fill="currentColor"><path d="M20.5 18a2.5 2.5 0 1 1-5 0 2.5 2.5 0 0 1 5 0"/><g fill-rule="evenodd" clip-rule="evenodd"><path d="M9 18a9 9 0 1 1 18 0 9 9 0 0 1-18 0m15.245 0a6.245 6.245 0 1 0-12.49 0 6.245 6.245 0 0 0 12.49 0"/><path d="M33 18c0-8.284-6.716-15-15-15S3 9.716 3 18s6.716 15 15 15 15-6.716 15-15M5.5 18c0-6.904 5.596-12.5 12.5-12.5S30.5 11.096 30.5 18 24.904 30.5 18 30.5 5.5 24.904 5.5 18"/></g></g></symbol><symbol xmlns="http://www.w3.org/2000/svg" fill="currentColor" viewBox="0 0 36 36" id="lock_outline_36"><path fill-rule="evenodd" d="M18 3c-4.217 0-7.5 3.622-7.5 7.917v2.185c-.581.074-1.122.21-1.633.47a5.25 5.25 0 0 0-2.295 2.295c-.323.633-.453 1.31-.513 2.054C6 18.639 6 19.522 6 20.598v4.804c0 1.076 0 1.959.059 2.677.06.744.19 1.421.513 2.055a5.25 5.25 0 0 0 2.295 2.294c.633.323 1.31.453 2.054.513.718.059 1.601.059 2.677.059h8.804c1.076 0 1.959 0 2.677-.059.744-.06 1.421-.19 2.055-.513a5.25 5.25 0 0 0 2.294-2.294c.322-.634.453-1.31.513-2.055.059-.718.059-1.601.059-2.677v-4.804c0-1.076 0-1.959-.059-2.677-.06-.744-.19-1.421-.513-2.054a5.25 5.25 0 0 0-2.294-2.295c-.512-.26-1.053-.396-1.634-.47v-2.185C25.5 6.622 22.217 3 18 3m5 10v-2.083c0-3.07-2.313-5.417-5-5.417s-5 2.348-5 5.417V13zm-11.875 2.55c-.59.048-.901.136-1.123.25A2.75 2.75 0 0 0 8.8 17c-.114.223-.201.534-.25 1.124-.049.604-.05 1.384-.05 2.525v4.7c0 1.14.001 1.921.05 2.525.049.59.136.901.25 1.123A2.75 2.75 0 0 0 10 30.2c.223.114.534.201 1.124.25.604.049 1.384.05 2.525.05h8.7c1.14 0 1.921-.001 2.525-.05.59-.049.901-.136 1.123-.25A2.75 2.75 0 0 0 27.2 29c.114-.223.201-.534.25-1.124.049-.604.05-1.384.05-2.525v-4.7c0-1.14-.001-1.921-.05-2.525-.049-.59-.136-.901-.25-1.123A2.75 2.75 0 0 0 26 15.8c-.223-.114-.534-.202-1.124-.25-.604-.049-1.384-.05-2.525-.05h-8.7c-1.14 0-1.921.001-2.525.05ZM17.993 20a1.25 1.25 0 0 1 1.257 1.243l.02 3.5a1.25 1.25 0 1 1-2.5.014l-.02-3.5A1.25 1.25 0 0 1 17.993 20" clip-rule="evenodd"/></symbol><symbol fill="none" viewBox="0 0 36 36" xmlns="http://www.w3.org/2000/svg" id="mail_outline_36"><path fill="currentColor" fill-rule="evenodd" d="M15 8.5h6c1.898 0 3.196.001 4.207.07.988.068 1.518.191 1.898.349q.385.159.737.372l-6.634 6.076c-.73.668-1.224 1.12-1.635 1.441-.4.312-.642.437-.842.498a2.5 2.5 0 0 1-1.462 0c-.2-.061-.442-.186-.842-.498-.41-.321-.905-.773-1.635-1.44L8.158 9.29a5.5 5.5 0 0 1 .737-.372c.38-.158.91-.281 1.898-.349 1.01-.069 2.309-.07 4.207-.07m-8.635 2.54q-.26.405-.446.855c-.158.38-.281.91-.349 1.898-.069 1.01-.07 2.309-.07 4.207s.001 3.196.07 4.207c.068.988.191 1.518.349 1.898a5.5 5.5 0 0 0 2.976 2.976c.38.158.91.281 1.898.349 1.01.069 2.309.07 4.207.07h6c1.898 0 3.196-.001 4.207-.07.988-.068 1.518-.191 1.898-.349a5.5 5.5 0 0 0 2.976-2.976c.158-.38.281-.91.349-1.898.069-1.01.07-2.309.07-4.207s-.001-3.196-.07-4.207c-.068-.988-.191-1.518-.349-1.898a5.5 5.5 0 0 0-.446-.856l-6.739 6.172-.036.033c-.684.627-1.25 1.146-1.749 1.535-.518.405-1.039.731-1.65.918a5 5 0 0 1-2.922 0c-.611-.187-1.132-.513-1.65-.918-.498-.39-1.065-.908-1.75-1.535l-.035-.033zM3 18c0-3.727 0-5.591.609-7.061a8 8 0 0 1 4.33-4.33C9.409 6 11.273 6 15 6h6c3.728 0 5.591 0 7.062.609a8 8 0 0 1 4.329 4.33C33 12.409 33 14.273 33 18s0 5.591-.609 7.062a8 8 0 0 1-4.33 4.329C26.592 30 24.728 30 21 30h-6c-3.727 0-5.591 0-7.061-.609a8 8 0 0 1-4.33-4.33C3 23.592 3 21.728 3 18" clip-rule="evenodd"/></symbol><symbol fill="none" viewBox="0 0 36 36" xmlns="http://www.w3.org/2000/svg" id="market_36"><path fill="currentColor" fill-rule="evenodd" d="M10 10H8a3 3 0 0 0-3 3v11a7 7 0 0 0 7 7h12a7 7 0 0 0 7-7V13a3 3 0 0 0-3-3h-2a8 8 0 1 0-16 0m13.5 0a5.5 5.5 0 1 0-11 0zm-10.75 4.5a1.5 1.5 0 1 1-3 0 1.5 1.5 0 0 1 3 0m12 1.5a1.5 1.5 0 1 0 0-3 1.5 1.5 0 0 0 0 3" clip-rule="evenodd"/></symbol><symbol fill="none" viewBox="0 0 36 36" xmlns="http://www.w3.org/2000/svg" id="market_outline_36"><g fill="currentColor"><path d="M10 10.5a8 8 0 1 1 16 0h-2.5a5.5 5.5 0 1 0-11 0zM24.5 16a1.5 1.5 0 1 0 0 3 1.5 1.5 0 0 0 0-3M10 17.5a1.5 1.5 0 1 1 3 0 1.5 1.5 0 0 1-3 0"/><path fill-rule="evenodd" d="m8.856 10.502 18.016-.002c1.783 0 2.43.186 3.082.534s1.163.86 1.512 1.512c.348.652.534 1.299.534 3.082v8.028c0 3.072-.371 4.448-1.068 5.751a7.27 7.27 0 0 1-3.025 3.025c-1.303.697-2.679 1.068-5.75 1.068h-8.313c-3.072 0-4.448-.371-5.751-1.068-1.304-.698-2.327-1.72-3.024-3.025S4 26.728 4 23.657v-8.03c0-1.782.186-2.429.534-3.08a3.64 3.64 0 0 1 1.512-1.513c.618-.33 1.23-.514 2.81-.533M8.904 13l-.387.006c-.76.02-1.024.089-1.292.232-.216.115-.37.27-.486.486l-.061.125c-.12.279-.17.63-.177 1.554L6.5 23.656c0 2.46.216 3.531.773 4.572a4.77 4.77 0 0 0 1.999 1.999c.95.508 1.926.733 3.96.768l.612.005h8.312l.612-.005c2.034-.035 3.01-.26 3.96-.768a4.77 4.77 0 0 0 1.999-1.999c.508-.95.733-1.926.768-3.96l.005-.612v-8.028c0-1.249-.063-1.574-.239-1.903a1.14 1.14 0 0 0-.486-.486l-.125-.061c-.279-.12-.63-.17-1.554-.177z" clip-rule="evenodd"/></g></symbol><symbol xmlns="http://www.w3.org/2000/svg" fill="currentColor" viewBox="0 0 36 36" id="message_heart_36"><path d="M18 5c6.731 0 12.353 4.155 13.695 9.692a6.4 6.4 0 0 0-1.556-.192h-.032l-.313.008-.033.002a6.9 6.9 0 0 0-2.261.502 6.95 6.95 0 0 0-2.64-.512 6.356 6.356 0 0 0-6.36 6.352c0 1.48.327 2.803 1.316 4.141.848 1.147 2.138 2.232 3.755 3.487A15.7 15.7 0 0 1 18 29.488a15.8 15.8 0 0 1-4.53-.655q-2.381 1.876-7.386 3.148a.63.63 0 0 1-.467-.063.65.65 0 0 1-.247-.881l.239-.44q1.662-3.096 2.073-5.079C5.395 23.34 4 20.434 4 17.244 4 10.482 10.268 5 18 5m9.627 12.763a4.4 4.4 0 0 1 2.264-.757L30.14 17A3.856 3.856 0 0 1 34 20.852c0 2.078-.828 3.111-4.13 5.674l-1.529 1.186a1.37 1.37 0 0 1-1.683 0l-1.528-1.186C21.828 23.963 21 22.93 21 20.852A3.856 3.856 0 0 1 24.86 17c.917 0 1.76.259 2.513.763l.127.09z"/></symbol><symbol viewBox="0 0 36 36" fill="none" xmlns="http://www.w3.org/2000/svg" id="message_outline_36"><path fill="currentColor" fill-rule="evenodd" d="M18.028 7.5c-7.132 0-12.52 4.723-12.52 10.056 0 1.902.705 3.71 1.906 5.262.17.22.261.488.261.765 0 1.317-.36 2.591-.801 3.737a31 31 0 0 1-.922 2.104c2.753-.27 4.562-1.108 5.646-2.333a1.25 1.25 0 0 1 1.36-.347c1.517.547 3.203.796 5.046.796 7.14 0 12.497-4.657 12.497-9.984C30.5 12.218 25.154 7.5 18.028 7.5M3.008 17.556C3.008 10.401 10.003 5 18.028 5 26.06 5 33 10.406 33 17.556c0 7.163-6.98 12.484-14.996 12.484-1.781 0-3.502-.207-5.127-.692-1.88 1.706-4.62 2.524-7.984 2.65-1.243.048-2.328-1.247-1.718-2.547q.176-.38.354-.751c.36-.76.715-1.505 1.013-2.279.333-.865.559-1.68.618-2.444-1.324-1.846-2.152-4.043-2.152-6.42z" clip-rule="evenodd"/></symbol><symbol fill="none" viewBox="0 0 36 36" xmlns="http://www.w3.org/2000/svg" id="money_circle_outline_36"><g fill="currentColor" fill-rule="evenodd" clip-rule="evenodd"><path d="M14.31 11a.1.1 0 0 0-.102.101v6.912h-1.006c-.093 0-.14 0-.179.003-.546.039-.981.474-1.02 1.02-.003.04-.003.086-.003.18s0 .139.003.178c.039.547.474.982 1.02 1.02.04.003.086.003.18.003h1.007v1.804h-1.158a1.052 1.052 0 0 0 0 2.104h1.158v.911c0 .084 0 .126.002.161.036.553.476.994 1.03 1.03.035.002.076.002.16.002s.126 0 .161-.003a1.1 1.1 0 0 0 1.03-1.029l.001-.16v-.912h2.068a1.052 1.052 0 0 0 0-2.104h-2.068v-1.804h3.124a4.709 4.709 0 1 0 0-9.417zm5.454 7.013h-3.17v-4.809h3.17a2.404 2.404 0 0 1 0 4.809"/><path d="M18 3c8.284 0 15 6.716 15 15s-6.716 15-15 15S3 26.284 3 18 9.716 3 18 3m0 2.5C11.096 5.5 5.5 11.096 5.5 18S11.096 30.5 18 30.5 30.5 24.904 30.5 18 24.904 5.5 18 5.5"/></g></symbol><symbol fill="none" viewBox="0 0 36 36" xmlns="http://www.w3.org/2000/svg" id="music_36"><path fill="currentColor" d="M28.5 21.728c0 5.207-1.854 6.33-4.921 6.742-1.594.214-4.079-.621-4.079-3.648 0-1.48 1.232-2.948 2.769-3.25 1.425-.28-.463.086 2.763-.528.52-.1.475-.47.475-.87l-.002-5.152-.005.027.007-3.864c0-.355-.11-.522-.517-.42L14.047 12.76c-.457.115-.547.305-.547.741v11.228c0 5.207-1.854 6.33-4.921 6.742-1.594.214-4.079-.621-4.079-3.648 0-1.48 1.232-2.948 2.769-3.25 1.425-.28-.463.086 2.763-.528.52-.1.475-.47.475-.87l-.003-5.59v-.956l-.004-3.804s-.006-2.36 0-3.54c.007-1.412.765-1.93 3-2.39l12-2.217s3-.938 3 1.5z"/></symbol><symbol fill="none" viewBox="0 0 36 36" xmlns="http://www.w3.org/2000/svg" id="music_mic_outline_36"><g fill="currentColor" fill-rule="evenodd" clip-rule="evenodd"><path d="M24.5 6.504a5 5 0 1 0 0 10 5 5 0 0 0 0-10m-7.5 5a7.5 7.5 0 1 1 15 0 7.5 7.5 0 0 1-15 0M14.972 15.799a1.25 1.25 0 0 1 .14 1.762l-8.29 9.718a1.347 1.347 0 0 0 1.899 1.9l9.718-8.29a1.25 1.25 0 0 1 1.622 1.9l-9.718 8.29a3.846 3.846 0 0 1-5.423-5.422l8.29-9.718a1.25 1.25 0 0 1 1.762-.14"/></g></symbol><symbol fill="none" viewBox="0 0 36 36" xmlns="http://www.w3.org/2000/svg" id="music_outline_36"><path fill="currentColor" fill-rule="evenodd" d="M28.902 8.043a3.82 3.82 0 0 0-4.52-2.962L15.09 7.017l-.263.056c-1.01.226-1.553.448-2.101.844-.561.406-.99.935-1.274 1.567-.299.668-.4 1.29-.4 2.497v10.34h-.63c-5.998 0-9.08 5.854-5.902 9.032s9.033.096 9.033-5.901v-9.776l12.928-2.693v6.123h-.631c-5.997 0-9.079 5.855-5.901 9.033 3.177 3.178 9.032.096 9.032-5.901V8.822l-.009-.261a4 4 0 0 0-.071-.518m-2.42 2.386V8.822a1.32 1.32 0 0 0-1.457-1.314l-.134.02-9.29 1.936c-.867.18-1.142.286-1.409.479-.205.148-.353.33-.457.562l-.056.14c-.083.24-.119.529-.124 1.142v1.335zM11.054 25.452v-.631h-.632c-3.905 0-5.627 3.27-4.133 4.764s4.765-.228 4.765-4.133m15.428-3.845v.63c0 3.906-3.271 5.628-4.765 4.134s.229-4.765 4.134-4.765z" clip-rule="evenodd"/></symbol><symbol viewBox="0 0 36 36" fill="none" xmlns="http://www.w3.org/2000/svg" id="newsfeed_36"><path fill="currentColor" d="M25 15.435c0-.714-.45-1.292-1.005-1.292h-11.99c-.555 0-1.005.578-1.005 1.292v10.273c0 .714.45 1.292 1.005 1.292h11.99C24.55 27 25 26.422 25 25.708zM12.25 9a1.25 1.25 0 1 0 0 2.5h8.5a1.25 1.25 0 1 0 0-2.5z"/><path fill="currentColor" fill-rule="evenodd" d="M8.946 4.03C10.348 3.28 11.736 3 14.844 3h6.312c3.107 0 4.496.28 5.898 1.03a7.03 7.03 0 0 1 2.916 2.916c.75 1.402 1.03 2.79 1.03 5.898v10.312c0 3.107-.28 4.496-1.03 5.898a7.03 7.03 0 0 1-2.916 2.916c-1.402.75-2.79 1.03-5.898 1.03h-6.312c-3.107 0-4.496-.28-5.898-1.03a7.03 7.03 0 0 1-2.916-2.916C5.28 27.652 5 26.264 5 23.156V12.844c0-3.107.28-4.496 1.03-5.898A7.03 7.03 0 0 1 8.946 4.03m5.898 1.47c-2.96 0-3.857.274-4.719.735a4.53 4.53 0 0 0-1.89 1.89c-.46.862-.735 1.76-.735 4.719v10.312c0 2.96.274 3.857.735 4.719a4.53 4.53 0 0 0 1.89 1.89c.862.46 1.76.735 4.719.735h6.312c2.96 0 3.857-.274 4.719-.735a4.53 4.53 0 0 0 1.89-1.89c.46-.862.735-1.76.735-4.719V12.844c0-2.96-.274-3.857-.735-4.719a4.53 4.53 0 0 0-1.89-1.89c-.862-.46-1.76-.735-4.719-.735z" clip-rule="evenodd"/></symbol><symbol xmlns="http://www.w3.org/2000/svg" fill="currentColor" viewBox="0 0 36 36" id="nft_heptagon_outline_36"><path fill-rule="evenodd" d="M13.91 5.788a.88.88 0 0 1 .822-.235l12.24 2.824a.88.88 0 0 1 .66.66l2.825 12.242a.88.88 0 0 1-.235.82L22.1 30.222a.88.88 0 0 1-.82.235L9.038 27.633a.88.88 0 0 1-.66-.66L5.552 14.732a.88.88 0 0 1 .235-.821zm1.384-2.671a3.38 3.38 0 0 0-3.151.903L4.02 12.143a3.38 3.38 0 0 0-.903 3.15l2.825 12.242a3.38 3.38 0 0 0 2.533 2.534l12.241 2.824a3.38 3.38 0 0 0 3.151-.903l8.123-8.123a3.38 3.38 0 0 0 .903-3.15L30.07 8.474a3.38 3.38 0 0 0-2.534-2.533zm8.848 12.509a1.25 1.25 0 0 0-1.784-1.752l-5.983 6.092-2.233-2.274a1.25 1.25 0 1 0-1.784 1.752l3.125 3.182a1.25 1.25 0 0 0 1.784 0z" clip-rule="evenodd"/></symbol><symbol viewBox="0 0 36 36" fill="none" xmlns="http://www.w3.org/2000/svg" id="notebook_check_outline_36"><path fill="currentColor" d="M23.634 15.884a1.25 1.25 0 0 0-1.768-1.768L16 19.982l-1.866-1.866a1.25 1.25 0 0 0-1.768 1.768l2.75 2.75a1.25 1.25 0 0 0 1.768 0z"/><path fill="currentColor" fill-rule="evenodd" d="M12.25 3.25c.69 0 1.25.56 1.25 1.25v.507A131 131 0 0 1 15.197 5h1.553v-.5a1.25 1.25 0 1 1 2.5 0V5h1.553q.927-.002 1.697.007V4.5a1.25 1.25 0 1 1 2.5 0v.677c.566.097 1.09.251 1.587.504a6.25 6.25 0 0 1 2.732 2.732c.377.74.534 1.54.609 2.451.072.885.072 1.978.072 3.332v8.608c0 1.354 0 2.447-.072 3.332-.075.91-.232 1.711-.61 2.451a6.25 6.25 0 0 1-2.73 2.732c-.74.377-1.541.534-2.452.609-.885.072-1.978.072-3.332.072h-5.607c-1.355 0-2.448 0-3.333-.072-.91-.075-1.711-.232-2.451-.61a6.25 6.25 0 0 1-2.732-2.73c-.377-.74-.534-1.541-.609-2.452C6 25.25 6 24.158 6 22.804v-8.607c0-1.355 0-2.448.072-3.333.075-.91.232-1.711.61-2.451a6.25 6.25 0 0 1 2.73-2.732A5.5 5.5 0 0 1 11 5.177V4.5c0-.69.56-1.25 1.25-1.25m3 4.25h1.5V8a1.25 1.25 0 1 0 2.5 0v-.5h1.5c.672 0 1.248 0 1.75.007V8A1.25 1.25 0 1 0 25 8v-.265c.176.05.323.108.453.174a3.75 3.75 0 0 1 1.638 1.639c.168.329.283.763.345 1.52.063.77.064 1.761.064 3.182v8.5c0 1.42-.001 2.411-.064 3.182-.062.757-.177 1.191-.345 1.52a3.75 3.75 0 0 1-1.639 1.64c-.329.167-.763.282-1.52.344-.77.063-1.761.064-3.182.064h-5.5c-1.42 0-2.411-.001-3.182-.064-.757-.062-1.191-.177-1.52-.345a3.75 3.75 0 0 1-1.64-1.639c-.167-.329-.282-.763-.344-1.52-.063-.77-.064-1.761-.064-3.182v-8.5c0-1.42.001-2.411.064-3.182.062-.757.177-1.191.345-1.52a3.75 3.75 0 0 1 1.638-1.64c.13-.065.277-.124.453-.173V8a1.25 1.25 0 1 0 2.5 0v-.493c.502-.007 1.078-.007 1.75-.007" clip-rule="evenodd"/></symbol><symbol fill="none" viewBox="0 0 36 36" xmlns="http://www.w3.org/2000/svg" id="pause_36"><g fill="currentColor"><path d="M20.5 9.5A1.5 1.5 0 0 1 22 8h3.5A1.5 1.5 0 0 1 27 9.5v17a1.5 1.5 0 0 1-1.5 1.5H22a1.5 1.5 0 0 1-1.5-1.5zM9 9.5A1.5 1.5 0 0 1 10.5 8H14a1.5 1.5 0 0 1 1.5 1.5v17A1.5 1.5 0 0 1 14 28h-3.5A1.5 1.5 0 0 1 9 26.5z"/></g></symbol><symbol fill="none" viewBox="0 0 36 36" xmlns="http://www.w3.org/2000/svg" id="phone_36"><path fill="currentColor" d="M21.168 22.889c2.03-2.032 5.229-2.22 7.355-.431l1.536 1.294c1.754 1.476 1.932 4.136.396 5.94a4.98 4.98 0 0 1-3.293 1.7q-7.364.991-15.454-7.1t-7.1-15.454c.035-.384.114-.763.238-1.128a5 5 0 0 1 1.462-2.165c1.806-1.535 4.464-1.358 5.94.397l1.292 1.536c1.79 2.124 1.605 5.323-.426 7.355l-1.103 1.1c-.294.295-.39.734-.246 1.124q.601 1.646 3.068 4.11 2.467 2.468 4.11 3.07c.39.144.83.047 1.123-.247z"/></symbol><symbol viewBox="0 0 36 36" fill="none" xmlns="http://www.w3.org/2000/svg" id="phone_outline_36"><path fill="currentColor" fill-rule="evenodd" d="M28.61 27.96a4.24 4.24 0 0 1-2.806 1.448q-6.272.845-13.164-6.048T6.592 10.195c.03-.327.097-.65.203-.96A4.24 4.24 0 0 1 8.04 7.39c1.538-1.308 3.803-1.157 5.06.338l1.1 1.309c1.526 1.809 1.368 4.534-.362 6.265l-.94.938a.91.91 0 0 0-.21.957q.513 1.401 2.614 3.501 2.102 2.102 3.501 2.616a.91.91 0 0 0 .957-.212l.938-.938c1.73-1.73 4.455-1.89 6.266-.367l1.309 1.103c1.493 1.257 1.645 3.523.336 5.06zm1.273-6.972c2.612 2.199 2.787 6.06.63 8.593l-.006.006a6.8 6.8 0 0 1-4.414 2.304c-5.284.693-10.393-1.934-15.22-6.763-4.826-4.826-7.455-9.934-6.765-15.215.05-.504.156-1 .319-1.48a6.8 6.8 0 0 1 1.988-2.942l.006-.006c2.532-2.153 6.392-1.983 8.592.634l1.1 1.307c2.406 2.855 2.09 7.045-.508 9.644l-.09.09c.322.445.817 1.033 1.555 1.77.737.738 1.325 1.234 1.771 1.556l.09-.09c2.598-2.598 6.785-2.914 9.642-.512z" clip-rule="evenodd"/></symbol><symbol viewBox="0 0 36 36" fill="none" xmlns="http://www.w3.org/2000/svg" id="picture_36"><path fill="currentColor" fill-rule="evenodd" d="M7.946 5.03C9.35 4.28 10.733 4 13.89 4h8.222c3.156 0 4.539.28 5.942 1.03a7.03 7.03 0 0 1 2.917 2.916C31.72 9.35 32 10.733 32 13.89v8.222c0 3.156-.28 4.539-1.03 5.942a7.03 7.03 0 0 1-2.916 2.917C26.65 31.72 25.267 32 22.11 32h-8.222c-3.156 0-4.539-.28-5.943-1.03a7.03 7.03 0 0 1-2.916-2.916C4.28 26.65 4 25.267 4 22.11v-8.222c0-3.156.28-4.539 1.03-5.943A7.03 7.03 0 0 1 7.946 5.03M21.31 18.227a.554.554 0 0 1 .901.008l5.676 7.827a.6.6 0 0 1-.114.82.55.55 0 0 1-.34.118H9.567A.577.577 0 0 1 9 26.414a.6.6 0 0 1 .12-.36l4.145-5.513a.554.554 0 0 1 .883-.015L17 24zM12 14a2 2 0 1 0 0-4 2 2 0 0 0 0 4" clip-rule="evenodd"/></symbol><symbol xmlns="http://www.w3.org/2000/svg" fill="currentColor" viewBox="0 0 36 36" id="picture_outline_36"><path fill-rule="evenodd" d="M7.9 5.018C9.291 4.274 10.662 4 13.782 4h8.436c3.12 0 4.49.274 5.882 1.018A6.94 6.94 0 0 1 30.98 7.9c.745 1.39 1.02 2.762 1.02 5.88v8.437c0 3.12-.275 4.49-1.019 5.881A6.94 6.94 0 0 1 28.1 30.98c-1.392.745-2.762 1.02-5.882 1.02h-8.436c-3.12 0-4.49-.275-5.882-1.02a6.94 6.94 0 0 1-2.88-2.88C4.276 26.708 4 25.337 4 22.218V13.78c0-3.12.276-4.49 1.02-5.881A6.94 6.94 0 0 1 7.9 5.018M13.782 6.5c-2.979 0-3.855.27-4.703.723a4.44 4.44 0 0 0-1.856 1.856c-.453.848-.723 1.724-.723 4.702v8.437c0 2.214.15 3.267.412 4.01l3.502-3.234.034-.03c.463-.428.862-.797 1.217-1.076.376-.296.777-.555 1.264-.704a3.82 3.82 0 0 1 2.244 0c.486.148.888.407 1.264.702.355.28.755.648 1.218 1.075l.034.031.024.022 3.843-3.843.034-.034c.465-.464.865-.865 1.222-1.168.377-.321.783-.604 1.282-.771a3.82 3.82 0 0 1 2.31-.04c.505.15.92.418 1.308.726.368.291.782.677 1.262 1.126l.035.032.49.458v-5.719c0-2.978-.269-3.854-.722-4.702a4.45 4.45 0 0 0-1.856-1.856c-.848-.454-1.724-.723-4.703-.723zm15.712 16.414-2.19-2.044c-.526-.49-.866-.806-1.145-1.027-.267-.212-.395-.268-.469-.29a1.32 1.32 0 0 0-.8.014c-.072.025-.198.085-.458.306-.271.23-.6.558-1.108 1.066l-4.692 4.692a1.25 1.25 0 0 1-1.732.035l-.906-.836c-.506-.467-.834-.768-1.102-.978-.256-.202-.38-.256-.452-.279a1.32 1.32 0 0 0-.776 0c-.073.023-.197.078-.453.279-.268.211-.595.512-1.101.98l-3.755 3.466q.334.27.724.478c.848.454 1.724.724 4.703.724h8.436c2.979 0 3.855-.27 4.703-.724a4.44 4.44 0 0 0 1.856-1.856c.415-.778.677-1.58.717-4.006M16 14a2 2 0 1 1-4 0 2 2 0 0 1 4 0" clip-rule="evenodd"/></symbol><symbol xmlns="http://www.w3.org/2000/svg" fill="currentColor" viewBox="0 0 36 36" id="place_outline_36"><path fill-rule="evenodd" d="M20.72 32.035c-1.777 1.45-4.421 1.25-5.947-.489-2.809-3.203-4.975-6.194-6.449-8.956-1.465-2.745-2.322-5.405-2.322-7.905C6.002 8.153 11.455 3.004 18 3.004s11.998 5.15 11.998 11.68c0 2.5-.857 5.161-2.322 7.906-1.474 2.762-3.64 5.753-6.45 8.956a4 4 0 0 1-.507.49Zm-4.067-2.137a1.81 1.81 0 0 0 2.694 0c5.46-6.227 8.151-11.328 8.151-15.213 0-5.071-4.253-9.181-9.498-9.181s-9.498 4.11-9.498 9.18c0 3.886 2.69 8.987 8.151 15.214M18 12a3 3 0 1 0 0 6 3 3 0 0 0 0-6m-5.5 3a5.5 5.5 0 1 1 11 0 5.5 5.5 0 0 1-11 0" clip-rule="evenodd"/></symbol><symbol xmlns="http://www.w3.org/2000/svg" fill="currentColor" viewBox="0 0 36 36" id="play_36"><path d="M26.775 15.908c1.213.714 1.213 2.47 0 3.184l-12.99 7.65c-1.231.725-2.785-.163-2.785-1.593V9.851c0-1.43 1.554-2.318 2.786-1.593z"/></symbol><symbol viewBox="0 0 36 36" version="1.1" xmlns="http://www.w3.org/2000/svg" xmlns:xlink="http://www.w3.org/1999/xlink" id="playlist_36"><g fill="none" fill-rule="evenodd"><path d="M0 0h36v36H0z"/><path fill="currentColor" d="M20.995 10H5.005C4.45 10 4 10.45 4 11.005v.99C4 12.55 4.45 13 5.005 13h15.99C21.55 13 22 12.55 22 11.995v-.99C22 10.45 21.55 10 20.995 10m0 6H5.005C4.45 16 4 16.45 4 17.005v.99C4 18.55 4.45 19 5.005 19h15.99C21.55 19 22 18.55 22 17.995v-.99C22 16.45 21.55 16 20.995 16m-15.99 9C4.45 25 4 24.55 4 23.995v-.99C4 22.45 4.45 22 5.005 22h10.99c.555 0 1.005.45 1.005 1.005v.99C17 24.55 16.55 25 15.995 25zM27 23.133c0 4.513-.875 5.384-4.374 5.842-1.669.22-3.626-.538-3.626-3.161 0-1.282.802-2.498 2.461-2.816 1.267-.243-.09.018 2.776-.515.696-.129.775-.378.775-.908 0-.267-.001-2.595-.01-4.194v-4.318s-.005-2.058 0-3.088c.007-1.23.68-1.683 2.664-2.084 0 0 3.023-.573 4.685-.875.368-.067.649.07.649.492 0 0-.01 2.622 0 4.054.003.416-.168.605-.59.68l-4.865.86c-.374.092-.545.355-.545.733z"/></g></symbol><symbol viewBox="0 0 36 36" version="1.1" xmlns="http://www.w3.org/2000/svg" xmlns:xlink="http://www.w3.org/1999/xlink" id="playlist_cached_36"><g fill="none" fill-rule="evenodd"><path d="M0 0h36v36H0z"/><path fill="currentColor" d="M23 10.999a1 1 0 0 0-.995-.999H4.995a.994.994 0 0 0-.995.999v1.002a1 1 0 0 0 .995.999h17.01c.55 0 .995-.443.995-.999zm-4 6c0-.552-.449-.999-1.007-.999H5.007A1 1 0 0 0 4 16.999v1.002c0 .552.449.999 1.007.999h12.986A1 1 0 0 0 19 18.001zM4 24.001v-1.002A1 1 0 0 1 5.002 22h9.996c.546 0 1.002.447 1.002.999v1.002a1 1 0 0 1-1.002.999H5.002A1.005 1.005 0 0 1 4 24.001M32.034 22a.4.4 0 0 1 .283.683l-6.034 6.034a.4.4 0 0 1-.566 0l-6.034-6.034a.4.4 0 0 1 .283-.683H23v-6h6v6z"/></g></symbol><symbol fill="none" viewBox="0 0 36 36" xmlns="http://www.w3.org/2000/svg" id="playlist_outline_36"><path fill="currentColor" d="m31.996 6.304.006.125v2.703A4.59 4.59 0 0 1 28.8 13.51l-.206.06-4.096 1.147.001 7.086v3.132c0 5.997-5.855 9.079-9.032 5.901-1.409-1.408-1.584-3.785-.411-5.693 1.218-1.983 3.633-3.196 6.943-3.328V11.482c-.034-2.456 1.16-4.198 3.426-4.954l.247-.078c.9-.276 2.35-.686 4.806-1.24a1.25 1.25 0 0 1 1.52 1.094m-9.999 18.014h-.023c-2.452.119-4.053.936-4.789 2.134-.59.959-.508 2.06.048 2.616 1.494 1.494 4.765-.228 4.765-4.133zM10.75 22a1.25 1.25 0 1 1 0 2.5h-5.5a1.25 1.25 0 0 1 0-2.5zm6-8a1.25 1.25 0 1 1 0 2.5H5.25a1.25 1.25 0 0 1 0-2.5zm12.752-6.003-.962.229c-1.231.296-1.87.523-2.325.674-1.156.385-1.683 1.089-1.716 2.36v.204l-.002.666 3.452-.976a2.09 2.09 0 0 0 1.547-1.856l.006-.166zM18.75 6a1.25 1.25 0 1 1 0 2.5H5.25a1.25 1.25 0 1 1 0-2.5z"/></symbol><symbol fill="none" viewBox="0 0 36 36" xmlns="http://www.w3.org/2000/svg" id="podcasts_outline_36"><g fill="currentColor"><path d="M8.25 21a2 2 0 1 1-4 0v-5a2 2 0 0 1 1.558-1.951C6.412 7.847 11.64 3 18 3s11.588 4.847 12.192 11.049A2 2 0 0 1 31.75 16v5a2 2 0 1 1-4 0v-5.75c0-5.385-4.365-9.75-9.75-9.75s-9.75 4.365-9.75 9.75z"/><path fill-rule="evenodd" d="M25 15.25a7 7 0 1 0-14 0v7c0 3.44 2.48 6.3 5.75 6.889v2.741c0 .619.501 1.12 1.12 1.12h.26a1.12 1.12 0 0 0 1.12-1.12v-2.741A7 7 0 0 0 25 22.25zM13.507 15a4.5 4.5 0 0 1 8.986 0h-.623a1.25 1.25 0 1 0 0 2.5h.63V20h-.63a1.25 1.25 0 1 0 0 2.5h.623a4.5 4.5 0 0 1-8.986 0h2.243a1.25 1.25 0 1 0 0-2.5H13.5v-2.5h2.25a1.25 1.25 0 1 0 0-2.5z" clip-rule="evenodd"/></g></symbol><symbol xmlns="http://www.w3.org/2000/svg" fill="currentColor" viewBox="0 0 36 36" id="replay_15_36"><path d="M17.444 5.025c0-.41-.45-.662-.8-.447L10.19 8.544a.525.525 0 0 0 0 .894l6.453 3.966c.35.216.8-.036.8-.447v-2.84a9.375 9.375 0 0 1 0 18.75 9.38 9.38 0 0 1-9.213-7.63 1.125 1.125 0 0 0-2.211.417 11.63 11.63 0 0 0 11.424 9.462c6.42 0 11.625-5.205 11.625-11.625S23.864 7.866 17.444 7.866z"/><path d="M13.5 23.841a.525.525 0 0 1-.525-.525V17.95l-1.301.511a.42.42 0 0 1-.574-.39v-.73c0-.211.126-.402.32-.484l2.768-1.17a.525.525 0 0 1 .73.483v7.147c0 .29-.236.525-.525.525zm3.371-2.317a.9.9 0 0 0-.215.61q0 .482.377.912t1.03.692 1.442.262q.96 0 1.686-.37a2.67 2.67 0 0 0 1.121-1.044q.395-.674.395-1.564 0-.8-.327-1.409a2.34 2.34 0 0 0-.915-.944q-.588-.337-1.36-.337-.518 0-.959.171t-.653.455h-.1l.13-1.781h2.954q.43 0 .656-.202.227-.201.227-.575 0-.378-.23-.59-.229-.21-.653-.21h-3.343q-1.101 0-1.166.969l-.194 2.924a1 1 0 0 0 .103.53.87.87 0 0 0 .347.364 1.02 1.02 0 0 0 .868.06q.171-.069.383-.238.265-.192.55-.298t.556-.105q.366 0 .657.16.291.159.453.448.162.288.162.662 0 .39-.17.692a1.2 1.2 0 0 1-.475.469q-.303.168-.685.169a1.5 1.5 0 0 1-.73-.184 2.2 2.2 0 0 1-.636-.569 1.1 1.1 0 0 0-.338-.288.8.8 0 0 0-.386-.09.7.7 0 0 0-.562.249"/></symbol><symbol viewBox="0 0 36 36" version="1.1" xmlns="http://www.w3.org/2000/svg" xmlns:xlink="http://www.w3.org/1999/xlink" id="replay_36"><g fill="none" fill-rule="evenodd"><path d="M0 0h36v36H0z"/><path fill="currentColor" d="m16.976 3.524-5.769 5.769a1 1 0 0 0 0 1.414l5.769 5.769A.6.6 0 0 0 18 16.05V11c4.965 0 9.5 4.535 9.5 9.5S22.965 30 18 30c-4.273 0-8.228-3.36-9.247-7.46a8 8 0 0 1-.152-.895A1.3 1.3 0 0 0 7.31 20.5H7.25a1.165 1.165 0 0 0-1.16 1.274q.072.762.17 1.227C7.41 28.43 12.229 32.5 18 32.5c6.63 0 12-5.37 12-12s-5.37-12-12-12V3.949a.6.6 0 0 0-1.024-.425"/></g></symbol><symbol viewBox="0 0 36 36" fill="none" xmlns="http://www.w3.org/2000/svg" id="send_36"><path fill="currentColor" d="M8.515 23.247c-.993 2.602-1.625 4.427-1.87 5.482C6 31.5 6 32.5 8.242 31.21c2.979-1.571 17.4-9.356 20.618-11.087 2.639-1.419 3.139-2.674-.225-4.473-3.408-1.824-17.661-9.407-20.393-10.895C6 3.5 6 4.5 6.644 7.234c.252 1.068.89 2.91 1.898 5.531.701 1.824 2.32 3.16 4.276 3.528l7.706 1.446.657.124c.151.03.148.245 0 .274l-.681.128-7.7 1.44c-1.962.368-3.586 1.71-4.285 3.542"/></symbol><symbol fill="none" viewBox="0 0 36 36" xmlns="http://www.w3.org/2000/svg" id="services_outline_36"><g fill="currentColor" fill-rule="evenodd" clip-rule="evenodd"><path d="m31.605 7.136-2.74-2.741c-.852-.852-1.394-1.218-2.12-1.438a3.5 3.5 0 0 0-2.061 0c-.726.22-1.268.586-2.12 1.438l-2.74 2.74c-.852.853-1.219 1.394-1.439 2.12a3.5 3.5 0 0 0 0 2.061c.22.726.587 1.268 1.439 2.12l2.74 2.74c.852.852 1.394 1.219 2.12 1.439a3.5 3.5 0 0 0 2.061 0c.726-.22 1.267-.587 2.12-1.438l2.74-2.741c.852-.852 1.218-1.394 1.438-2.12a3.52 3.52 0 0 0 0-2.061c-.22-.726-.586-1.267-1.438-2.12m-1.768 1.767c.585.585.73.798.814 1.077.062.206.062.406 0 .611-.078.258-.207.459-.686.948l-2.868 2.87c-.585.585-.798.729-1.077.813a1.02 1.02 0 0 1-.611 0c-.28-.084-.492-.228-1.077-.813l-2.74-2.741c-.586-.585-.73-.797-.814-1.077a1.02 1.02 0 0 1 0-.61c.078-.259.207-.46.686-.949l2.868-2.87c.585-.584.798-.728 1.077-.813.205-.062.405-.062.61 0 .259.078.46.207.949.686zM12.224 3.893H8.348c-1.205 0-1.847.124-2.516.482a3.5 3.5 0 0 0-1.457 1.457c-.358.67-.482 1.311-.482 2.516v3.876c0 1.205.124 1.846.482 2.515a3.5 3.5 0 0 0 1.457 1.458c.67.358 1.311.482 2.516.482h3.876c1.204 0 1.846-.124 2.515-.482a3.5 3.5 0 0 0 1.458-1.458c.358-.669.482-1.31.482-2.515V8.348c0-1.205-.124-1.847-.482-2.516a3.5 3.5 0 0 0-1.458-1.457c-.669-.358-1.31-.482-2.515-.482m-4.057 2.5h4.057c.827 0 1.079.049 1.336.186.19.101.331.243.432.432.138.257.187.51.187 1.337v3.876c0 .827-.05 1.079-.187 1.336-.101.19-.242.331-.432.432-.257.138-.509.187-1.336.187H8.348c-.828 0-1.08-.05-1.337-.187a1.02 1.02 0 0 1-.432-.432c-.127-.237-.178-.47-.185-1.155l-.001-4.057c0-.828.049-1.08.186-1.337.101-.19.243-.33.432-.432.238-.127.47-.178 1.156-.185M12.224 19.321H8.348c-1.205 0-1.847.124-2.516.482a3.5 3.5 0 0 0-1.457 1.458c-.358.669-.482 1.31-.482 2.515v3.876c0 1.205.124 1.847.482 2.516a3.5 3.5 0 0 0 1.457 1.458c.67.357 1.311.481 2.516.481h3.876c1.204 0 1.846-.124 2.515-.482a3.5 3.5 0 0 0 1.458-1.457c.358-.67.482-1.311.482-2.516v-3.876c0-1.204-.124-1.846-.482-2.515a3.5 3.5 0 0 0-1.458-1.458c-.669-.358-1.31-.482-2.515-.482m-4.057 2.501h4.057c.827 0 1.079.048 1.336.186.19.101.331.242.432.432.138.257.187.509.187 1.336v3.876c0 .828-.05 1.08-.187 1.337-.101.19-.242.33-.432.432-.257.138-.509.186-1.336.186H8.348c-.828 0-1.08-.048-1.337-.186a1.02 1.02 0 0 1-.432-.432c-.127-.238-.178-.47-.185-1.156l-.001-4.057c0-.827.049-1.079.186-1.336.101-.19.243-.331.432-.432.238-.127.47-.178 1.156-.186M23.776 19.321h3.876c1.205 0 1.847.124 2.516.482a3.52 3.52 0 0 1 1.458 1.458c.357.669.481 1.31.481 2.515v3.876c0 1.205-.124 1.847-.482 2.516a3.52 3.52 0 0 1-1.457 1.458c-.67.357-1.311.481-2.516.481h-3.876c-1.204 0-1.846-.124-2.515-.482a3.5 3.5 0 0 1-1.458-1.457c-.358-.67-.482-1.311-.482-2.516v-3.876c0-1.204.124-1.846.482-2.515a3.5 3.5 0 0 1 1.458-1.458c.669-.358 1.31-.482 2.515-.482m3.876 2.5-4.057.001c-.685.008-.918.059-1.155.186-.19.101-.331.242-.432.432-.138.257-.187.509-.187 1.336l.001 4.057c.007.685.059.918.186 1.156.101.19.242.33.432.432.257.138.509.186 1.336.186h3.876c.828 0 1.08-.048 1.337-.186.19-.101.33-.243.432-.432.138-.257.186-.51.186-1.337v-4.057c-.008-.685-.06-.918-.186-1.155a1.02 1.02 0 0 0-.432-.432c-.257-.138-.51-.187-1.337-.187"/></g></symbol><symbol xmlns="http://www.w3.org/2000/svg" fill="currentColor" viewBox="0 0 36 36" id="skip_back_36"><rect width="2.5" height="18" x="11.5" y="27" rx="1.25" transform="rotate(-180 11.5 27)"/><path d="M20.955 9.697c1.98-1.178 2.97-1.767 3.783-1.69a2.5 2.5 0 0 1 1.779 1.012c.483.66.483 1.812.483 4.115v9.732c0 2.303 0 3.455-.483 4.115a2.5 2.5 0 0 1-1.779 1.011c-.814.078-1.803-.511-3.783-1.689l-8.178-4.866c-1.903-1.132-2.855-1.698-3.177-2.432a2.5 2.5 0 0 1 0-2.01c.322-.734 1.274-1.3 3.177-2.433z"/><path d="M24.738 8.008c-.814-.078-1.803.511-3.783 1.689l-8.178 4.865c-.486.29-.91.542-1.277.77V10.25a1.25 1.25 0 1 0-2.5 0v15.5a1.25 1.25 0 1 0 2.5 0v-5.081c.367.227.791.48 1.277.768l8.178 4.866c1.98 1.178 2.97 1.767 3.783 1.689a2.5 2.5 0 0 0 1.779-1.011c.483-.66.483-1.812.483-4.116v-9.73c0-2.304 0-3.456-.483-4.116a2.5 2.5 0 0 0-1.779-1.011"/></symbol><symbol xmlns="http://www.w3.org/2000/svg" fill="currentColor" viewBox="0 0 36 36" id="skip_forward_36"><rect width="2.5" height="18" x="27" y="27" rx="1.25" transform="rotate(-180 27 27)"/><path d="M9 13.134c0-2.303 0-3.455.483-4.115a2.5 2.5 0 0 1 1.779-1.011c.814-.078 1.803.51 3.783 1.689l8.178 4.865c1.903 1.133 2.855 1.7 3.177 2.433a2.5 2.5 0 0 1 0 2.01c-.322.734-1.274 1.3-3.177 2.433l-8.178 4.865c-1.98 1.178-2.97 1.767-3.783 1.689a2.5 2.5 0 0 1-1.779-1.011C9 26.32 9 25.169 9 22.865z"/><path d="M9.483 9.02C9 9.678 9 10.83 9 13.133v9.732c0 2.303 0 3.455.483 4.115a2.5 2.5 0 0 0 1.779 1.011c.814.078 1.803-.511 3.783-1.689l8.178-4.866c.486-.289.91-.541 1.277-.768v5.081a1.25 1.25 0 1 0 2.5 0v-15.5a1.25 1.25 0 1 0-2.5 0v5.082c-.367-.228-.791-.48-1.277-.77l-8.178-4.865c-1.98-1.178-2.97-1.767-3.783-1.69A2.5 2.5 0 0 0 9.483 9.02"/></symbol><symbol fill="none" viewBox="0 0 36 36" xmlns="http://www.w3.org/2000/svg" id="skip_next_36"><path fill="currentColor" d="M18.32 16.535v-3.68a1.474 1.474 0 0 1 2.244-1.258l8.23 5.032c.941.575.941 1.94 0 2.516l-8.23 5.031a1.474 1.474 0 0 1-2.244-1.257v-3.68l-8.077 4.937A1.474 1.474 0 0 1 8 22.92V12.855a1.474 1.474 0 0 1 2.243-1.258z"/></symbol><symbol fill="none" viewBox="0 0 36 36" xmlns="http://www.w3.org/2000/svg" id="skip_previous_36"><path fill="currentColor" d="M18.68 16.535v-3.68a1.474 1.474 0 0 0-2.244-1.258l-8.23 5.032c-.941.575-.941 1.94 0 2.516l8.23 5.031c.983.601 2.244-.106 2.244-1.257v-3.68l8.077 4.937c.982.601 2.243-.106 2.243-1.257V12.855a1.474 1.474 0 0 0-2.243-1.258z"/></symbol><symbol fill="none" viewBox="0 0 36 36" xmlns="http://www.w3.org/2000/svg" id="smile_outline_36"><g fill="currentColor"><path d="M12.938 21.125a1.167 1.167 0 0 0-.057 1.648 7 7 0 0 0 10.236.004 1.167 1.167 0 0 0-1.704-1.594q-.11.118-.23.23a4.667 4.667 0 0 1-6.596-.23 1.167 1.167 0 0 0-1.649-.058M21.938 17.125a1.896 1.896 0 1 0 0-3.792 1.896 1.896 0 0 0 0 3.792M15.958 15.23a1.896 1.896 0 1 1-3.791 0 1.896 1.896 0 0 1 3.791 0"/><path fill-rule="evenodd" d="M18 3c8.284 0 15 6.716 15 15s-6.716 15-15 15S3 26.284 3 18 9.716 3 18 3m0 2.5C11.096 5.5 5.5 11.096 5.5 18S11.096 30.5 18 30.5 30.5 24.904 30.5 18 24.904 5.5 18 5.5" clip-rule="evenodd"/></g></symbol><symbol viewBox="0 0 36 36" fill="none" xmlns="http://www.w3.org/2000/svg" id="song_outline_36"><path fill="currentColor" d="m27.493 4.12.007.13v2.691a4.6 4.6 0 0 1-3.246 4.4l-.208.058-4.546 1.173V22.65h.004v3.139l-.004.242v.32q0 .16-.038.308c-.53 5.434-5.956 8.075-8.984 5.047-1.411-1.41-1.587-3.793-.411-5.706 1.218-1.983 3.629-3.198 6.933-3.336V9.321c-.034-2.463 1.163-4.21 3.435-4.966l.24-.076c.92-.28 2.676-.691 5.316-1.251a1.25 1.25 0 0 1 1.502 1.092M17 25.165l-.298.02c-2.291.169-3.797.97-4.505 2.123-.592.964-.51 2.071.049 2.63 1.475 1.476 4.657-.172 4.756-3.967zm8-19.368-1.59.36c-1.056.246-1.787.437-2.184.57-1.162.386-1.691 1.093-1.724 2.37l-.002.892 3.922-1.01a2.1 2.1 0 0 0 1.571-1.87L25 6.941z"/></symbol><symbol xmlns="http://www.w3.org/2000/svg" fill="currentColor" viewBox="0 0 36 36" id="sound_wave_outline_36"><path fill-rule="evenodd" d="M24.25 5.25a1.25 1.25 0 1 0-2.5 0v25.5a1.25 1.25 0 0 0 2.5 0zm-7.5 6a1.25 1.25 0 1 0-2.5 0v13.5a1.25 1.25 0 1 0 2.5 0zM30.748 10c.69 0 1.25.56 1.25 1.25v13.5a1.25 1.25 0 0 1-2.5 0v-13.5c0-.69.56-1.25 1.25-1.25m-21.75 4.25a1.25 1.25 0 0 0-2.5 0v7.498a1.25 1.25 0 1 0 2.5 0z" clip-rule="evenodd"/><path fill-rule="evenodd" d="M24.25 5.25a1.25 1.25 0 1 0-2.5 0v25.5a1.25 1.25 0 0 0 2.5 0zm-7.5 6a1.25 1.25 0 1 0-2.5 0v13.5a1.25 1.25 0 1 0 2.5 0zM30.748 10c.69 0 1.25.56 1.25 1.25v13.5a1.25 1.25 0 0 1-2.5 0v-13.5c0-.69.56-1.25 1.25-1.25m-21.75 4.25a1.25 1.25 0 0 0-2.5 0v7.498a1.25 1.25 0 1 0 2.5 0z" clip-rule="evenodd"/></symbol><symbol xmlns="http://www.w3.org/2000/svg" fill="currentColor" viewBox="0 0 36 36" id="spinner_36"><path fill-rule="evenodd" d="M24.742 7.474A12.5 12.5 0 0 0 6.645 23.227a1.25 1.25 0 0 1-2.27 1.045A15 15 0 1 1 18 33a1.25 1.25 0 1 1 0-2.5 12.5 12.5 0 0 0 6.742-23.026" clip-rule="evenodd"/></symbol><symbol viewBox="0 0 36 36" fill="none" xmlns="http://www.w3.org/2000/svg" id="story_36"><path fill="currentColor" d="M12.857 18a5.143 5.143 0 1 1 10.286 0 5.143 5.143 0 0 1-10.286 0"/><path fill="currentColor" fill-rule="evenodd" d="M13.89 4c-3.157 0-4.54.28-5.944 1.03A7.03 7.03 0 0 0 5.03 7.946C4.28 9.35 4 10.733 4 13.89v8.222c0 3.156.28 4.539 1.03 5.942a7.03 7.03 0 0 0 2.916 2.917C9.35 31.72 10.733 32 13.89 32h8.222c3.156 0 4.539-.28 5.942-1.03a7.03 7.03 0 0 0 2.917-2.916C31.72 26.65 32 25.267 32 22.11v-8.222c0-3.156-.28-4.539-1.03-5.943a7.03 7.03 0 0 0-2.916-2.916C26.65 4.28 25.267 4 22.11 4zM18 10.286a7.714 7.714 0 1 0 0 15.428 7.714 7.714 0 0 0 0-15.428" clip-rule="evenodd"/></symbol><symbol viewBox="0 0 36 36" fill="none" xmlns="http://www.w3.org/2000/svg" id="story_outline_36"><path fill="currentColor" fill-rule="evenodd" d="M7.946 5.03C9.35 4.28 10.733 4 13.89 4h8.222c3.156 0 4.539.28 5.942 1.03a7.03 7.03 0 0 1 2.917 2.916C31.72 9.35 32 10.733 32 13.89v8.222c0 3.156-.28 4.539-1.03 5.942a7.03 7.03 0 0 1-2.916 2.917C26.65 31.72 25.267 32 22.11 32h-8.222c-3.156 0-4.539-.28-5.943-1.03a7.03 7.03 0 0 1-2.916-2.916C4.28 26.65 4 25.267 4 22.11v-8.222c0-3.156.28-4.539 1.03-5.943A7.03 7.03 0 0 1 7.946 5.03M13.89 6.5c-3.013 0-3.902.274-4.764.735a4.53 4.53 0 0 0-1.89 1.89c-.46.862-.735 1.751-.735 4.764v8.222c0 3.013.274 3.902.735 4.764a4.53 4.53 0 0 0 1.89 1.89c.862.46 1.751.735 4.764.735h8.222c3.013 0 3.902-.274 4.764-.735a4.53 4.53 0 0 0 1.89-1.89c.46-.862.735-1.751.735-4.764v-8.222c0-3.013-.274-3.902-.735-4.764a4.53 4.53 0 0 0-1.89-1.89c-.862-.46-1.751-.735-4.764-.735z" clip-rule="evenodd"/><path fill="currentColor" fill-rule="evenodd" d="M18 13.75a4.25 4.25 0 1 0 0 8.5 4.25 4.25 0 0 0 0-8.5M11.25 18a6.75 6.75 0 1 1 13.5 0 6.75 6.75 0 0 1-13.5 0" clip-rule="evenodd"/></symbol><symbol xmlns="http://www.w3.org/2000/svg" fill="currentColor" viewBox="0 0 36 36" id="tear_off_flyer_outline_36"><path fill-rule="evenodd" d="M7.946 5.03C9.35 4.28 10.733 4 13.89 4h8.222c3.156 0 4.539.28 5.942 1.03a7.03 7.03 0 0 1 2.917 2.916C31.72 9.35 32 10.733 32 13.89v8.222c0 3.156-.28 4.539-1.03 5.942a7.03 7.03 0 0 1-2.916 2.917C26.65 31.72 25.267 32 22.11 32h-8.222c-3.156 0-4.539-.28-5.943-1.03a7.03 7.03 0 0 1-2.916-2.916C4.28 26.65 4 25.267 4 22.11v-8.222c0-3.156.28-4.539 1.03-5.943A7.03 7.03 0 0 1 7.946 5.03M13.89 6.5c-3.013 0-3.902.274-4.764.735a4.53 4.53 0 0 0-1.89 1.89c-.46.862-.735 1.751-.735 4.764v8.222c0 3.013.274 3.902.735 4.764a4.53 4.53 0 0 0 1.89 1.89c.862.46 1.751.735 4.764.735h8.222c3.013 0 3.902-.274 4.764-.735a4.53 4.53 0 0 0 1.89-1.89c.46-.862.735-1.751.735-4.764v-8.222c0-3.013-.274-3.902-.735-4.764a4.53 4.53 0 0 0-1.89-1.89c-.862-.46-1.751-.735-4.764-.735z" clip-rule="evenodd"/><path d="M12 25.25a1.25 1.25 0 1 1 2.5 0v5.5a1.25 1.25 0 1 1-2.5 0zm9.5 0a1.25 1.25 0 1 1 2.5 0v5.5a1.25 1.25 0 1 1-2.5 0zm-12-7c0-.69.56-1.25 1.25-1.25h14.5a1.25 1.25 0 1 1 0 2.5h-14.5c-.69 0-1.25-.56-1.25-1.25m0-6c0-.69.56-1.25 1.25-1.25h14.5a1.25 1.25 0 1 1 0 2.5h-14.5c-.69 0-1.25-.56-1.25-1.25"/></symbol><symbol fill="none" viewBox="0 0 36 36" xmlns="http://www.w3.org/2000/svg" xmlns:xlink="http://www.w3.org/1999/xlink" id="user_circle_outline_36"><clipPath id="mca078417a"><path d="M0 0h36v36H0z"/></clipPath><g fill="currentColor" fill-rule="evenodd" clip-path="url(#mca078417a)" clip-rule="evenodd"><path d="M24 16a6 6 0 1 1-12 0 6 6 0 0 1 12 0m-2.5 0a3.5 3.5 0 1 1-7 0 3.5 3.5 0 0 1 7 0"/><path d="M18 3c-4.142 0-7.893 1.68-10.607 4.393S3 13.858 3 18s1.68 7.894 4.393 10.607S13.858 33 18 33s7.894-1.68 10.607-4.393S33 22.142 33 18s-1.68-7.893-4.393-10.607S22.142 3 18 3M9.161 9.161C11.425 6.898 14.548 5.5 18 5.5s6.575 1.398 8.839 3.661A12.46 12.46 0 0 1 30.5 18c0 3.398-1.354 6.477-3.555 8.732C24.39 25.007 21.313 24 18 24s-6.391 1.007-8.945 2.732A12.46 12.46 0 0 1 5.5 18c0-3.452 1.398-6.575 3.661-8.839M24.924 28.41C22.942 29.73 20.561 30.5 18 30.5s-4.942-.77-6.924-2.091C13.1 27.197 15.469 26.5 18 26.5s4.9.697 6.924 1.909"/></g></symbol><symbol xmlns="http://www.w3.org/2000/svg" fill="none" viewBox="0 0 36 36" id="user_outline_36"><path fill="currentColor" fill-rule="evenodd" d="M32 26a8 8 0 1 1-16 0 8 8 0 0 1 16 0m-4.225-2.03-2.15-.21-.948-2.235c-.296-.7-1.056-.7-1.352 0l-.948 2.235-2.15.21c-.752.075-.98.82-.4 1.314l1.684 1.431-.625 2.333c-.206.766.434 1.228 1.07.769L24 28.336l2.046 1.48c.638.46 1.275-.003 1.07-.77l-.626-2.332 1.684-1.432c.578-.49.349-1.239-.4-1.312M18 5.5c-2.348 0-4.25 1.902-4.25 4.25S15.652 14 18 14s4.25-1.902 4.25-4.25S20.348 5.5 18 5.5m-6.75 4.25C11.25 6.02 14.27 3 18 3s6.75 3.02 6.75 6.75S21.73 16.5 18 16.5s-6.75-3.02-6.75-6.75m3.586 10.465a1.25 1.25 0 0 1-.936 1.5c-1.462.34-2.793.87-3.732 1.61-.901.709-1.418 1.583-1.418 2.746 0 .481.036.792.082.99q.028.11.048.154c.061.014.2.035.473.035h3.167a1.25 1.25 0 1 1 0 2.5H9.353c-.634 0-1.613-.05-2.317-.829-.65-.72-.786-1.762-.786-2.85 0-2.07.989-3.622 2.37-4.71 1.343-1.059 3.072-1.7 4.715-2.08a1.25 1.25 0 0 1 1.5.934m-5.998 6.988.002.001Zm.06.052H8.9Z" clip-rule="evenodd"/></symbol><symbol viewBox="0 0 36 36" fill="none" xmlns="http://www.w3.org/2000/svg" id="users_3_outline_36"><path fill="currentColor" fill-rule="evenodd" d="M18 6.999a5 5 0 1 1 0 10 5 5 0 0 1 0-10m0 2.5a2.5 2.5 0 1 0 0 5 2.5 2.5 0 0 0 0-5M6.05 12.784a4.464 4.464 0 0 1 4.464-4.464 1.25 1.25 0 1 1 0 2.5l-.146.005a1.964 1.964 0 0 0 .146 3.924l.128.006a1.25 1.25 0 0 1-.128 2.494 4.464 4.464 0 0 1-4.464-4.465M1.964 24.036c0-2.671 2.24-4.786 5.75-4.786a1.25 1.25 0 1 1 0 2.5c-2.161 0-3.25 1.028-3.25 2.286 0 .65.427 1 1 1h.965l.127.006a1.25 1.25 0 0 1-.127 2.494h-.965l-.185-.005c-1.778-.086-3.315-1.413-3.315-3.495m32.072 0c0-2.671-2.24-4.786-5.75-4.786a1.25 1.25 0 0 0 0 2.5c2.161 0 3.25 1.028 3.25 2.286 0 .65-.427 1-1 1h-.965l-.127.006a1.25 1.25 0 0 0 .127 2.494h.965l.184-.005c1.779-.086 3.316-1.413 3.316-3.495M9.679 25c0-3.501 3.373-5.75 8.321-5.75s8.321 2.249 8.321 5.75c0 2.46-1.633 3.821-3.821 3.821h-9c-2.188 0-3.821-1.36-3.821-3.821m14.142 0c0-1.856-2.09-3.25-5.821-3.25s-5.821 1.394-5.821 3.25c0 .968.423 1.321 1.321 1.321h9c.898 0 1.321-.353 1.321-1.321M25.5 8.32a1.25 1.25 0 0 0-.128 2.493l.128.007a1.964 1.964 0 0 1 .147 3.923l-.147.006a1.25 1.25 0 0 0 0 2.5 4.464 4.464 0 0 0 0-8.929" clip-rule="evenodd"/></symbol><symbol viewBox="0 0 36 36" fill="none" xmlns="http://www.w3.org/2000/svg" id="users_36"><path fill="currentColor" d="M28.929 12.857c0-2.486-2.014-4.5-4.5-4.5a4.5 4.5 0 0 0-4.5 4.5c0 2.486 2.013 4.5 4.5 4.5s4.5-2.014 4.5-4.5m-4.5 6.429c3.176 0 9 1.102 9 5.51 0 1.928-.53 2.204-1.589 2.204h-9.012q.314-.94.315-2.204c0-2.171-.807-3.868-2.147-5.133a16.3 16.3 0 0 1 3.433-.377m-12.858 0c3.177 0 9 1.102 9 5.51 0 1.928-.529 2.204-1.588 2.204H4.16c-1.06 0-1.589-.276-1.589-2.204 0-4.408 5.824-5.51 9-5.51m0-10.929c2.487 0 4.5 2.014 4.5 4.5s-2.013 4.5-4.5 4.5a4.5 4.5 0 0 1-4.5-4.5c0-2.486 2.014-4.5 4.5-4.5"/></symbol><symbol viewBox="0 0 36 36" fill="none" xmlns="http://www.w3.org/2000/svg" id="video_36"><path fill="currentColor" fill-rule="evenodd" d="M8.946 4.03C10.348 3.28 11.736 3 14.844 3h6.312c3.107 0 4.496.28 5.898 1.03a7.03 7.03 0 0 1 2.916 2.916c.75 1.402 1.03 2.79 1.03 5.898v10.312c0 3.107-.28 4.496-1.03 5.898a7.03 7.03 0 0 1-2.916 2.916c-1.402.75-2.79 1.03-5.898 1.03h-6.312c-3.107 0-4.496-.28-5.898-1.03a7.03 7.03 0 0 1-2.916-2.916C5.28 27.652 5 26.264 5 23.156V12.844c0-3.107.28-4.496 1.03-5.898A7.03 7.03 0 0 1 8.946 4.03M9 9a1 1 0 0 1 1-1h2a1 1 0 0 1 1 1v2a1 1 0 0 1-1 1h-2a1 1 0 0 1-1-1zm1 7a1 1 0 0 0-1 1v2a1 1 0 0 0 1 1h2a1 1 0 0 0 1-1v-2a1 1 0 0 0-1-1zm-1 9a1 1 0 0 1 1-1h2a1 1 0 0 1 1 1v2a1 1 0 0 1-1 1h-2a1 1 0 0 1-1-1zm15-1a1 1 0 0 0-1 1v2a1 1 0 0 0 1 1h2a1 1 0 0 0 1-1v-2a1 1 0 0 0-1-1zm-1-7a1 1 0 0 1 1-1h2a1 1 0 0 1 1 1v2a1 1 0 0 1-1 1h-2a1 1 0 0 1-1-1zm1-9a1 1 0 0 0-1 1v2a1 1 0 0 0 1 1h2a1 1 0 0 0 1-1V9a1 1 0 0 0-1-1z" clip-rule="evenodd"/></symbol><symbol viewBox="0 0 36 36" fill="none" xmlns="http://www.w3.org/2000/svg" id="video_outline_36"><path fill="currentColor" fill-rule="evenodd" d="M18 3c8.284 0 15 6.716 15 15s-6.716 15-15 15S3 26.284 3 18 9.716 3 18 3m0 2.5C11.096 5.5 5.5 11.096 5.5 18S11.096 30.5 18 30.5 30.5 24.904 30.5 18 24.904 5.5 18 5.5m-1.9 5.98a2.6 2.6 0 0 0-2.6 2.6v7.84a2.6 2.6 0 0 0 3.972 2.209l6.31-3.92a2.6 2.6 0 0 0 0-4.417l-6.31-3.92a2.6 2.6 0 0 0-1.372-.392m0 2.5a.1.1 0 0 1 .053.015l6.31 3.92a.1.1 0 0 1 0 .17l-6.31 3.92A.1.1 0 0 1 16 21.92v-7.84a.1.1 0 0 1 .1-.1" clip-rule="evenodd"/></symbol><symbol fill="none" viewBox="0 0 36 36" xmlns="http://www.w3.org/2000/svg" id="videocam_36"><path fill="currentColor" d="M19.731 7.5c2.006 0 2.734.209 3.467.601s1.309.968 1.701 1.701.601 1.46.601 3.467v9.462c0 2.006-.209 2.734-.601 3.467a4.1 4.1 0 0 1-1.701 1.701c-.733.392-1.46.601-3.467.601H8.77c-2.006 0-2.734-.209-3.467-.601s-1.309-.968-1.7-1.701S3 24.738 3 22.73V13.27c0-2.006.209-2.734.601-3.467a4.1 4.1 0 0 1 1.701-1.7c.733-.393 1.46-.602 3.467-.602zM34.2 11.845c.195.26.301.576.301.901v10.508a1.5 1.5 0 0 1-2.4 1.2l-3.3-2.479a.75.75 0 0 1-.3-.6v-6.75a.75.75 0 0 1 .3-.6l3.3-2.478a1.5 1.5 0 0 1 2.1.298"/></symbol><symbol xmlns="http://www.w3.org/2000/svg" fill="currentColor" viewBox="0 0 36 36" id="vinyl_outline_36"><path fill-rule="evenodd" d="M14.464 14.464A4.98 4.98 0 0 1 18 13c1.38 0 2.63.56 3.535 1.464A4.98 4.98 0 0 1 23 18c0 1.38-.56 2.63-1.465 3.535A4.98 4.98 0 0 1 18 23c-1.38 0-2.63-.56-3.536-1.465A4.98 4.98 0 0 1 13 18c0-1.38.56-2.63 1.464-3.536M18 15.5c-.691 0-1.313.277-1.768.732A2.49 2.49 0 0 0 15.5 18c0 .691.277 1.313.732 1.768A2.49 2.49 0 0 0 18 20.5c.691 0 1.313-.277 1.768-.732A2.49 2.49 0 0 0 20.5 18c0-.691-.277-1.313-.732-1.768A2.49 2.49 0 0 0 18 15.5M17.75 8C13.154 8 8 11.967 8 17.75a1.25 1.25 0 1 0 2.5 0c0-4.217 3.844-7.25 7.25-7.25a1.25 1.25 0 1 0 0-2.5M28 18.25a1.25 1.25 0 0 0-2.5 0c0 3.607-3.237 7.25-7.25 7.25a1.25 1.25 0 1 0 0 2.5c5.487 0 9.75-4.857 9.75-9.75M7.393 7.393A14.95 14.95 0 0 1 18 3c4.142 0 7.892 1.679 10.607 4.393A14.95 14.95 0 0 1 33 18c0 4.142-1.679 7.892-4.393 10.607A14.95 14.95 0 0 1 18 33a14.95 14.95 0 0 1-10.607-4.393A14.95 14.95 0 0 1 3 18c0-4.142 1.679-7.892 4.393-10.607M18 5.5a12.45 12.45 0 0 0-8.839 3.661A12.45 12.45 0 0 0 5.5 18c0 3.453 1.396 6.574 3.661 8.839A12.45 12.45 0 0 0 18 30.5c3.453 0 6.574-1.396 8.839-3.661A12.45 12.45 0 0 0 30.5 18c0-3.453-1.396-6.574-3.661-8.839A12.45 12.45 0 0 0 18 5.5" clip-rule="evenodd"/></symbol></svg>