<svg xmlns="http://www.w3.org/2000/svg"><symbol xmlns="http://www.w3.org/2000/svg" fill="currentColor" viewBox="0 0 12 12" id="add_12"><path d="M6.75 1.75a.75.75 0 0 0-1.5 0v3.5h-3.5a.75.75 0 0 0 0 1.5h3.5v3.5a.75.75 0 0 0 1.5 0v-3.5h3.5a.75.75 0 0 0 0-1.5h-3.5z"/></symbol><symbol xmlns="http://www.w3.org/2000/svg" fill="currentcolor" fill-rule="evenodd" viewBox="0 0 12 12" id="album_filled_12"><path d="M.218 4.092C0 4.52 0 5.08 0 6.2v2.6c0 1.12 0 1.68.218 2.108a2 2 0 0 0 .874.874C1.52 12 2.08 12 3.2 12h5.6c1.12 0 1.68 0 2.108-.218a2 2 0 0 0 .874-.874C12 10.48 12 9.92 12 8.8V6.2c0-1.12 0-1.68-.218-2.108a2 2 0 0 0-.874-.874C10.48 3 9.92 3 8.8 3H3.2c-1.12 0-1.68 0-2.108.218a2 2 0 0 0-.874.874m6.488 2.047L5.051 8.213 4.29 7.148a.357.357 0 0 0-.578 0L2.066 9.447a.35.35 0 0 0 .29.553H9.63c.306 0 .479-.334.294-.566l-2.63-3.295a.38.38 0 0 0-.588 0M2 1.5A1.5 1.5 0 0 1 3.5 0h5A1.5 1.5 0 0 1 10 1.5z"/></symbol><symbol xmlns="http://www.w3.org/2000/svg" fill="currentColor" viewBox="0 0 12 12" id="arrow_down_12"><path d="M4.999 2a1 1 0 0 1 2 0v5.589l1.292-1.292a1 1 0 1 1 1.414 1.415l-2.986 2.986a.997.997 0 0 1-1.427.012L2.294 7.712a1 1 0 0 1 1.414-1.414l1.291 1.291z"/></symbol><symbol fill="none" viewBox="0 0 12 12" xmlns="http://www.w3.org/2000/svg" id="arrow_down_circle_12"><path fill="currentColor" fill-rule="evenodd" d="M12 6A6 6 0 1 1 0 6a6 6 0 0 1 12 0M6.75 3.25a.75.75 0 0 0-1.5 0v3.19l-.97-.97a.75.75 0 0 0-1.06 1.06l2.25 2.25a.75.75 0 0 0 1.06 0l2.25-2.25a.75.75 0 0 0-1.06-1.06l-.97.97z" clip-rule="evenodd"/></symbol><symbol fill="none" viewBox="0 0 12 12" xmlns="http://www.w3.org/2000/svg" id="arrow_down_left_12"><path fill="currentColor" d="M3 10a1 1 0 0 1-1-1V4a1 1 0 0 1 2 0v2.586l4.293-4.293a1 1 0 0 1 1.414 1.414L5.415 8.001 8 8a1 1 0 0 1 0 2z"/></symbol><symbol xmlns="http://www.w3.org/2000/svg" fill="currentColor" viewBox="0 0 12 12" id="arrow_right_12"><path fill-rule="evenodd" d="M6.145 2.646a.5.5 0 0 1 .707 0l3 3a.5.5 0 0 1 0 .708l-3 3a.5.5 0 1 1-.707-.708L8.29 6.5H2.504a.5.5 0 1 1 0-1H8.29L6.145 3.354a.5.5 0 0 1 0-.708" clip-rule="evenodd"/></symbol><symbol xmlns="http://www.w3.org/2000/svg" fill="currentColor" viewBox="0 0 12 12" id="arrow_up_12"><path d="M4.999 10.003a1 1 0 1 0 2 0V4.414l1.292 1.292a1 1 0 1 0 1.414-1.414L6.719 1.306a.997.997 0 0 0-1.427-.013L2.294 4.291a1 1 0 0 0 1.414 1.415l1.291-1.292v5.59Z"/></symbol><symbol fill="none" viewBox="0 0 12 12" xmlns="http://www.w3.org/2000/svg" id="arrow_up_right_12"><path fill="currentColor" d="M9 2a1 1 0 0 1 1 1v5a1 1 0 0 1-2 0V5.414L3.707 9.707a1 1 0 0 1-1.414-1.414l4.292-4.294L4 4a1 1 0 0 1 0-2z"/></symbol><symbol xmlns="http://www.w3.org/2000/svg" fill="none" viewBox="0 0 12 12" id="arrow_up_right_out_square_outline_12"><path fill="currentColor" d="M4.25 1a.75.75 0 1 1 0 1.5c-.5 0-.641.004-.744.024a1.25 1.25 0 0 0-.982.982c-.02.103-.024.243-.024.744v2.8c0 .572 0 .957.025 1.253.023.287.065.424.111.514a1.25 1.25 0 0 0 .547.547c.09.046.227.088.515.111.295.024.68.025 1.252.025h2.8c.5 0 .641-.004.744-.024a1.25 1.25 0 0 0 .982-.982c.02-.103.024-.243.024-.744a.75.75 0 0 1 1.5 0c0 .429.004.753-.053 1.037a2.75 2.75 0 0 1-2.16 2.16C8.519 11 8.216 11 7.823 11H4.92c-.535 0-.98 0-1.345-.03-.38-.03-.736-.098-1.073-.27A2.75 2.75 0 0 1 1.3 9.5c-.172-.338-.24-.694-.27-1.074C1 8.06 1 7.615 1 7.08V4.177c0-.393 0-.696.053-.963a2.75 2.75 0 0 1 2.16-2.161C3.499.996 3.822 1 4.25 1M7 .75A.75.75 0 0 1 7.75 0h3.5a.75.75 0 0 1 .75.75v3.5a.75.75 0 0 1-1.5 0V2.56L7.28 5.78a.75.75 0 0 1-1.06-1.06L9.44 1.5H7.75A.75.75 0 0 1 7 .75"/></symbol><symbol xmlns="http://www.w3.org/2000/svg" fill="currentColor" viewBox="0 0 12 12" id="arrowshape_right_12"><path fill-rule="evenodd" d="M7.36 1.726C6.82 1.203 6 1.646 6 2.458v1.657l-4.148.477c-.416.048-.767.35-.815.766q-.075.646 0 1.293c.048.417.4.719.817.766L6 7.887v1.655c0 .813.821 1.255 1.36.732l3.184-3.097c.267-.26.43-.713.454-1.126v-.023Q11.001 6.013 11 6l-.002-.051c-.024-.413-.187-.866-.454-1.126z" clip-rule="evenodd"/></symbol><symbol xmlns="http://www.w3.org/2000/svg" fill="currentColor" viewBox="0 0 12 12" id="articles_12"><path d="M1 3.5a.5.5 0 0 1 .5-.5h9a.5.5 0 0 1 0 1h-9a.5.5 0 0 1-.5-.5m0 3a.5.5 0 0 1 .5-.5h9a.5.5 0 0 1 0 1h-9a.5.5 0 0 1-.5-.5m0 3a.5.5 0 0 1 .5-.5h5a.5.5 0 0 1 0 1h-5a.5.5 0 0 1-.5-.5"/></symbol><symbol xmlns="http://www.w3.org/2000/svg" fill="none" viewBox="0 0 12 12" id="block_12"><path fill="currentColor" fill-rule="evenodd" d="M12 6A6 6 0 1 1 0 6a6 6 0 0 1 12 0M8.607 9.668A4.5 4.5 0 0 1 6 10.5a4.5 4.5 0 0 1-3.668-7.107zm1.061-1.06L3.393 2.331A4.5 4.5 0 0 1 6 1.5 4.5 4.5 0 0 1 10.5 6a4.5 4.5 0 0 1-.832 2.607Z" clip-rule="evenodd"/></symbol><symbol xmlns="http://www.w3.org/2000/svg" fill="currentColor" viewBox="0 0 12 12" id="bomb_12"><path d="M7.84 1.49a.6.6 0 0 0-1.18.22l.15.8a.6.6 0 0 0 1.18-.22zm2.384.286a.6.6 0 0 1 .002.849l-.6.602a.6.6 0 0 1-.85-.847l.6-.602a.6.6 0 0 1 .848-.002"/><path fill-rule="evenodd" d="M7.823 4.174a.6.6 0 0 1 .003.849l-.462.465a3.5 3.5 0 1 1-.848-.85l.458-.46a.6.6 0 0 1 .849-.004M6.8 7.5a2.3 2.3 0 1 1-4.6 0 2.3 2.3 0 0 1 4.6 0m4.19-2.64a.6.6 0 0 1-.7.48l-.8-.15a.6.6 0 0 1 .22-1.18l.8.15a.6.6 0 0 1 .48.7"/></symbol><symbol fill="none" viewBox="0 0 12 12" xmlns="http://www.w3.org/2000/svg" id="bookmark_outline_12"><path fill="currentColor" fill-rule="evenodd" d="M5.478 0h1.044c.681 0 1.223 0 1.66.036.449.036.83.113 1.18.291a3 3 0 0 1 1.311 1.311c.178.35.255.731.291 1.18.036.437.036.979.036 1.66v4.816c0 .504 0 .917-.03 1.237-.028.316-.091.642-.294.898a1.5 1.5 0 0 1-1.165.569c-.327.002-.623-.148-.89-.32-.27-.174-.596-.428-.993-.739l-.951-.742c-.389-.303-.473-.357-.546-.377a.5.5 0 0 0-.262 0c-.073.02-.157.074-.546.377l-.95.742c-.398.31-.724.565-.994.739-.267.172-.563.322-.89.32a1.5 1.5 0 0 1-1.165-.569c-.203-.256-.266-.582-.295-.898C1 10.21 1 9.798 1 9.293V4.478c0-.681 0-1.223.036-1.66.036-.449.113-.83.291-1.18A3 3 0 0 1 2.638.327c.35-.178.731-.255 1.18-.291C4.254 0 4.796 0 5.477 0m-1.58 1.032c-.385.032-.62.092-.806.186a2 2 0 0 0-.874.874c-.094.185-.154.42-.186.807C2 3.29 2 3.792 2 4.5v4.768c0 .536 0 .903.025 1.172.025.278.07.352.083.368a.5.5 0 0 0 .388.19c.021 0 .107-.01.342-.161.227-.146.516-.372.939-.702l.93-.726.063-.049c.289-.226.542-.425.837-.505a1.5 1.5 0 0 1 .786 0c.295.08.548.279.837.505l.062.049.931.726c.423.33.712.556.94.702.234.15.32.16.34.16a.5.5 0 0 0 .389-.189c.013-.016.058-.09.083-.368.025-.269.025-.636.025-1.172V4.5c0-.708 0-1.21-.032-1.601-.032-.386-.092-.622-.186-.807a2 2 0 0 0-.874-.874c-.185-.094-.42-.154-.807-.186C7.71 1 7.208 1 6.5 1h-1c-.708 0-1.21 0-1.601.032" clip-rule="evenodd"/></symbol><symbol xmlns="http://www.w3.org/2000/svg" fill="currentColor" viewBox="0 0 12 12" id="cake_12"><path d="M10 8.385v1.62a1 1 0 0 1-1 1H3a1 1 0 0 1-1-1v-1.62c.346.086.688.12 1 .12.568 0 1.072-.103 1.5-.297.428.194.932.296 1.5.296s1.072-.102 1.5-.296c.428.194.932.296 1.5.296.312 0 .654-.033 1-.12ZM1 5.004a1 1 0 0 1 1-1h8a1 1 0 0 1 1 1c0 1.5-1 2-2 2-1.5 0-1.5-1-1.5-1s0 1-1.5 1-1.5-1-1.5-1 0 1-1.5 1c-1 0-2-.5-2-2M5.907.054a.107.107 0 0 1 .186 0C6.56.907 7 1.278 7 2.004a1 1 0 1 1-2 0c0-.726.44-1.097.907-1.95"/></symbol><symbol fill="none" viewBox="0 0 12 12" xmlns="http://www.w3.org/2000/svg" id="cancel_12"><path fill="currentColor" d="M3.525 2.464a.75.75 0 0 0-1.06 1.061L4.938 6 2.464 8.475a.75.75 0 1 0 1.061 1.06L6 7.062l2.475 2.475a.75.75 0 0 0 1.06-1.061L7.062 6l2.475-2.475a.75.75 0 1 0-1.061-1.06L6 4.938z"/></symbol><symbol xmlns="http://www.w3.org/2000/svg" fill="none" viewBox="0 0 12 12" id="cancel_circle_fill_red_12"><rect width="12" height="12" fill="url(#m5d73e022a)" rx="6"/><path fill="#fff" fill-rule="evenodd" d="M8.788 3.218a.75.75 0 0 1 0 1.061L7.06 6.005l1.715 1.718a.75.75 0 0 1-1.062 1.06L6 7.066 4.288 8.778a.75.75 0 1 1-1.06-1.061L4.94 6.004 3.223 4.283a.75.75 0 1 1 1.061-1.06l1.718 1.72 1.725-1.725a.75.75 0 0 1 1.061 0" clip-rule="evenodd"/><defs><linearGradient id="m5d73e022a" x1="-6" x2="6" y1="6" y2="18" gradientUnits="userSpaceOnUse"><stop stop-color="#FF5263"/><stop offset="1" stop-color="#FF3347"/></linearGradient></defs></symbol><symbol fill="none" viewBox="0 0 12 12" xmlns="http://www.w3.org/2000/svg" id="cancel_outline_12"><path fill="currentColor" fill-rule="evenodd" d="M9.03 2.97a.75.75 0 0 1 0 1.06L7.06 6l1.97 1.97a.75.75 0 0 1-1.06 1.06L6 7.06 4.03 9.03a.75.75 0 0 1-1.06-1.06L4.94 6 2.97 4.03a.75.75 0 0 1 1.06-1.06L6 4.94l1.97-1.97a.75.75 0 0 1 1.06 0" clip-rule="evenodd"/></symbol><symbol xmlns="http://www.w3.org/2000/svg" fill="none" viewBox="0 0 12 12" id="cards_2_12"><path fill="currentColor" d="m3.619 2.974-2.21.382c-.552.095-.828.143-1.02.287a1 1 0 0 0-.353.505c-.07.229-.02.505.08 1.056l.972 5.387c.1.551.149.827.294 1.02.128.168.306.293.509.355.23.07.506.023 1.059-.072l2.423-.419c.552-.095.828-.143 1.02-.287a1 1 0 0 0 .15-.138l-1.166-.21c-.335-.06-.644-.114-.899-.182a2.3 2.3 0 0 1-.847-.392 2.35 2.35 0 0 1-.818-1.188 2.4 2.4 0 0 1-.071-.928c.024-.265.078-.577.138-.919zm.62 6.498c.254.194.62.26 1.349.39l2.868.514c.73.13 1.095.196 1.398.101a1.32 1.32 0 0 0 .67-.477c.191-.258.256-.63.385-1.371l.95-5.475c.129-.742.193-1.113.1-1.422a1.35 1.35 0 0 0-.468-.682c-.254-.194-.619-.26-1.348-.39L7.274.146C6.544.016 6.18-.05 5.877.045a1.32 1.32 0 0 0-.67.477c-.19.258-.255.63-.384 1.371l-.95 5.475c-.13.742-.194 1.113-.1 1.422a1.35 1.35 0 0 0 .468.682"/></symbol><symbol fill="none" viewBox="0 0 12 12" xmlns="http://www.w3.org/2000/svg" id="chain_12"><g fill="currentColor" fill-rule="evenodd" clip-rule="evenodd"><path d="M6.88.878a3 3 0 0 1 4.24 0 2.993 2.993 0 0 1 .001 4.238l-.665.665a.75.75 0 1 1-1.06-1.06l.665-.666a1.494 1.494 0 0 0 0-2.115 1.5 1.5 0 0 0-2.121 0L5.643 4.232a1.49 1.49 0 0 0-.295 1.697.75.75 0 0 1-1.356.643 2.99 2.99 0 0 1 .591-3.401z"/><path d="M6.971 5.078a.75.75 0 0 1 1.001.35 3 3 0 0 1-.581 3.424l-2.269 2.269A3 3 0 0 1 .88 6.879l.659-.659a.75.75 0 0 1 1.06 1.061l-.658.658a1.5 1.5 0 1 0 2.12 2.121l2.27-2.268a1.5 1.5 0 0 0 .29-1.712.75.75 0 0 1 .35-1.002"/></g></symbol><symbol xmlns="http://www.w3.org/2000/svg" fill="currentColor" viewBox="0 0 12 12" id="check_12"><path d="M4.5 7.65 2.625 5.775a.742.742 0 1 0-1.05 1.05L3.97 9.22a.75.75 0 0 0 1.06 0l5.695-5.695a.743.743 0 0 0-1.05-1.05z"/></symbol><symbol fill="none" viewBox="0 0 12 12" xmlns="http://www.w3.org/2000/svg" id="check_circle_12"><path fill="currentColor" fill-rule="evenodd" d="M12 6A6 6 0 1 1 0 6a6 6 0 0 1 12 0m-3.22-.97a.75.75 0 0 0-1.06-1.06L5 6.69l-.72-.72a.75.75 0 0 0-1.06 1.06l1.25 1.25a.75.75 0 0 0 1.06 0z" clip-rule="evenodd"/></symbol><symbol fill="none" viewBox="0 0 12 12" xmlns="http://www.w3.org/2000/svg" id="check_circle_fill_12"><path fill="#99a2ad" d="M6 12A6 6 0 1 0 6 0a6 6 0 0 0 0 12"/><path fill="#fff" fill-rule="evenodd" d="M8.78 3.97a.75.75 0 0 1 0 1.06L5.53 8.28a.75.75 0 0 1-1.06 0L3.22 7.03a.75.75 0 0 1 1.06-1.06l.72.72 2.72-2.72a.75.75 0 0 1 1.06 0" clip-rule="evenodd"/></symbol><symbol xmlns="http://www.w3.org/2000/svg" fill="currentColor" viewBox="0 0 12 12" id="chevron_12"><path fill-rule="evenodd" d="M4.22 2.47a.75.75 0 0 1 1.06 0l3 3a.75.75 0 0 1 0 1.06l-3 3a.75.75 0 0 1-1.06-1.06L6.69 6 4.22 3.53a.75.75 0 0 1 0-1.06" clip-rule="evenodd"/></symbol><symbol xmlns="http://www.w3.org/2000/svg" fill="currentColor" viewBox="0 0 12 12" id="chevron_down_small_12"><path fill-rule="evenodd" d="M3.202 4.736a.754.754 0 0 1 1.06-.036L6 6.31 7.738 4.7a.754.754 0 0 1 1.06.036.74.74 0 0 1-.036 1.052L6.648 7.746a.955.955 0 0 1-1.296 0L3.238 5.788a.74.74 0 0 1-.036-1.052" clip-rule="evenodd"/></symbol><symbol xmlns="http://www.w3.org/2000/svg" fill="currentColor" viewBox="0 0 8 12" id="chevron_left_12"><path fill-rule="evenodd" d="M2.15 6.452a.75.75 0 0 1 0-.9c.49-.653.907-1.187 1.305-1.697l.038-.049c.384-.492.751-.961 1.157-1.502a.75.75 0 1 1 1.2.9c-.415.553-.79 1.033-1.172 1.522l-.042.053c-.3.384-.607.777-.946 1.223.34.445.646.838.946 1.223l.042.052c.382.49.757.97 1.172 1.523a.75.75 0 1 1-1.2.9c-.406-.54-.773-1.01-1.157-1.502l-.038-.05A98 98 0 0 1 2.15 6.452" clip-rule="evenodd"/></symbol><symbol xmlns="http://www.w3.org/2000/svg" fill="currentColor" viewBox="0 0 12 12" id="chevron_outline_12"><path fill-rule="evenodd" d="M4.146 2.646a.5.5 0 0 1 .708 0l3 3a.5.5 0 0 1 0 .708l-3 3a.5.5 0 1 1-.708-.708L6.793 6 4.146 3.354a.5.5 0 0 1 0-.708" clip-rule="evenodd"/></symbol><symbol xmlns="http://www.w3.org/2000/svg" fill="currentColor" viewBox="0 0 8 12" id="chevron_right_12"><path fill-rule="evenodd" d="M5.85 5.552c.2.267.2.633 0 .9-.49.653-.907 1.187-1.304 1.696l-.039.05c-.384.491-.751.961-1.157 1.502a.75.75 0 0 1-1.2-.9 94 94 0 0 1 1.173-1.523l.04-.052c.3-.385.608-.778.947-1.223-.34-.446-.646-.839-.946-1.223l-.041-.053A93 93 0 0 1 2.15 3.204a.75.75 0 1 1 1.2-.9c.406.54.773 1.01 1.157 1.502l.039.05c.397.508.814 1.043 1.304 1.696" clip-rule="evenodd"/></symbol><symbol fill="none" viewBox="0 0 12 8" xmlns="http://www.w3.org/2000/svg" id="chevron_up_12"><path fill="currentColor" fill-rule="evenodd" d="M9.844 5.71a.75.75 0 0 1-1.051.137L6 3.699 3.207 5.847a.75.75 0 1 1-.914-1.19l3.25-2.5a.75.75 0 0 1 .914 0l3.25 2.5a.75.75 0 0 1 .137 1.053" clip-rule="evenodd"/></symbol><symbol xmlns="http://www.w3.org/2000/svg" fill="currentColor" viewBox="0 0 12 12" id="chevron_up_small_12"><path fill-rule="evenodd" d="M3.202 7.264c.282.3.757.316 1.06.036L6 5.69 7.738 7.3a.754.754 0 0 0 1.06-.036.74.74 0 0 0-.036-1.052L6.648 4.254a.955.955 0 0 0-1.296 0L3.238 6.212a.74.74 0 0 0-.036 1.052" clip-rule="evenodd"/></symbol><symbol fill="none" viewBox="0 0 12 12" xmlns="http://www.w3.org/2000/svg" id="circle_12"><path fill="currentColor" d="M10 6a4 4 0 1 1-8 0 4 4 0 0 1 8 0"/></symbol><symbol fill="none" viewBox="0 0 12 12" xmlns="http://www.w3.org/2000/svg" id="circle_outline_12"><path fill="currentColor" fill-rule="evenodd" d="M6 8.5a2.5 2.5 0 1 0 0-5 2.5 2.5 0 0 0 0 5M6 10a4 4 0 1 0 0-8 4 4 0 0 0 0 8" clip-rule="evenodd"/></symbol><symbol xmlns="http://www.w3.org/2000/svg" fill="currentColor" viewBox="0 0 12 12" id="clock_12"><path fill-rule="evenodd" d="M0 6a6 6 0 1 0 12 0A6 6 0 0 0 0 6m6.403-3c0-.409-.314-.7-.701-.7A.7.7 0 0 0 5 3l.007 3.601a.7.7 0 0 0 .489.568l2.707.82c.36.105.672-.15.775-.487.085-.37-.079-.756-.465-.874l-2.11-.646z" clip-rule="evenodd"/></symbol><symbol fill="none" viewBox="0 0 12 12" xmlns="http://www.w3.org/2000/svg" id="clock_outline_12"><g fill="currentColor"><path d="M6.5 3.75a.75.75 0 0 0-1.5 0v3a.75.75 0 0 0 .568.728l2 .5a.75.75 0 0 0 .364-1.456L6.5 6.164z"/><path fill-rule="evenodd" d="M12 6A6 6 0 1 1 0 6a6 6 0 0 1 12 0m-1.5 0a4.5 4.5 0 1 1-9 0 4.5 4.5 0 0 1 9 0" clip-rule="evenodd"/></g></symbol><symbol xmlns="http://www.w3.org/2000/svg" fill="currentColor" viewBox="0 0 12 12" id="coins_12"><path d="M9 3.5C9 4.328 7.657 5 6 5s-3-.672-3-1.5S4.343 2 6 2s3 .672 3 1.5m0 5C9 9.328 7.657 10 6 10s-3-.672-3-1.5v-1c0-.09.096-.106.17 0 .413.583 1.524 1 2.83 1s2.417-.417 2.83-1c.074-.106.17-.09.17 0zM9 6c0 .828-1.343 1.5-3 1.5S3 6.828 3 6V5c0-.09.096-.106.17 0 .413.583 1.524 1 2.83 1s2.417-.417 2.83-1c.074-.106.17-.09.17 0z"/></symbol><symbol xmlns="http://www.w3.org/2000/svg" fill="none" viewBox="0 0 12 12" id="crown_12"><path fill="currentColor" fill-rule="evenodd" d="M6.549 3.138a1.14 1.14 0 0 0 .59-.999 1.14 1.14 0 1 0-1.688 1L3.844 5.54a.2.2 0 0 1-.284.051L2.167 4.585a1.1 1.1 0 0 0 .112-.494 1.14 1.14 0 1 0-1.14 1.139l.572 1.772h8.596l.554-1.772a1.14 1.14 0 1 0-1.023-.636L8.446 5.601a.2.2 0 0 1-.284-.051zM2 8.202h8l-.128.622A1.72 1.72 0 0 1 8.184 10.2H3.817A1.72 1.72 0 0 1 2.13 8.826z" clip-rule="evenodd"/></symbol><symbol xmlns="http://www.w3.org/2000/svg" fill="none" viewBox="0 0 12 12" id="delete_12"><path fill="currentColor" d="M2.02 4.862c-.023-.3-.035-.449.017-.564a.5.5 0 0 1 .22-.238c.11-.06.26-.06.561-.06h6.367c.3 0 .45 0 .562.06a.5.5 0 0 1 .22.238c.05.115.039.265.015.565l-.25 3.188c-.082 1.04-.123 1.56-.352 1.953a2 2 0 0 1-.863.799C8.107 11 7.585 11 6.542 11H5.46c-1.044 0-1.566 0-1.976-.197a2 2 0 0 1-.864-.8c-.229-.393-.27-.913-.35-1.954zM10.25 3h-8.5a.75.75 0 0 1 0-1.5h2.313a2 2 0 0 1 3.874 0h2.313a.75.75 0 0 1 0 1.5"/></symbol><symbol fill="none" viewBox="0 0 12 12" xmlns="http://www.w3.org/2000/svg" id="download_12"><path fill="currentColor" fill-rule="evenodd" d="M6.75 1.75a.75.75 0 0 0-1.5 0v3.69l-.97-.97a.75.75 0 0 0-1.06 1.06l2.25 2.25a.75.75 0 0 0 1.06 0l2.25-2.25a.75.75 0 0 0-1.06-1.06l-.97.97zm-4 7.75a.75.75 0 0 0 0 1.5h6.5a.75.75 0 0 0 0-1.5z" clip-rule="evenodd"/></symbol><symbol xmlns="http://www.w3.org/2000/svg" fill="currentColor" viewBox="0 0 12 12" id="drop_12"><path fill-rule="evenodd" d="M11 7.124c0 3-2.306 4.876-5 4.876-2.69 0-5-1.872-5-4.876C1 4.124 5.235 0 6.003 0 6.772 0 11 4.124 11 7.124M4.2 7.6a.6.6 0 0 0-1.2 0A2.4 2.4 0 0 0 5.4 10a.6.6 0 0 0 0-1.2 1.2 1.2 0 0 1-1.2-1.2" clip-rule="evenodd"/></symbol><symbol fill="none" viewBox="0 0 12 8" xmlns="http://www.w3.org/2000/svg" id="dropdown_12"><path fill="currentColor" fill-rule="evenodd" d="M2.156 2.295a.75.75 0 0 1 1.051-.137L6 4.306l2.793-2.148a.75.75 0 1 1 .914 1.189l-3.25 2.5a.75.75 0 0 1-.914 0l-3.25-2.5a.75.75 0 0 1-.137-1.052" clip-rule="evenodd"/></symbol><symbol xmlns="http://www.w3.org/2000/svg" fill="currentColor" viewBox="0 0 12 12" id="education_12"><path fill-rule="evenodd" d="M5.625 1.128.76 3.697l-.078.04c-.374.199-.565.306-.631.448a.5.5 0 0 0-.005.416c.068.153.279.27.699.503l4.87 2.704c.142.078.213.118.288.133a.5.5 0 0 0 .202 0c.075-.015.146-.055.287-.134L11 5.243V7.5a.5.5 0 1 0 1 0V4.444c0-.104-.031-.2-.085-.28-.066-.108-.21-.2-.46-.336l-.23-.124h-.002L6.374 1.128c-.137-.072-.205-.109-.277-.123a.5.5 0 0 0-.194 0c-.072.014-.14.05-.278.123M1.99 6.998v-.062l2.847 1.58c.426.237.639.355.864.402.2.04.405.04.605 0 .225-.047.438-.165.863-.402l2.817-1.568v.05a3.998 3.998 0 0 1-7.996 0" clip-rule="evenodd"/></symbol><symbol xmlns="http://www.w3.org/2000/svg" fill="currentColor" viewBox="0 0 12 12" id="equalizer_12"><path d="M5 2.75a.75.75 0 0 1 1.5 0v6.5a.75.75 0 0 1-1.5 0zm-2.5 2a.75.75 0 0 1 1.5 0v4.5a.75.75 0 0 1-1.5 0zM8.25 6.5a.75.75 0 0 0-.75.75v2a.75.75 0 0 0 1.5 0v-2a.75.75 0 0 0-.75-.75"/></symbol><symbol viewBox="0 0 12 12" fill="none" xmlns="http://www.w3.org/2000/svg" id="error_circle_12"><path fill="currentColor" fill-rule="evenodd" d="M6 12A6 6 0 1 0 6 0a6 6 0 0 0 0 12M6 2a.75.75 0 0 1 .75.75V6.3a.75.75 0 0 1-1.5 0V2.75A.75.75 0 0 1 6 2m.902 7a.9.9 0 1 1-1.8 0 .9.9 0 0 1 1.8 0" clip-rule="evenodd"/></symbol><symbol xmlns="http://www.w3.org/2000/svg" fill="none" viewBox="0 0 12 12" id="error_circle_fill_12"><path fill="#E64646" fill-rule="evenodd" d="M6 12c-3.312 0-6-2.688-6-6s2.688-6 6-6 6 2.688 6 6-2.688 6-6 6" clip-rule="evenodd"/><path fill="#fff" fill-rule="evenodd" d="M6 3a.75.75 0 0 0-.75.75v2.5a.75.75 0 0 0 1.5 0v-2.5A.75.75 0 0 0 6 3m0 5a.75.75 0 1 0 0 1.5A.75.75 0 0 0 6 8" clip-rule="evenodd"/></symbol><symbol xmlns="http://www.w3.org/2000/svg" fill="none" viewBox="0 0 12 12" id="error_circle_fill_yellow_12"><path fill="url(#m9aa2870aa)" fill-rule="evenodd" d="M6 12c-3.312 0-6-2.688-6-6s2.688-6 6-6 6 2.688 6 6-2.688 6-6 6" clip-rule="evenodd"/><path fill="#fff" fill-rule="evenodd" d="M6 3a.75.75 0 0 0-.75.75v2.5a.75.75 0 0 0 1.5 0v-2.5A.75.75 0 0 0 6 3m0 5a.75.75 0 1 0 0 1.5A.75.75 0 0 0 6 8" clip-rule="evenodd"/><defs><linearGradient id="m9aa2870aa" x1="-6" x2="6" y1="6" y2="18" gradientUnits="userSpaceOnUse"><stop stop-color="#FFB73D"/><stop offset="1" stop-color="#FFA000"/></linearGradient></defs></symbol><symbol viewBox="0 0 12 12" fill="none" xmlns="http://www.w3.org/2000/svg" id="explicit_12"><path fill="currentColor" d="M8 9H5V4h3v1H6v1h2v1H6v1h2z"/><path fill="currentColor" fill-rule="evenodd" d="M1 3.5A2.5 2.5 0 0 1 3.5 1h6A2.5 2.5 0 0 1 12 3.5v6A2.5 2.5 0 0 1 9.5 12h-6A2.5 2.5 0 0 1 1 9.5zM3.5 2h6A1.5 1.5 0 0 1 11 3.5v6A1.5 1.5 0 0 1 9.5 11h-6A1.5 1.5 0 0 1 2 9.5v-6A1.5 1.5 0 0 1 3.5 2" clip-rule="evenodd"/></symbol><symbol xmlns="http://www.w3.org/2000/svg" fill="currentColor" viewBox="0 0 12 12" id="eye_slash_outline_12"><path fill-rule="evenodd" d="M2.287 1.22a.75.75 0 1 0-1.06 1.061l.979.98C.814 4.25 0 5.531 0 5.997 0 6.798 2.4 10 6 10a6.2 6.2 0 0 0 2.436-.504l1.29 1.292a.73.73 0 0 0 1.046-.015.733.733 0 0 0 .015-1.047zm5.237 7.364L3.416 4.472a3.001 3.001 0 0 0 4.109 4.112ZM9 5.997q0 .276-.048.539l1.591 1.592C11.473 7.275 12 6.372 12 5.998c0-.801-2.4-4.003-6-4.003-.497 0-.97.06-1.418.168l.88.88A3 3 0 0 1 9 5.998Z"/></symbol><symbol xmlns="http://www.w3.org/2000/svg" fill="currentColor" viewBox="0 0 12 12" id="favorite_12"><path d="m4.559 2.876-.277.653a.3.3 0 0 1-.044.086.2.2 0 0 1-.048.037.3.3 0 0 1-.093.02l-.403.059c-1.136.163-1.703.245-1.942.516a1.01 1.01 0 0 0-.233.866c.07.357.518.723 1.412 1.454l.153.124c.04.033.06.05.074.07q.017.03.022.062a.3.3 0 0 1-.011.103l-.046.245c-.25 1.347-.375 2.02-.178 2.35.17.285.47.465.796.479.378.016.895-.423 1.93-1.3l.177-.15a.4.4 0 0 1 .111-.077.15.15 0 0 1 .082 0c.03.008.057.031.111.077l.178.15c1.034.877 1.55 1.316 1.929 1.3a.98.98 0 0 0 .796-.479c.197-.33.072-1.003-.178-2.35l-.046-.245a.3.3 0 0 1-.01-.103.2.2 0 0 1 .021-.061.3.3 0 0 1 .074-.07l.153-.125c.894-.731 1.342-1.097 1.412-1.454.06-.31-.025-.631-.233-.866-.239-.27-.806-.353-1.942-.516l-.403-.058c-.048-.007-.072-.01-.093-.02a.2.2 0 0 1-.048-.038c-.015-.018-.024-.04-.044-.086l-.277-.653c-.455-1.071-.682-1.607-1-1.77a.97.97 0 0 0-.881 0c-.319.163-.546.699-1.001 1.77"/></symbol><symbol xmlns="http://www.w3.org/2000/svg" fill="none" viewBox="0 0 12 12" id="fire_12"><path fill="currentColor" d="M6.092.537a.188.188 0 0 1 .295.192.9.9 0 0 1-.1.27c-1.416 2.185-.794 3.5.16 3.64.988.147 1.71-.515 1.556-1.943l-.067-.622a.172.172 0 0 1 .266-.162q.482.318 1.153 1.154c1.591 1.985 1.653 3.646 1.644 4.36-.032 2.562-1.928 4.324-4.5 4.324C3.93 11.75 2 9.989 2 7.427c.011-1.94.991-4.67 3.696-6.6z"/></symbol><symbol xmlns="http://www.w3.org/2000/svg" fill="currentColor" viewBox="0 0 12 12" id="fire_alt_12"><path fill-rule="evenodd" d="M7.86 6c1.485-4.5-2.226-6-2.226-6 0 2.25-1.368 2.756-2.598 3.75C1.181 5.25 1 6.375 1 7.5c0 3 3.52 4.125 3.52 4.125-1.484-3 .743-4.5.743-4.5 0 3.75 2.969 4.875 2.969 4.875 5.195-2.625 1.484-8.625 1.484-8.625C9.716 5.25 7.861 6 7.861 6Z" clip-rule="evenodd"/></symbol><symbol xmlns="http://www.w3.org/2000/svg" fill="none" viewBox="0 0 12 12" id="fire_verified_12"><path fill="currentColor" d="m6.192.5.053.005a.19.19 0 0 1 .142.224l-.029.108a.7.7 0 0 1-.07.161c-1.417 2.186-.795 3.5.16 3.642.988.146 1.71-.516 1.555-1.944l-.066-.622a.172.172 0 0 1 .266-.162L8.326 2q.442.334 1.03 1.066C10.828 4.904 10.99 6.464 11 7.253v.174c-.032 2.561-1.929 4.323-4.5 4.323S2 9.99 2 7.427c.011-1.94.991-4.67 3.696-6.6l.397-.29a.19.19 0 0 1 .152-.032zM8.379 5.38 5.75 8.008l-1.129-1.13a.525.525 0 1 0-.742.743l1.5 1.5a.525.525 0 0 0 .742 0l3-3a.525.525 0 1 0-.742-.742"/></symbol><symbol xmlns="http://www.w3.org/2000/svg" fill="none" viewBox="0 0 12 12" id="flag_12"><path fill="currentColor" fill-rule="evenodd" d="M1.75 0A.75.75 0 0 0 1 .75v9.5a.75.75 0 0 0 1.5 0V6.805c.261.112.533.184.808.192.79.022 1.525-.227 2.257-.5q.25-.094.5-.19c.626-.241 1.25-.482 1.915-.596.733-.149 1.492-.258 2.143.123l.232.149a.094.094 0 0 0 .145-.079V1.47c0-.25 0-.376-.063-.554A1.5 1.5 0 0 0 10.172.5a.9.9 0 0 0-.315-.217 2.9 2.9 0 0 0-.95-.27c-.68-.06-1.33.094-1.968.312a72 72 0 0 0-.866.307c-.56.202-1.12.403-1.689.576A2.94 2.94 0 0 1 2.5 1.2V.75A.75.75 0 0 0 1.75 0" clip-rule="evenodd"/></symbol><symbol xmlns="http://www.w3.org/2000/svg" fill="currentColor" viewBox="0 0 12 12" id="flash_12"><path d="M5.958 2.362 3.895 4.658c-.574.64-.86.96-.887 1.258a.9.9 0 0 0 .249.705c.208.215.632.284 1.48.421l.355.057c.12.02.18.03.22.06a.2.2 0 0 1 .072.11c.012.05-.003.108-.033.226l-.4 1.553c-.192.743-.288 1.114-.2 1.258a.4.4 0 0 0 .358.192c.169-.006.425-.292.938-.862l2.062-2.297c.574-.64.861-.959.888-1.257a.9.9 0 0 0-.25-.705c-.207-.216-.631-.285-1.48-.422l-.355-.057c-.12-.02-.18-.03-.22-.06a.2.2 0 0 1-.072-.11c-.012-.05.003-.108.034-.226l.4-1.553c.191-.743.287-1.114.2-1.258a.4.4 0 0 0-.359-.192c-.168.007-.425.292-.937.863"/></symbol><symbol fill="none" viewBox="0 0 12 12" xmlns="http://www.w3.org/2000/svg" id="flash_circle_12"><path fill="currentColor" d="M6 0a6 6 0 1 1 0 12A6 6 0 0 1 6 0m.3 2.62Q5.09 3.922 4.46 4.587a50 50 0 0 1-.708.723c-.712.753-.337 1.3.487 1.436l1.17.2a.125.125 0 0 1 .102.144l-.002.01-.482 1.865c-.224.86.113 1.038.715.41l2.53-2.769c.586-.68.44-1.227-.404-1.364l-1.224-.216a.125.125 0 0 1-.099-.154l.469-1.843c.225-.865-.15-1.022-.712-.409"/></symbol><symbol xmlns="http://www.w3.org/2000/svg" fill="currentColor" viewBox="0 0 12 12" id="gavel_12"><path fill-rule="evenodd" d="m6.464 5.615.724-.725a.8.8 0 0 0 1.042-.077l.534-.534a.8.8 0 0 0 0-1.131L6.85 1.234a.8.8 0 0 0-1.132 0l-.533.533a.8.8 0 0 0-.095 1.018L2.783 5.093a.8.8 0 0 0-1.016.096l-.532.533a.8.8 0 0 0 0 1.131l1.91 1.91a.8.8 0 0 0 1.131 0l.533-.533a.8.8 0 0 0 .079-1.04l.727-.726 3.46 3.46a.6.6 0 1 0 .85-.848zM1.7 10.75a.5.5 0 0 1 .5-.5h3a.5.5 0 1 1 0 1h-3a.5.5 0 0 1-.5-.5" clip-rule="evenodd"/></symbol><symbol xmlns="http://www.w3.org/2000/svg" fill="currentColor" viewBox="0 0 12 12" id="ghost_12"><path fill-rule="evenodd" d="M6 1a4.5 4.5 0 0 0-4.5 4.5v3.7q0 .3.095.585a1.11 1.11 0 0 0 1.55.642l.328-.164a.95.95 0 0 1 .998.09l.324.243a2.01 2.01 0 0 0 2.41 0l.324-.243a.95.95 0 0 1 .998-.09l.327.164a1.11 1.11 0 0 0 1.551-.642Q10.5 9.5 10.5 9.2V5.5A4.5 4.5 0 0 0 6 1M4.1 7.215a.54.54 0 0 1 .682-.152l.057.034c.052.037.17.105.336.175.661.279 1.341.279 1.986-.175a.54.54 0 0 1 .74.118.51.51 0 0 1-.121.721c-.989.695-2.052.695-3.025.285a3 3 0 0 1-.535-.285.51.51 0 0 1-.12-.721M3.5 5.25a.75.75 0 1 1 1.5 0 .75.75 0 0 1-1.5 0m3.5 0a.75.75 0 1 1 1.5 0 .75.75 0 0 1-1.5 0" clip-rule="evenodd"/></symbol><symbol xmlns="http://www.w3.org/2000/svg" fill="currentColor" viewBox="0 0 12 12" id="gift_12"><path d="M5.5 7.998v3H4.093c-.547 0-.746-.058-.946-.167a1.1 1.1 0 0 1-.463-.476c-.107-.204-.164-.407-.164-.967v-1.39zm4 0v1.39c0 .56-.057.763-.164.967a1.13 1.13 0 0 1-.464.476c-.182.099-.362.156-.804.166l-.141.001-1.426-.005v-3zm-4-3.692v2.701H2.287c-.274 0-.373-.029-.473-.084a.56.56 0 0 1-.232-.237c-.054-.103-.082-.204-.082-.484v-.704c0-.286.047-.486.137-.656a.94.94 0 0 1 .386-.396c.167-.091.361-.14.642-.14zm3.835-.014c.28 0 .475.048.642.14a.94.94 0 0 1 .386.395c.075.143.12.305.133.52l.004.137v.703c0 .28-.028.382-.082.484a.56.56 0 0 1-.232.238c-.086.047-.17.075-.366.082l-.107.002H6.501V4.292zM6 3.998l.001-.1C6.1 1.143 8.024.487 8.883 1.366c.9.922.144 3.016-2.883 2.932-3.027.084-3.745-2.01-2.845-2.932.87-.89 2.787-.207 2.844 2.633Z"/></symbol><symbol xmlns="http://www.w3.org/2000/svg" fill="currentColor" viewBox="0 0 12 13" id="government_12"><path d="M6.598 2.703a1.6 1.6 0 0 1 .398-.257 1.8 1.8 0 0 1 1.194-.1.562.562 0 1 1-.261 1.095c-.23-.055-.397-.016-.514.054a.7.7 0 0 0-.292.409c-.094.31.119.74.542.84a.9.9 0 0 0 .582-.048 1 1 0 0 0 .196-.123.63.63 0 0 0 .2-.291.56.56 0 0 1 .3-.348s.154-.067.178-.075l2.215-.82a.503.503 0 0 1 .662.474c.007.961.008 2.123-.157 3.028-.169.929-.723 2.04-2.088 2.245a2.5 2.5 0 0 1-.92-.038c-.308-.068-.714-.198-1.035-.446v.677c0 .103.064.195.156.24.604.3 1.505 1.099.828 2.11a.24.24 0 0 1-.136.095l-.008.003c-.1.028-2.254.642-2.64.642-.385 0-2.535-.614-2.636-.642l-.008-.003a.24.24 0 0 1-.136-.094c-.677-1.012.224-1.81.828-2.11a.27.27 0 0 0 .156-.241v-.677c-.321.248-.727.378-1.034.446a2.5 2.5 0 0 1-.921.038C.886 8.58.327 7.469.159 6.54c-.165-.905-.164-2.067-.157-3.028a.503.503 0 0 1 .662-.474l2.215.82.154.063a.5.5 0 0 1 .273.245.6.6 0 0 1 .049.115q.013.046.035.088a.83.83 0 0 0 .497.374.9.9 0 0 0 .445 0c.423-.1.636-.53.543-.84a.7.7 0 0 0-.293-.409c-.117-.07-.285-.11-.514-.054a.563.563 0 0 1-.261-1.095 1.9 1.9 0 0 1 .955.011q.217.059.41.175c.27.162.48.395.624.67q.096.18.156.378c.04.132.047.316.047.316s.007-.187.046-.316c.103-.342.29-.648.553-.877Zm0 0a1.6 1.6 0 0 1 .398-.257 1.8 1.8 0 0 1 1.194-.1.562.562 0 1 1-.261 1.095c-.23-.055-.397-.016-.514.054a.7.7 0 0 0-.292.409c-.094.31.119.74.542.84a.9.9 0 0 0 .582-.048 1 1 0 0 0 .196-.123.63.63 0 0 0 .2-.291.56.56 0 0 1 .3-.348s.154-.067.178-.075l2.215-.82a.503.503 0 0 1 .662.474c.007.961.008 2.123-.157 3.028-.169.929-.723 2.04-2.088 2.245a2.5 2.5 0 0 1-.92-.038c-.308-.068-.714-.198-1.035-.446v.677c0 .103.064.195.156.24.604.3 1.505 1.099.828 2.11a.24.24 0 0 1-.136.095l-.008.003c-.1.028-2.254.642-2.64.642-.385 0-2.535-.614-2.636-.642l-.008-.003a.24.24 0 0 1-.136-.094c-.677-1.012.224-1.81.828-2.11a.27.27 0 0 0 .156-.241v-.677c-.321.248-.727.378-1.034.446a2.5 2.5 0 0 1-.921.038C.886 8.58.327 7.469.159 6.54c-.165-.905-.164-2.067-.157-3.028a.503.503 0 0 1 .662-.474l2.215.82.154.063a.5.5 0 0 1 .273.245.6.6 0 0 1 .049.115q.013.046.035.088a.83.83 0 0 0 .497.374.9.9 0 0 0 .445 0c.423-.1.636-.53.543-.84a.7.7 0 0 0-.293-.409c-.117-.07-.285-.11-.514-.054a.563.563 0 0 1-.261-1.095 1.9 1.9 0 0 1 .955.011q.217.059.41.175c.27.162.48.395.624.67q.096.18.156.378c.04.132.047.316.047.316s.007-.187.046-.316c.103-.342.29-.648.553-.877ZM6.75 1.32a.75.75 0 1 1-1.5 0 .75.75 0 0 1 1.5 0"/></symbol><symbol xmlns="http://www.w3.org/2000/svg" fill="currentColor" viewBox="0 0 12 12" id="hand_12"><path d="M2.5 2.5A.5.5 0 0 1 3 3v2.5a.5.5 0 0 0 1 0v-4a.5.5 0 0 1 1 0V5a.5.5 0 0 0 1 0V1a.5.5 0 0 1 1 0v4.063a.5.5 0 0 0 1 0V1.938a.5.5 0 0 1 1 0V7.5l-.28-.032 1.774-1.898a.67.67 0 0 1 .995.9c-.677.774-2.013 2.306-2.615 3.029C7.935 10.624 6.56 11 5.526 11 2.15 11 2 8.727 2 7.958V3a.5.5 0 0 1 .5-.5"/></symbol><symbol xmlns="http://www.w3.org/2000/svg" fill="currentColor" viewBox="0 0 12 12" id="hand_point_up_12"><path d="m8.526 4.688.06.187-.216-.639a.835.835 0 0 0-1.598.478l.125.48-.23-.856a.816.816 0 0 0-1.604.242l-.722-2.934a.85.85 0 0 0-1.65.404l1.294 5.287-1.115-1.16A.797.797 0 0 0 1.66 7.21l2.232 2.942s1.229 1.831 4.301 1.225c2.431-.48 3.25-2.668 2.582-4.878l-.554-2.29a.882.882 0 1 0-1.695.48Z"/></symbol><symbol xmlns="http://www.w3.org/2000/svg" fill="currentColor" viewBox="0 0 12 12" id="headphones_12"><path d="M5.5 2a4.5 4.5 0 0 1 4.25 5.981c.155.265.25.6.25 1.019 0 1.667-1.5 2-2.25 2S7 10.105 7 9s0-2 .75-2c.314 0 .758.058 1.17.248a3.5 3.5 0 1 0-6.84.001C2.492 7.059 2.936 7 3.25 7 4 7 4 7.895 4 9s0 2-.75 2S1 10.667 1 9c0-.42.095-.754.249-1.02A4.5 4.5 0 0 1 5.5 2"/></symbol><symbol viewBox="0 0 12 12" fill="none" xmlns="http://www.w3.org/2000/svg" id="help_12"><path fill="currentColor" fill-rule="evenodd" d="M6 12A6 6 0 1 0 6 0a6 6 0 0 0 0 12m.644-5.005c-.08.36-.286.57-.662.57-.45 0-.715-.312-.715-.753v-.075c0-.633.323-1.052.948-1.423.684-.414.89-.682.89-1.176 0-.527-.402-.892-.985-.892-.52 0-.869.258-1.038.736-.133.344-.371.494-.694.494-.419 0-.678-.263-.678-.671 0-.231.053-.435.159-.64C4.208 2.458 5.055 2 6.194 2c1.504 0 2.516.838 2.516 2.09 0 .81-.387 1.364-1.134 1.81-.704.413-.863.644-.932 1.095m.217 2.162a.85.85 0 0 1-.868.843.85.85 0 0 1-.864-.843.85.85 0 0 1 .864-.844.85.85 0 0 1 .868.844" clip-rule="evenodd"/></symbol><symbol xmlns="http://www.w3.org/2000/svg" fill="none" viewBox="0 0 12 12" id="hieroglyph_character_outline_12"><path fill="currentColor" fill-rule="evenodd" d="M3.55.005a.55.55 0 0 1 .55.55V1.9h3.352a.55.55 0 0 1 0 1.1H5.9v.249a3.28 3.28 0 0 1-1.21 2.544l-.546.443.726.859a.55.55 0 0 1-.84.71l-.74-.875L.898 8.877a.55.55 0 0 1-.694-.854L2.581 6.09 1.58 4.905a.55.55 0 0 1 .84-.71l1.015 1.2.56-.455A2.18 2.18 0 0 0 4.8 3.248V3H.552a.55.55 0 1 1 0-1.1H3V.555a.55.55 0 0 1 .55-.55M8.003 4a.55.55 0 0 1 .491.304l3.448 6.903a.55.55 0 0 1-.984.492l-.853-1.709A.6.6 0 0 1 10 10H5.89l-.848 1.693a.55.55 0 0 1-.984-.492l3.453-6.897A.55.55 0 0 1 8.002 4M6.44 8.9h3.12L8.002 5.78z" clip-rule="evenodd"/></symbol><symbol fill="none" viewBox="0 0 12 12" xmlns="http://www.w3.org/2000/svg" id="home_12"><path fill="currentColor" d="M5.4 2.2a.99.99 0 0 1 1.2 0l3 2.273c.252.19.4.49.4.808v4.214a.503.503 0 0 1-.5.505h-2a.503.503 0 0 1-.5-.505V7.5c0-.558-.448-1-1-1s-1 .442-1 1v1.995a.503.503 0 0 1-.5.505h-2a.503.503 0 0 1-.5-.505V5.28c0-.318.148-.617.4-.808z"/></symbol><symbol xmlns="http://www.w3.org/2000/svg" fill="currentColor" viewBox="0 0 12 12" id="info_circle_12"><path fill-rule="evenodd" d="M6 0a6 6 0 1 0 0 12A6 6 0 0 0 6 0m0 10a.75.75 0 0 1-.75-.75V5.7a.75.75 0 0 1 1.5 0v3.55A.75.75 0 0 1 6 10m-.902-7a.9.9 0 1 1 1.8 0 .9.9 0 0 1-1.8 0" clip-rule="evenodd"/></symbol><symbol xmlns="http://www.w3.org/2000/svg" fill="currentColor" viewBox="0 0 12 12" id="like_12"><path fill-rule="evenodd" d="M6.003 2.47a4 4 0 0 0-.15-.145c-.438-.399-1.126-.827-2.053-.827C2.104 1.498.752 2.9.752 4.601c0 .842.166 1.486.682 2.19.509.694 1.354 1.443 2.692 2.507l1.231.979c.379.301.913.301 1.291 0l1.231-.979c1.338-1.064 2.184-1.813 2.693-2.507.516-.704.682-1.348.682-2.19 0-1.701-1.352-3.103-3.048-3.103-.926 0-1.615.428-2.053.827a4 4 0 0 0-.15.145" clip-rule="evenodd"/></symbol><symbol xmlns="http://www.w3.org/2000/svg" fill="currentColor" viewBox="0 0 12 12" id="like_outline_12"><path fill-rule="evenodd" d="M3.8 2.698c-1.009 0-1.848.839-1.848 1.902 0 .63.109 1.015.45 1.482.4.546 1.121 1.203 2.471 2.277l1.13.898 1.13-.898c1.35-1.074 2.07-1.731 2.47-2.277.342-.467.451-.851.451-1.482 0-1.063-.84-1.902-1.848-1.902-.533 0-.946.242-1.245.514a2.6 2.6 0 0 0-.433.517l-.002.004a.6.6 0 0 1-1.048-.003l.525-.29-.525.29v.001l.001.002-.001-.003a2 2 0 0 0-.097-.145 2.6 2.6 0 0 0-.336-.373c-.298-.272-.712-.514-1.245-.514m2.203-.229a4 4 0 0 0-.15-.144c-.438-.4-1.127-.827-2.053-.827C2.104 1.498.752 2.899.752 4.6c0 .842.166 1.486.682 2.19.509.695 1.354 1.444 2.692 2.508l1.231.979c.379.3.913.3 1.291 0l1.231-.98c1.338-1.063 2.184-1.812 2.692-2.506.517-.705.683-1.349.683-2.19 0-1.702-1.352-3.103-3.048-3.103-.926 0-1.615.428-2.053.827a4 4 0 0 0-.15.144m.524 1.262-.524-.292zm-.626 5.606" clip-rule="evenodd"/></symbol><symbol xmlns="http://www.w3.org/2000/svg" fill="currentColor" viewBox="0 0 12 12" id="list_play_outline_12"><path d="M1.75 2a.75.75 0 0 0 0 1.5h8.5a.75.75 0 0 0 0-1.5zm9.02 5.3L7.967 5.13A.6.6 0 0 0 7 5.603v4.29a.6.6 0 0 0 .962.479l2.803-2.12a.6.6 0 0 0 .005-.953ZM1 8.75A.75.75 0 0 1 1.75 8h3a.75.75 0 0 1 0 1.5h-3A.75.75 0 0 1 1 8.75M1.75 5a.75.75 0 0 0 0 1.5h3a.75.75 0 0 0 0-1.5z"/></symbol><symbol xmlns="http://www.w3.org/2000/svg" fill="currentColor" viewBox="0 0 12 12" id="lock_12"><path d="M6 .5c1.657 0 3 1.337 3 2.992v1.507L9.748 5c.415 0 .752.34.752.76v4.48a.76.76 0 0 1-.752.76H2.252a.756.756 0 0 1-.752-.76V5.76c0-.42.342-.76.752-.76L3 4.999V3.501A3.003 3.003 0 0 1 5.824.505zM6 2l-.145.007A1.496 1.496 0 0 0 4.5 3.5V5h3V3.5C7.5 2.666 6.828 2 6 2"/></symbol><symbol viewBox="0 0 12 12" fill="none" xmlns="http://www.w3.org/2000/svg" id="market_12"><path fill="currentColor" d="M6 0a3 3 0 0 1 3 3h.718c.446 0 .607.046.77.134q.246.132.378.378c.088.163.134.324.134.77v3.513c0 1.115-.116 1.519-.334 1.926a2.27 2.27 0 0 1-.945.945c-.407.218-.811.334-1.926.334h-3.59c-1.115 0-1.519-.116-1.926-.334a2.27 2.27 0 0 1-.945-.945C1.116 9.314 1 8.91 1 7.795V4.282c0-.446.046-.607.134-.77a.9.9 0 0 1 .378-.378c.163-.088.324-.134.77-.134H3a3 3 0 0 1 3-3M3.537 4h-.074a.5.5 0 0 0-.258.053.36.36 0 0 0-.152.152.5.5 0 0 0-.053.258v.074c0 .119.019.193.053.258a.36.36 0 0 0 .152.152c.065.034.14.053.258.053h.074a.5.5 0 0 0 .258-.053.36.36 0 0 0 .152-.152A.5.5 0 0 0 4 4.537v-.074a.5.5 0 0 0-.053-.258.36.36 0 0 0-.152-.152A.5.5 0 0 0 3.537 4m5 0h-.074a.5.5 0 0 0-.258.053.36.36 0 0 0-.152.152.5.5 0 0 0-.053.258v.074c0 .119.019.193.053.258a.36.36 0 0 0 .152.152c.065.034.14.053.258.053h.074a.5.5 0 0 0 .258-.053.36.36 0 0 0 .152-.152A.5.5 0 0 0 9 4.537v-.074a.5.5 0 0 0-.053-.258.36.36 0 0 0-.152-.152A.5.5 0 0 0 8.537 4M6 1a2 2 0 0 0-2 2h4a2 2 0 0 0-2-2"/></symbol><symbol fill="none" viewBox="0 0 12 12" xmlns="http://www.w3.org/2000/svg" id="mask_12"><path fill="currentColor" fill-rule="evenodd" d="M6 11.25c-1.805 0-3.513-1.376-4.419-3.581-.998-2.43-1.095-5.756-.304-6.581.396-.414.558-.426 2.276-.155.943.148 1.63.219 2.447.219s1.504-.07 2.447-.22c1.718-.27 1.88-.258 2.276.156.79.825.694 4.15-.304 6.58C9.513 9.875 7.805 11.25 6 11.25m0-2.187c-1.82 0-2.548-1.658-2.184-2.072.173-.198.347-.112.639.03.32.158.783.384 1.545.384s1.224-.226 1.545-.383c.292-.144.465-.229.639-.031.364.414-.364 2.072-2.184 2.072M4.076 5.38c.724.064 1.349-.331 1.396-.883s-.5-1.052-1.224-1.116c-.723-.065-1.348.33-1.395.883s.5 1.051 1.223 1.116m2.452-.883c.047.552.671.947 1.393.883.722-.065 1.27-.564 1.222-1.116-.047-.552-.671-.948-1.393-.883s-1.27.564-1.222 1.116" clip-rule="evenodd"/></symbol><symbol viewBox="0 0 12 12" xmlns="http://www.w3.org/2000/svg" id="mention_12"><g fill="none" fill-rule="evenodd"><path d="M0 0h12v12H0z"/><path fill="currentColor" fill-rule="nonzero" d="M6.165 11c.764 0 1.443-.096 1.895-.246.367-.12.495-.28.495-.49s-.14-.342-.391-.342q-.091-.002-.239.024c-.55.132-.971.216-1.57.216-2.629 0-4.401-1.497-4.401-4.09 0-2.51 1.644-4.24 4.144-4.24 2.182 0 3.948 1.312 3.948 3.725 0 1.257-.464 2.138-1.143 2.138-.44 0-.678-.234-.678-.641v-2.97c0-.335-.196-.54-.526-.54-.324 0-.525.205-.525.54v.3h-.062c-.25-.534-.819-.84-1.491-.84-1.216 0-2.078 1.007-2.078 2.486 0 1.503.862 2.533 2.12 2.533.71 0 1.26-.347 1.529-.958h.061c.11.605.685.958 1.443.958C10.12 8.563 11 7.275 11 5.485 11 2.755 8.952 1 6.11 1 3.09 1 1 2.982 1 6.036 1 9.15 3.164 11 6.165 11m-.287-3.371c-.758 0-1.204-.6-1.204-1.593 0-.988.452-1.575 1.204-1.575.77 0 1.259.61 1.259 1.569 0 .982-.495 1.599-1.26 1.599"/></g></symbol><symbol viewBox="0 0 12 12" fill="none" xmlns="http://www.w3.org/2000/svg" id="message_12"><path fill="currentColor" fill-rule="evenodd" d="M6 2c2.317 0 4 1.672 4 3.53C10 7.486 8.205 9 6 9c-.568 0-1.11-.034-1.6-.22-.451.538-1.19 1.178-2.229 1.22-.119.005-.207-.125-.157-.236.265-.602.742-1.491.742-2.166C2.36 7.181 2 6.382 2 5.53 2 3.473 3.927 2 6 2" clip-rule="evenodd"/></symbol><symbol xmlns="http://www.w3.org/2000/svg" fill="currentColor" viewBox="0 0 12 12" id="message_cross_12"><path fill-rule="evenodd" d="M12 5.538C12 2.479 9.318 0 6.01 0 2.704 0 .022 2.48.022 5.538c0 1.087.34 2.102.925 2.952 0 .946-.409 1.912-.778 2.784q-.076.177-.147.35c-.074.178.057.383.236.376q2.34-.099 3.355-1.386a6.4 6.4 0 0 0 2.399.462c3.307 0 5.989-2.48 5.989-5.538ZM3.72 3.22a.75.75 0 0 1 1.06 0L6 4.438 7.217 3.22a.75.75 0 0 1 1.06 1.06L7.06 5.5l1.218 1.218a.75.75 0 0 1-1.06 1.06L5.999 6.56 4.78 7.777a.75.75 0 0 1-1.06-1.06l1.218-1.218L3.72 4.28a.75.75 0 0 1 0-1.06" clip-rule="evenodd"/></symbol><symbol fill="none" viewBox="0 0 12 12" xmlns="http://www.w3.org/2000/svg" id="message_heart_12"><g fill="currentColor"><path d="M10.455 7c.743 0 1.344.603 1.344 1.346 0 .75-.3 1.127-1.574 2.118l-.58.452a.4.4 0 0 1-.49 0l-.58-.452C7.3 9.473 7 9.096 7 8.346 7 7.603 7.602 7 8.344 7c.398 0 .751.188 1.056.55.304-.362.657-.55 1.055-.55"/><path fill-rule="evenodd" d="M11 5.412C11 3.09 8.896 1 6 1 3.408 1 1 2.841 1 5.412c0 1.066.452 2.064.944 2.586 0 .698-.408 1.58-.736 2.29q-.104.221-.19.416c-.063.14.047.302.196.296 1.3-.052 2.222-.853 2.786-1.526.592.226 1.245.273 1.93.276a2.9 2.9 0 0 1-.33-1.404 2.745 2.745 0 0 1 2.744-2.745c.386 0 .739.081 1.056.222.317-.14.67-.222 1.055-.222q.277 0 .538.052.007-.12.007-.241" clip-rule="evenodd"/></g></symbol><symbol fill="none" viewBox="0 0 12 12" xmlns="http://www.w3.org/2000/svg" id="money_circle_12"><path fill="currentColor" d="M6 0a6 6 0 1 1 0 12A6 6 0 0 1 6 0m.75 2.25H4.5a.375.375 0 0 0-.375.375v3h-.28c-.154 0-.217.017-.278.05a.34.34 0 0 0-.142.142c-.033.06-.05.124-.05.278v.185c0 .154.017.217.05.278a.34.34 0 0 0 .142.142c.06.033.124.05.278.05h.28v.75h-.28c-.154 0-.217.017-.278.05a.34.34 0 0 0-.142.142c-.033.061-.05.124-.05.278v.185c0 .154.017.217.05.278a.34.34 0 0 0 .142.142c.06.033.124.05.278.05h.28v.655c0 .154.017.217.05.278a.34.34 0 0 0 .142.142c.06.033.124.05.278.05h.185c.154 0 .217-.017.278-.05a.34.34 0 0 0 .142-.142c.033-.06.05-.124.05-.278v-.655h1.03c.154 0 .217-.017.278-.05a.34.34 0 0 0 .142-.142c.033-.06.05-.124.05-.278V7.97c0-.154-.017-.217-.05-.278a.34.34 0 0 0-.142-.142c-.06-.033-.124-.05-.278-.05H5.25v-.75h1.5a2.25 2.25 0 0 0 0-4.5m0 1.125a1.125 1.125 0 0 1 0 2.25h-1.5v-2.25z"/></symbol><symbol xmlns="http://www.w3.org/2000/svg" fill="currentColor" viewBox="0 0 12 12" id="moon_12"><path fill-rule="evenodd" d="M10.498 8.235c.18-.283.27-.424.253-.535a.3.3 0 0 0-.16-.223c-.1-.05-.304 0-.711.1a4.6 4.6 0 0 1-1.076.128 4.5 4.5 0 0 1-4.37-5.58c.1-.407.151-.611.1-.71a.3.3 0 0 0-.222-.162c-.11-.016-.252.073-.535.252A4.87 4.87 0 0 0 1.5 5.628a4.875 4.875 0 0 0 4.877 4.873 4.87 4.87 0 0 0 4.121-2.266" clip-rule="evenodd"/></symbol><symbol xmlns="http://www.w3.org/2000/svg" fill="currentColor" viewBox="0 0 12 12" id="music_12"><path d="M3 3.124v5.618a.12.12 0 0 1-.092.116c-.449.093-.627.13-.71.15-.19.043-.377.11-.546.208-.4.236-.652.56-.652.993 0 1.068.979 1.352 1.522 1.276 1.024-.142 1.651-.547 1.677-2.287L4.2 4.097c0-.132 0-.198.023-.254a.3.3 0 0 1 .095-.123c.047-.036.11-.053.238-.087l3.64-.97c.206-.055.308-.082.39-.058a.3.3 0 0 1 .17.131c.044.072.044.178.044.391v4.115a.12.12 0 0 1-.092.116c-.45.093-.627.13-.71.15-.19.043-.377.109-.545.208-.402.236-.653.558-.653.992 0 1.066.979 1.35 1.522 1.274C9.365 9.838 9.997 9.42 10 7.598V2.023c0-.524-.01-.803-.119-1.005a1 1 0 0 0-.63-.496C9.006.46 8.7.534 8.09.682l-3.87.944c-.436.106-.654.16-.817.28a1 1 0 0 0-.325.414c-.075.178-.078.39-.078.803Z"/></symbol><symbol xmlns="http://www.w3.org/2000/svg" fill="currentColor" viewBox="0 0 12 12" id="music_note_12"><path d="M7.001 8.156c0 2.378-2.837 3.601-4.014 2.338-.308-.33-.476-.713-.486-1.103C2.47 8.234 3.67 7.01 5.5 6.913V3.501c-.013-.975.515-1.668 1.353-1.968l.164-.054c.345-.108.932-.262 1.773-.466.27-.066.661.131.702.415l.006.08v1.066c0 .779-.59 1.466-1.266 1.721l-.129.043-1.102.45z"/></symbol><symbol xmlns="http://www.w3.org/2000/svg" fill="currentColor" viewBox="0 0 12 12" id="nft_heptagon_12"><path fill-rule="evenodd" d="M5.024.04a1.57 1.57 0 0 0-1.459.418L.458 3.565c-.381.382-.54.933-.418 1.459l1.08 4.682c.135.584.59 1.039 1.174 1.173l4.682 1.08a1.57 1.57 0 0 0 1.459-.417l3.107-3.107c.381-.382.54-.933.418-1.459l-1.08-4.682A1.57 1.57 0 0 0 9.705 1.12zM8.78 5.03a.75.75 0 0 0-1.06-1.06L5 6.69l-.72-.72a.75.75 0 0 0-1.06 1.06l1.25 1.25a.75.75 0 0 0 1.06 0z" clip-rule="evenodd"/></symbol><symbol xmlns="http://www.w3.org/2000/svg" fill="none" viewBox="0 0 12 12" id="notebook_12"><path fill="currentColor" d="M4.35.676a.675.675 0 1 0-1.35 0v.873c-.184.03-.338.076-.476.147a1.88 1.88 0 0 0-.82.82c-.204.4-.204.925-.204 1.975V8.5c0 1.05 0 1.575.204 1.976.18.353.467.64.82.82.4.204.926.204 1.976.204h3c1.05 0 1.575 0 1.976-.204a1.87 1.87 0 0 0 .82-.82c.204-.4.204-.926.204-1.976V4.491c0-1.05 0-1.575-.204-1.976a1.88 1.88 0 0 0-.82-.82A1.6 1.6 0 0 0 9 1.55V.676a.675.675 0 0 0-1.35 0v.815h-.975V.676a.675.675 0 0 0-1.35 0v.815H4.35zm4.178 3.543a.75.75 0 0 1 0 1.06l-3 3a.75.75 0 0 1-1.06 0l-.998-.997a.75.75 0 0 1 1.06-1.06l.468.467 2.47-2.47a.75.75 0 0 1 1.06 0"/></symbol><symbol xmlns="http://www.w3.org/2000/svg" fill="none" viewBox="0 0 8 12" id="online_mobile_12"><path fill="currentColor" d="M5.99 0C7.1 0 8 .9 8 2.01v7.98C8 11.1 7.1 12 5.99 12H2.01C.9 12 0 11.1 0 9.99V2.01C0 .9.9 0 2.01 0zm.008 3H2.003a.5.5 0 0 0-.503.502v4.996c0 .277.225.502.503.502h3.995a.5.5 0 0 0 .502-.502V3.503A.5.5 0 0 0 5.997 3"/></symbol><symbol xmlns="http://www.w3.org/2000/svg" fill="none" viewBox="0 0 8 12" id="online_vkmobile_12"><path fill="currentColor" d="M2.517 10.745c-.342 1.377.171 1.662 1.09.657l3.856-4.431c.893-1.09.67-1.964-.616-2.183l-1.86-.344A.2.2 0 0 1 4.83 4.2l.716-2.953C5.888-.138 5.316-.389 4.46.593a521 521 0 0 1-2.807 3.146q-.336.372-1.078 1.158C-.512 6.102.06 6.975 1.315 7.194l1.778.319a.2.2 0 0 1 .159.244z"/></symbol><symbol xmlns="http://www.w3.org/2000/svg" fill="currentColor" viewBox="0 0 12 12" id="palette_12"><path fill-rule="evenodd" d="M6 0a5.999 5.999 0 0 0 0 11.996.998.998 0 0 0 .74-1.673.998.998 0 0 1 .746-1.66h1.18a3.333 3.333 0 0 0 3.332-3.331C11.998 2.386 9.312 0 6 0M3 6a1 1 0 1 1-2 0 1 1 0 0 1 2 0m6.75 1a1 1 0 1 0 0-2 1 1 0 0 0 0 2M9 2.75a1 1 0 1 1-2 0 1 1 0 0 1 2 0m-5 1a1 1 0 1 0 0-2 1 1 0 0 0 0 2" clip-rule="evenodd"/></symbol><symbol xmlns="http://www.w3.org/2000/svg" fill="currentColor" viewBox="0 0 12 12" id="pause_12"><path fill-rule="evenodd" d="M3.04 2.469C3 2.58 3 2.72 3 3v6c0 .28 0 .419.04.531a.7.7 0 0 0 .429.43C3.58 10 3.72 10 4 10s.419 0 .531-.04a.7.7 0 0 0 .43-.429C5 9.42 5 9.28 5 9V3c0-.28 0-.419-.04-.531a.7.7 0 0 0-.429-.43C4.42 2 4.28 2 4 2s-.419 0-.531.04a.7.7 0 0 0-.43.429Zm4 0C7 2.58 7 2.72 7 3v6c0 .28 0 .419.04.531a.7.7 0 0 0 .429.43C7.58 10 7.72 10 8 10s.419 0 .531-.04a.7.7 0 0 0 .43-.429C9 9.42 9 9.28 9 9V3c0-.28 0-.419-.04-.531a.7.7 0 0 0-.429-.43C8.42 2 8.28 2 8 2s-.419 0-.531.04a.7.7 0 0 0-.43.429Z" clip-rule="evenodd"/></symbol><symbol xmlns="http://www.w3.org/2000/svg" fill="currentColor" viewBox="0 0 12 12" id="payment_card_outline_12"><path fill-rule="evenodd" d="M7.8 3H4.2c-.577 0-.949 0-1.232.024-.272.022-.373.06-.422.085a1 1 0 0 0-.437.437c-.025.05-.063.15-.085.422C2 4.25 2 4.623 2 5.2v1.6c0 .577 0 .949.024 1.232.022.272.06.373.085.422a1 1 0 0 0 .437.437c.05.025.15.063.422.085C3.25 9 3.623 9 4.2 9h3.6c.577 0 .949 0 1.232-.024.272-.022.373-.06.422-.085a1 1 0 0 0 .437-.437c.025-.05.063-.15.085-.422C10 7.75 10 7.377 10 6.8V5.2c0-.577 0-.949-.024-1.232-.022-.272-.06-.373-.085-.422a1 1 0 0 0-.437-.437c-.05-.025-.15-.063-.422-.085C8.75 3 8.377 3 7.8 3m-6.582.092C1 3.52 1 4.08 1 5.2v1.6c0 1.12 0 1.68.218 2.108a2 2 0 0 0 .874.874C2.52 10 3.08 10 4.2 10h3.6c1.12 0 1.68 0 2.108-.218a2 2 0 0 0 .874-.874C11 8.48 11 7.92 11 6.8V5.2c0-1.12 0-1.68-.218-2.108a2 2 0 0 0-.874-.874C9.48 2 8.92 2 7.8 2H4.2c-1.12 0-1.68 0-2.108.218a2 2 0 0 0-.874.874" clip-rule="evenodd"/><path d="M1 4.37h10v1.25H1zm2 2.94c0-.196 0-.294.038-.369a.35.35 0 0 1 .153-.153c.075-.038.173-.038.369-.038h.13c.196 0 .294 0 .369.038a.35.35 0 0 1 .153.153c.038.075.038.173.038.369v.13c0 .196 0 .294-.038.369a.35.35 0 0 1-.153.153C3.984 8 3.886 8 3.69 8h-.13c-.196 0-.294 0-.369-.038a.35.35 0 0 1-.153-.153C3 7.734 3 7.636 3 7.44z"/></symbol><symbol xmlns="http://www.w3.org/2000/svg" fill="currentColor" viewBox="0 0 12 12" id="pencil_12"><path d="M9.999 1.293a1 1 0 0 0-1.416 0l-.708.708 2.124 2.124.708-.708a1 1 0 0 0 0-1.416zm-.981 3.813L6.894 2.982 2.556 7.32c-.44.44-.77.975-.967 1.565l-.573 1.72a.3.3 0 0 0 .38.38l1.719-.574a4 4 0 0 0 1.565-.967z"/></symbol><symbol xmlns="http://www.w3.org/2000/svg" fill="currentColor" viewBox="0 0 12 12" id="percent_outline_12"><path fill-rule="evenodd" d="M8.645 1.612a.75.75 0 0 1 .243 1.033L4.25 10.14a.75.75 0 1 1-1.276-.79l4.638-7.495a.75.75 0 0 1 1.033-.243M2.5 3.375a.875.875 0 1 0 1.75 0 .875.875 0 0 0-1.75 0M3.375 1.5a1.875 1.875 0 1 0 0 3.75 1.875 1.875 0 0 0 0-3.75M7.75 8.625a.875.875 0 1 0 1.75 0 .875.875 0 0 0-1.75 0m.875-1.875a1.875 1.875 0 1 0 0 3.75 1.875 1.875 0 0 0 0-3.75" clip-rule="evenodd"/></symbol><symbol xmlns="http://www.w3.org/2000/svg" fill="currentColor" viewBox="0 0 12 12" id="phone_12"><path d="m4.082 1.98.431.513c.597.708.535 1.774-.142 2.451l-.367.367a.36.36 0 0 0-.082.375q.2.548 1.022 1.37t1.37 1.023c.13.048.277.016.375-.082l.367-.368c.677-.677 1.743-.74 2.452-.143l.512.431c.584.492.644 1.379.132 1.98a1.66 1.66 0 0 1-1.098.567q-2.455.33-5.151-2.366Q1.206 5.4 1.536 2.946a1.66 1.66 0 0 1 .567-1.098c.602-.511 1.488-.452 1.98.133Z"/></symbol><symbol xmlns="http://www.w3.org/2000/svg" fill="currentColor" viewBox="0 0 12 12" id="picture_12"><path fill-rule="evenodd" d="M.218 1.092C0 1.52 0 2.08 0 3.2v5.6c0 1.12 0 1.68.218 2.108a2 2 0 0 0 .874.874C1.52 12 2.08 12 3.2 12h5.6c1.12 0 1.68 0 2.108-.218a2 2 0 0 0 .874-.874C12 10.48 12 9.92 12 8.8V3.2c0-1.12 0-1.68-.218-2.108a2 2 0 0 0-.874-.874C10.48 0 9.92 0 8.8 0H3.2C2.08 0 1.52 0 1.092.218a2 2 0 0 0-.874.874m6.488 5.047L5.051 8.213 4.29 7.148a.357.357 0 0 0-.578 0L2.066 9.447a.35.35 0 0 0 .29.553H9.63c.306 0 .479-.334.294-.566l-2.63-3.295a.38.38 0 0 0-.588 0" clip-rule="evenodd"/></symbol><symbol xmlns="http://www.w3.org/2000/svg" fill="currentColor" viewBox="0 0 12 12" id="picture_outline_12"><path d="M4 5a1 1 0 1 0 0-2 1 1 0 0 0 0 2"/><path fill-rule="evenodd" d="M.218 1.092C0 1.52 0 2.08 0 3.2v5.6c0 1.12 0 1.68.218 2.108a2 2 0 0 0 .874.874C1.52 12 2.08 12 3.2 12h5.6c1.12 0 1.68 0 2.108-.218a2 2 0 0 0 .874-.874C12 10.48 12 9.92 12 8.8V3.2c0-1.12 0-1.68-.218-2.108a2 2 0 0 0-.874-.874C10.48 0 9.92 0 8.8 0H3.2C2.08 0 1.52 0 1.092.218a2 2 0 0 0-.874.874M8.8 1.5H3.2c-.585 0-.933.001-1.191.022-.158.013-.224.03-.242.036a.5.5 0 0 0-.21.209 1.3 1.3 0 0 0-.035.242c-.02.258-.022.606-.022 1.191v5.322l1.066-1.325a.576.576 0 0 1 .868 0l1.023 1.271 2.602-3.26a.57.57 0 0 1 .882 0L10.5 8.415V3.2c0-.585-.001-.933-.022-1.191a1.3 1.3 0 0 0-.036-.242.5.5 0 0 0-.209-.21 1.3 1.3 0 0 0-.242-.035C9.733 1.502 9.385 1.5 8.8 1.5m1.438.06-.003-.002.003.001Zm.203.202v.003zm-8.882 0v.003zm.203-.203h.003z" clip-rule="evenodd"/></symbol><symbol xmlns="http://www.w3.org/2000/svg" fill="currentColor" viewBox="0 0 12 12" id="pin_12"><path d="m7.69 1.58 2.732 2.735c.168.169.048.473-.196.473h-.391a.67.67 0 0 0-.473.196l-1.28 1.281a.67.67 0 0 0-.196.473v2.238c0 .414-.523.64-.822.34l-1.661-1.66-2.667 2.667c-.272.272-.725.22-1-.058-.277-.276-.328-.727-.056-.999L4.347 6.6 2.69 4.941c-.293-.292-.082-.822.34-.822h2.237c.177 0 .347-.07.473-.196l1.28-1.281a.67.67 0 0 0 .197-.473v-.394c0-.238.3-.369.473-.196Z"/></symbol><symbol xmlns="http://www.w3.org/2000/svg" fill="none" viewBox="0 0 12 12" id="place_12"><path fill="currentColor" fill-rule="evenodd" d="M10 5.053C10 2.855 8.212 1 6 1S2 2.855 2 5.053c0 1.54.983 3.335 2.899 5.456a1.48 1.48 0 0 0 2.11.094 2 2 0 0 0 .092-.094C9.018 8.389 10 6.592 10 5.052M6 3.5a1.5 1.5 0 1 0 .001 3.001A1.5 1.5 0 0 0 6 3.5" clip-rule="evenodd"/></symbol><symbol fill="none" viewBox="0 0 12 12" xmlns="http://www.w3.org/2000/svg" id="play_12"><path fill="currentColor" d="M9.775 5.35a.75.75 0 0 1 0 1.3L4.15 9.897a.75.75 0 0 1-1.125-.65V2.753a.75.75 0 0 1 1.125-.65z"/></symbol><symbol xmlns="http://www.w3.org/2000/svg" fill="currentColor" viewBox="0 0 12 12" id="play_circle_12"><path fill-rule="evenodd" d="M6 12A6 6 0 1 0 6 0a6 6 0 0 0 0 12M4.592 3.323a.4.4 0 0 0-.592.35v4.653a.4.4 0 0 0 .592.351l4.264-2.326a.4.4 0 0 0 0-.702z" clip-rule="evenodd"/></symbol><symbol xmlns="http://www.w3.org/2000/svg" fill="none" viewBox="0 0 12 12" id="play_circle_fill_gray_12"><circle cx="6" cy="6" r="6" fill="#A3ADB8"/><path fill="#fff" d="M4.75 3.293 9.082 5.72a.318.318 0 0 1 0 .56L4.75 8.707a.34.34 0 0 1-.454-.119.3.3 0 0 1-.045-.161V3.573c0-.178.15-.323.333-.323a.34.34 0 0 1 .166.043"/></symbol><symbol xmlns="http://www.w3.org/2000/svg" fill="none" viewBox="0 0 12 12" id="poll_12"><path fill="currentColor" fill-rule="evenodd" d="M6 1a.75.75 0 0 1 .75.75v8.5a.75.75 0 0 1-1.5 0v-8.5A.75.75 0 0 1 6 1M3 4a.75.75 0 0 1 .75.75v5.5a.75.75 0 0 1-1.5 0v-5.5A.75.75 0 0 1 3 4m6.75 2.25a.75.75 0 0 0-1.5 0v4a.75.75 0 0 0 1.5 0z" clip-rule="evenodd"/></symbol><symbol fill="none" viewBox="0 0 12 12" xmlns="http://www.w3.org/2000/svg" xmlns:xlink="http://www.w3.org/1999/xlink" id="popup_stickers_circle_fill_raspberry_pink_product_12"><linearGradient id="m1c3f626ca" x1="0" x2="12" y1="0" y2="12" gradientUnits="userSpaceOnUse"><stop offset="0" stop-color="#ff80d5"/><stop offset="1" stop-color="#e645b1"/></linearGradient><circle cx="6" cy="6" r="6" fill="url(#m1c3f626ca)"/><g fill="#fff"><path d="M5.109 3.546C5 3.76 5 4.04 5 4.6v.8c0 .56 0 .84.109 1.054a1 1 0 0 0 .437.437C5.76 7 6.04 7 6.6 7h.8c.56 0 .84 0 1.054-.109a1 1 0 0 0 .437-.437C9 6.24 9 5.96 9 5.4v-.8c0-.56 0-.84-.109-1.054a1 1 0 0 0-.437-.437C8.24 3 7.96 3 7.4 3h-.8c-.56 0-.84 0-1.054.109a1 1 0 0 0-.437.437"/><path d="M4 5.432V5.01c-.196.012-.335.039-.454.099a1 1 0 0 0-.437.437C3 5.76 3 6.04 3 6.6v.8c0 .56 0 .84.109 1.054a1 1 0 0 0 .437.437C3.76 9 4.04 9 4.6 9h.8c.56 0 .84 0 1.054-.109a1 1 0 0 0 .437-.437c.06-.119.087-.258.1-.454h-.423c-.252 0-.498 0-.706-.017a2 2 0 0 1-.77-.2 2 2 0 0 1-.874-.875 2 2 0 0 1-.201-.77C4 5.93 4 5.684 4 5.432"/></g></symbol><symbol fill="none" viewBox="0 0 12 12" xmlns="http://www.w3.org/2000/svg" id="question_12"><path fill="currentColor" fill-rule="evenodd" d="M12 5.538C12 2.479 9.318 0 6.01 0 2.704 0 .022 2.48.022 5.538c0 1.087.34 2.102.925 2.952 0 .946-.409 1.912-.778 2.784q-.076.177-.147.35c-.074.177.057.383.236.376 1.56-.066 2.743-.528 3.355-1.386a6.4 6.4 0 0 0 2.399.462c3.307 0 5.989-2.48 5.989-5.538M6 3.25c-.23 0-.43.154-.486.386a.75.75 0 0 1-1.46-.35A1.996 1.996 0 0 1 6 1.75c1.137 0 1.966.938 1.966 2.043 0 .416-.098.761-.274 1.056a2.7 2.7 0 0 1-.517.599l-.002.001c-.283.26-.391.361-.43.65A.75.75 0 0 1 5.257 5.9c.11-.834.573-1.257.864-1.522l.038-.035c.144-.133.205-.198.245-.264a.5.5 0 0 0 .062-.287c0-.36-.238-.543-.466-.543m.9 5.257a.9.9 0 1 1-1.8 0 .9.9 0 0 1 1.8 0" clip-rule="evenodd"/></symbol><symbol xmlns="http://www.w3.org/2000/svg" fill="currentColor" viewBox="0 0 12 12" id="rectrangle_hand_point_up_12"><path fill-rule="evenodd" d="M9.6 0H2.4c-.32 0-.588 0-.809.018-.23.019-.452.06-.663.167a1.7 1.7 0 0 0-.743.743 1.7 1.7 0 0 0-.167.663C0 1.811 0 2.081 0 2.4v3.646c0 .233 0 .42.033.586a1.7 1.7 0 0 0 1.335 1.335C1.534 8 1.721 8 1.954 8H2a.5.5 0 0 0 0-1c-.303 0-.381-.003-.437-.014a.7.7 0 0 1-.55-.55C1.004 6.382 1 6.304 1 6V2.42c0-.345 0-.573.015-.748a.8.8 0 0 1 .061-.29.7.7 0 0 1 .306-.306.8.8 0 0 1 .29-.061C1.848 1 2.077 1 2.42 1h7.16c.345 0 .573 0 .748.015a.8.8 0 0 1 .29.061.7.7 0 0 1 .306.306.8.8 0 0 1 .062.29c.014.175.014.403.014.748v3.16c0 .345 0 .573-.014.748a.8.8 0 0 1-.062.29.7.7 0 0 1-.306.306.6.6 0 0 1-.186.065c-.062.01-.134.01-.295.01H10a.5.5 0 1 0 0 1h.156c.135 0 .281.001.427-.021a1.7 1.7 0 0 0 1.232-.906 1.7 1.7 0 0 0 .167-.663C12 6.189 12 5.919 12 5.6V2.4c0-.32 0-.588-.018-.809a1.7 1.7 0 0 0-.167-.663 1.7 1.7 0 0 0-.743-.743 1.7 1.7 0 0 0-.663-.167C10.19 0 9.92 0 9.601 0ZM7.824 7.836l.017.298a.585.585 0 1 1 1.17-.016l-.045 1.404c.049 1.41-.85 2.57-2.487 2.473-1.88-.112-2.54-1.404-2.54-1.404L3.041 8.54a.52.52 0 0 1 .926-.472l.514.875.086-3.311a.56.56 0 0 1 1.119.027l-.043 1.844a.543.543 0 0 1 1.07.126l-.001.235a.556.556 0 0 1 1.11-.028Z" clip-rule="evenodd"/></symbol><symbol xmlns="http://www.w3.org/2000/svg" fill="currentColor" viewBox="0 0 12 12" id="reply_12"><path d="M7.075 3.061c0-.911-1.053-1.355-1.737-.842L1.424 5.157a1.048 1.048 0 0 0 0 1.684l3.917 2.94c.684.513 1.737.07 1.737-.842v-1.23c1.322.142 2.274.844 3.042 1.745a.5.5 0 0 0 .88-.325c0-1.569-.45-2.79-1.251-3.668-.702-.77-1.637-1.238-2.674-1.465z"/></symbol><symbol fill="none" viewBox="0 0 12 12" xmlns="http://www.w3.org/2000/svg" id="repost_12"><path fill="currentColor" d="M7.58.915 7.64.83a.6.6 0 0 1 .755-.138l.09.062 2.773 2.313.047.05a.6.6 0 0 1 0 .768l-.077.077-2.744 2.286a.6.6 0 0 1-.976-.363L7.5 5.787V4.5H4a1 1 0 0 0-.993.883L3 5.5V8a1 1 0 0 0 .883.993L4 9h4a1 1 0 0 1 .117 1.993L8 11H4a3 3 0 0 1-2.995-2.824L1 8V5.5a3 3 0 0 1 2.824-2.995L4 2.5h3.5V1.213a.6.6 0 0 1 .08-.299L7.64.83z"/></symbol><symbol xmlns="http://www.w3.org/2000/svg" fill="currentColor" viewBox="0 0 12 12" id="scribble_pencil_rectangle_12"><path d="M4.344 1.495h3.302c.503 0 .918 0 1.256.028.352.028.675.09.978.244a2.5 2.5 0 0 1 1.092 1.093c.155.303.217.626.245.978.022.26.026.565.028.921a1.8 1.8 0 0 0-1.458.518L6.472 8.592a3.45 3.45 0 0 0-.834 1.35l-.188.563H4.344c-.503 0-.918 0-1.256-.028-.352-.028-.675-.09-.978-.245A2.5 2.5 0 0 1 1.017 9.14c-.154-.303-.216-.626-.244-.978C.745 7.824.745 7.41.745 6.906V6.34l.02-.009L3.252 5.17l-.21 1.835c-.121 1.059 1.16 1.677 1.913.924l1.856-1.856a.625.625 0 0 0-.884-.884L4.325 6.792l.194-1.702c.1-.875-.797-1.52-1.594-1.147L.745 4.962c0-.444.002-.816.028-1.124.028-.352.09-.675.244-.978A2.5 2.5 0 0 1 2.11 1.767c.303-.154.626-.216.978-.244.338-.028.753-.028 1.256-.028m6.326 4.666a.55.55 0 0 1 .78 0l.389.39a.55.55 0 0 1 0 .779l-.39.389-1.168-1.168zm-.928.929 1.168 1.168-2.386 2.386a2.2 2.2 0 0 1-.86.532l-.946.315a.165.165 0 0 1-.21-.209l.316-.945c.108-.325.29-.62.532-.861z"/></symbol><symbol xmlns="http://www.w3.org/2000/svg" fill="currentColor" viewBox="0 0 12 12" id="scribble_pencil_rectangle_outline_12"><path d="M7.646 1.495H4.344c-.503 0-.918 0-1.256.028-.352.028-.675.09-.978.244A2.5 2.5 0 0 0 1.017 2.86c-.154.303-.216.626-.244.978-.028.338-.028.753-.028 1.256v1.812c0 .503 0 .918.028 1.256.028.352.09.675.244.978a2.5 2.5 0 0 0 1.093 1.092c.303.155.626.217.978.245.338.028.753.028 1.256.028H5a.625.625 0 1 0 0-1.25h-.63c-.535 0-.9 0-1.18-.023-.275-.023-.415-.063-.512-.113a1.25 1.25 0 0 1-.547-.547c-.05-.097-.09-.237-.113-.511a16 16 0 0 1-.023-1.181v-.655L4.252 5.17l-.21 1.835c-.121 1.059 1.16 1.677 1.913.924l1.856-1.856a.625.625 0 0 0-.884-.884L5.325 6.792l.194-1.702c.1-.875-.797-1.52-1.594-1.147l-1.93.902c0-.39.005-.675.023-.906.023-.274.063-.414.113-.511a1.25 1.25 0 0 1 .547-.547c.097-.05.237-.09.511-.113.282-.023.646-.023 1.181-.023h3.25c.535 0 .9 0 1.18.023.275.023.415.063.512.113.236.12.427.311.547.547.065.127.11.317.127.76a.625.625 0 1 0 1.249-.047c-.018-.477-.067-.898-.262-1.281A2.5 2.5 0 0 0 9.88 1.767c-.303-.154-.626-.216-.978-.244-.338-.028-.753-.028-1.256-.028m3.024 4.666a.55.55 0 0 1 .78 0l.389.39a.55.55 0 0 1 0 .779l-.39.389-1.168-1.168zm-.928.929 1.168 1.168-2.386 2.386a2.2 2.2 0 0 1-.86.532l-.946.315a.165.165 0 0 1-.21-.209l.316-.945c.108-.325.29-.62.532-.861z"/></symbol><symbol fill="none" viewBox="0 0 12 12" xmlns="http://www.w3.org/2000/svg" id="services_12"><g fill="currentColor"><path d="M7.392 1.426c.476-.476.713-.713.987-.802a1.2 1.2 0 0 1 .742 0c.274.089.511.326.987.802l.466.466c.476.476.713.713.802.987a1.2 1.2 0 0 1 0 .742c-.089.274-.326.511-.802.987l-.466.466c-.476.476-.713.713-.987.802a1.2 1.2 0 0 1-.742 0c-.274-.089-.511-.326-.987-.802l-.466-.466c-.476-.476-.713-.713-.802-.987a1.2 1.2 0 0 1 0-.742c.089-.274.326-.511.802-.987zM1.13 1.655C1 1.912 1 2.248 1 2.92v.66c0 .672 0 1.008.13 1.265a1.2 1.2 0 0 0 .525.524c.257.131.593.131 1.265.131h.66c.672 0 1.008 0 1.265-.13a1.2 1.2 0 0 0 .524-.525c.131-.257.131-.593.131-1.265v-.66c0-.672 0-1.008-.13-1.265a1.2 1.2 0 0 0-.525-.524C4.588 1 4.252 1 3.58 1h-.66c-.672 0-1.008 0-1.265.13a1.2 1.2 0 0 0-.524.525M1.13 7.155C1 7.412 1 7.748 1 8.42v.66c0 .672 0 1.008.13 1.265a1.2 1.2 0 0 0 .525.524C1.912 11 2.248 11 2.92 11h.66c.672 0 1.008 0 1.265-.13a1.2 1.2 0 0 0 .524-.525c.131-.257.131-.593.131-1.265v-.66c0-.672 0-1.008-.13-1.265a1.2 1.2 0 0 0-.525-.524C4.588 6.5 4.252 6.5 3.58 6.5h-.66c-.672 0-1.008 0-1.265.13a1.2 1.2 0 0 0-.524.525M6.63 7.155c-.13.257-.13.593-.13 1.265v.66c0 .672 0 1.008.13 1.265a1.2 1.2 0 0 0 .525.524C7.412 11 7.748 11 8.42 11h.66c.672 0 1.008 0 1.265-.13a1.2 1.2 0 0 0 .524-.525C11 10.088 11 9.752 11 9.08v-.66c0-.672 0-1.008-.13-1.265a1.2 1.2 0 0 0-.525-.524C10.088 6.5 9.752 6.5 9.08 6.5h-.66c-.672 0-1.008 0-1.265.13a1.2 1.2 0 0 0-.524.525"/></g></symbol><symbol xmlns="http://www.w3.org/2000/svg" fill="currentColor" viewBox="0 0 12 12" id="smile_filled_12"><path fill-rule="evenodd" d="M6 12A6 6 0 1 0 6 0a6 6 0 0 0 0 12M4 4a.85.85 0 1 0 0 1.7A.85.85 0 0 0 4 4m.436 3.476a.6.6 0 1 0-.872.823A3.34 3.34 0 0 0 6 9.35c.96 0 1.826-.405 2.436-1.05a.6.6 0 1 0-.872-.824A2.14 2.14 0 0 1 6 8.15a2.14 2.14 0 0 1-1.564-.674M7.15 4.85a.85.85 0 1 1 1.7 0 .85.85 0 0 1-1.7 0" clip-rule="evenodd"/></symbol><symbol xmlns="http://www.w3.org/2000/svg" fill="currentColor" viewBox="0 0 12 12" id="spinner_12"><path fill-rule="evenodd" d="M8.494 2.251a4.5 4.5 0 0 0-6.56 5.675.75.75 0 1 1-1.355.643 6 6 0 1 1 5.138 3.421.75.75 0 0 1 .071-1.498 4.5 4.5 0 0 0 2.706-8.24Z" clip-rule="evenodd"/></symbol><symbol xmlns="http://www.w3.org/2000/svg" fill="currentColor" viewBox="0 0 12 12" id="square_filled_12"><path fill-rule="evenodd" d="M3.328 1H8.68c.258 0 .494 0 .692.016.213.018.446.057.676.175.33.168.597.435.765.765.117.23.157.463.175.676.016.198.016.434.016.692v5.348c0 .258 0 .494-.016.692a1.8 1.8 0 0 1-.175.677 1.75 1.75 0 0 1-.765.764c-.23.118-.463.158-.676.175-.198.016-.434.016-.692.016H3.328c-.258 0-.494 0-.692-.016a1.8 1.8 0 0 1-.677-.175 1.75 1.75 0 0 1-.764-.764 1.8 1.8 0 0 1-.175-.677c-.016-.198-.016-.434-.016-.692V3.324c0-.258 0-.494.016-.692.017-.213.057-.446.175-.676a1.75 1.75 0 0 1 .764-.765c.23-.118.464-.157.677-.175C2.834 1 3.07 1 3.328 1" clip-rule="evenodd"/></symbol><symbol xmlns="http://www.w3.org/2000/svg" fill="currentColor" viewBox="0 0 12 12" id="square_outline_12"><path fill-rule="evenodd" d="M3.328 1H8.68c.258 0 .494 0 .692.016.213.018.446.057.676.175.33.168.597.435.765.765.117.23.157.463.175.676.016.198.016.434.016.692v5.348c0 .258 0 .494-.016.692a1.8 1.8 0 0 1-.175.677 1.75 1.75 0 0 1-.765.764c-.23.118-.463.158-.676.175-.198.016-.434.016-.692.016H3.328c-.258 0-.494 0-.692-.016a1.8 1.8 0 0 1-.677-.175 1.75 1.75 0 0 1-.764-.764 1.8 1.8 0 0 1-.175-.677c-.016-.198-.016-.434-.016-.692V3.324c0-.258 0-.494.016-.692.017-.213.057-.446.175-.676a1.75 1.75 0 0 1 .764-.765c.23-.118.464-.157.677-.175C2.834 1 3.07 1 3.328 1m-.693 1.53zm.002-.001a.6.6 0 0 1 .121-.018c.13-.01.304-.011.596-.011h5.3c.292 0 .467 0 .596.011a.6.6 0 0 1 .12.018.25.25 0 0 1 .105.104.6.6 0 0 1 .018.121c.01.13.01.304.01.596v5.296c0 .292 0 .467-.01.596a.6.6 0 0 1-.018.12.25.25 0 0 1-.105.105.6.6 0 0 1-.12.018c-.13.01-.304.011-.596.011h-5.3c-.292 0-.467 0-.596-.011a.6.6 0 0 1-.12-.018.25.25 0 0 1-.105-.104.6.6 0 0 1-.018-.121 8 8 0 0 1-.011-.596V3.35c0-.292 0-.467.011-.596a.6.6 0 0 1 .018-.12.25.25 0 0 1 .104-.105m-.103.102v.001Zm0 6.734zm.1.101h.002Zm6.739 0zm.101-.1v-.002Zm0-6.735v.001Zm-.102-.102z" clip-rule="evenodd"/></symbol><symbol xmlns="http://www.w3.org/2000/svg" fill="currentColor" viewBox="0 0 12 12" id="star_12"><path d="M6.54 1.864c-.202-.82-.303-1.231-.35-1.28-.11-.112-.252-.112-.361 0-.048.05-.148.46-.349 1.282-.257 1.054-.61 2.096-1.061 2.548-.452.452-1.495.805-2.552 1.062-.822.2-1.234.3-1.283.348-.112.11-.112.252 0 .361.049.048.46.15 1.282.351 1.057.26 2.1.615 2.553 1.067.451.452.805 1.49 1.062 2.54.2.815.3 1.223.348 1.273.11.112.251.112.36 0 .049-.05.15-.457.351-1.273.26-1.05.615-2.088 1.067-2.54.453-.452 1.491-.81 2.54-1.074.814-.204 1.221-.306 1.27-.355.111-.11.11-.251-.002-.36-.049-.048-.457-.147-1.272-.344-1.048-.254-2.084-.604-2.536-1.056S6.8 2.92 6.54 1.864"/></symbol><symbol fill="none" viewBox="0 0 12 12" xmlns="http://www.w3.org/2000/svg" id="star_circle_12"><path fill="currentColor" fill-rule="evenodd" d="M12 6A6 6 0 1 0 0 6a6 6 0 0 0 12 0M5.776 2.704a.25.25 0 0 1 .448 0l.952 1.928 2.127.31a.25.25 0 0 1 .138.425L7.902 6.868l.364 2.119a.25.25 0 0 1-.363.263L6 8.25l-1.903 1a.25.25 0 0 1-.363-.263l.364-2.119-1.54-1.5a.25.25 0 0 1 .14-.427l2.126-.309z" clip-rule="evenodd"/></symbol><symbol fill="none" viewBox="0 0 12 12" xmlns="http://www.w3.org/2000/svg" xmlns:xlink="http://www.w3.org/1999/xlink" id="star_circle_fill_yellow_12"><linearGradient id="m119137baa" x1="-6" x2="6" y1="6" y2="18" gradientUnits="userSpaceOnUse"><stop offset="0" stop-color="#ffb73d"/><stop offset="1" stop-color="#ffa000"/></linearGradient><g fill-rule="evenodd" clip-rule="evenodd"><path fill="url(#m119137baa)" d="M6 0a6 6 0 1 1 0 12A6 6 0 0 1 6 0m.11 2.59a.25.25 0 0 0-.334.114l-.952 1.928-2.127.31a.25.25 0 0 0-.138.426l1.539 1.5-.364 2.119a.25.25 0 0 0 .363.263L6 8.25l1.903 1a.25.25 0 0 0 .363-.263l-.364-2.119 1.54-1.5a.25.25 0 0 0-.14-.427l-2.126-.309-.952-1.928a.25.25 0 0 0-.113-.113"/><path fill="#fff" d="M6.11 2.59a.25.25 0 0 0-.334.114l-.952 1.928-2.127.31a.25.25 0 0 0-.138.426l1.539 1.5-.364 2.119a.25.25 0 0 0 .363.263L6 8.25l1.903 1a.25.25 0 0 0 .363-.263l-.364-2.119 1.54-1.5a.25.25 0 0 0-.14-.427l-2.126-.309-.952-1.928a.25.25 0 0 0-.113-.113"/></g></symbol><symbol xmlns="http://www.w3.org/2000/svg" fill="currentColor" viewBox="0 0 12 12" id="stars_12"><path d="M2.803.218a.319.319 0 0 0-.606 0l-.242.728c-.159.476-.533.85-1.009 1.009l-.728.242a.319.319 0 0 0 0 .606l.728.242c.476.159.85.533 1.009 1.009l.242.728a.32.32 0 0 0 .606 0l.242-.728c.159-.476.533-.85 1.009-1.009l.728-.242a.319.319 0 0 0 0-.606l-.728-.242A1.6 1.6 0 0 1 3.045.946zm3.633 3.254c-.256.746-.599 1.5-1.031 1.933-.433.432-1.187.775-1.933 1.03a12 12 0 0 1-.768.237c-.272.075-.272.58 0 .656a15 15 0 0 1 .768.236c.746.256 1.5.599 1.933 1.031.432.433.775 1.187 1.03 1.933a13 13 0 0 1 .237.768c.075.272.58.272.656 0a15 15 0 0 1 .236-.768c.256-.746.599-1.5 1.031-1.933.433-.432 1.187-.775 1.933-1.03a13 13 0 0 1 .768-.237c.272-.075.272-.58 0-.656a15 15 0 0 1-.768-.236c-.746-.256-1.5-.599-1.933-1.031-.432-.433-.775-1.187-1.03-1.933a12 12 0 0 1-.237-.768c-.075-.272-.58-.272-.656 0a15 15 0 0 1-.236.768" clip-rule="evenodd"/></symbol><symbol fill="none" viewBox="0 0 12 12" xmlns="http://www.w3.org/2000/svg" id="story_12"><g fill="currentColor"><path d="M6 8a2 2 0 1 0 0-4 2 2 0 0 0 0 4"/><path fill-rule="evenodd" d="M0 4.8c0-1.68 0-2.52.327-3.162A3 3 0 0 1 1.638.327C2.28 0 3.12 0 4.8 0h2.4c1.68 0 2.52 0 3.162.327a3 3 0 0 1 1.311 1.311C12 2.28 12 3.12 12 4.8v2.4c0 1.68 0 2.52-.327 3.162a3 3 0 0 1-1.311 1.311C9.72 12 8.88 12 7.2 12H4.8c-1.68 0-2.52 0-3.162-.327a3 3 0 0 1-1.311-1.311C0 9.72 0 8.88 0 7.2zM9.5 6a3.5 3.5 0 1 1-7 0 3.5 3.5 0 0 1 7 0" clip-rule="evenodd"/></g></symbol><symbol xmlns="http://www.w3.org/2000/svg" fill="currentColor" viewBox="0 0 12 12" id="subtitles_12"><path d="M9.5 2A1.5 1.5 0 0 1 11 3.5v5A1.5 1.5 0 0 1 9.5 10h-7A1.5 1.5 0 0 1 1 8.5v-5A1.5 1.5 0 0 1 2.5 2zm-3 6h-4a.5.5 0 0 0 0 1h4a.5.5 0 0 0 0-1m3 0h-1a.5.5 0 0 0 0 1h1a.5.5 0 0 0 0-1m0-2h-4a.5.5 0 0 0 0 1h4a.5.5 0 0 0 0-1m-6 0h-1a.5.5 0 0 0 0 1h1a.5.5 0 0 0 0-1"/></symbol><symbol xmlns="http://www.w3.org/2000/svg" fill="none" viewBox="0 0 12 12" id="switch_12"><path fill="currentColor" d="M11.25 4.75A.75.75 0 0 0 12 4V.75a.75.75 0 0 0-1.5 0v1.281A6.002 6.002 0 0 0 .172 4.568a.75.75 0 0 0 1.457.357A4.502 4.502 0 0 1 9.562 3.25H8.25a.75.75 0 0 0 0 1.5zm.028 1.771a.75.75 0 0 1 .551.907A6.002 6.002 0 0 1 1.5 9.968v1.282a.75.75 0 0 1-1.5 0V8a.75.75 0 0 1 .75-.75h3a.75.75 0 0 1 0 1.5H2.438a4.502 4.502 0 0 0 7.934-1.678.75.75 0 0 1 .906-.55Z"/></symbol><symbol fill="none" viewBox="0 0 12 12" xmlns="http://www.w3.org/2000/svg" id="tag_12"><path fill="currentColor" d="M2.918 1C1.858 1 1 1.846 1 2.89v2.402c0 .802.323 1.572.899 2.139l4.073 4.015a1.937 1.937 0 0 0 2.712 0l2.642-2.604a2.246 2.246 0 0 0 0-3.208L7.524 1.886A3.1 3.1 0 0 0 5.354 1zM4.5 3a1.5 1.5 0 1 1 0 3 1.5 1.5 0 0 1 0-3"/></symbol><symbol xmlns="http://www.w3.org/2000/svg" fill="none" viewBox="0 0 12 12" id="unlock_12"><path fill="currentColor" d="M6 .5a3 3 0 0 0-3 3V5h-.22c-.448 0-.672 0-.843.087a.8.8 0 0 0-.35.35c-.087.171-.087.395-.087.843v3.44c0 .448 0 .672.087.843a.8.8 0 0 0 .35.35c.171.087.395.087.843.087h6.44c.448 0 .672 0 .843-.087a.8.8 0 0 0 .35-.35c.087-.17.087-.395.087-.843V6.28c0-.448 0-.672-.087-.843a.8.8 0 0 0-.35-.35C9.893 5 9.668 5 9.22 5H4.5V3.5a1.5 1.5 0 0 1 2.916-.498.75.75 0 1 0 1.415-.497A3 3 0 0 0 6 .5"/></symbol><symbol xmlns="http://www.w3.org/2000/svg" fill="currentColor" viewBox="0 0 12 12" id="user_12"><path d="M8 4a2 2 0 1 0-3.999-.001A2 2 0 0 0 8 4M2 9v.498c0 .277.225.502.502.502h6.996A.503.503 0 0 0 10 9.498V9c0-1.75-2.665-2.25-4-2.25S2 7.25 2 9"/></symbol><symbol xmlns="http://www.w3.org/2000/svg" fill="currentColor" viewBox="0 0 12 12" id="user_tag_12"><path fill-rule="evenodd" d="M.5 2.929C.5 1.904.5 1.39.7.999.876.655 1.156.375 1.5.2c.393-.2.907-.2 1.933-.2h5.134c1.026 0 1.54 0 1.932.2.345.175.625.455.801.8.2.391.2.904.2 1.929v4.718c0 1.026 0 1.538-.2 1.93a1.83 1.83 0 0 1-.801.8c-.392.2-.906.2-1.932.2h-.19c-.51 0-.85.355-1.189.711S6.51 12 6 12s-.849-.356-1.188-.712c-.34-.356-.68-.712-1.188-.712h-.19c-1.027 0-1.54 0-1.933-.2a1.83 1.83 0 0 1-.801-.8c-.2-.39-.2-.903-.2-1.929zm7 .571a1.5 1.5 0 1 0-3 0 1.5 1.5 0 0 0 3 0M3 8.113v-.382C3 6.385 4.999 6 6 6s3 .385 3 1.73v.383a.38.38 0 0 1-.377.387H3.377A.38.38 0 0 1 3 8.113" clip-rule="evenodd"/></symbol><symbol xmlns="http://www.w3.org/2000/svg" fill="currentColor" viewBox="0 0 12 12" id="users_12"><path d="M8.25 6.5c1.147 0 3.25.429 3.25 2.143 0 .75-.191.857-.573.857l-3.046.001A2.8 2.8 0 0 0 8 8.643c0-.862-.316-1.534-.837-2.032.392-.08.775-.111 1.087-.111m-4.5 0C4.897 6.5 7 6.929 7 8.643c0 .75-.191.857-.574.857H1.074C.69 9.5.5 9.393.5 8.643.5 6.929 2.603 6.5 3.75 6.5m0-3.75a1.5 1.5 0 1 1 0 3 1.5 1.5 0 0 1 0-3m4.5 0a1.5 1.5 0 1 1 0 3 1.5 1.5 0 0 1 0-3"/></symbol><symbol fill="none" viewBox="0 0 16 16" xmlns="http://www.w3.org/2000/svg" id="verified_12"><path fill="currentColor" d="M4.5 9.586 2.957 8.043a1 1 0 0 0-1.414 1.414l2.25 2.25a1 1 0 0 0 1.414 0l5.25-5.25a1 1 0 0 0-1.414-1.414z"/></symbol><symbol xmlns="http://www.w3.org/2000/svg" fill="currentColor" viewBox="0 0 12 12" id="verified_alt_12"><path d="M4.5 7.586 2.957 6.043a1 1 0 0 0-1.414 1.414l2.25 2.25a1 1 0 0 0 1.414 0l5.25-5.25a1 1 0 0 0-1.414-1.414z"/></symbol><symbol xmlns="http://www.w3.org/2000/svg" fill="currentColor" viewBox="0 0 12 12" id="video_12"><path fill-rule="evenodd" d="M1 2.4c0-.84 0-1.26.163-1.581A1.5 1.5 0 0 1 1.82.163C2.139 0 2.559 0 3.4 0h5.2c.84 0 1.26 0 1.581.163a1.5 1.5 0 0 1 .655.656c.164.32.164.74.164 1.581v7.2c0 .84 0 1.26-.164 1.581a1.5 1.5 0 0 1-.655.655C9.861 12 9.441 12 8.6 12H3.4c-.84 0-1.26 0-1.581-.164a1.5 1.5 0 0 1-.656-.655C1 10.861 1 10.441 1 9.6zm2 .313c0-.25 0-.374.049-.47a.45.45 0 0 1 .194-.194C3.34 2 3.463 2 3.713 2h.244c.25 0 .374 0 .47.049.084.042.152.11.194.194.049.096.049.22.049.47v.244c0 .25 0 .374-.049.47a.45.45 0 0 1-.194.194c-.096.049-.22.049-.47.049h-.244c-.25 0-.374 0-.47-.049a.45.45 0 0 1-.194-.194C3 3.33 3 3.207 3 2.957zm.049 2.695C3 5.504 3 5.628 3 5.878v.244c0 .25 0 .374.049.47.042.084.11.152.194.194.096.049.22.049.47.049h.244c.25 0 .374 0 .47-.049a.45.45 0 0 0 .194-.194c.049-.096.049-.22.049-.47v-.244c0-.25 0-.374-.049-.47a.45.45 0 0 0-.194-.194c-.096-.049-.22-.049-.47-.049h-.244c-.25 0-.374 0-.47.049a.45.45 0 0 0-.194.194M3 9.043c0-.25 0-.374.049-.47a.45.45 0 0 1 .194-.194c.096-.049.22-.049.47-.049h.244c.25 0 .374 0 .47.049.084.042.152.11.194.194.049.096.049.22.049.47v.244c0 .25 0 .374-.049.47a.45.45 0 0 1-.194.194c-.096.049-.22.049-.47.049h-.244c-.25 0-.374 0-.47-.049a.45.45 0 0 1-.194-.194C3 9.66 3 9.537 3 9.287zm4.379-6.8c-.049.096-.049.22-.049.47v.244c0 .25 0 .374.049.47.042.084.11.152.194.194.096.049.22.049.47.049h.244c.25 0 .374 0 .47-.049a.45.45 0 0 0 .195-.194C9 3.33 9 3.207 9 2.957v-.244c0-.25 0-.374-.048-.47a.45.45 0 0 0-.195-.194C8.66 2 8.537 2 8.287 2h-.244c-.25 0-.374 0-.47.049a.45.45 0 0 0-.194.194M7.33 5.878c0-.25 0-.374.049-.47a.45.45 0 0 1 .194-.194c.096-.049.22-.049.47-.049h.244c.25 0 .374 0 .47.049a.44.44 0 0 1 .195.194c.048.096.048.22.048.47v.244c0 .25 0 .374-.048.47a.45.45 0 0 1-.195.194c-.096.049-.22.049-.47.049h-.244c-.25 0-.374 0-.47-.049a.45.45 0 0 1-.194-.194c-.049-.096-.049-.22-.049-.47zm.049 2.695c-.049.096-.049.22-.049.47v.244c0 .25 0 .374.049.47.042.084.11.152.194.194.096.049.22.049.47.049h.244c.25 0 .374 0 .47-.049a.45.45 0 0 0 .194-.194C9 9.66 9 9.537 9 9.287v-.244c0-.25 0-.374-.049-.47a.45.45 0 0 0-.194-.194c-.096-.049-.22-.049-.47-.049h-.244c-.25 0-.374 0-.47.049a.45.45 0 0 0-.194.194" clip-rule="evenodd"/></symbol><symbol fill="none" viewBox="0 0 12 12" xmlns="http://www.w3.org/2000/svg" id="view_12"><path fill="currentColor" fill-rule="evenodd" d="M12 6c0-.8-2.4-4-6-4S0 5.2 0 6s2.4 4 6 4 6-3.2 6-4M9 6a3 3 0 1 1-6 0 3 3 0 0 1 6 0M6 7.5a1.5 1.5 0 1 0 0-3 1.5 1.5 0 0 0 0 3" clip-rule="evenodd"/></symbol></svg>