<svg xmlns="http://www.w3.org/2000/svg"><symbol viewBox="0 0 44 44" xmlns="http://www.w3.org/2000/svg" id="coins_outline_44"><g fill="none" fill-rule="evenodd"><path d="M0 0h44v44H0z"/><path fill="currentColor" fill-rule="nonzero" d="M36.995 29.969C36.793 34.692 30.055 38 22 38c-8.178 0-15-3.411-15-8.25v-15l.005-.219C7.207 9.808 13.945 6.5 22 6.5c8.178 0 15 3.411 15 8.25v15zm-2.994-10.17C31.246 21.794 26.863 23 22 23s-9.245-1.206-12-3.2v2.45c0 2.617 5.266 5.25 12 5.25s12-2.633 12-5.25zM22 9.5c-6.734 0-12 2.633-12 5.25S15.266 20 22 20s12-2.633 12-5.25S28.734 9.5 22 9.5m12 17.799c-2.754 1.995-7.137 3.201-12 3.201-4.862 0-9.245-1.206-12-3.2v2.45l.005.138C10.185 32.458 15.385 35 22 35c6.734 0 12-2.633 12-5.25z"/></g></symbol><symbol viewBox="0 0 44 44" xmlns="http://www.w3.org/2000/svg" id="gift_outline_44"><g fill="none" fill-rule="evenodd"><path d="M0 0h44v44H0z"/><path fill="currentColor" fill-rule="nonzero" d="M31.113 6.388c1.702 1.702 1.863 4.53.348 6.765q-.303.446-.677.846H32.5c1.198 0 2.264.268 3.153.757.889.49 1.6 1.201 2.09 2.09.49.89.757 1.955.757 3.153v.644c0 1.51-.209 2.32-.601 3.054a4.1 4.1 0 0 1-1.701 1.701 4.5 4.5 0 0 1-.697.303l-.001 4.607c0 2.674-.278 3.644-.801 4.622s-1.29 1.745-2.268 2.268-1.948.801-4.623.801H16.192c-2.675 0-3.645-.278-4.623-.801s-1.745-1.29-2.268-2.268-.801-1.948-.801-4.622V25.7a4.5 4.5 0 0 1-.698-.303 4.1 4.1 0 0 1-1.701-1.7c-.36-.673-.565-1.41-.597-2.691L5.5 19.999c0-1.198.267-2.264.757-3.153a5.26 5.26 0 0 1 2.09-2.09c.889-.49 1.955-.757 3.153-.757h1.718a7 7 0 0 1-.678-.846c-1.514-2.236-1.353-5.063.348-6.765s4.53-1.863 6.765-.349c.944.64 1.735 1.525 2.348 2.634.613-1.109 1.403-1.994 2.347-2.634 2.236-1.514 5.063-1.353 6.765.349M20.5 25.999h-9v4.309c0 1.985.117 2.59.447 3.207.243.455.582.794 1.037 1.037.617.33 1.222.447 3.208.447H20.5zm3 0v9h4.308c1.986 0 2.59-.116 3.208-.447a2.45 2.45 0 0 0 1.037-1.037c.33-.617.447-1.222.447-3.207v-4.309zm-3-9h-9c-.688 0-1.26.139-1.706.385a2.26 2.26 0 0 0-.91.91c-.245.446-.384 1.018-.384 1.705l.002.914c.014.76.091 1.083.244 1.37.113.21.26.357.47.47.317.169.678.245 1.619.246H20.5zm12 0h-8.999l-.001 6h9.664l.19-.001c.802-.011 1.136-.088 1.43-.245.21-.113.357-.26.47-.47.153-.287.23-.61.244-1.37L35.5 20c0-.687-.139-1.259-.385-1.705a2.26 2.26 0 0 0-.91-.91c-.446-.246-1.017-.385-1.705-.385m-9-3c5.475-.524 7.043-4.057 5.55-5.55s-5.025.075-5.55 5.55m-8.549-5.55c-1.493 1.493.075 5.026 5.55 5.55-.524-5.475-4.056-7.043-5.55-5.55"/></g></symbol><symbol viewBox="0 0 44 44" xmlns="http://www.w3.org/2000/svg" id="music_outline_44"><g fill="none" fill-rule="evenodd"><path d="M0 0h44v44H0z"/><path fill="currentColor" fill-rule="nonzero" d="M18 26.395v3.695c0 7.032-6.874 10.65-10.61 6.915s-.117-10.61 6.915-10.61zm-3 3h-.695c-4.521 0-6.507 3.774-4.793 5.488S15 34.612 15 30.09zM30.582 6.284A4.5 4.5 0 0 1 36 10.689V26.34c0 7.032-6.874 10.65-10.61 6.915s-.117-10.61 6.915-10.61h.694v-7.051l-15 3.125L18 28h-3V14.375c0-1.415.118-2.145.47-2.931a4.54 4.54 0 0 1 1.5-1.844c.697-.505 1.388-.77 2.773-1.058zM33 25.645h-.695c-4.521 0-6.507 3.774-4.793 5.488S33 30.862 33 26.34zm-.032-15.262a1.5 1.5 0 0 0-1.774-1.162l-10.84 2.258c-1.005.21-1.32.33-1.626.552a1.54 1.54 0 0 0-.52.638c-.154.345-.208.678-.208 1.706v1.28l15-3.124v-1.842a2 2 0 0 0-.008-.153z"/></g></symbol><symbol viewBox="0 0 44 44" xmlns="http://www.w3.org/2000/svg" id="smile_outline_44"><g fill="none" fill-rule="evenodd"><path d="M0 0h44v44H0z"/><path fill="currentColor" fill-rule="nonzero" d="M22 40c-9.941 0-18-8.059-18-18S12.059 4 22 4s18 8.059 18 18-8.059 18-18 18m0-3c8.284 0 15-6.716 15-15S30.284 7 22 7 7 13.716 7 22s6.716 15 15 15m-6.582-8.863a1.5 1.5 0 0 1 2.194-2.046 6 6 0 0 0 8.775.002 1.5 1.5 0 1 1 2.191 2.049 9 9 0 0 1-13.16-.005m11.645-7.262a2.437 2.437 0 1 1 0-4.875 2.437 2.437 0 0 1 0 4.875m-10.125 0a2.437 2.437 0 1 1 0-4.875 2.437 2.437 0 0 1 0 4.875"/></g></symbol><symbol viewBox="0 0 44 44" xmlns="http://www.w3.org/2000/svg" id="spinner_44"><path fill="currentColor" d="M22 44a1.5 1.5 0 0 1 0-3c10.493 0 19-8.507 19-19S32.493 3 22 3 3 11.507 3 22c0 2.208.376 4.363 1.103 6.397a1.5 1.5 0 1 1-2.825 1.01A22 22 0 0 1 0 22C0 9.85 9.85 0 22 0s22 9.85 22 22-9.85 22-22 22"/></symbol></svg>