<svg xmlns="http://www.w3.org/2000/svg"><symbol fill="none" viewBox="0 0 96 96" xmlns="http://www.w3.org/2000/svg" id="goods_collection_96"><g fill="currentColor"><path d="M36 45a3 3 0 1 1-6 0 3 3 0 0 1 6 0M66 45a3 3 0 1 1-6 0 3 3 0 0 1 6 0"/><g fill-rule="evenodd" clip-rule="evenodd"><path d="M36 45a3 3 0 1 1-6 0 3 3 0 0 1 6 0m30 0a3 3 0 1 1-6 0 3 3 0 0 1 6 0"/><path d="M72.101 30.104C70.831 30 69.276 30 67.402 30H66c0-9.941-7.959-18-17.9-18S30 20.059 30 30h-1.402c-1.873 0-3.43 0-4.7.104-1.321.108-2.551.34-3.71.931a9.5 9.5 0 0 0-4.153 4.152c-.59 1.16-.823 2.39-.931 3.712C15 40.169 15 41.725 15 43.598V59.21c0 3.827 0 6.852.199 9.289.203 2.489.627 4.583 1.6 6.492a16.5 16.5 0 0 0 7.21 7.21c1.909.973 4.003 1.397 6.492 1.6C32.938 84 35.963 84 39.79 84h16.42c3.827 0 6.852 0 9.289-.199 2.489-.203 4.583-.627 6.492-1.6a16.5 16.5 0 0 0 7.21-7.21c.973-1.909 1.397-4.003 1.6-6.492C81 66.062 81 63.037 81 59.21V43.598c0-1.873 0-3.43-.104-4.7-.108-1.321-.34-2.551-.931-3.71a9.5 9.5 0 0 0-4.152-4.153c-1.16-.59-2.39-.823-3.712-.931m-47.795 4.983c-1.013.083-1.511.231-1.849.403a4.5 4.5 0 0 0-1.966 1.967c-.172.338-.321.836-.404 1.849C20.002 40.348 20 41.699 20 43.7v15.4c0 3.962.002 6.782.182 8.992.179 2.18.518 3.543 1.071 4.629a11.5 11.5 0 0 0 5.026 5.026c1.086.553 2.45.892 4.63 1.07 2.209.181 5.03.183 8.991.183h16.2c3.962 0 6.783-.002 8.992-.182 2.18-.179 3.543-.518 4.629-1.071a11.5 11.5 0 0 0 5.026-5.026c.553-1.086.893-2.45 1.07-4.63.181-2.209.183-5.03.183-8.991V43.7c0-2.001-.002-3.352-.087-4.394-.083-1.013-.231-1.511-.403-1.849a4.5 4.5 0 0 0-1.967-1.967c-.338-.172-.836-.32-1.849-.403C70.652 35.002 69.301 35 67.3 35H28.7c-2.001 0-3.352.002-4.394.087M48.1 17C40.92 17 35 22.82 35 30h26c0-7.18-5.72-13-12.9-13"/></g></g></symbol><symbol fill="none" viewBox="0 0 96 96" xmlns="http://www.w3.org/2000/svg" id="note_pen_outline_96"><g fill="currentColor" fill-rule="evenodd" clip-rule="evenodd"><path d="M27.194 14H57.8c2.151 0 3.917 0 5.353.117 1.488.122 2.842.382 4.109 1.027a10.5 10.5 0 0 1 4.588 4.59c1.017 1.996 1.115 4.334 1.139 7.245v.524a2.5 2.5 0 1 1-5 0v-.492c-.026-3.09-.196-4.226-.594-5.008a5.5 5.5 0 0 0-2.403-2.403c-.445-.227-1.067-.403-2.246-.5-1.209-.098-2.77-.1-5.05-.1H27.299c-2.282 0-3.842.002-5.05.1-1.18.097-1.802.273-2.247.5a5.5 5.5 0 0 0-2.403 2.403c-.226.445-.402 1.067-.499 2.246-.098 1.209-.1 2.77-.1 5.051v38.4c0 2.282.002 3.842.1 5.05.097 1.18.273 1.802.499 2.247a5.5 5.5 0 0 0 2.403 2.404c.445.226 1.067.402 2.246.498 1.209.1 2.77.101 5.05.101h30.398c2.28 0 3.841-.002 5.05-.1 1.18-.097 1.801-.273 2.246-.5a5.5 5.5 0 0 0 2.403-2.403c.399-.782.568-1.92.594-5.018l.006-.506a2.5 2.5 0 1 1 4.999.058l-.006.495c-.024 2.907-.121 5.245-1.138 7.24a10.5 10.5 0 0 1-4.588 4.59c-1.267.645-2.62.905-4.11 1.027-1.435.117-3.2.117-5.352.117H27.194c-2.151 0-3.917 0-5.353-.117-1.488-.122-2.842-.382-4.109-1.027a10.5 10.5 0 0 1-4.588-4.59c-.645-1.266-.905-2.62-1.027-4.108C12 71.722 12 69.956 12 67.804V29.196c0-2.152 0-3.918.117-5.354.122-1.489.382-2.842 1.027-4.109a10.5 10.5 0 0 1 4.588-4.589c1.267-.645 2.62-.905 4.11-1.027C23.276 14 25.041 14 27.193 14"/><path d="M23.999 34.5a2.5 2.5 0 0 1 2.5-2.5h31.996a2.5 2.5 0 0 1 0 5H26.5a2.5 2.5 0 0 1-2.5-2.5M23.999 48.5a2.5 2.5 0 0 1 2.5-2.5h19.998a2.5 2.5 0 0 1 0 5H26.499a2.5 2.5 0 0 1-2.5-2.5M23.999 62.5a2.5 2.5 0 0 1 2.5-2.5h11.998a2.5 2.5 0 0 1 0 5H26.5a2.5 2.5 0 0 1-2.5-2.5M80.44 32.262a5.5 5.5 0 0 0-3.399 0c-.78.254-1.389.687-1.89 1.112-.461.392-.97.9-1.512 1.442l-20.1 20.102-.161.162c-.88.879-1.6 1.598-2.13 2.462a8.5 8.5 0 0 0-1.017 2.457c-.236.985-.236 2.002-.235 3.245V66.5a2.5 2.5 0 0 0 2.5 2.5h3.256c1.242.001 2.26.002 3.245-.235a8.5 8.5 0 0 0 2.457-1.018c.863-.529 1.582-1.25 2.46-2.129l.163-.162 20.1-20.102c.542-.542 1.05-1.05 1.442-1.512.425-.5.858-1.109 1.112-1.89a5.5 5.5 0 0 0 0-3.4c-.254-.78-.687-1.389-1.112-1.89-.392-.461-.9-.97-1.443-1.511l-.334-.335c-.542-.542-1.05-1.05-1.512-1.442-.5-.425-1.108-.858-1.89-1.112m-1.822 4.746c-.032.02-.105.07-.231.178-.287.243-.65.603-1.272 1.226l-1.587 1.587 3.467 3.467 1.586-1.587c.623-.623.983-.986 1.227-1.272.107-.127.157-.2.177-.231a.5.5 0 0 0 0-.247 2 2 0 0 0-.177-.23l-2.713-2.713a2 2 0 0 0-.231-.178.5.5 0 0 0-.246 0M57.075 58.454c-1.122 1.121-1.383 1.406-1.564 1.7a3.5 3.5 0 0 0-.419 1.012c-.08.336-.096.721-.096 2.308 0 .29.235.526.526.526 1.586 0 1.972-.016 2.308-.097a3.5 3.5 0 0 0 1.011-.419c.295-.18.579-.442 1.7-1.564L75.46 47.002l-3.467-3.467z"/></g></symbol><symbol xmlns="http://www.w3.org/2000/svg" fill="currentColor" viewBox="0 0 96 96" id="radiowaves_around_outline_96"><path d="M13 48.393c0-19.573 15.694-35.396 35-35.396S83.001 28.82 83.001 48.393c0 10.78-3.85 19.807-11.152 26.227a2.5 2.5 0 0 0 3.302 3.754c8.501-7.475 12.85-17.931 12.85-29.98 0-22.286-17.884-40.397-40-40.397-22.117 0-40.002 18.11-40.002 40.396C8 60.442 12.345 70.9 20.846 78.376a2.5 2.5 0 0 0 3.302-3.755c-7.3-6.42-11.149-15.447-11.149-26.228ZM48.005 31c-9.37 0-17 7.664-17 17.162 0 5.335 1.669 9.412 5.144 12.461a2.5 2.5 0 1 1-3.298 3.759c-4.741-4.16-6.846-9.71-6.846-16.22 0-12.22 9.83-22.162 22-22.162s22 9.942 22 22.162c0 6.513-2.117 12.06-6.856 16.219a2.5 2.5 0 1 1-3.298-3.759c3.477-3.05 5.154-7.128 5.154-12.46 0-9.498-7.63-17.162-17-17.162M54 48a6 6 0 1 1-12 0 6 6 0 0 1 12 0"/></symbol></svg>