<svg xmlns="http://www.w3.org/2000/svg"><symbol xmlns="http://www.w3.org/2000/svg" fill="currentColor" viewBox="0 0 126 40" id="app_gallery_button_en_40"><path d="M18.474 21.752h.96l-.481-1.105z"/><path fill-rule="evenodd" d="M14.734 8C9.804 8 8 9.803 8 14.733v10.534C8 30.197 9.803 32 14.734 32h10.529C30.193 32 32 30.197 32 25.267V14.733C32 9.803 30.197 8 25.266 8zm3.504 14.309-.285.643h-.648l1.379-3.087h.56l1.374 3.087h-.666l-.281-.643zm10.435.64h.627v-3.084h-.627zm-2.494-1.324h1.155v-.563H26.18v-.632h1.677v-.563h-2.304v3.085h2.364v-.563H26.18v-.764Zm-2.49.364-.711-2.124h-.519l-.71 2.124-.692-2.122h-.676l1.091 3.087h.526l.712-2.028.711 2.028h.53l1.09-3.087h-.66zm-7.341-.356c0 .502-.253.77-.712.77-.461 0-.715-.275-.715-.791v-1.745h-.636v1.766c0 .869.49 1.367 1.342 1.367.862 0 1.356-.508 1.356-1.393v-1.742h-.635zm-3.578-1.768h.635v3.089h-.635v-1.255h-1.435v1.255H10.7v-3.089h.635v1.246h1.435zM20 15.933c-2.198 0-3.985-1.765-3.985-3.933h.563c0 1.862 1.535 3.377 3.422 3.377s3.423-1.515 3.423-3.377h.563c0 2.168-1.788 3.932-3.986 3.932Zm38.486-2.276c-.439-.232-.748-.594-.98-1.033-.233-.44-.336-.956-.336-1.55 0-.62.129-1.162.361-1.627a2.4 2.4 0 0 1 1.032-1.06c.465-.258.981-.387 1.6-.387.594 0 1.085.13 1.523.362.413.232.749.594.981 1.033.232.44.336.956.336 1.524a3.6 3.6 0 0 1-.362 1.628 2.4 2.4 0 0 1-1.032 1.059c-.439.258-.98.387-1.574.387-.62.026-1.136-.103-1.549-.336m2.607-.723c.284-.18.49-.44.645-.775.129-.336.206-.723.206-1.136 0-.414-.051-.801-.18-1.111-.13-.336-.31-.595-.594-.775-.284-.207-.62-.285-1.058-.285-.413 0-.748.104-1.032.285-.284.206-.49.465-.646.8-.154.336-.206.698-.206 1.111s.077.801.206 1.137c.13.336.336.594.62.8s.62.285 1.032.285c.387-.052.723-.13 1.007-.336" clip-rule="evenodd"/><path d="m43 8.103 1.807 2.868-1.987 2.97h1.11l1.42-2.299 1.393 2.3h1.161l-1.935-3.023 1.806-2.816h-1.11l-1.29 2.093-1.239-2.093zm-.567 0H39v5.813h3.381l.077-.827h-2.451v-1.782H42.2v-.775h-2.193V8.93h2.322zm6.22 0h1.574q1.123 0 1.704.465c.387.31.593.75.593 1.318 0 .387-.077.723-.258 1.007-.18.284-.413.517-.748.672q-.465.232-1.084.232-.348 0-.775-.077v2.222h-1.006zm2.53 2.61c.206-.207.309-.465.309-.827s-.103-.62-.336-.775c-.206-.155-.542-.233-.955-.233h-.542v2.067c.258.052.44.052.568.052.439 0 .749-.104.955-.284Zm3.354-2.61h-.98v5.839h3.33l.077-.853h-2.427zm11.408 0h-1.832v5.839h1.006v-2.325h.749l1.522 2.325h1.188l-1.807-2.584c.206-.077.387-.18.568-.335.18-.13.335-.336.464-.569.13-.232.18-.517.18-.827 0-.49-.154-.878-.515-1.136-.362-.259-.852-.388-1.523-.388m.387 2.61c-.18.103-.413.155-.645.155v-.026h-.568v-1.99h.723c.335 0 .62.078.8.207.18.13.284.362.284.646 0 .207-.052.413-.155.594s-.258.31-.439.414m3.02-2.61h3.432l-.103.827h-2.323v1.602h2.194v.775h-2.194v1.782h2.452l-.077.827h-3.381zm8.182 0h-1.007v5.839h1.007zm2.658.827h-1.78l.076-.853h4.543l-.103.853h-1.73v5.011h-1.006zm6.245 3.694c.233.44.542.8.981 1.033.413.233.93.362 1.549.336.593 0 1.135-.129 1.574-.387a2.4 2.4 0 0 0 1.032-1.06 3.6 3.6 0 0 0 .362-1.627c0-.568-.103-1.085-.336-1.524-.232-.44-.568-.8-.98-1.033A3.16 3.16 0 0 0 89.096 8c-.62 0-1.136.13-1.6.387a2.4 2.4 0 0 0-1.033 1.06 3.6 3.6 0 0 0-.361 1.627c0 .594.103 1.11.335 1.55m4.233-.465c-.155.336-.361.594-.645.775-.284.207-.645.284-1.007.336-.413 0-.748-.078-1.032-.284a1.73 1.73 0 0 1-.62-.801 3.2 3.2 0 0 1-.206-1.137c0-.413.052-.775.207-1.11.154-.336.36-.595.645-.801.284-.181.62-.285 1.032-.285.439 0 .775.078 1.058.285.284.18.465.439.594.775.129.31.18.697.18 1.11s-.077.801-.206 1.137m2.4-4.056h1.136l2.89 4.521c-.025-.44-.025-.827-.025-1.188V8.103H98v5.839h-1.11l-2.942-4.599.008.155c.023.455.044.869.044 1.24v3.204h-.93zm-6.15 20.039V18.23l1.877-.13v9.718q0 .389.195.777c.129.13.388.26.582.195.097 0 .178-.017.259-.033.08-.016.162-.032.259-.032l.194 1.36a8 8 0 0 1-.324.098 8 8 0 0 0-.323.097c-.26.064-.518.064-.712.064-1.294-.064-2.006-.777-2.006-2.202Zm4.79-9.912v9.912c0 1.425.647 2.138 2.006 2.138.194 0 .453 0 .712-.065a8 8 0 0 1 .323-.097c.113-.033.227-.065.324-.098l-.194-1.295c-.097 0-.178.016-.26.032-.08.016-.161.033-.258.033-.194.064-.453-.065-.582-.195a1.7 1.7 0 0 1-.195-.777V18.1zm11.324 7.968h-5.436c.065 1.75.906 2.656 2.524 2.656.389 0 .841-.064 1.23-.13a4.1 4.1 0 0 0 1.165-.388l.388 1.296a7.6 7.6 0 0 1-3.171.712c-.776 0-1.553-.13-2.265-.518-.582-.324-1.1-.842-1.359-1.425-.323-.713-.453-1.49-.453-2.268 0-.842.13-1.62.518-2.397a3.96 3.96 0 0 1 1.359-1.555c.582-.388 1.294-.518 2.006-.518s1.423.195 2.006.583c.518.389.906.907 1.165 1.49a5.5 5.5 0 0 1 .388 2.009zm-1.876-1.23c0-.52-.195-1.102-.518-1.49a1.77 1.77 0 0 0-1.23-.52c-.453 0-.906.195-1.23.52-.387.388-.582.97-.646 1.49zm3.365-3.175c.064.907.064 1.62.064 2.073v6.349h1.877v-5.377a6.3 6.3 0 0 1 1.1-1.166 2.4 2.4 0 0 1 1.165-.324c.259 0 .453 0 .647.064l.259-1.684c-.259-.065-.518-.065-.777-.065-.323 0-.647.13-.97.26a1.76 1.76 0 0 0-.777.582c-.259.26-.453.583-.647.907 0-.084-.012-.182-.026-.291-.018-.142-.039-.304-.039-.486a4 4 0 0 0-.035-.468c-.015-.13-.03-.252-.03-.374zm5.986 11.679q.106.018.225.047l.31.065c.201.043.402.086.661.13.582 0 1.165-.13 1.683-.39.452-.258.841-.647 1.164-1.1.389-.584.647-1.232.906-1.944l3.042-8.487h-1.942l-1.553 4.73c-.194.582-.388 1.23-.517 1.813a16 16 0 0 0-.518-1.879l-1.553-4.729h-2.071l3.106 8.422-.129.324c-.388 1.101-1.036 1.62-1.877 1.62-.194 0-.388 0-.582-.065a2 2 0 0 0-.261-.06 1 1 0 0 1-.257-.07l-.323 1.426c.178.09.326.117.486.147"/><path fill-rule="evenodd" d="m83.557 30.15 1.747-.13c-.065-.712-.065-1.23-.065-1.555v-3.303c0-.713-.13-1.49-.453-2.138a2.74 2.74 0 0 0-1.165-1.102c-.582-.259-1.164-.324-1.812-.324q-.873 0-1.747.195c-.453.13-.906.259-1.359.453l.324 1.555c.312-.156.666-.27.994-.377l.235-.076a4.2 4.2 0 0 1 1.294-.195c.518-.065.971.13 1.36.454.323.453.517.971.452 1.555v.13c-.453-.066-.97-.13-1.488-.13-1.359 0-2.33.259-2.912.712-.582.454-.906 1.166-.906 1.944-.064.453.065.907.324 1.36.259.389.582.648.97.842.389.195.842.26 1.295.26.582 0 1.1-.13 1.617-.39.453-.258.842-.518 1.165-.906 0 .388.065.777.13 1.166m-.195-2.267c-.258.323-.582.518-.97.712a6 6 0 0 1-1.165.324c-.324 0-.647-.13-.906-.324-.259-.26-.323-.583-.323-.907 0-.389.129-.777.453-1.037.452-.323 1.035-.453 1.617-.388.453 0 .841 0 1.294.065zm-13.719 1.684c-.841-.453-1.488-1.101-1.876-1.944-.453-.907-.712-2.008-.647-3.044-.065-1.102.258-2.203.776-3.24.453-.842 1.23-1.554 2.07-2.008.907-.453 1.942-.648 2.977-.648.648 0 1.23.065 1.877.195.582.13 1.1.323 1.618.583l-.518 1.49c-.906-.454-1.877-.713-2.912-.713-.712 0-1.423.13-2.07.518-.583.324-1.1.843-1.36 1.49a5.8 5.8 0 0 0-.517 2.333q0 1.069.388 2.137a3.75 3.75 0 0 0 1.165 1.49 3.2 3.2 0 0 0 2.07.519c.389 0 .777 0 1.1-.065.389-.065.712-.13 1.036-.26v-2.267h-2.588v-1.49h4.465v4.73c-.648.324-1.295.518-2.006.712-.712.13-1.424.26-2.071.26-1.1-.065-2.136-.26-2.977-.778m-11.26-7.839c.065.777.065 1.425.065 2.073l-.065 9.783 1.942-.195v-3.434c.517.13 1.1.26 1.682.26.712 0 1.424-.13 2.07-.519.648-.324 1.101-.907 1.425-1.554.388-.778.517-1.685.517-2.527s-.13-1.62-.453-2.332c-.453-1.102-1.553-1.75-2.718-1.75-.97 0-1.876.454-2.523 1.231 0-.323-.065-.712-.13-1.036zm5.695 4.081c.065.778-.13 1.555-.582 2.268-.453.518-1.036.842-1.683.777-.259 0-.518 0-.776-.065-.195 0-.453-.064-.648-.194v-4.47c.26-.26.583-.518.906-.713s.648-.259 1.036-.259c.517 0 .97.26 1.294.648.324.583.518 1.296.453 2.008m-14.649-2.008c0-.648 0-1.296-.065-2.073h1.812c.065.324.13.712.13 1.036.647-.777 1.553-1.23 2.523-1.23 1.165 0 2.265.647 2.718 1.749.324.712.453 1.49.453 2.332s-.13 1.75-.518 2.527c-.323.647-.776 1.23-1.423 1.554-.647.39-1.36.519-2.071.519-.582 0-1.165-.13-1.682-.26v3.434l-1.942.194zm5.047 4.276c.453-.713.647-1.49.583-2.268.064-.712-.13-1.425-.453-2.008-.324-.389-.777-.648-1.294-.648-.389 0-.712.065-1.036.26a5 5 0 0 0-.906.712v4.47c.194.13.453.194.647.194.26.065.518.065.777.065.647.065 1.294-.259 1.682-.777m-13.37-.972h4.465l1.1 2.98h2.07l-4.464-11.208H42.4L38 30.085h2.006zm3.883-1.49h-3.365l1.165-3.304c.064-.227.145-.47.226-.713.081-.242.162-.485.227-.712q.075.228.14.433c.126.387.234.722.377 1.057l1.23 3.24Z" clip-rule="evenodd"/></symbol><symbol xmlns="http://www.w3.org/2000/svg" fill="currentColor" viewBox="0 0 126 40" id="app_gallery_button_ru_40"><path fill-rule="evenodd" d="M69.806 9.84c-.065.452-.065.904-.065 1.29v2.84h.967V8.486H69.42l-2.513 4.066c.064-.452.064-.84.064-1.097v-2.97H65.94v5.487h1.289l2.578-4.131Zm-2.642-2.26c.064.195.257.324.45.453.194.129.452.193.903.193q.483 0 .773-.193c.194-.13.322-.258.451-.452q.195-.29.194-.581h-.774c-.064.387-.322.58-.709.58s-.644-.193-.709-.58h-.773c0 .13.057.258.115.387q.044.098.079.194Zm5.993 1.808h-1.676l.065-.903h4.382l-.064.903h-1.611v4.583h-1.096zm6.832-.903h-3.287v5.486h3.222l.064-.903h-2.19v-1.485h1.997v-.84h-1.998V9.389h2.127l.064-.903Zm7.218 3.227a1.5 1.5 0 0 0-.452-.452c-.156-.104-.354-.166-.526-.22l-.118-.038a1.23 1.23 0 0 0 .709-.452c.193-.258.258-.516.258-.839 0-.387-.13-.71-.452-.904-.322-.193-.773-.322-1.353-.322H83.47v5.486h1.869c.45 0 .773-.064 1.095-.194.322-.129.516-.258.709-.516s.258-.516.258-.839c0-.258-.065-.516-.194-.71m-2.127-1.033h-.516L84.5 9.324h.58c.258 0 .45.064.644.129.194.064.258.258.258.452 0 .129-.064.322-.129.387a1.4 1.4 0 0 1-.322.258c-.129.065-.258.13-.451.13Zm1.16 1.678c0 .259-.065.452-.258.581-.193.194-.451.259-.838.259H84.5v-1.679h.58c.322 0 .644.065.838.194.193.13.322.387.322.646Zm-25.586 1.356c-.387-.258-.709-.581-.902-.968a3.3 3.3 0 0 1-.322-1.42c0-.581.129-1.098.322-1.485s.58-.774.967-1.033c.386-.258.966-.322 1.546-.322s1.032.129 1.418.322c.387.259.71.581.902.969.194.387.323.903.323 1.42 0 .58-.13 1.097-.323 1.549s-.58.774-.966 1.033c-.451.258-.902.322-1.483.322-.58-.064-1.095-.193-1.482-.387m2.385-.775c.258-.193.45-.387.58-.71a2.7 2.7 0 0 0 .193-1.032q0-.581-.193-.969c-.13-.258-.258-.516-.516-.71s-.515-.258-.902-.258-.645.065-.902.258c-.258.194-.452.388-.58.71a2.68 2.68 0 0 0 0 2c.128.324.322.518.515.711.194.194.516.259.902.259.387 0 .645-.065.903-.259m-6.38-4.453h-1.547l-.064 5.486h1.095v-2.065c.258.064.516.064.71.064.386 0 .708 0 1.03-.193a2.3 2.3 0 0 0 .71-.646c.193-.258.257-.58.257-.968 0-.516-.258-.904-.58-1.226-.322-.323-.902-.452-1.611-.452m1.03 1.678c0 .323-.063.516-.257.71-.129.194-.387.258-.773.323-.194 0-.322 0-.516-.065V9.324h.451c.387 0 .645.064.838.193.194.13.258.323.258.646Zm-3.388 3.808h-1.224l-1.547-2.323h-.645v2.323H49.79V8.485h1.095v2.259h.516l1.031-1.55c.129-.193.322-.417.322-.387 0 0 .097-.112.387-.258.129-.064.322-.064.516-.064.193 0 .386.064.58.129l-.258.839c-.129-.065-.194-.065-.322-.065-.13 0-.194 0-.258.065l-.258.258-.902 1.356L54.3 13.97Zm-9.565-4.583h1.675v4.583h1.096V9.388h1.611l.064-.903H44.8zm-4.511 4.325c-.387-.258-.71-.581-.903-.968a3.3 3.3 0 0 1-.322-1.42c0-.581.129-1.098.322-1.485.194-.387.58-.774.967-1.033s.967-.322 1.547-.322 1.03.129 1.418.322c.386.194.709.581.902.969.193.387.322.903.322 1.42 0 .58-.129 1.097-.322 1.549-.194.452-.58.774-.967 1.033s-.902.322-1.482.322c-.58-.064-1.096-.193-1.483-.387Zm2.384-.775c.258-.193.451-.387.58-.71a2.7 2.7 0 0 0 .193-1.032q0-.581-.193-.969c-.129-.258-.258-.516-.516-.71-.257-.193-.515-.258-.902-.258-.386 0-.644.065-.902.258-.258.194-.451.388-.58.71a2.68 2.68 0 0 0 0 2c.129.324.322.518.516.711.193.194.515.259.902.259.386 0 .644-.065.902-.259m44.312 5.292v9.912c0 1.425.712 2.138 2.006 2.202.194 0 .453 0 .712-.064.097-.033.21-.065.323-.098a8 8 0 0 0 .324-.097l-.194-1.36c-.097 0-.178.016-.26.032-.08.016-.161.033-.258.033-.194.064-.453-.065-.582-.195a1.7 1.7 0 0 1-.195-.777V18.1zm4.789 9.912V18.23l1.876-.13v9.718q0 .389.195.777c.129.13.388.26.582.195.097 0 .178-.017.259-.033.08-.016.162-.032.259-.032l.194 1.295c-.097.033-.21.065-.324.098a8 8 0 0 0-.323.097c-.26.065-.518.065-.712.065-1.36 0-2.006-.713-2.006-2.138m5.889-1.944h5.435l.065-.453a5.5 5.5 0 0 0-.388-2.009 3.74 3.74 0 0 0-1.165-1.49 3.63 3.63 0 0 0-2.006-.583c-.712 0-1.424.13-2.006.518a3.96 3.96 0 0 0-1.36 1.555c-.387.778-.517 1.555-.517 2.397 0 .778.13 1.555.453 2.268.259.583.777 1.101 1.36 1.425.71.389 1.487.518 2.264.518 1.1 0 2.2-.259 3.171-.712l-.388-1.296a4.1 4.1 0 0 1-1.165.389c-.389.064-.841.13-1.23.13-1.618 0-2.459-.908-2.523-2.657m3.041-2.72c.323.388.518.97.518 1.49h-3.624c.064-.52.259-1.102.647-1.49a1.77 1.77 0 0 1 1.23-.52c.452 0 .905.195 1.229.52m3.947.388c0-.454 0-1.166-.064-2.073h1.811c0 .122.015.244.03.374.017.144.035.297.035.468 0 .182.021.344.039.486.014.11.026.207.026.291.194-.324.388-.647.647-.907a1.77 1.77 0 0 1 .777-.583c.323-.13.647-.259.97-.259.259 0 .518 0 .777.065l-.259 1.684c-.194-.064-.388-.064-.647-.064-.388 0-.841.13-1.165.324a6.3 6.3 0 0 0-1.1 1.166v5.377h-1.877zm6.147 9.653a4 4 0 0 0-.225-.047 1.7 1.7 0 0 1-.486-.147l.323-1.426c.07.035.159.052.257.07.083.014.172.03.261.06.194.065.388.065.582.065.841 0 1.489-.519 1.877-1.62l.129-.324-3.106-8.422h2.071l1.553 4.73c.194.583.388 1.23.518 1.878.129-.583.323-1.23.517-1.814l1.553-4.73h1.942l-3.042 8.488c-.259.712-.517 1.36-.906 1.943-.323.454-.712.843-1.164 1.102a3.8 3.8 0 0 1-1.683.388c-.259-.043-.46-.086-.661-.13zm-27.177-3.37c-.065-.388-.13-.777-.13-1.165-.323.388-.712.648-1.165.907a3.5 3.5 0 0 1-1.617.389c-.453 0-.906-.065-1.295-.26a2.4 2.4 0 0 1-.97-.842c-.26-.453-.388-.907-.324-1.36 0-.778.324-1.49.906-1.944s1.553-.712 2.912-.712c.518 0 1.035.064 1.488.13v-.13c.065-.584-.129-1.102-.453-1.555-.388-.324-.84-.519-1.359-.454a4.2 4.2 0 0 0-1.294.195l-.235.076c-.328.106-.682.22-.994.377l-.324-1.555c.453-.194.906-.324 1.36-.453a8 8 0 0 1 1.746-.195c.648 0 1.23.065 1.812.324.518.26.906.648 1.165 1.102.324.647.453 1.425.453 2.137v3.304c0 .324 0 .843.065 1.555l-1.747.13Zm-1.165-1.554c.388-.194.712-.389.97-.712v-1.555c-.453-.065-.84-.065-1.294-.065-.582-.065-1.165.065-1.617.388-.324.26-.453.648-.453 1.037 0 .324.064.648.323.907.259.194.582.324.906.324a6 6 0 0 0 1.165-.324m-14.625-.971c.388.842 1.035 1.49 1.876 1.943.841.518 1.877.713 2.977.777.647 0 1.359-.13 2.07-.259.712-.194 1.36-.388 2.007-.712v-4.73h-4.465v1.49h2.588v2.268c-.323.13-.647.194-1.035.26-.324.064-.712.064-1.1.064a3.2 3.2 0 0 1-2.071-.518 3.75 3.75 0 0 1-1.165-1.49 6.2 6.2 0 0 1-.388-2.138c0-.778.194-1.62.517-2.333.26-.647.777-1.166 1.36-1.49.647-.388 1.358-.518 2.07-.518 1.035 0 2.006.26 2.912.713l.518-1.49a7 7 0 0 0-1.618-.583 9.2 9.2 0 0 0-1.877-.195c-1.035 0-2.07.195-2.976.648-.841.454-1.618 1.166-2.071 2.008-.518 1.037-.841 2.138-.776 3.24-.065 1.036.194 2.137.647 3.044ZM58.448 23.8c0-.648 0-1.296-.065-2.073h1.812c.065.324.13.712.13 1.036.647-.777 1.553-1.23 2.523-1.23 1.165 0 2.265.647 2.718 1.749.324.712.453 1.49.453 2.332s-.13 1.75-.517 2.527c-.324.647-.777 1.23-1.424 1.554-.647.39-1.359.519-2.07.519-.583 0-1.166-.13-1.683-.26v3.434l-1.942.194zm5.048 4.276c.453-.713.647-1.49.582-2.268.065-.712-.13-1.425-.453-2.008-.324-.389-.776-.648-1.294-.648-.389 0-.712.065-1.036.26a5 5 0 0 0-.906.712v4.47c.195.13.453.194.648.194.258.065.517.065.776.065.647.065 1.23-.259 1.683-.777m-14.132-6.35c.065.778.065 1.426.065 2.074l-.065 9.783 1.942-.195v-3.434c.517.13 1.1.26 1.682.26.712 0 1.424-.13 2.07-.519.648-.324 1.1-.907 1.424-1.554.389-.778.518-1.685.518-2.527s-.13-1.62-.453-2.332c-.453-1.102-1.553-1.75-2.718-1.75-.97 0-1.876.454-2.523 1.231 0-.323-.065-.712-.13-1.036h-1.812Zm5.695 4.082c.064.778-.13 1.555-.583 2.268-.388.518-1.035.842-1.682.777-.259 0-.518 0-.777-.065-.194 0-.453-.064-.647-.194v-4.47c.259-.26.583-.518.906-.713s.647-.259 1.035-.259c.518 0 .971.26 1.295.648.323.583.517 1.296.453 2.008m-9.488 1.296h-4.465l-1.1 2.98H38l4.4-11.208h1.877l4.465 11.208h-2.07l-1.1-2.98Zm-3.947-1.49h3.365l-1.23-3.24c-.143-.334-.251-.669-.376-1.056l-.141-.433c-.065.227-.146.47-.227.712-.08.243-.162.486-.226.713zM8 14.733C8 9.803 9.803 8 14.734 8h10.532C30.196 8 32 9.803 32 14.733v10.534C32 30.197 30.193 32 25.263 32H14.734C9.804 32 8 30.197 8 25.267zm11.434 7.019h-.96l.479-1.105zm-1.48 1.2.284-.643h1.433l.28.643h.667l-1.374-3.087h-.56l-1.38 3.087zM29.3 22.95h-.627v-3.085h.627zm-1.966-1.325H26.18v.764h1.737v.563h-2.364v-3.085h2.304v.563H26.18v.632h1.155v.563Zm-4.356-1.76.71 2.124.693-2.122h.66l-1.09 3.087h-.53l-.711-2.028-.712 2.028h-.526l-1.091-3.087h.676l.692 2.122.71-2.124zm-7.342 2.539c.459 0 .712-.269.712-.77v-1.769h.635v1.742c0 .885-.494 1.393-1.356 1.393-.852 0-1.342-.498-1.342-1.367v-1.766h.636v1.745c0 .516.254.792.715.792m-2.231-2.539h-.635v1.246h-1.435v-1.246H10.7v3.089h.635v-1.255h1.435v1.255h.635zM16.015 12c0 2.168 1.787 3.932 3.985 3.932s3.986-1.764 3.986-3.932h-.563c0 1.862-1.536 3.377-3.423 3.377S16.578 13.862 16.578 12z" clip-rule="evenodd"/></symbol><symbol xmlns="http://www.w3.org/2000/svg" fill="currentColor" viewBox="0 0 40 40" id="comment_circle_40"><path fill-rule="evenodd" d="M40 20c0 11.046-8.954 20-20 20S0 31.046 0 20 8.954 0 20 0s20 8.954 20 20m-13.023-6.733c-.326-.174-.65-.267-1.54-.267H14.563c-.892 0-1.215.093-1.54.267a1.8 1.8 0 0 0-.757.756c-.174.326-.267.65-.267 1.54v6.873c0 .892.093 1.215.267 1.54.174.327.43.583.756.757s.65.267 1.54.267H16v3.189a.75.75 0 0 0 1.28.53L20.998 25h4.438c.892 0 1.215-.093 1.54-.267a1.8 1.8 0 0 0 .757-.756c.174-.326.267-.65.267-1.54v-6.873c0-.892-.093-1.215-.267-1.54a1.8 1.8 0 0 0-.756-.757" clip-rule="evenodd"/></symbol><symbol xmlns="http://www.w3.org/2000/svg" fill="currentColor" viewBox="0 0 40 40" id="cross_circle_40"><path fill-rule="evenodd" d="M40 20c0 11.046-8.954 20-20 20S0 31.046 0 20 8.954 0 20 0s20 8.954 20 20m-25.736-5.736a.9.9 0 0 1 1.272 0L20 18.727l4.464-4.463a.9.9 0 1 1 1.272 1.272L21.273 20l4.463 4.464a.9.9 0 1 1-1.272 1.272L20 21.273l-4.464 4.463a.9.9 0 1 1-1.272-1.272L18.727 20l-4.463-4.464a.9.9 0 0 1 0-1.272" clip-rule="evenodd"/></symbol><symbol xmlns="http://www.w3.org/2000/svg" fill="currentColor" viewBox="0 0 40 40" id="document_circle_40"><path d="M21.5 12.224a.3.3 0 0 1 .512-.212l3.976 3.976a.3.3 0 0 1-.212.512H22a.5.5 0 0 1-.5-.5z"/><path fill-rule="evenodd" d="M20 40c11.046 0 20-8.954 20-20S31.046 0 20 0 0 8.954 0 20s8.954 20 20 20m3.299-29.565a2.6 2.6 0 0 0-.818-.338c-.297-.069-.565-.097-1.34-.097h-5.295c-1.338 0-1.822.14-2.311.4a2.73 2.73 0 0 0-1.134 1.135c-.262.489-.401.973-.401 2.31v11.31c0 1.336.14 1.821.4 2.31.262.49.646.873 1.135 1.134.489.262.973.401 2.31.401h9.31c1.336 0 1.821-.14 2.31-.4a2.73 2.73 0 0 0 1.134-1.135c.262-.489.401-.974.401-2.31v-7.296c0-.775-.028-1.043-.096-1.34a2.6 2.6 0 0 0-.34-.818c-.161-.258-.33-.468-.878-1.015l-3.372-3.372c-.547-.547-.757-.717-1.015-.879" clip-rule="evenodd"/></symbol><symbol xmlns="http://www.w3.org/2000/svg" fill="currentColor" viewBox="0 0 40 40" id="done_circle_40"><path fill-rule="evenodd" d="M20 40c11.046 0 20-8.954 20-20S31.046 0 20 0 0 8.954 0 20s8.954 20 20 20m8.984-24.816a1.25 1.25 0 0 0-1.768-1.768L17 23.632l-4.216-4.216a1.25 1.25 0 1 0-1.768 1.768l5.1 5.1a1.25 1.25 0 0 0 1.768 0z" clip-rule="evenodd"/></symbol><symbol xmlns="http://www.w3.org/2000/svg" fill="currentColor" viewBox="0 0 40 40" id="download_circle_40"><path fill-rule="evenodd" d="M40 20c0 11.046-8.954 20-20 20S0 31.046 0 20 8.954 0 20 0s20 8.954 20 20m-19.098-9.1a.9.9 0 0 0-1.8 0v10.995l-4.547-4.633a.9.9 0 1 0-1.285 1.26l6.09 6.206a.9.9 0 0 0 1.283.001l6.104-6.195a.9.9 0 0 0-1.283-1.263l-4.562 4.63zm-8 16.3a.9.9 0 0 0 0 1.8h14.2a.9.9 0 1 0 0-1.8z" clip-rule="evenodd"/></symbol><symbol xmlns="http://www.w3.org/2000/svg" fill="currentColor" viewBox="0 0 40 40" id="error_circle_40"><path fill-rule="evenodd" d="M40 20c0 11.046-8.954 20-20 20S0 31.046 0 20 8.954 0 20 0s20 8.954 20 20m-18 8a2 2 0 1 0-4 0 2 2 0 0 0 4 0m.005-17a1 1 0 0 0-1-1h-2.046a1 1 0 0 0-.963 1.036l.417 11.434c.011.305.09.577.222.804.133.227.322.408.553.533S19.694 24 20 24s.58-.068.812-.193c.231-.125.42-.306.553-.533a1.7 1.7 0 0 0 .222-.804l.417-11.434z" clip-rule="evenodd"/></symbol><symbol xmlns="http://www.w3.org/2000/svg" fill="currentColor" viewBox="0 0 136 40" id="galaxy_store_button_en_40"><path fill-rule="evenodd" d="M8.255 15.076C8 16.138 8 17.426 8 20s0 3.862.255 4.924a9.23 9.23 0 0 0 6.82 6.821C16.139 32 17.426 32 20 32c2.575 0 3.862 0 4.924-.255a9.23 9.23 0 0 0 6.821-6.82C32 23.861 32 22.574 32 20c0-2.575 0-3.862-.255-4.924a9.23 9.23 0 0 0-6.82-6.82C23.861 8 22.574 8 20 8c-2.575 0-3.862 0-4.924.255a9.23 9.23 0 0 0-6.82 6.82Zm15.196 1.54.05.217h2.833l-.764 7.12a2.846 2.846 0 0 1-2.83 2.547h-5.48a2.846 2.846 0 0 1-2.83-2.547l-.764-7.12H16.5l.05-.217a3.454 3.454 0 0 1 3.45-3.45 3.454 3.454 0 0 1 3.451 3.45m-5.395 0-.056.217h4l-.055-.217A1.946 1.946 0 0 0 20 14.672a1.946 1.946 0 0 0-1.944 1.944m36.511-7.442a.5.5 0 0 0 .371.151q.21 0 .354-.151a.5.5 0 0 0 .151-.371.5.5 0 0 0-.151-.37.47.47 0 0 0-.354-.152.5.5 0 0 0-.37.151.5.5 0 0 0-.152.371q0 .22.152.37Zm.742 5.516v-4.615h-.767v4.615zm-15.828 0 .472-1.305h2.56l.472 1.305h.809L41.68 8.853h-.885l-2.122 5.837zm1.752-4.893 1.062 2.965h-2.123zm6.13.278-1.431 3.908-1.44-3.908h-.826l1.81 4.615h.894l1.81-4.615h-.816Zm1.37 2.29q0-.707.286-1.237.286-.54.783-.834.505-.295 1.12-.295.608 0 1.053.261.447.261.666.657v-.842h.774v4.615h-.774v-.859q-.228.404-.683.674a2.03 2.03 0 0 1-1.044.261q-.614 0-1.112-.303a2.13 2.13 0 0 1-.783-.85 2.65 2.65 0 0 1-.286-1.247Zm3.908.01q0-.523-.211-.91a1.45 1.45 0 0 0-.573-.59 1.5 1.5 0 0 0-.783-.21 1.55 1.55 0 0 0-.783.202 1.47 1.47 0 0 0-.565.59q-.21.386-.21.909 0 .53.21.926.21.388.565.598.354.202.783.202t.783-.202q.363-.21.573-.598.21-.396.21-.918Zm4.572-3.917v6.232h-.767V8.458zm1.306 2.67q-.285.53-.286 1.238 0 .699.286 1.246.286.548.784.85.495.304 1.111.304a2.03 2.03 0 0 0 1.045-.261q.454-.27.682-.674v.86h.775v-4.616h-.775v.842a1.74 1.74 0 0 0-.666-.657q-.446-.261-1.052-.261-.615 0-1.12.295a2.1 2.1 0 0 0-.784.834m3.411.336q.21.388.21.91c0 .522-.07.654-.21.918q-.21.388-.572.598a1.55 1.55 0 0 1-.784.202q-.429 0-.783-.202a1.53 1.53 0 0 1-.564-.598 1.95 1.95 0 0 1-.21-.926q0-.522.21-.91.21-.387.564-.59a1.55 1.55 0 0 1 .783-.202q.43 0 .784.21.362.203.572.59m3.132-.53q.236-.413.69-.674a2.04 2.04 0 0 1 1.036-.26 2.08 2.08 0 0 1 1.903 1.129q.288.53.287 1.238 0 .699-.286 1.246a2.11 2.11 0 0 1-1.904 1.154q-.598 0-1.052-.261a1.8 1.8 0 0 1-.674-.665v.85h-.767V8.458h.767zm3.133 1.432q0-.523-.21-.91a1.45 1.45 0 0 0-.573-.59 1.55 1.55 0 0 0-.784-.202 1.53 1.53 0 0 0-1.356.809q-.21.387-.21.901 0 .522.21.918.219.388.573.598.361.202.783.202.43 0 .784-.202.362-.21.572-.598.21-.396.21-.926Zm2.559 2.324V8.458h-.767v6.232zm5.601-2.484q0 .219-.025.463h-3.69q.043.682.464 1.07.43.379 1.036.379.497 0 .826-.228a1.24 1.24 0 0 0 .471-.623h.826a2 2 0 0 1-.742 1.086q-.555.413-1.38.413-.658 0-1.18-.295a2.1 2.1 0 0 1-.809-.834q-.294-.547-.294-1.263t.286-1.255.8-.825a2.4 2.4 0 0 1 1.196-.295q.657 0 1.162.286.506.287.775.792.279.496.278 1.129m-.791-.16q0-.438-.194-.75a1.2 1.2 0 0 0-.53-.48 1.6 1.6 0 0 0-.734-.168q-.58 0-.993.37-.404.37-.464 1.028zm5.05 2.425a2.4 2.4 0 0 0 1.18.295 2.45 2.45 0 0 0 1.196-.295 2.15 2.15 0 0 0 .85-.834q.32-.547.32-1.263t-.311-1.255a2.07 2.07 0 0 0-.834-.825 2.4 2.4 0 0 0-1.187-.295 2.4 2.4 0 0 0-1.188.295 2.1 2.1 0 0 0-.842.834 2.5 2.5 0 0 0-.303 1.246q0 .716.294 1.263.303.54.826.834Zm1.955-.572q-.363.193-.775.193c-.412 0-.528-.062-.758-.185a1.43 1.43 0 0 1-.556-.581q-.202-.387-.202-.952 0-.556.21-.943.21-.388.556-.573.354-.194.775-.194.412 0 .767.194.353.185.572.573.22.387.22.943c0 .556-.076.685-.228.943q-.22.388-.581.582m5.017-3.908q.842 0 1.364.513.522.506.522 1.466v2.72h-.758v-2.61q0-.692-.345-1.053-.346-.372-.943-.371-.608 0-.969.379-.354.379-.354 1.103v2.552h-.766v-4.615h.766v.657q.228-.354.615-.548.396-.193.868-.193M98.66 21.376h1.36v-1.21l1.849-1.265v2.475h1.618v1.645h-1.618v2.977c0 1.387.19 1.605 1.618 1.605v1.726h-.259c-2.46 0-3.208-.788-3.208-3.317v-2.991h-1.36zm-39.62-2.11h1.848v10.062H59.04zm-20.372 5.1c0-2.827 2.134-5.098 5.07-5.098 2.054 0 3.672 1.047 4.515 2.543l-1.632.979c-.611-1.129-1.563-1.727-2.868-1.727-1.85 0-3.25 1.495-3.25 3.304 0 1.835 1.387 3.303 3.317 3.303 1.482 0 2.516-.843 2.87-2.148h-3.168v-1.767h5.152v.734c0 2.678-1.89 4.976-4.854 4.976-3.1 0-5.152-2.352-5.152-5.098Zm14.794-3.153c-2.013 0-3.943 1.509-3.943 4.146 0 2.597 1.998 4.134 3.915 4.134 1.047 0 1.999-.463 2.584-1.197v1.034h1.835v-7.954h-1.835v.952c-.572-.68-1.51-1.115-2.556-1.115m.271 1.672c1.36 0 2.38 1.101 2.38 2.447 0 1.373-1.02 2.474-2.38 2.474s-2.406-1.087-2.406-2.474c0-1.373 1.047-2.447 2.406-2.447m8.091 2.474c0-2.637 1.93-4.146 3.943-4.146 1.047 0 1.985.435 2.556 1.115v-.952h1.835v7.953h-1.835v-1.033c-.584.734-1.536 1.197-2.583 1.197-1.917 0-3.916-1.537-3.916-4.133Zm6.594-.027c0-1.346-1.02-2.447-2.379-2.447-1.36 0-2.406 1.074-2.406 2.447 0 1.387 1.047 2.474 2.406 2.474s2.38-1.1 2.38-2.474Zm2.436-3.956 2.882 3.902-2.991 4.052h2.243l1.89-2.652 1.944 2.651h2.243l-3.046-4.024 2.856-3.929H76.7l-1.795 2.529-1.808-2.529zm11.652 7.559-3.263-7.56h1.958l2.216 5.358 2.093-5.357h1.931L82.697 33h-1.862l1.672-4.065Zm10.388-2.583-1.685 1.332c.897 1.02 2.08 1.781 3.875 1.782 2.175 0 3.426-1.524 3.426-3.087 0-1.903-1.523-2.502-2.869-2.936l-.19-.063-.006-.002c-.991-.323-1.83-.596-1.83-1.336 0-.639.49-1.128 1.387-1.128.788 0 1.373.326 1.795.951l1.522-1.155c-.802-.83-1.726-1.441-3.331-1.441-1.903 0-3.29 1.25-3.29 2.841 0 1.89 1.482 2.407 2.814 2.828l.173.053c.995.303 1.894.578 1.894 1.375 0 .693-.53 1.332-1.51 1.332-.896 0-1.671-.49-2.174-1.346Zm15.202-5.14c-2.297 0-4.119 1.836-4.119 4.148a4.103 4.103 0 0 0 4.119 4.133 4.11 4.11 0 0 0 4.119-4.133c0-2.312-1.835-4.147-4.119-4.147Zm0 1.727c1.291 0 2.311 1.088 2.311 2.42 0 1.32-1.02 2.407-2.311 2.407-1.319 0-2.311-1.088-2.311-2.406 0-1.333.992-2.42 2.311-2.42Zm6.881-1.563v1.183c.367-.789 1.033-1.183 2.039-1.183.571 0 1.046.136 1.4.34l-.693 1.74c-.272-.177-.585-.313-1.102-.313-1.06 0-1.631.571-1.631 1.944v4.242h-1.835v-7.953zm7.777-.163c-2.325 0-4.133 1.835-4.133 4.16 0 2.297 1.7 4.12 4.201 4.12 1.768 0 3.019-.87 3.712-2.149l-1.509-.87c-.381.843-1.183 1.4-2.203 1.4-1.305 0-2.202-.76-2.447-1.876h6.471v-.693c0-2.352-1.726-4.092-4.092-4.092m2.23 3.25h-4.514a2.36 2.36 0 0 1 2.284-1.632c1.142 0 1.958.57 2.23 1.631Z" clip-rule="evenodd"/></symbol><symbol xmlns="http://www.w3.org/2000/svg" fill="currentColor" viewBox="0 0 136 40" id="galaxy_store_button_ru_40"><path fill-rule="evenodd" d="M8.255 15.076C8 16.138 8 17.426 8 20s0 3.862.255 4.924a9.23 9.23 0 0 0 6.82 6.821C16.139 32 17.426 32 20 32c2.575 0 3.862 0 4.924-.255a9.23 9.23 0 0 0 6.821-6.82C32 23.861 32 22.574 32 20c0-2.575 0-3.862-.255-4.924a9.23 9.23 0 0 0-6.82-6.82C23.861 8 22.574 8 20 8c-2.575 0-3.862 0-4.924.255a9.23 9.23 0 0 0-6.82 6.82Zm15.196 1.54.05.217h2.833l-.764 7.12a2.846 2.846 0 0 1-2.83 2.547h-5.48a2.846 2.846 0 0 1-2.83-2.547l-.764-7.12H16.5l.05-.217a3.454 3.454 0 0 1 3.45-3.45 3.454 3.454 0 0 1 3.451 3.45m-5.395 0-.056.217h4l-.055-.217A1.946 1.946 0 0 0 20 14.672a1.946 1.946 0 0 0-1.944 1.944m81.965 4.76h-1.36v1.645h1.36v2.991c0 2.529.748 3.317 3.208 3.317h.259v-1.726c-1.428 0-1.618-.218-1.618-1.605v-2.977h1.618v-1.645h-1.618V18.9l-1.849 1.265v1.21Zm-39.132-2.11H59.04v10.062h1.85zm-17.15.002c-2.936 0-5.07 2.271-5.07 5.099 0 2.746 2.053 5.098 5.152 5.098 2.964 0 4.854-2.298 4.854-4.976v-.734h-5.152v1.767h3.167c-.353 1.306-1.387 2.149-2.869 2.149-1.93 0-3.317-1.469-3.317-3.304 0-1.809 1.4-3.304 3.25-3.304 1.305 0 2.257.598 2.868 1.727l1.632-.98c-.843-1.495-2.461-2.542-4.514-2.542Zm5.78 6.091c0-2.637 1.931-4.146 3.944-4.146 1.046 0 1.984.435 2.556 1.115v-.952h1.835v7.953h-1.835v-1.033c-.585.734-1.537 1.197-2.584 1.197-1.917 0-3.915-1.537-3.915-4.133Zm6.595-.027c0-1.346-1.02-2.447-2.38-2.447s-2.406 1.074-2.406 2.447c0 1.387 1.047 2.474 2.406 2.474s2.38-1.1 2.38-2.474m9.654-4.119c-2.012 0-3.943 1.509-3.943 4.146 0 2.597 1.999 4.134 3.916 4.134 1.047 0 1.999-.463 2.583-1.197v1.034h1.835v-7.954h-1.835v.952c-.571-.68-1.51-1.115-2.556-1.115m.272 1.672c1.36 0 2.38 1.101 2.38 2.447 0 1.373-1.02 2.474-2.38 2.474s-2.406-1.087-2.406-2.474c0-1.373 1.047-2.447 2.406-2.447m7.697 2.393-2.882-3.902h2.243l1.808 2.529 1.795-2.529h2.175l-2.856 3.93 3.046 4.023h-2.243l-1.944-2.65-1.89 2.65h-2.243zm5.507-3.902 3.263 7.559L80.835 33h1.862l4.745-11.624h-1.93l-2.094 5.357-2.216-5.357zm11.966 6.308 1.686-1.332c.503.857 1.278 1.346 2.175 1.346.979 0 1.51-.639 1.51-1.332 0-.797-.9-1.072-1.895-1.375l-.173-.053C93.181 24.517 91.7 24 91.7 22.11c0-1.59 1.387-2.841 3.29-2.841 1.605 0 2.53.612 3.331 1.441l-1.522 1.155c-.422-.625-1.007-.951-1.795-.951-.897 0-1.387.49-1.387 1.128 0 .74.838 1.013 1.83 1.336l.005.002.191.063c1.346.434 2.869 1.033 2.869 2.936 0 1.563-1.251 3.087-3.426 3.087-1.795 0-2.978-.762-3.875-1.782Zm12.768-2.325c0-2.31 1.822-4.146 4.119-4.146 2.284 0 4.119 1.835 4.119 4.146a4.11 4.11 0 0 1-4.119 4.134 4.103 4.103 0 0 1-4.119-4.133Zm6.43 0c0-1.332-1.02-2.42-2.311-2.42-1.319 0-2.311 1.088-2.311 2.42 0 1.32.992 2.407 2.311 2.407 1.291 0 2.311-1.088 2.311-2.406Zm4.57-2.8v-1.183h-1.822v7.953h1.835v-4.242c0-1.373.571-1.944 1.631-1.944.517 0 .83.136 1.102.313l.693-1.74c-.354-.204-.829-.34-1.4-.34-1.006 0-1.672.394-2.039 1.183m3.644 2.814c0-2.325 1.808-4.16 4.133-4.16 2.366 0 4.092 1.74 4.092 4.092v.693h-6.471c.245 1.115 1.142 1.877 2.447 1.877 1.02 0 1.822-.558 2.203-1.4l1.509.87c-.693 1.278-1.944 2.147-3.712 2.147-2.501 0-4.201-1.822-4.201-4.119m1.849-.91h4.514c-.272-1.061-1.088-1.632-2.23-1.632a2.36 2.36 0 0 0-2.284 1.631ZM39 13.82v2.604h.98v-1.698h4.772v1.698h.979V13.82h-.98V8h-4.22l-.276 3.55q-.076.963-.219 1.46-.134.486-.333.648-.2.163-.532.163H39Zm4.772-4.915v4.915h-3.127q.474-.611.59-2.224l.199-2.69h2.338Zm3.73 5.592q.59.324 1.341.325c.751.001.948-.109 1.34-.325q.59-.324.923-.906t.333-1.327-.333-1.326a2.34 2.34 0 0 0-.922-.907 2.7 2.7 0 0 0-1.34-.334 2.7 2.7 0 0 0-1.341.334q-.59.325-.922.907t-.333 1.326q0 .744.333 1.327.334.582.922.906Zm2.51-1.002q-.446.468-1.169.468-.722 0-1.169-.468-.447-.477-.447-1.23 0-.764.447-1.232.447-.477 1.17-.477.721 0 1.169.477.456.468.456 1.231 0 .765-.456 1.231Zm3.367 1.002q.59.324 1.321.325a2.67 2.67 0 0 0 1.426-.392 2.16 2.16 0 0 0 .913-1.126l-.875-.143a1.3 1.3 0 0 1-.551.582 1.64 1.64 0 0 1-.855.22q-.723 0-1.18-.468-.446-.477-.446-1.23 0-.755.447-1.232.456-.477 1.178-.477.467 0 .828.21.37.21.541.554l.875-.143a2.1 2.1 0 0 0-.894-1.098 2.6 2.6 0 0 0-1.407-.382 2.6 2.6 0 0 0-1.321.334 2.3 2.3 0 0 0-.903.907 2.7 2.7 0 0 0-.323 1.326q0 .735.323 1.317.322.582.903.916m5.605.23h.931v-4.075h1.702v-.86h-4.335v.86h1.702zm7.995-4.934h-.96L64.688 13.6h-.133l-1.56-3.807h-.998l2.187 5.21-.105.286q-.105.296-.256.41-.152.125-.428.125h-.875l.086.858h.732q.618 0 .988-.286.371-.286.6-.926zm.842 4.933h.932v-4.074h2.32v4.074h.931V9.794h-4.183zm8.767-4.933v2.013h-2.367V9.794h-.932v4.933h.932v-2.061h2.367v2.061h.932V9.794h-.932Zm3.186 4.704q.59.324 1.34.325.75 0 1.34-.325.59-.324.923-.906.332-.582.333-1.327 0-.744-.333-1.326a2.34 2.34 0 0 0-.922-.907 2.7 2.7 0 0 0-1.34-.334q-.752 0-1.341.334-.59.325-.922.907t-.333 1.326q0 .744.333 1.327.332.582.922.906m2.51-1.002q-.448.468-1.17.468c-.722 0-.871-.156-1.17-.468q-.446-.477-.446-1.23 0-.764.447-1.232.446-.477 1.17-.477.72 0 1.168.477.457.468.457 1.231 0 .765-.457 1.231Zm8.578-.887a1.27 1.27 0 0 0-.609-.468q.323-.143.495-.4.18-.268.18-.63 0-.382-.218-.678a1.4 1.4 0 0 0-.59-.467 2.1 2.1 0 0 0-.865-.172h-2.263v4.933h2.348q.514 0 .913-.172a1.47 1.47 0 0 0 .618-.496q.228-.315.228-.706a1.2 1.2 0 0 0-.237-.744m-2.938-.811v-1.212h1.33q.324 0 .533.172.21.17.21.439 0 .267-.21.439a.84.84 0 0 1-.532.162zm2.015 1.946q-.228.19-.599.191h-1.416V12.56h1.416q.371 0 .6.19a.62.62 0 0 1 .228.497.62.62 0 0 1-.229.496" clip-rule="evenodd"/></symbol><symbol xmlns="http://www.w3.org/2000/svg" fill="currentColor" viewBox="0 0 40 40" id="link_circle_40"><path fill-rule="evenodd" d="M20 40c11.046 0 20-8.954 20-20S31.046 0 20 0 0 8.954 0 20s8.954 20 20 20m7-25.772C27 13.55 26.45 13 25.772 13H16.93c-.678 0-1.228.55-1.228 1.228l.006.126a1.23 1.23 0 0 0 1.222 1.102h5.876l-9.446 9.448c-.48.48-.48 1.257 0 1.736l.1.09a1.226 1.226 0 0 0 1.636-.09l9.447-9.447v5.877a1.228 1.228 0 0 0 2.457 0z" clip-rule="evenodd"/></symbol><symbol xmlns="http://www.w3.org/2000/svg" fill="currentColor" viewBox="0 0 40 40" id="pause_circle_40"><path fill-rule="evenodd" d="M40 20c0 11.046-8.954 20-20 20S0 31.046 0 20 8.954 0 20 0s20 8.954 20 20m-22.514-6.866c-.164-.087-.326-.134-.774-.134h-1.924c-.448 0-.61.047-.774.134a.9.9 0 0 0-.38.38c-.087.164-.134.326-.134.774v11.424c0 .448.047.61.134.774a.9.9 0 0 0 .38.38c.164.087.326.134.774.134h1.924c.448 0 .61-.047.774-.134a.9.9 0 0 0 .38-.38c.087-.164.134-.326.134-.774V14.288c0-.448-.047-.61-.134-.774a.9.9 0 0 0-.38-.38m8 0c-.164-.087-.326-.134-.774-.134h-1.924c-.448 0-.61.047-.774.134a.9.9 0 0 0-.38.38c-.087.164-.134.326-.134.774v11.424c0 .448.047.61.134.774a.9.9 0 0 0 .38.38c.164.087.326.134.774.134h1.924c.448 0 .61-.047.774-.134a.9.9 0 0 0 .38-.38c.087-.164.134-.326.134-.774V14.288c0-.448-.047-.61-.134-.774a.9.9 0 0 0-.38-.38" clip-rule="evenodd"/></symbol><symbol xmlns="http://www.w3.org/2000/svg" fill="currentColor" viewBox="0 0 40 40" id="phone_circle_40"><path fill-rule="evenodd" d="M20 40c11.046 0 20-8.954 20-20S31.046 0 20 0 0 8.954 0 20s8.954 20 20 20m7.015-17.028c-1.417-1.192-3.55-1.067-4.903.287l-.734.734a.71.71 0 0 1-.75.166q-1.095-.402-2.74-2.047-1.643-1.645-2.045-2.74a.71.71 0 0 1 .165-.75l.735-.734c1.354-1.354 1.478-3.487.284-4.903l-.862-1.024c-.984-1.17-2.756-1.288-3.96-.264a3.3 3.3 0 0 0-.974 1.443 3.3 3.3 0 0 0-.159.752q-.66 4.909 4.733 10.303 5.394 5.394 10.303 4.733a3.32 3.32 0 0 0 2.195-1.134c1.024-1.202.905-2.976-.264-3.96z" clip-rule="evenodd"/></symbol><symbol xmlns="http://www.w3.org/2000/svg" fill="currentColor" viewBox="0 0 40 40" id="play_circle_40"><path fill-rule="evenodd" d="M40 20c0 11.046-8.954 20-20 20S0 31.046 0 20 8.954 0 20 0s20 8.954 20 20m-14.329 1.077a1.25 1.25 0 0 0 0-2.154l-8.787-5.175A1.25 1.25 0 0 0 15 14.826v10.348a1.25 1.25 0 0 0 1.884 1.078z" clip-rule="evenodd"/></symbol><symbol xmlns="http://www.w3.org/2000/svg" fill="currentColor" viewBox="0 0 40 40" id="podcast_circle_40"><path d="M18.36 15.193A3.2 3.2 0 0 1 20 14.75c.587 0 1.146.154 1.64.443.481.282.885.686 1.167 1.168.253.431.402.914.436 1.42l.007.218-.506.001q-.314.002-.534.12a.8.8 0 0 0-.34.34q-.118.22-.12.534v.012q.002.314.12.534a.8.8 0 0 0 .34.34q.22.119.534.12l.506-.001V22h-.506q-.314.002-.534.12a.8.8 0 0 0-.34.34q-.118.22-.12.534v.012q.002.314.12.534a.8.8 0 0 0 .34.34q.22.119.534.12l.506.001c0 .586-.154 1.146-.443 1.638a3.3 3.3 0 0 1-1.168 1.168A3.2 3.2 0 0 1 20 27.25a3.2 3.2 0 0 1-1.64-.443 3.3 3.3 0 0 1-1.167-1.168 3.2 3.2 0 0 1-.436-1.42L16.75 24h1.756q.314-.002.534-.12a.8.8 0 0 0 .34-.34q.119-.22.12-.534v-.012q-.002-.314-.12-.534a.8.8 0 0 0-.34-.34 1.1 1.1 0 0 0-.534-.12H16.75v-2h1.756q.314-.002.534-.12a.8.8 0 0 0 .34-.34q.119-.22.12-.534v-.012q-.002-.314-.12-.534a.8.8 0 0 0-.34-.34 1.1 1.1 0 0 0-.534-.12H16.75c0-.587.154-1.146.443-1.64a3.3 3.3 0 0 1 1.168-1.167ZM40 20c0 11.046-8.954 20-20 20S0 31.046 0 20 8.954 0 20 0s20 8.954 20 20m-17.476-6.317A5 5 0 0 0 20 13a5 5 0 0 0-2.524.683 5 5 0 0 0-1.793 1.793A5 5 0 0 0 15 18v6c0 .92.249 1.783.683 2.524a5 5 0 0 0 1.793 1.793c.465.273.978.472 1.523.583L19 30.1a.9.9 0 0 0 .9.9h.2a.9.9 0 0 0 .9-.9v-1.2a5 5 0 0 0 1.524-.583 5 5 0 0 0 1.793-1.793A5 5 0 0 0 25 24v-6a5 5 0 0 0-.683-2.524 5 5 0 0 0-1.793-1.793m6.954 3.668C29.145 12.407 25.028 8.5 20 8.5c-5.029 0-9.145 3.907-9.478 8.852-.27.203-.48.483-.598.817Q9.499 19.371 9.5 21c.001 1.629.141 2.029.424 2.831A1.75 1.75 0 0 0 11.574 25H12a1.5 1.5 0 0 0 1.5-1.5v-5c0-.722-.51-1.326-1.19-1.466a7.751 7.751 0 0 1 15.38-.002A1.5 1.5 0 0 0 26.5 18.5v5A1.5 1.5 0 0 0 28 25h.425a1.75 1.75 0 0 0 1.651-1.169Q30.5 22.628 30.5 21c0-1.628-.141-2.029-.424-2.831a1.75 1.75 0 0 0-.598-.818" clip-rule="evenodd"/></symbol><symbol xmlns="http://www.w3.org/2000/svg" fill="currentColor" viewBox="0 0 40 40" id="poll_circle_40"><path fill-rule="evenodd" d="M20 40c11.046 0 20-8.954 20-20S31.046 0 20 0 0 8.954 0 20s8.954 20 20 20m-4-22a2 2 0 1 0-4 0v8a2 2 0 1 0 4 0zm12 3a2 2 0 1 0-4 0v5a2 2 0 1 0 4 0zm-6-9a2 2 0 1 0-4 0v14a2 2 0 1 0 4 0z" clip-rule="evenodd"/></symbol><symbol xmlns="http://www.w3.org/2000/svg" fill="currentColor" viewBox="0 0 40 40" id="videocam_circle_40"><path fill-rule="evenodd" d="M20 40c11.046 0 20-8.954 20-20S31.046 0 20 0 0 8.954 0 20s8.954 20 20 20m3.465-26.6c-.489-.26-.974-.4-2.31-.4h-7.31c-1.337 0-1.821.14-2.31.4a2.73 2.73 0 0 0-1.134 1.135c-.262.489-.401.973-.401 2.31v6.31c0 1.336.14 1.821.4 2.31.262.49.646.873 1.135 1.134.489.262.973.401 2.31.401h7.31c1.336 0 1.821-.14 2.31-.4a2.73 2.73 0 0 0 1.134-1.135c.262-.489.401-.974.401-2.31v-6.31c0-1.336-.14-1.821-.4-2.31a2.73 2.73 0 0 0-1.135-1.134ZM31 16.498a1 1 0 0 0-1.6-.8l-2.2 1.653a.5.5 0 0 0-.2.4v4.5a.5.5 0 0 0 .2.4l2.2 1.652a1 1 0 0 0 1.6-.8z" clip-rule="evenodd"/></symbol></svg>