<svg xmlns="http://www.w3.org/2000/svg"><symbol xmlns="http://www.w3.org/2000/svg" fill="currentColor" viewBox="0 0 32 32" id="18_circle_outline_32"><path fill-rule="evenodd" d="M16 27.5c6.351 0 11.5-5.149 11.5-11.5S22.351 4.5 16 4.5 4.5 9.649 4.5 16 9.649 27.5 16 27.5m0 2.5c7.732 0 14-6.268 14-14S23.732 2 16 2 2 8.268 2 16s6.268 14 14 14m-3.721-8.594c.762 0 1.272-.516 1.272-1.315v-8.008c0-.915-.538-1.489-1.461-1.489-.503 0-.937.059-1.475.436l-1.908 1.35c-.364.262-.51.56-.51.944 0 .538.37.922.866.922.245 0 .399-.058.63-.225l1.258-.907H11v6.977c0 .8.517 1.315 1.279 1.315m6.901.094c2.552 0 4.32-1.249 4.32-3.093 0-1.416-1.027-2.41-2.447-2.665v-.05c1.224-.284 2.076-1.191 2.076-2.331 0-1.663-1.607-2.861-3.949-2.861-2.334 0-3.95 1.198-3.95 2.854 0 1.161.86 2.054 2.09 2.337v.051c-1.418.254-2.453 1.242-2.453 2.658 0 1.851 1.755 3.1 4.313 3.1m0-6.564c-.825 0-1.412-.537-1.412-1.307 0-.777.594-1.307 1.412-1.307.825 0 1.426.53 1.426 1.307 0 .77-.594 1.307-1.426 1.307m0 4.734c-.957 0-1.622-.617-1.622-1.466 0-.835.665-1.438 1.622-1.438.965 0 1.629.603 1.629 1.438 0 .85-.664 1.466-1.629 1.466"/></symbol><symbol fill="none" viewBox="0 0 32 32" xmlns="http://www.w3.org/2000/svg" id="advertising_outline_32"><g fill="currentColor" fill-rule="evenodd" clip-rule="evenodd"><path d="m10.755 18.532.794 4.502c.05.282.207.516.426.669s.492.221.774.172.515-.208.669-.426.22-.492.171-.774l-.61-3.458 2.462-.434.61 3.458c.17.96-.068 1.902-.586 2.642s-1.32 1.284-2.282 1.454a3.53 3.53 0 0 1-2.642-.586 3.53 3.53 0 0 1-1.454-2.282l-.794-4.502z"/><path d="M25.367 6.991a1.03 1.03 0 0 0-.78.138l-5.127 3.264H9.714a3.88 3.88 0 0 0-2.752 1.14c-.706.706-1.14 1.677-1.14 2.753s.434 2.047 1.14 2.752a3.88 3.88 0 0 0 2.752 1.14h9.746l5.127 3.265a1.036 1.036 0 0 0 1.592-.874V8.002a1.035 1.035 0 0 0-.812-1.01M23.244 5.02a3.53 3.53 0 0 1 2.665-.47 3.536 3.536 0 0 1 2.77 3.452V20.57c0 .976-.397 1.862-1.036 2.5a3.53 3.53 0 0 1-4.399.482l-4.512-2.872H9.714a6.38 6.38 0 0 1-4.52-1.873c-1.156-1.155-1.873-2.755-1.873-4.52s.717-3.365 1.873-4.52 2.755-1.873 4.52-1.873h9.018z"/><path d="M19.429 9.143v10.286h-2.286V9.143z"/></g></symbol><symbol xmlns="http://www.w3.org/2000/svg" fill="none" viewBox="0 0 32 32" id="cake_circle_fill_purple_32"><rect width="32" height="32" fill="url(#m3c182188a)" rx="16"/><path fill="#fff" fill-rule="evenodd" d="M20.79 8.072a.142.142 0 0 0-.247 0c-.212.388-.42.682-.603.938-.352.496-.607.855-.607 1.493a1.333 1.333 0 0 0 2.667 0c0-.638-.255-.997-.607-1.493a9 9 0 0 1-.603-.938M8 15.17c0-.736.597-1.333 1.333-1.333h13.334c.736 0 1.333.597 1.333 1.333 0 1.306-.568 2.043-1.333 2.398l-.027.012c-.29.13-.608.207-.933.239a4 4 0 0 1-.374.018c-1.994 0-2.662-1.325-2.666-1.333-.003.006-.317.627-1.152 1.019a3 3 0 0 1-.464.174q-.31.091-.691.125-.172.015-.36.015c-1.994 0-2.663-1.325-2.667-1.333-.003.006-.324.643-1.184 1.034a3 3 0 0 1-.431.159 3.6 3.6 0 0 1-.692.125q-.171.015-.36.015C9.333 17.837 8 17.17 8 15.17m14.667 4.508a5.6 5.6 0 0 1-1.334.159c-1.093 0-1.978-.275-2.666-.658-.689.383-1.574.658-2.667.658s-1.978-.275-2.667-.658c-.688.383-1.573.658-2.666.658a5.5 5.5 0 0 1-1.334-.16v.943c0 .747 0 1.12.146 1.406.128.25.332.455.582.582.286.146.659.146 1.406.146h9.066c.747 0 1.12 0 1.406-.146.25-.127.455-.331.582-.582.146-.286.146-.659.146-1.406zM11.21 8.072a.142.142 0 0 1 .247 0c.213.388.42.682.603.938.352.496.607.855.607 1.493a1.333 1.333 0 0 1-2.667 0c0-.638.255-.997.607-1.493.182-.256.39-.55.603-.938m4.914 0a.142.142 0 0 0-.248 0c-.212.388-.42.682-.603.938-.352.496-.606.855-.606 1.493a1.333 1.333 0 0 0 2.666 0c0-.638-.254-.997-.606-1.493a9 9 0 0 1-.603-.938" clip-rule="evenodd"/><defs><linearGradient id="m3c182188a" x1="-16" x2="16" y1="16" y2="48" gradientUnits="userSpaceOnUse"><stop stop-color="#937FF5"/><stop offset="1" stop-color="#735CE6"/></linearGradient></defs></symbol><symbol fill="none" viewBox="0 0 32 32" xmlns="http://www.w3.org/2000/svg" xmlns:xlink="http://www.w3.org/1999/xlink" id="cake_circle_fill_raspberry_pink_32"><linearGradient id="mc883b3f0a" x1="0" x2="32" y1="0" y2="32" gradientUnits="userSpaceOnUse"><stop offset="0" stop-color="#f060c0"/><stop offset="1" stop-color="#e03fab"/></linearGradient><path fill="url(#mc883b3f0a)" d="M0 16C0 7.163 7.163 0 16 0s16 7.163 16 16-7.163 16-16 16S0 24.837 0 16"/><path fill="#fff" fill-rule="evenodd" d="M20.79 8.072a.142.142 0 0 0-.247 0c-.212.388-.42.682-.603.938-.352.496-.607.855-.607 1.493a1.333 1.333 0 0 0 2.667 0c0-.638-.255-.997-.606-1.493-.183-.256-.391-.55-.604-.938M8 15.17c0-.736.597-1.333 1.333-1.333h13.334c.736 0 1.333.597 1.333 1.333 0 1.306-.568 2.043-1.333 2.398l-.027.012c-.29.13-.608.207-.933.239a4 4 0 0 1-.374.018c-1.994 0-2.662-1.325-2.666-1.333-.003.006-.317.627-1.151 1.019a3 3 0 0 1-.465.174q-.31.091-.691.125-.172.015-.36.015c-1.994 0-2.663-1.325-2.667-1.333-.003.006-.324.643-1.184 1.034a3 3 0 0 1-.431.159q-.31.091-.692.125-.171.015-.36.015C9.334 17.836 8 17.169 8 15.169m14.667 4.508c-.462.115-.918.159-1.334.159-1.093 0-1.978-.275-2.666-.658-.689.383-1.574.658-2.667.658s-1.978-.275-2.667-.658c-.688.383-1.573.658-2.666.658-.416 0-.872-.044-1.334-.16v.943c0 .747 0 1.12.146 1.406.128.25.332.454.582.582.286.146.659.146 1.406.146h9.066c.747 0 1.12 0 1.406-.146.25-.128.455-.332.582-.582.146-.286.146-.659.146-1.406zM11.21 8.072a.142.142 0 0 1 .247 0c.213.388.42.682.603.938.352.496.607.855.607 1.493a1.333 1.333 0 0 1-2.667 0c0-.638.255-.997.607-1.493.182-.256.39-.55.603-.938m4.914 0a.142.142 0 0 0-.248 0c-.212.388-.42.682-.603.938-.352.496-.606.855-.606 1.493a1.333 1.333 0 0 0 2.666 0c0-.638-.254-.997-.606-1.493-.182-.256-.39-.55-.603-.938" clip-rule="evenodd"/></symbol><symbol viewBox="0 0 32 32" version="1.1" xmlns="http://www.w3.org/2000/svg" xmlns:xlink="http://www.w3.org/1999/xlink" id="camera_32"><g fill="none" fill-rule="evenodd"><path d="M0 0h32v32H0z"/><path fill="currentColor" d="M6.242 8h1.273c.907 0 1.886-.59 2.38-1.26.493-.67.93-1.32.957-1.352.528-.62 1.067-.888 1.987-.888H16V27H6.848C4.171 27 2 24.877 2 22.26v-9.52C2 9.779 3.333 8 6.242 8m19.516 0h-1.273c-.907 0-1.927-.657-2.38-1.26-.452-.605-.93-1.32-.957-1.352-.528-.62-1.067-.888-1.987-.888H16V27h9.152C27.829 27 30 24.877 30 22.26v-9.52C30 9.779 28.667 8 25.758 8M9.25 16.75A6.75 6.75 0 0 0 16 23.5a6.75 6.75 0 0 0 6.75-6.75A6.75 6.75 0 0 0 16 10a6.75 6.75 0 0 0-6.75 6.75m2 0a4.75 4.75 0 1 1 9.5 0 4.75 4.75 0 0 1-9.5 0"/></g></symbol><symbol xmlns="http://www.w3.org/2000/svg" fill="currentColor" viewBox="0 0 32 32" id="camera_outline_32"><path fill-rule="evenodd" d="M14.334 3h3.332c.752 0 1.366-.001 1.945.165a4.25 4.25 0 0 1 1.598.861c.456.392.793.906 1.206 1.535.24.367.45.895.944.958.166.021.338.006.505.006.817 0 1.411 0 1.932.105a5.25 5.25 0 0 1 4.099 4.1c.111.548.105 1.178.105 2.066v6.208c0 1.494 0 2.692-.08 3.66-.08.995-.251 1.857-.656 2.65a6.75 6.75 0 0 1-2.95 2.95c-.793.405-1.655.576-2.65.657-.968.079-2.166.079-3.66.079h-8.008c-1.494 0-2.692 0-3.66-.08-.995-.08-1.857-.251-2.65-.656a6.75 6.75 0 0 1-2.95-2.95c-.405-.793-.576-1.655-.657-2.65C2 21.696 2 20.498 2 19.004v-6.208c0-.888-.006-1.518.105-2.067a5.25 5.25 0 0 1 4.1-4.099c.52-.106 1.114-.105 1.93-.105.168 0 .34.015.506-.006.494-.063.703-.591.944-.958.413-.629.75-1.143 1.206-1.535a4.25 4.25 0 0 1 1.598-.861c.579-.166 1.193-.166 1.945-.165m.14 2.5c-.963 0-1.199.011-1.396.068a1.75 1.75 0 0 0-.657.355c-.156.133-.295.323-.824 1.129-.19.288-.366.585-.582.837a3.25 3.25 0 0 1-2.06 1.11c-.222.028-.449.026-.684.026-1.01 0-1.329.006-1.569.055a2.75 2.75 0 0 0-2.147 2.147c-.049.24-.055.559-.055 1.57v6.153c0 1.56.001 2.656.07 3.51.07.84.198 1.337.393 1.72a4.25 4.25 0 0 0 1.858 1.857c.382.195.879.324 1.718.392.855.07 1.95.071 3.511.071h7.9c1.56 0 2.656 0 3.51-.07.84-.07 1.337-.198 1.72-.393a4.25 4.25 0 0 0 1.857-1.857c.195-.383.324-.88.392-1.72.07-.854.071-1.95.071-3.51v-6.154c0-1.01-.006-1.329-.055-1.569a2.75 2.75 0 0 0-2.147-2.147c-.24-.049-.559-.055-1.57-.055-.234 0-.462.002-.684-.026a3.25 3.25 0 0 1-2.06-1.11c-.22-.258-.395-.554-.58-.837-.53-.806-.67-.996-.825-1.13a1.75 1.75 0 0 0-.657-.354c-.197-.057-.433-.068-1.397-.068h-3.05Z" clip-rule="evenodd"/><path fill-rule="evenodd" d="M12.5 17a3.5 3.5 0 1 0 7 0 3.5 3.5 0 0 0-7 0m3.5-6a6 6 0 1 0 0 12 6 6 0 0 0 0-12" clip-rule="evenodd"/></symbol><symbol xmlns="http://www.w3.org/2000/svg" fill="none" viewBox="0 0 32 32" id="cards_2_outline_32"><path fill="currentColor" fill-rule="evenodd" d="m22.304 2.513.384.068c1.196.214 2.168.389 2.946.594.803.213 1.505.485 2.12.95a5.8 5.8 0 0 1 2.04 2.914c.227.737.242 1.489.167 2.317-.073.8-.241 1.774-.45 2.971l-1.104 6.365c-.208 1.197-.377 2.17-.578 2.949-.209.803-.476 1.506-.94 2.122a5.7 5.7 0 0 1-2.907 2.036c-.738.224-1.49.236-2.316.156-.8-.076-1.772-.25-2.969-.465l-.383-.068c-1.196-.215-2.168-.389-2.946-.595-.803-.212-1.505-.484-2.12-.949a5.8 5.8 0 0 1-2.04-2.914c-.227-.737-.242-1.49-.167-2.317.072-.801.241-1.774.45-2.972l1.104-6.364c.208-1.198.377-2.17.578-2.949.208-.803.476-1.506.939-2.123a5.7 5.7 0 0 1 2.908-2.036c.737-.224 1.49-.235 2.316-.156.8.077 1.772.251 2.968.465m-3.207 2.023c-.672-.065-1.056-.03-1.35.06a3.2 3.2 0 0 0-1.636 1.145c-.185.246-.348.594-.518 1.248-.172.668-.325 1.54-.544 2.802l-1.087 6.26c-.219 1.262-.37 2.134-.431 2.822-.061.673-.025 1.059.066 1.356a3.3 3.3 0 0 0 1.159 1.655c.248.188.599.354 1.252.527.667.176 1.538.333 2.799.559l.279.05c1.26.226 2.132.381 2.819.447.672.064 1.055.03 1.35-.06a3.2 3.2 0 0 0 1.636-1.145c.184-.246.348-.595.517-1.248.173-.668.326-1.54.545-2.802l1.086-6.26c.22-1.262.37-2.135.432-2.822.061-.673.025-1.059-.066-1.357a3.3 3.3 0 0 0-1.159-1.654c-.248-.188-.599-.354-1.252-.527-.667-.177-1.539-.334-2.8-.56l-.278-.05c-1.26-.225-2.133-.38-2.819-.446M8.871 6.324a1.25 1.25 0 1 1 .444 2.46l-.093.016c-2.198.397-2.965.601-3.469.982a3.3 3.3 0 0 0-1.158 1.655c-.092.297-.128.683-.067 1.356.063.688.213 1.56.432 2.822l1.145 6.595c.219 1.262.371 2.134.544 2.801.17.654.333 1.003.518 1.248a3.2 3.2 0 0 0 1.636 1.146c.294.09.678.124 1.35.06.686-.066 1.558-.222 2.819-.447l.318-.057a1.25 1.25 0 1 1 .44 2.46l-.37.067c-1.196.214-2.168.388-2.968.465-.827.08-1.579.068-2.316-.156a5.7 5.7 0 0 1-2.908-2.036c-.463-.616-.73-1.32-.939-2.123-.201-.778-.37-1.751-.578-2.949l-1.163-6.698c-.208-1.198-.377-2.171-.45-2.972-.074-.828-.06-1.58.167-2.317a5.8 5.8 0 0 1 2.04-2.914C5.329 6.97 6.784 6.7 8.779 6.34z" clip-rule="evenodd"/></symbol><symbol xmlns="http://www.w3.org/2000/svg" fill="currentColor" viewBox="0 0 32 32" id="check_circle_32"><path fill-rule="evenodd" d="M16 30c7.732 0 14-6.268 14-14S23.732 2 16 2 2 8.268 2 16s6.268 14 14 14m7.735-18.322a1 1 0 1 0-1.47-1.356l-8.53 9.243L9.7 15.618a1 1 0 0 0-1.398 1.43l4.773 4.667a1 1 0 0 0 1.434-.037z" clip-rule="evenodd"/></symbol><symbol xmlns="http://www.w3.org/2000/svg" fill="none" viewBox="0 0 32 32" id="checkbit_outline_32"><path fill="currentColor" fill-rule="evenodd" d="M6.971 19.598c.611.694 1.448 1.532 2.674 2.76 1.227 1.226 2.065 2.062 2.76 2.673.679.598 1.093.863 1.428 1.012a5.33 5.33 0 0 0 4.334 0c.335-.149.75-.414 1.428-1.012.695-.61 1.533-1.447 2.76-2.674s2.063-2.065 2.674-2.759c.597-.679.863-1.093 1.012-1.428a5.33 5.33 0 0 0 0-4.333c-.149-.335-.415-.75-1.012-1.429-.611-.694-1.448-1.532-2.674-2.759s-2.065-2.063-2.76-2.674c-.678-.597-1.093-.863-1.428-1.012a5.33 5.33 0 0 0-4.334 0c-.335.15-.75.415-1.428 1.012-.695.611-1.533 1.448-2.76 2.674-1.226 1.227-2.063 2.065-2.674 2.76-.597.678-.863 1.093-1.012 1.428a5.33 5.33 0 0 0 0 4.333c.149.335.415.75 1.012 1.428ZM12.817 3.68c-1.327.59-2.53 1.795-4.94 4.203-2.408 2.408-3.612 3.612-4.202 4.939a7.83 7.83 0 0 0 0 6.365c.59 1.326 1.794 2.53 4.203 4.939 2.408 2.408 3.612 3.612 4.94 4.202a7.83 7.83 0 0 0 6.365 0c1.327-.59 2.53-1.794 4.94-4.202 2.408-2.408 3.612-3.613 4.202-4.94a7.83 7.83 0 0 0 0-6.364c-.59-1.327-1.794-2.531-4.203-4.94-2.408-2.407-3.612-3.611-4.94-4.202a7.83 7.83 0 0 0-6.365 0" clip-rule="evenodd"/><path fill="currentColor" d="M12.615 10.145c1.185-1.185 1.777-1.777 2.46-2a3 3 0 0 1 1.85 0c.683.223 1.275.815 2.46 2l2.469 2.469c1.185 1.184 1.778 1.777 2 2.46a3 3 0 0 1 0 1.85c-.222.682-.815 1.275-2 2.46l-2.469 2.468c-1.185 1.185-1.777 1.777-2.46 2a3 3 0 0 1-1.85 0c-.683-.223-1.275-.815-2.46-2l-2.469-2.468c-1.185-1.185-1.778-1.778-2-2.46a3 3 0 0 1 0-1.85c.222-.683.815-1.276 2-2.46z"/></symbol><symbol fill="none" viewBox="0 0 32 32" xmlns="http://www.w3.org/2000/svg" id="crop_32"><path fill="currentColor" d="M22.75 26c.69 0 1.25.56 1.25 1.25v1.5a1.25 1.25 0 1 1-2.5 0v-1.5c0-.69.56-1.25 1.25-1.25M9.25 2c.647 0 1.18.492 1.244 1.122l.006.128v17.289c0 .334.035.455.1.577a.7.7 0 0 0 .284.284c.104.056.209.09.447.098l.13.002H21.5V11.461c0-.334-.035-.455-.1-.577a.7.7 0 0 0-.284-.284c-.104-.056-.209-.09-.447-.098l-.13-.002H13.75a1.25 1.25 0 0 1-.128-2.494L13.75 8h6.404c1.337 0 1.822.14 2.311.4s.873.646 1.134 1.135l.093.185c.201.438.308.956.308 2.126V21.5h4.75a1.25 1.25 0 0 1 .128 2.493L28.75 24l-.75-.001V24H11.846c-1.337 0-1.822-.14-2.311-.4A2.73 2.73 0 0 1 8.4 22.464l-.093-.185c-.187-.407-.292-.882-.306-1.885L8 18.021 8 18l-.001-7.5H3.25a1.25 1.25 0 0 1-1.244-1.122L2 9.25C2 8.56 2.56 8 3.25 8h4.749L8 3.25C8 2.56 8.56 2 9.25 2"/></symbol><symbol fill="none" viewBox="0 0 32 32" xmlns="http://www.w3.org/2000/svg" id="discount_outline_32"><g fill="currentColor"><path d="M19.862 11.512a.999.999 0 1 0-1.715-1.028l-6.005 10a.999.999 0 1 0 1.715 1.029z"/><g fill-rule="evenodd" clip-rule="evenodd"><path d="M17.3 19.15a2.35 2.35 0 1 1 4.7 0v.5a2.35 2.35 0 1 1-4.7 0zm2.35-.65a.65.65 0 0 0-.65.65v.5a.65.65 0 1 0 1.3 0v-.5a.65.65 0 0 0-.65-.65M12.35 10A2.35 2.35 0 0 0 10 12.35v.5a2.35 2.35 0 1 0 4.7 0v-.5A2.35 2.35 0 0 0 12.35 10m-.65 2.35a.65.65 0 1 1 1.3 0v.5a.65.65 0 1 1-1.3 0z"/><path d="m11.698 4.251.026.001.02-.017.265-.24.06-.055c.404-.366.823-.746 1.214-1.04.442-.33 1.028-.694 1.795-.854a4.5 4.5 0 0 1 1.844 0c.767.16 1.353.523 1.795.855.39.293.81.673 1.213 1.04l.061.054c.11.1.193.176.266.24l.019.017h.026l.357-.013.082-.004c.544-.02 1.11-.043 1.597-.016.552.03 1.235.13 1.925.499a4.5 4.5 0 0 1 1.413 1.185c.484.616.7 1.27.826 1.81.11.474.187 1.035.26 1.575l.012.081c.02.148.035.259.05.355l.003.025.02.016.282.22.065.05c.43.334.878.68 1.234 1.014.404.378.863.893 1.154 1.62a4.5 4.5 0 0 1 .32 1.816c-.025.783-.28 1.423-.53 1.917-.22.435-.523.914-.813 1.374l-.044.07-.19.303-.013.022.005.025.075.35.017.08c.115.532.235 1.086.294 1.57.066.55.087 1.238-.157 1.982a4.5 4.5 0 0 1-.923 1.598c-.522.583-1.129.91-1.638 1.127-.448.192-.988.364-1.506.53l-.078.026-.34.11-.025.008-.012.023-.168.316-.038.072c-.254.482-.518.983-.784 1.392-.303.463-.73 1.004-1.395 1.417a4.5 4.5 0 0 1-1.733.63c-.775.112-1.45-.028-1.98-.188-.466-.142-.99-.356-1.494-.562l-.077-.031-.331-.135-.024-.009-.024.01c-.09.035-.194.077-.331.134l-.077.03c-.503.207-1.028.42-1.495.563-.529.16-1.204.3-1.979.189a4.5 4.5 0 0 1-1.733-.631c-.665-.413-1.092-.954-1.395-1.417-.266-.409-.53-.91-.784-1.392l-.038-.072-.168-.316-.012-.023-.024-.008-.34-.11-.08-.025c-.517-.167-1.057-.34-1.505-.531-.509-.217-1.116-.544-1.638-1.127a4.5 4.5 0 0 1-.923-1.598c-.244-.744-.223-1.433-.157-1.982.059-.484.178-1.038.294-1.57l.017-.08.075-.35.005-.025-.013-.022-.19-.303-.044-.07c-.29-.46-.592-.94-.813-1.374-.25-.494-.505-1.134-.53-1.917a4.5 4.5 0 0 1 .32-1.816c.291-.727.75-1.242 1.154-1.62.356-.333.804-.68 1.234-1.014l.065-.05.282-.22.02-.016.004-.025.05-.355.01-.081c.074-.54.15-1.1.261-1.576.126-.538.342-1.193.826-1.809a4.5 4.5 0 0 1 1.413-1.185c.69-.37 1.373-.469 1.925-.5.487-.026 1.053-.004 1.597.017l.082.004c.149.005.26.01.357.012m1.99 1.596c.914-.829 1.37-1.243 1.902-1.354a2 2 0 0 1 .82 0c.532.111.988.525 1.901 1.354.43.39.644.584.896.708q.196.096.407.148c.273.067.563.056 1.142.034 1.232-.048 1.848-.072 2.327.185a2 2 0 0 1 .628.527c.335.427.419 1.037.586 2.259.078.574.118.861.23 1.118q.09.2.217.376c.167.226.395.404.853.759.975.755 1.462 1.133 1.664 1.637a2 2 0 0 1 .142.807c-.017.543-.346 1.065-1.003 2.108-.309.49-.463.735-.542 1.005q-.06.21-.075.427c-.018.28.043.564.165 1.13.261 1.205.392 1.807.222 2.324a2 2 0 0 1-.41.71c-.362.404-.949.593-2.123.97-.552.176-.827.264-1.06.42q-.182.122-.333.28c-.194.202-.33.459-.6.971-.574 1.091-.862 1.636-1.323 1.923a2 2 0 0 1-.77.28c-.538.077-1.109-.156-2.25-.622-.537-.219-.805-.328-1.084-.359a2 2 0 0 0-.434 0c-.28.03-.547.14-1.084.36-1.141.465-1.712.699-2.25.621a2 2 0 0 1-.77-.28c-.461-.287-.749-.832-1.323-1.923-.27-.512-.406-.769-.6-.971a2 2 0 0 0-.332-.28c-.234-.155-.51-.244-1.061-.42-1.174-.377-1.761-.566-2.123-.97a2 2 0 0 1-.41-.71c-.17-.517-.04-1.12.222-2.324.122-.566.183-.85.165-1.13a2 2 0 0 0-.075-.427c-.079-.27-.233-.515-.542-1.005-.657-1.043-.986-1.565-1.003-2.108a2 2 0 0 1 .142-.807c.202-.504.69-.882 1.664-1.637.457-.355.686-.533.852-.76q.13-.175.217-.375c.114-.257.153-.544.231-1.118.167-1.222.25-1.832.586-2.26a2 2 0 0 1 .628-.526c.48-.257 1.095-.233 2.327-.185.58.022.869.033 1.142-.034q.211-.051.407-.148c.252-.124.467-.319.896-.708"/></g></g></symbol><symbol viewBox="0 0 32 32" version="1.1" xmlns="http://www.w3.org/2000/svg" xmlns:xlink="http://www.w3.org/1999/xlink" id="discussions_32"><g fill="none" fill-rule="evenodd"><path d="M0 0h32v32H0z"/><path fill="currentColor" d="M24.998 8.67v7.317c0 2.22-1.8 4.02-4.02 4.02H8.998v1.99c0 1.11.9 2.01 2.01 2.01h12.656l4.19 4.19a.67.67 0 0 0 1.144-.475V10.68c0-1.11-.9-2.01-2.01-2.01zM20.32 4H5.01C3.9 4 3 4.9 3 6.01v15.709a.67.67 0 0 0 1.144.474l4.19-4.19H20.99c1.11 0 2.01-.9 2.01-2.01V6.68C23 5.2 21.8 4 20.32 4"/></g></symbol><symbol viewBox="0 0 32 32" version="1.1" xmlns="http://www.w3.org/2000/svg" xmlns:xlink="http://www.w3.org/1999/xlink" id="document_32"><g fill="none" fill-rule="evenodd"><path d="M0 0h32v32H0z"/><path fill="currentColor" d="M4.498 7.003V24a4 4 0 0 0 4 4L23 28.003A4 4 0 0 0 27 24l-.012-11.893c-.001-.707-.282-1.384-.782-1.884l-6.438-6.439c-.5-.5-1.179-.78-1.886-.78H8.498a4 4 0 0 0-4 4m13.185-1.317 5.634 5.631a.4.4 0 0 1-.283.683h-5.367a.667.667 0 0 1-.667-.667V5.97a.4.4 0 0 1 .683-.283"/></g></symbol><symbol xmlns="http://www.w3.org/2000/svg" fill="currentColor" viewBox="0 0 32 32" id="document_outline_32"><path fill-rule="evenodd" d="M11.255 4.585a3.75 3.75 0 0 0-3.75 3.75V23.75a3.75 3.75 0 0 0 3.75 3.75h9.995A3.75 3.75 0 0 0 25 23.75v-9.588L24.997 14H18.75A2.75 2.75 0 0 1 16 11.25V4.61a3 3 0 0 0-.366-.025zM18.5 6.282v4.968c0 .138.112.25.25.25h5.141l-.033-.033zM5.005 8.335a6.25 6.25 0 0 1 6.25-6.25h4.38a5.25 5.25 0 0 1 3.65 1.478l6.311 6.108a6.25 6.25 0 0 1 1.904 4.49v9.589A6.25 6.25 0 0 1 21.25 30h-9.995a6.25 6.25 0 0 1-6.25-6.25z" clip-rule="evenodd"/></symbol><symbol xmlns="http://www.w3.org/2000/svg" fill="currentColor" viewBox="0 0 32 32" id="donate_outline_32"><path fill-rule="evenodd" d="M18.243 9.097a2.5 2.5 0 0 0-4.486 0l-1.12 2.276-2.5.364a2.5 2.5 0 0 0-1.387 4.261l1.814 1.775-.429 2.507a2.5 2.5 0 0 0 3.631 2.633L16 21.734l2.234 1.178a2.5 2.5 0 0 0 3.63-2.632l-.428-2.507 1.814-1.775a2.5 2.5 0 0 0-1.387-4.26l-2.5-.365zM16 10.2l-1.7 3.457-3.802.554 2.751 2.69-.65 3.8L16 18.907l3.4 1.794-.649-3.8 2.751-2.69-3.802-.554zM16 2a13.96 13.96 0 0 0-9.9 4.1A13.96 13.96 0 0 0 2 16a13.96 13.96 0 0 0 4.1 9.9A13.96 13.96 0 0 0 16 30a13.96 13.96 0 0 0 9.9-4.1A13.96 13.96 0 0 0 30 16a13.96 13.96 0 0 0-4.1-9.9A13.96 13.96 0 0 0 16 2M7.868 7.868A11.46 11.46 0 0 1 16 4.5a11.46 11.46 0 0 1 8.132 3.368A11.46 11.46 0 0 1 27.5 16a11.46 11.46 0 0 1-3.368 8.132A11.46 11.46 0 0 1 16 27.5a11.46 11.46 0 0 1-8.132-3.368A11.46 11.46 0 0 1 4.5 16a11.46 11.46 0 0 1 3.368-8.132" clip-rule="evenodd"/></symbol><symbol xmlns="http://www.w3.org/2000/svg" fill="currentColor" viewBox="0 0 32 32" id="done_outline_32"><path fill-rule="evenodd" d="M27.384 8.116a1.25 1.25 0 0 1 0 1.768l-14 14a1.25 1.25 0 0 1-1.768 0l-7-7a1.25 1.25 0 0 1 1.768-1.768l6.116 6.116L25.616 8.116a1.25 1.25 0 0 1 1.768 0" clip-rule="evenodd"/></symbol><symbol xmlns="http://www.w3.org/2000/svg" fill="none" viewBox="0 0 32 32" id="donut_circle_fill_yellow_32"><path fill="url(#mc3489524a)" d="M0 16C0 7.163 7.163 0 16 0s16 7.163 16 16-7.163 16-16 16S0 24.837 0 16"/><path fill="#fff" d="m19.344 12.485 4.429.425c1.541.148 2.014 1.653.824 2.642l-3.468 2.883 1.287 4.695c.423 1.542-.889 2.475-2.202 1.547L16 21.701l-4.214 2.976c-1.308.925-2.625-.005-2.202-1.547l1.287-4.695-3.468-2.882c-1.195-.994-.724-2.494.824-2.643l4.428-.425 1.952-4.499c.61-1.408 2.176-1.408 2.786 0z"/><defs><linearGradient id="mc3489524a" x1="-16" x2="16" y1="16" y2="48" gradientUnits="userSpaceOnUse"><stop stop-color="#FFB73D"/><stop offset="1" stop-color="#FFA000"/></linearGradient></defs></symbol><symbol xmlns="http://www.w3.org/2000/svg" fill="currentColor" viewBox="0 0 32 32" id="error_circle_32"><path fill-rule="evenodd" d="M16 30c7.732 0 14-6.268 14-14S23.732 2 16 2 2 8.268 2 16s6.268 14 14 14m1.333-14v-5.333a1.333 1.333 0 0 0-2.666 0V16a1.333 1.333 0 0 0 2.666 0m.334 5.666V21c0-.736-.598-1.333-1.334-1.333h-.666c-.737 0-1.334.597-1.334 1.333v.666c0 .737.597 1.334 1.334 1.334h.666c.737 0 1.334-.597 1.334-1.334" clip-rule="evenodd"/></symbol><symbol fill="none" viewBox="0 0 32 32" xmlns="http://www.w3.org/2000/svg" id="error_circle_outline_32"><g fill="currentColor"><path d="M14.9 9.6c0-.28 0-.419.034-.532a.8.8 0 0 1 .534-.534C15.58 8.5 15.72 8.5 16 8.5s.419 0 .532.034a.8.8 0 0 1 .533.534c.035.113.035.253.035.532v7.8c0 .28 0 .419-.034.532a.8.8 0 0 1-.534.533c-.113.035-.253.035-.532.035s-.419 0-.532-.034a.8.8 0 0 1-.534-.534c-.034-.113-.034-.253-.034-.532zM14.5 22a1.5 1.5 0 0 1 3 0v.2a1.5 1.5 0 0 1-3 0z"/><path fill-rule="evenodd" d="M16 2a13.96 13.96 0 0 0-9.9 4.1C3.569 8.634 2 12.135 2 16s1.568 7.367 4.1 9.9C8.634 28.432 12.135 30 16 30s7.367-1.568 9.9-4.1S30 19.866 30 16s-1.568-7.367-4.1-9.9A13.96 13.96 0 0 0 16 2M7.868 7.868C9.951 5.786 12.824 4.5 16 4.5s6.05 1.286 8.132 3.368C26.214 9.951 27.5 12.824 27.5 16s-1.286 6.05-3.368 8.132C22.049 26.214 19.176 27.5 16 27.5s-6.05-1.286-8.132-3.368C5.786 22.049 4.5 19.176 4.5 16s1.286-6.05 3.368-8.132" clip-rule="evenodd"/></g></symbol><symbol xmlns="http://www.w3.org/2000/svg" fill="none" viewBox="0 0 32 32" id="favorite_circle_fill_green_32"><path fill="url(#m7af63c7ca)" d="M0 16C0 7.163 7.163 0 16 0s16 7.163 16 16-7.163 16-16 16S0 24.837 0 16"/><path fill="#fff" d="m19.344 12.485 4.429.425c1.541.148 2.014 1.653.824 2.642l-3.468 2.883 1.287 4.695c.423 1.542-.889 2.475-2.202 1.547L16 21.701l-4.214 2.976c-1.308.925-2.625-.005-2.202-1.547l1.287-4.695-3.468-2.882c-1.195-.994-.724-2.494.824-2.643l4.428-.425 1.952-4.499c.61-1.408 2.176-1.408 2.786 0z"/><defs><linearGradient id="m7af63c7ca" x1="-16" x2="16" y1="16" y2="48" gradientUnits="userSpaceOnUse"><stop stop-color="#50C750"/><stop offset="1" stop-color="#32B332"/></linearGradient></defs></symbol><symbol fill="none" viewBox="0 0 32 32" xmlns="http://www.w3.org/2000/svg" id="film_strip_outline_32"><g fill="currentColor"><path d="M9.502 9.6c0-.56 0-.84.11-1.053a1 1 0 0 1 .436-.438C10.262 8 10.542 8 11.102 8h.3c.56 0 .84 0 1.054.11a1 1 0 0 1 .437.437c.11.213.11.493.11 1.053v.3c0 .56 0 .84-.11 1.055a1 1 0 0 1-.437.437c-.214.109-.494.109-1.054.109h-.3c-.56 0-.84 0-1.054-.11a1 1 0 0 1-.437-.436c-.109-.214-.109-.494-.109-1.055zM18.997 9.604c0-.56 0-.84.11-1.054a1 1 0 0 1 .436-.437c.214-.109.494-.109 1.054-.109h.3c.56 0 .84 0 1.054.11a1 1 0 0 1 .437.436c.11.214.11.494.11 1.054v.3c0 .56 0 .84-.11 1.054a1 1 0 0 1-.437.437c-.214.11-.494.11-1.054.11h-.3c-.56 0-.84 0-1.054-.11a1 1 0 0 1-.437-.437c-.109-.213-.109-.494-.109-1.054zM9.611 14.79c-.109.213-.109.493-.109 1.053v.296c0 .56 0 .84.11 1.054a1 1 0 0 0 .436.437c.214.11.494.11 1.054.11h.3c.56 0 .84 0 1.054-.11a1 1 0 0 0 .437-.437c.11-.214.11-.494.11-1.054v-.296c0-.56 0-.84-.11-1.054a1 1 0 0 0-.437-.437c-.214-.109-.494-.109-1.054-.109h-.3c-.56 0-.84 0-1.054.11a1 1 0 0 0-.437.436M18.997 15.84c0-.56 0-.84.11-1.053a1 1 0 0 1 .436-.437c.214-.11.494-.11 1.054-.11h.3c.56 0 .84 0 1.054.11a1 1 0 0 1 .437.437c.11.214.11.494.11 1.054v.3c0 .56 0 .84-.11 1.054a1 1 0 0 1-.437.437c-.214.109-.494.109-1.054.109h-.3c-.56 0-.84 0-1.054-.11a1 1 0 0 1-.437-.436c-.109-.214-.109-.494-.109-1.054zM9.611 21.046c-.109.213-.109.494-.109 1.054v.296c0 .56 0 .84.11 1.054a1 1 0 0 0 .436.437c.214.11.494.11 1.054.11h.3c.56 0 .84 0 1.054-.11a1 1 0 0 0 .437-.437c.11-.214.11-.494.11-1.054V22.1c0-.56 0-.84-.11-1.054a1 1 0 0 0-.437-.437c-.214-.109-.494-.109-1.054-.109h-.3c-.56 0-.84 0-1.054.11a1 1 0 0 0-.437.436M18.997 22.1c0-.56 0-.84.11-1.055a1 1 0 0 1 .436-.437c.214-.109.494-.109 1.054-.109h.3c.56 0 .84 0 1.054.11a1 1 0 0 1 .437.436c.11.214.11.494.11 1.054v.297c0 .56 0 .84-.11 1.054a1 1 0 0 1-.437.437c-.214.11-.494.11-1.054.11h-.3c-.56 0-.84 0-1.054-.11a1 1 0 0 1-.437-.437c-.109-.214-.109-.494-.109-1.054z"/><path fill-rule="evenodd" d="M19.203 2.501h-6.406c-1.285 0-2.325 0-3.168.069-.87.07-1.639.221-2.352.585a6 6 0 0 0-2.623 2.622c-.363.714-.514 1.483-.585 2.352C4 8.973 4 10.013 4 11.298v9.41c0 1.285 0 2.325.07 3.168.07.87.22 1.639.584 2.352a6 6 0 0 0 2.623 2.623c.713.363 1.483.514 2.352.585.843.069 1.883.069 3.168.069h6.406c1.285 0 2.325 0 3.168-.07.87-.07 1.64-.22 2.353-.584a6 6 0 0 0 2.622-2.623c.363-.713.514-1.483.585-2.352.069-.843.069-1.883.069-3.168v-9.41c0-1.285 0-2.325-.069-3.169-.071-.869-.222-1.638-.585-2.352a6 6 0 0 0-2.622-2.622c-.714-.364-1.483-.514-2.353-.585-.843-.07-1.883-.069-3.168-.069M8.412 5.382c.302-.154.706-.262 1.42-.32C10.562 5.002 11.5 5 12.85 5h6.3c1.35 0 2.289.001 3.018.06.715.059 1.118.167 1.42.321a3.5 3.5 0 0 1 1.53 1.53c.154.302.263.706.321 1.421.06.73.06 1.667.06 3.018v9.304c0 1.35 0 2.288-.06 3.018-.058.714-.167 1.118-.32 1.42a3.5 3.5 0 0 1-1.53 1.53c-.303.154-.706.263-1.421.321-.73.06-1.667.06-3.018.06h-6.3c-1.35 0-2.288 0-3.018-.06-.714-.058-1.118-.167-1.42-.32a3.5 3.5 0 0 1-1.53-1.53c-.154-.303-.263-.707-.321-1.421-.06-.73-.06-1.668-.06-3.018V11.35c0-1.35 0-2.289.06-3.018.058-.715.167-1.119.321-1.421a3.5 3.5 0 0 1 1.53-1.53" clip-rule="evenodd"/></g></symbol><symbol xmlns="http://www.w3.org/2000/svg" fill="currentColor" viewBox="0 0 32 32" id="folder_32"><path d="M3 11.6c0-2.31 0-3.465.425-4.348A4.02 4.02 0 0 1 5.13 5.45C5.964 5 7.056 5 9.24 5h3.298c.318 0 .477 0 .627.038q.2.052.376.165c.131.085.243.204.468.441L16 8h6.76c2.184 0 3.276 0 4.11.45a4.02 4.02 0 0 1 1.705 1.802C29 11.135 29 12.29 29 14.6v5.8c0 2.31 0 3.465-.425 4.348a4.02 4.02 0 0 1-1.704 1.802c-.835.45-1.927.45-4.111.45H9.24c-2.184 0-3.276 0-4.11-.45a4.02 4.02 0 0 1-1.705-1.802C3 23.865 3 22.71 3 20.4z"/></symbol><symbol viewBox="0 0 32 32" version="1.1" xmlns="http://www.w3.org/2000/svg" xmlns:xlink="http://www.w3.org/1999/xlink" id="gallery_32"><g fill="none" fill-rule="evenodd"><path d="M0 0h32v32H0z"/><path fill="currentColor" d="M24.5 4h-17A3.5 3.5 0 0 0 4 7.5v17A3.5 3.5 0 0 0 7.5 28h17a3.5 3.5 0 0 0 3.5-3.5v-17A3.5 3.5 0 0 0 24.5 4m-9.833 18.013 4.265-5.495a.5.5 0 0 1 .795.006l5.006 6.676a.5.5 0 0 1-.4.8H7.69a.5.5 0 0 1-.395-.807l3.657-4.702a.5.5 0 0 1 .78-.012z"/></g></symbol><symbol viewBox="0 0 32 32" version="1.1" xmlns="http://www.w3.org/2000/svg" xmlns:xlink="http://www.w3.org/1999/xlink" id="gift_32"><g fill="none" fill-rule="evenodd"><path d="M0 0h32v32H0z"/><path fill="currentColor" d="M27.996 13.002V15.5a1.5 1.5 0 0 1-1.5 1.5h-1.499v9.004a3 3 0 0 1-3 3H9.996a3 3 0 0 1-3-3V17h1.333H5.5A1.5 1.5 0 0 1 4 15.5v-2.498a3 3 0 0 1 3-3h17.996a3 3 0 0 1 3 3M16.27 10H17v7h8v2h-8v10h-2V19H7v-2h8v-7h.723C11.787 9.941 7.33 8.623 7.33 6.669c0-2 2.667-4 4.667-3.334q2 .667 3.999 6.665h.001q2-5.998 4-6.665c2-.666 4.666 1.334 4.666 3.334 0 1.954-4.456 3.272-8.392 3.331"/></g></symbol><symbol xmlns="http://www.w3.org/2000/svg" fill="currentColor" viewBox="0 0 32 32" id="gift_outline_32"><path fill-rule="evenodd" d="M10.634 4.954c.468-.468 1.306-.615 2.224.097.771.599 1.577 1.846 1.82 3.946-2.102-.241-3.349-1.048-3.947-1.818-.712-.918-.565-1.757-.097-2.225m5.36.001a6.4 6.4 0 0 0-1.603-1.879c-1.707-1.324-3.993-1.422-5.525.11s-1.435 3.819-.11 5.526q.116.15.244.292h-.163c-.777 0-1.166.037-1.493.08-2.24.22-4.004 1.996-4.3 4.237a10.7 10.7 0 0 0-.01 2.687A4 4 0 0 0 5 18.948v1.247c0 3.08 0 4.62.6 5.797a5.5 5.5 0 0 0 2.403 2.403c1.177.6 2.717.6 5.797.6h4.4c3.08 0 4.62 0 5.797-.6a5.5 5.5 0 0 0 2.404-2.403C27 24.815 27 23.275 27 20.195v-1.247a4 4 0 0 0 1.965-2.94c.113-.855.105-1.833-.008-2.687-.297-2.241-2.055-4.014-4.301-4.239A11 11 0 0 0 23.16 9h-.166q.125-.141.24-.288c1.324-1.707 1.421-3.994-.11-5.526s-3.819-1.434-5.526-.11a6.4 6.4 0 0 0-1.603 1.88Zm5.362 0c-.468-.469-1.307-.616-2.225.096-.77.599-1.577 1.846-1.819 3.946 2.101-.241 3.348-1.048 3.947-1.818.712-.918.565-1.757.097-2.225ZM8.837 11.476h5.913v5.507H7.67c-.702 0-.81-.006-.867-.013a1.5 1.5 0 0 1-1.29-1.29 8.2 8.2 0 0 1 .009-2.032 2.5 2.5 0 0 1 2.15-2.15c.122-.017.308-.022 1.165-.022m8.413 5.507v-5.507h5.913c.857 0 1.043.005 1.165.021a2.5 2.5 0 0 1 2.15 2.151c.085.639.094 1.393.009 2.032a1.5 1.5 0 0 1-1.29 1.29c-.057.007-.165.013-.867.013zm-9.75 2.53h7.25v6.982h-.95c-1.581 0-2.617-.002-3.409-.067-.762-.062-1.076-.17-1.253-.26a3 3 0 0 1-1.311-1.311c-.09-.177-.198-.49-.26-1.253-.065-.792-.067-1.828-.067-3.41zm9.75 0v6.982h.95c1.581 0 2.617-.002 3.409-.067.762-.062 1.076-.17 1.253-.26a3 3 0 0 0 1.311-1.311c.09-.177.198-.49.26-1.253.065-.792.067-1.828.067-3.41v-.681z" clip-rule="evenodd"/></symbol><symbol fill="none" viewBox="0 0 32 32" xmlns="http://www.w3.org/2000/svg" id="graffiti_32"><path fill="currentColor" d="M10.13 17.464c2.656 0 4.8 2.144 4.8 4.8 0 3.536-2.864 6.4-6.4 6.4-2.416 0-4.928-1.248-6.4-3.2 1.344 0 3.2-1.104 3.2-3.2 0-2.656 2.144-4.8 4.8-4.8M27.162 4.615l.22.22c.838.838.852 2.193.03 3.047L16.014 19.738a6.4 6.4 0 0 0-3.941-3.574L24.115 4.585a2.176 2.176 0 0 1 3.047.03"/></symbol><symbol fill="none" viewBox="0 0 32 32" xmlns="http://www.w3.org/2000/svg" id="hashtag_outline_32"><path fill="currentColor" d="M23.495 2.025a1.25 1.25 0 0 1 1 1.344l-.019.127L23.174 10h3.576a1.25 1.25 0 0 1 .128 2.494l-.128.006h-4.076l-1.4 7h3.476a1.25 1.25 0 0 1 .128 2.494L24.75 22h-3.976l-1.398 6.995a1.25 1.25 0 0 1-2.47-.364l.019-.127 1.3-6.504h-6.851l-1.398 6.995a1.25 1.25 0 0 1-2.47-.364l.019-.126L8.825 22H5.25a1.25 1.25 0 0 1-.128-2.494l.128-.006h4.075l1.4-7H7.25a1.25 1.25 0 0 1-.128-2.494L7.25 10h3.975l1.4-6.995a1.25 1.25 0 0 1 2.47.364l-.019.127L13.774 10h6.851l1.4-6.995a1.25 1.25 0 0 1 1.47-.98M18.725 19.5l1.4-7h-6.851l-1.4 7z"/></symbol><symbol fill="none" viewBox="0 0 32 32" xmlns="http://www.w3.org/2000/svg" id="image_filter_32"><path fill="currentColor" d="M20 6c5.523 0 10 4.477 10 10s-4.477 10-10 10a10 10 0 0 1-4-.832l.074-.033A10 10 0 0 1 12 26C6.477 26 2 21.523 2 16S6.477 6 12 6c1.404 0 2.74.29 3.953.812l.048.02A10 10 0 0 1 20 6m-3.712 19.036-.288.132.213-.096zM12 8.5a7.5 7.5 0 1 0 0 15 7.5 7.5 0 0 0 0-15m6.929 14.71-.196.183q.618.106 1.267.107a7.5 7.5 0 1 0-.956-14.94l-.312.047.155.143.127.123.19.192.094.099.307.343.1.119q.236.284.45.585l.169.246.146.225-.053-.083a10 10 0 0 1 1.297 3.018l.094.425.05.265.056.376.021.173.024.232.024.329.012.277L22 16q0 .45-.04.892l-.05.457a9.94 9.94 0 0 1-1.57 4.17l-.178.26-.187.255q-.198.261-.413.51l-.22.245-.203.214zM12 11a5 5 0 1 1-.69 9.953C10.476 19.492 10 17.802 10 16s.476-3.492 1.31-4.952Q11.65 11 12 11"/></symbol><symbol fill="none" viewBox="0 0 32 32" xmlns="http://www.w3.org/2000/svg" id="image_format_32"><path fill="currentColor" d="M22.308 4c2.675 0 3.645.278 4.623.801.977.523 1.745 1.29 2.268 2.268S30 9.017 30 11.692v8.616l-.005.61c-.041 2.22-.315 3.113-.796 4.013a5.45 5.45 0 0 1-2.268 2.268c-.978.523-1.948.801-4.623.801H9.692l-.61-.005c-2.22-.041-3.113-.315-4.013-.796a5.6 5.6 0 0 1-1.017-.697h-.001l-.026-.023a5.5 5.5 0 0 1-1.224-1.548c-.502-.94-.778-1.87-.8-4.31L2 11.691c0-2.674.278-3.644.801-4.622s1.29-1.745 2.268-2.268c.94-.502 1.87-.778 4.31-.8zM4.5 14.5v6.081l.009.552c.031 1.284.149 1.888.4 2.427l.097.191c.29.543.7.953 1.242 1.243l.192.096a3 3 0 0 0 .322.13l-.036-.012.09.031-.054-.018q.062.022.127.04l-.072-.022q.045.016.09.028l-.018-.005a4 4 0 0 0 .287.073l-.028-.006.12.025-.092-.019q.074.017.155.03l-.063-.01.153.026-.09-.015q.07.013.147.024l-.057-.009.15.022-.093-.013.18.025-.088-.012q.07.01.144.018l-.055-.006.181.02-.126-.014.153.016-.027-.002.185.016-.158-.014q.086.008.177.015l-.019-.001a15 15 0 0 0 .984.043l.128.002.268.003H15.5V14.5zm13.5 0v10.999h3.5v-8.595l-.007-.387c-.017-.643-.069-.931-.171-1.167l-.06-.125a1.14 1.14 0 0 0-.487-.486l-.125-.061c-.279-.12-.63-.17-1.554-.177zm7.56 10.59.191-.096c.543-.29.953-.7 1.243-1.243l.096-.19c.285-.61.398-1.302.41-2.966v-8.903c0-1.874-.109-2.609-.41-3.252l-.096-.192c-.29-.542-.7-.952-1.243-1.242l-.19-.096c-.612-.286-1.306-.399-2.98-.41H9.691l-.554.004c-1.473.021-2.121.137-2.697.406l-.192.096c-.542.29-.952.7-1.242 1.242l-.096.192c-.286.611-.399 1.305-.41 2.979v.579L18.872 12c1.783 0 2.43.186 3.082.534s1.163.86 1.512 1.512c.348.652.534 1.299.534 3.082l.002 8.32c.722-.058 1.158-.17 1.558-.358"/></symbol><symbol fill="none" viewBox="0 0 32 32" xmlns="http://www.w3.org/2000/svg" id="image_rotate_32"><path fill="currentColor" d="M24.872 10c1.783 0 2.43.186 3.082.534s1.163.86 1.512 1.512c.348.652.534 1.299.534 3.082v6.744c0 1.783-.186 2.43-.534 3.082a3.64 3.64 0 0 1-1.512 1.512c-.652.348-1.299.534-3.082.534H10.128c-1.783 0-2.43-.186-3.082-.534s-1.163-.86-1.512-1.512c-.33-.618-.514-1.23-.532-2.81L5 15.128c0-1.783.186-2.43.534-3.082a3.64 3.64 0 0 1 1.512-1.512c.618-.33 1.23-.514 2.81-.533zm.224 2.5H9.904l-.387.007c-.643.017-.931.069-1.167.171l-.125.06c-.216.116-.37.271-.486.487l-.061.125c-.12.279-.17.63-.177 1.554v7.192l.006.387c.017.643.069.931.171 1.167l.06.125c.116.216.271.37.487.486l.125.061c.279.12.631.17 1.554.177h15.192l.387-.006c.643-.017.931-.069 1.167-.171l.125-.06c.216-.116.37-.271.486-.487l.061-.125c.12-.279.17-.63.177-1.554v-7.192l-.006-.387c-.017-.643-.069-.931-.171-1.167l-.06-.125a1.14 1.14 0 0 0-.487-.486l-.125-.061c-.279-.12-.63-.17-1.554-.177M7.366.867a1.25 1.25 0 0 1 1.768 0l2.5 2.5a1.25 1.25 0 0 1 0 1.768l-2.5 2.5a1.25 1.25 0 1 1-1.768-1.768l.366-.366H5.25a1.75 1.75 0 0 0-1.744 1.606L3.5 7.25v2.5a1.25 1.25 0 1 1-2.5 0v-2.5A4.25 4.25 0 0 1 5.25 3h2.483l-.367-.366A1.25 1.25 0 0 1 7.275.968z"/></symbol><symbol fill="none" viewBox="0 0 32 32" xmlns="http://www.w3.org/2000/svg" id="link_circle_outline_32"><g fill="currentColor" fill-rule="evenodd" clip-rule="evenodd"><path d="M12 12a1 1 0 0 1 1-1h7a1 1 0 0 1 1 1v7a1 1 0 1 1-2 0v-4.586l-6.793 6.793a1 1 0 0 1-1.414-1.414L17.586 13H13a1 1 0 0 1-1-1"/><path d="M6.1 6.1C8.634 3.569 12.135 2 16 2s7.367 1.568 9.9 4.1C28.432 8.634 30 12.135 30 16s-1.568 7.367-4.1 9.9S19.866 30 16 30s-7.367-1.568-9.9-4.1C3.569 23.367 2 19.866 2 16s1.568-7.367 4.1-9.9M16 4.5c-3.176 0-6.05 1.286-8.132 3.368S4.5 12.824 4.5 16s1.286 6.05 3.368 8.132C9.951 26.214 12.824 27.5 16 27.5s6.05-1.286 8.132-3.368C26.214 22.049 27.5 19.176 27.5 16s-1.286-6.05-3.368-8.132A11.46 11.46 0 0 0 16 4.5"/></g></symbol><symbol fill="none" viewBox="0 0 32 32" xmlns="http://www.w3.org/2000/svg" id="masks_outline_32"><path fill="currentColor" d="M27.16 4.499c2.79 2.882 2.092 10.81 0 15.854S20.882 29 16 29s-9.067-3.603-11.16-8.647-2.79-12.972 0-15.854S10.42 3.8 16 3.8s8.37-2.184 11.16.699m-6.266 1.367c-1.885.297-3.26.437-4.894.437s-3.008-.14-4.894-.437c-3.437-.541-3.76-.517-4.551.309-1.582 1.65-1.389 8.302.608 13.162C8.975 23.747 12.39 26.5 16 26.5s7.025-2.753 8.837-7.163c1.997-4.86 2.19-11.512.608-13.162-.792-.826-1.114-.85-4.55-.31M16 19c2.5 0 3.2-1.545 3.84-.788S19.2 22 16 22s-4.48-3.03-3.84-3.788S13.5 19 16 19m3.87-7.79c1.101-.096 2.053.493 2.126 1.316s-.763 1.568-1.865 1.664-2.054-.493-2.127-1.316.763-1.568 1.865-1.664m-7.903-.01.164.01c1.102.096 1.937.841 1.865 1.664s-1.025 1.412-2.127 1.316-1.937-.841-1.865-1.664 1.025-1.412 2.127-1.316z"/></symbol><symbol xmlns="http://www.w3.org/2000/svg" fill="currentColor" viewBox="0 0 32 32" id="memory_card_32"><path fill-rule="evenodd" d="M11.601 3.247c.345-.215.695-.36 1.091-.452.396-.091.754-.128 1.786-.128h7.06c1.784 0 2.43.185 3.082.534s1.164.86 1.512 1.512.535 1.298.535 3.081v15.078c0 1.783-.186 2.43-.535 3.082a3.64 3.64 0 0 1-1.512 1.512c-.652.348-1.298.534-3.081.534H9.128c-1.783 0-2.43-.186-3.082-.534a3.64 3.64 0 0 1-1.512-1.512C4.186 25.302 4 24.655 4 22.872v-9.727c0-1.033.037-1.39.129-1.786a3.4 3.4 0 0 1 .452-1.09c.215-.345.441-.625 1.172-1.355l4.495-4.495c.73-.73 1.009-.956 1.353-1.172m1.732 3.42C12.597 6.667 12 7.264 12 8v2.667a1.333 1.333 0 1 0 2.667 0V8c0-.736-.597-1.333-1.334-1.333M16 8a1.333 1.333 0 0 1 2.667 0v2.667a1.333 1.333 0 0 1-2.667 0zm5.333-1.333C20.597 6.667 20 7.264 20 8v2.667a1.333 1.333 0 1 0 2.667 0V8c0-.736-.597-1.333-1.334-1.333" clip-rule="evenodd"/></symbol><symbol fill="none" viewBox="0 0 32 32" xmlns="http://www.w3.org/2000/svg" id="microphone_32"><g fill="currentColor"><path d="M11 8a5 5 0 0 1 10 0v8a5 5 0 0 1-10 0zM14.75 27.25a1.25 1.25 0 1 1 2.5 0v2.5a1.25 1.25 0 1 1-2.5 0zM28 15.25a1.25 1.25 0 1 1-2.5 0 1.25 1.25 0 0 1 2.5 0M6.5 15.25a1.25 1.25 0 1 1-2.5 0 1.25 1.25 0 0 1 2.5 0"/><path d="M16 27c6.627 0 12-5.373 12-12h-2.5a9.5 9.5 0 0 1-19 0H4c0 6.627 5.373 12 12 12"/></g></symbol><symbol viewBox="0 0 32 32" version="1.1" xmlns="http://www.w3.org/2000/svg" xmlns:xlink="http://www.w3.org/1999/xlink" id="money_transfer_32"><g fill="none" fill-rule="evenodd"><path d="M0 0h32v32H0z"/><path fill="currentColor" d="M28 18v-4H4v8a1 1 0 0 0 1 1h18v-3.93a.5.5 0 0 1 .81-.392l5.998 4.737a.5.5 0 0 1 0 .785l-5.998 4.737a.5.5 0 0 1-.81-.392V25H5a3 3 0 0 1-3-3V8a3 3 0 0 1 3-3h22a3 3 0 0 1 3 3v10.05a1 1 0 0 1-2 0zm0-9V8a1 1 0 0 0-1-1H5a1 1 0 0 0-1 1v1z"/></g></symbol><symbol xmlns="http://www.w3.org/2000/svg" fill="currentColor" viewBox="0 0 32 32" id="money_transfer_outline_32"><path d="m23.151 20.849 1.952 1.951v2.4l-1.952 1.951-.107.123a1.2 1.2 0 0 0 1.805 1.575l4-4 .107-.123a1.2 1.2 0 0 0-.107-1.575l-4-4-.123-.107a1.2 1.2 0 0 0-1.575.107l-.107.123a1.2 1.2 0 0 0 .107 1.575"/><path fill-rule="evenodd" d="M5.392 4.734C6.577 4.19 7.737 4 10.332 4h11.335c2.595 0 3.756.19 4.94.734 1.041.48 1.896 1.202 2.484 2.15.684 1.099.909 2.19.909 4.46V16a1.25 1.25 0 1 1-2.5 0v-3h-23v4.656c0 2.106.216 2.633.532 3.141.308.495.77.905 1.405 1.197.685.315 1.404.506 3.896.506h15.752a1.25 1.25 0 0 1 0 2.5H10.333c-2.596 0-3.756-.19-4.94-.734-1.041-.48-1.895-1.202-2.484-2.15-.684-1.099-.909-2.19-.909-4.46v-6.312c0-2.27.225-3.361.909-4.46.589-.948 1.443-1.67 2.483-2.15M4.514 10.5h22.972c-.053-1.419-.25-1.865-.518-2.297-.308-.496-.77-.905-1.405-1.198-.684-.314-1.404-.505-3.896-.505H10.333c-2.492 0-3.211.19-3.896.505-.636.293-1.097.702-1.405 1.198-.269.432-.465.878-.518 2.297" clip-rule="evenodd"/></symbol><symbol viewBox="0 0 32 32" version="1.1" xmlns="http://www.w3.org/2000/svg" xmlns:xlink="http://www.w3.org/1999/xlink" id="music_32"><g fill="none" fill-rule="evenodd"><path d="M0 0h32v32H0z"/><path fill="currentColor" d="M25 13.5v5.937c0 4.628-1.481 5.626-4.208 5.992-1.416.19-3.625-.552-3.625-3.243 0-1.314 1.094-2.62 2.46-2.889 1.268-.249-.41.077 2.457-.469.461-.088.423-.417.423-.773l-.003-4.555H22.5l.007-3.435c0-.315-.098-.464-.46-.373l-9.561 1.65c-.406.101-.486.27-.486.658v9.981c0 4.628-1.648 5.626-4.374 5.992C6.209 28.163 4 27.421 4 24.73c0-1.314 1.095-2.62 2.461-2.889 1.267-.249-.244.077 2.623-.469.461-.088.423-.417.423-.773l-.004-5.818L9.5 14v-2.6s-.005-2.099 0-3.148c.007-1.255.514-1.716 2.5-2.124L22.333 4.28S25 3.447 25 5.614z"/></g></symbol><symbol xmlns="http://www.w3.org/2000/svg" fill="currentColor" viewBox="0 0 32 32" id="music_outline_32"><path d="M23.573 3.277a3.65 3.65 0 0 1 4.393 3.573v12.776c0 5.72-5.586 8.66-8.619 5.627s-.092-8.619 5.627-8.619h.592v-5.81l-12.76 2.67v9.304c0 5.608-5.369 8.544-8.437 5.799l-.182-.172c-3.032-3.033-.092-8.619 5.627-8.619l.592-.001V9.969c0-1.024.076-1.606.293-2.17l.089-.213c.27-.603.68-1.108 1.216-1.495.566-.41 1.127-.625 2.253-.86zm-13.167 18.93h-.592c-3.71 0-5.346 3.105-3.93 4.52 1.416 1.417 4.522-.218 4.522-3.929zm15.16-3.173h-.592c-3.71 0-5.346 3.106-3.93 4.522s4.522-.219 4.522-3.93zm-.026-12.44a1.25 1.25 0 0 0-1.476-.967l-9.57 2.009c-.628.14-.859.237-1.084.4-.194.14-.334.312-.432.53-.127.286-.172.56-.172 1.403v1.073l12.76-2.67V6.85q0-.065-.006-.128z"/></symbol><symbol viewBox="0 0 32 32" fill="none" xmlns="http://www.w3.org/2000/svg" id="note_32"><path fill="currentColor" fill-rule="evenodd" d="M11.333 3c-2.609 0-3.799.222-5.008.868a5.92 5.92 0 0 0-2.457 2.457C3.222 7.535 3 8.725 3 11.333v9.334c0 2.609.222 3.799.868 5.008a5.92 5.92 0 0 0 2.457 2.457c1.21.646 2.4.868 5.008.868h9.334c2.609 0 3.799-.222 5.008-.868a5.92 5.92 0 0 0 2.457-2.457c.646-1.21.868-2.4.868-5.008v-9.334c0-2.609-.222-3.799-.868-5.008a5.92 5.92 0 0 0-2.457-2.457c-1.21-.646-2.4-.868-5.008-.868zM10.25 9a1.25 1.25 0 1 0 0 2.5h11.5a1.25 1.25 0 1 0 0-2.5zM9 16.25c0-.69.56-1.25 1.25-1.25h11.5a1.25 1.25 0 1 1 0 2.5h-11.5c-.69 0-1.25-.56-1.25-1.25M10.25 21a1.25 1.25 0 1 0 0 2.5h7.5a1.25 1.25 0 1 0 0-2.5z" clip-rule="evenodd"/></symbol><symbol fill="none" viewBox="0 0 32 32" xmlns="http://www.w3.org/2000/svg" id="pause_32"><g fill="currentColor"><path d="M22.782 7c.597 0 .814.062 1.032.179q.33.177.507.507c.177.33.179.434.179 1.032v14.564c0 .597-.062.814-.179 1.032s-.288.39-.507.507-.435.179-1.032.179h-2.564c-.597 0-.814-.062-1.032-.179s-.39-.288-.507-.507-.179-.435-.179-1.032V8.718c0-.598.062-.814.179-1.032s.288-.39.507-.507c.218-.117.435-.179 1.032-.179zM12.815 7.179C12.596 7.062 12.38 7 11.782 7H9.218c-.598 0-.814.062-1.032.179q-.33.177-.507.507c-.117.218-.179.434-.179 1.032v14.564c0 .597.062.814.179 1.032q.177.33.507.507c.33.177.434.179 1.032.179h2.564c.597 0 .814-.062 1.032-.179s.39-.288.507-.507.179-.435.179-1.032V8.718c0-.598-.062-.814-.179-1.032s-.288-.39-.507-.507"/></g></symbol><symbol fill="none" viewBox="0 0 32 32" xmlns="http://www.w3.org/2000/svg" id="pause_circle_32"><path fill="currentColor" fill-rule="evenodd" d="M32 16c0 8.837-7.163 16-16 16S0 24.837 0 16 7.163 0 16 0s16 7.163 16 16m-20.891-5.454C11 10.76 11 11.04 11 11.6v8.8c0 .56 0 .84.109 1.054a1 1 0 0 0 .437.437C11.76 22 12.04 22 12.6 22h.8c.56 0 .84 0 1.054-.109a1 1 0 0 0 .437-.437C15 21.24 15 20.96 15 20.4v-8.8c0-.56 0-.84-.109-1.054a1 1 0 0 0-.437-.437C14.24 10 13.96 10 13.4 10h-.8c-.56 0-.84 0-1.054.109a1 1 0 0 0-.437.437m6 0C17 10.76 17 11.04 17 11.6v8.8c0 .56 0 .84.109 1.054a1 1 0 0 0 .437.437C17.76 22 18.04 22 18.6 22h.8c.56 0 .84 0 1.054-.109a1 1 0 0 0 .437-.437C21 21.24 21 20.96 21 20.4v-8.8c0-.56 0-.84-.109-1.054a1 1 0 0 0-.437-.437C20.24 10 19.96 10 19.4 10h-.8c-.56 0-.84 0-1.054.109a1 1 0 0 0-.437.437" clip-rule="evenodd"/></symbol><symbol fill="none" viewBox="0 0 32 32" xmlns="http://www.w3.org/2000/svg" id="phone_32"><path fill="currentColor" d="M18.816 20.345c1.805-1.805 4.648-1.972 6.538-.383l1.365 1.15c1.559 1.313 1.717 3.677.352 5.28a4.42 4.42 0 0 1-2.927 1.512q-6.545.882-13.737-6.31Q3.215 14.4 4.097 7.856q.045-.513.21-1.003a4.4 4.4 0 0 1 1.3-1.924c1.605-1.365 3.968-1.208 5.28.352l1.149 1.366c1.591 1.888 1.426 4.732-.38 6.538l-.98.978a.95.95 0 0 0-.219.999q.536 1.463 2.728 3.654 2.193 2.192 3.653 2.729a.95.95 0 0 0 .999-.22z"/></symbol><symbol viewBox="0 0 32 32" xmlns="http://www.w3.org/2000/svg" id="picture_outline_32"><g fill="none" fill-rule="evenodd"><path d="M0 0h32v32H0z"/><path fill="currentColor" fill-rule="nonzero" d="m12.974 2.9 6.42.001c2.762.023 4.128.307 5.544 1.064a7.46 7.46 0 0 1 3.097 3.097c.724 1.355 1.016 2.663 1.06 5.191l.005.72v6.053c0 3.011-.275 4.434-1.065 5.912a7.46 7.46 0 0 1-3.097 3.097c-1.355.724-2.663 1.016-5.191 1.06l-.72.005h-6.053c-3.011 0-4.434-.275-5.912-1.065a7.46 7.46 0 0 1-3.097-3.097c-.724-1.355-1.016-2.663-1.06-5.191l-.005-.72.001-6.422c.023-2.761.307-4.127 1.064-5.543a7.46 7.46 0 0 1 3.097-3.097c1.478-.79 2.9-1.065 5.912-1.065m7.595 14.875-4.67 5.674a1.1 1.1 0 0 1-1.365.273l-.111-.068-2.876-1.998L7.3 25.574q.37.291.8.521c1.022.547 2.015.768 4.236.8l.638.005h6.052c2.456 0 3.568-.175 4.595-.664l.28-.141a5.26 5.26 0 0 0 2.194-2.195c.235-.44.41-.874.536-1.403l-.007-.004zM19.026 5.1l-6.379.001c-2.23.016-3.288.196-4.268.663l-.28.141A5.26 5.26 0 0 0 5.906 8.1c-.596 1.115-.805 2.195-.805 4.874v6.052c0 2.456.175 3.568.664 4.595l.129.257 4.811-4.437a1.1 1.1 0 0 1 1.265-.161l.108.066 2.767 1.922 4.707-5.717a1.1 1.1 0 0 1 1.421-.24l.104.071 5.814 4.53.006-.248.004-.638v-6.052c0-2.456-.175-3.568-.664-4.595l-.141-.28A5.26 5.26 0 0 0 23.9 5.906c-1.115-.596-2.195-.805-4.874-.805M12 10a2 2 0 1 1 0 4 2 2 0 0 1 0-4"/></g></symbol><symbol viewBox="0 0 32 32" version="1.1" xmlns="http://www.w3.org/2000/svg" xmlns:xlink="http://www.w3.org/1999/xlink" id="place_32"><g fill="none" fill-rule="evenodd"><path d="M0 0h32v32H0z"/><path fill="currentColor" d="M6 12q0 6.036 8.815 17.398a1.5 1.5 0 0 0 2.37 0Q26 18.036 26 12c0-5.529-4.471-10-10-10S6 6.471 6 12m6.501.001c0-1.932 1.568-3.5 3.5-3.5s3.5 1.568 3.5 3.5-1.568 3.5-3.5 3.5a3.5 3.5 0 0 1-3.5-3.5"/></g></symbol><symbol fill="none" viewBox="0 0 32 32" xmlns="http://www.w3.org/2000/svg" id="place_outline_32"><g fill="currentColor" fill-rule="evenodd" clip-rule="evenodd"><path d="M18.601 28.935c-1.589 1.528-4.041 1.397-5.48-.297l-.334-.395C7.951 22.463 5.5 17.583 5.5 13.517 5.5 7.692 10.216 3 16 3s10.5 4.692 10.5 10.517c0 4.158-2.563 9.17-7.623 15.124q-.131.155-.276.294m-1.63-1.913C21.957 21.157 24 16.735 24 13.517 24 9.073 20.404 5.5 16 5.5s-8 3.573-8 8.017c0 3.142 1.948 7.438 6.701 13.118l.327.387c.517.606 1.303.627 1.84.111q.053-.051.104-.11"/><path d="M11.5 13.5c0-2.484 2.016-4.5 4.5-4.5s4.5 2.016 4.5 4.5S18.484 18 16 18s-4.5-2.016-4.5-4.5m2.5 0c0-1.103.897-2 2-2s2 .897 2 2-.896 2-2 2-2-.896-2-2"/></g></symbol><symbol xmlns="http://www.w3.org/2000/svg" fill="currentColor" viewBox="0 0 32 32" id="play_32"><path d="M24.948 14.001c1.154.656 1.732.984 1.925 1.412.17.374.17.8 0 1.174-.194.428-.77.756-1.925 1.412l-12.43 7.061c-1.154.656-1.732.984-2.205.935a1.47 1.47 0 0 1-1.033-.587C9 25.03 9 24.373 9 23.061V8.938c0-1.311 0-1.967.28-2.347.244-.33.62-.543 1.033-.586.473-.05 1.05.279 2.205.935z"/></symbol><symbol fill="none" viewBox="0 0 32 32" xmlns="http://www.w3.org/2000/svg" id="play_circle_32"><path fill="currentColor" fill-rule="evenodd" d="M32 16c0 8.837-7.163 16-16 16S0 24.837 0 16 7.163 0 16 0s16 7.163 16 16m-9.851.874a1.005 1.005 0 0 0 0-1.739l-8.644-4.994a1.003 1.003 0 0 0-1.505.87v9.988c0 .773.836 1.256 1.505.87z" clip-rule="evenodd"/></symbol><symbol xmlns="http://www.w3.org/2000/svg" fill="currentColor" viewBox="0 0 32 32" id="play_rectangle_stack_outline_32"><path fill-rule="evenodd" d="M9.2 8.5h13.673c.496 0 1.007 0 1.444.036.488.04 1.1.136 1.726.454a4.5 4.5 0 0 1 1.966 1.967c.319.625.416 1.238.456 1.726.035.437.035.948.035 1.444v7.746c0 .496 0 1.007-.035 1.444-.04.488-.137 1.1-.456 1.726a4.5 4.5 0 0 1-1.966 1.966c-.625.319-1.238.416-1.726.455a19 19 0 0 1-1.444.036H9.127c-.496 0-1.007 0-1.444-.036-.488-.04-1.1-.136-1.726-.454a4.5 4.5 0 0 1-1.967-1.967c-.318-.625-.415-1.238-.454-1.726-.036-.437-.036-.948-.036-1.444v-7.746c0-.496 0-1.007.036-1.444.04-.488.136-1.1.454-1.726A4.5 4.5 0 0 1 5.957 8.99c.625-.318 1.238-.415 1.726-.454A19 19 0 0 1 9.2 8.5m-2.982 3.592C6 12.52 6 13.08 6 14.2v7.6c0 1.12 0 1.68.218 2.108a2 2 0 0 0 .874.874C7.52 25 8.08 25 9.2 25h13.6c1.12 0 1.68 0 2.108-.218a2 2 0 0 0 .874-.874C26 23.48 26 22.92 26 21.8v-7.6c0-1.12 0-1.68-.218-2.108a2 2 0 0 0-.874-.874C24.48 11 23.92 11 22.8 11H9.2c-1.12 0-1.68 0-2.108.218a2 2 0 0 0-.874.874" clip-rule="evenodd"/><path d="M9 6a2 2 0 0 1 2-2h10a2 2 0 0 1 2 2v.5H9zm5.599 8.174a.571.571 0 0 0-.885.478v5.918a.572.572 0 0 0 .872.486l4.65-2.87a.57.57 0 0 0 .013-.964z"/></symbol><symbol viewBox="0 0 32 32" version="1.1" xmlns="http://www.w3.org/2000/svg" xmlns:xlink="http://www.w3.org/1999/xlink" id="poll_32"><g fill="none" fill-rule="evenodd"><rect width="32" height="32" rx="16"/><path fill="currentColor" d="M24 15a2 2 0 0 1 2 2v8a2 2 0 1 1-4 0v-8a2 2 0 0 1 2-2M16 3a2 2 0 0 1 2 2v20a2 2 0 1 1-4 0V5a2 2 0 0 1 2-2m-8 8a2 2 0 0 1 2 2v12a2 2 0 1 1-4 0V13a2 2 0 0 1 2-2"/></g></symbol><symbol fill="none" viewBox="0 0 32 32" xmlns="http://www.w3.org/2000/svg" id="poll_outline_32"><g fill="currentColor" fill-rule="evenodd" clip-rule="evenodd"><path d="M16 8.088c.69 0 1.25.56 1.25 1.25v13.325a1.25 1.25 0 1 1-2.5 0V9.338c0-.69.56-1.25 1.25-1.25M10.5 12.963c.69 0 1.25.56 1.25 1.25v8.45a1.25 1.25 0 1 1-2.5 0v-8.45c0-.69.56-1.25 1.25-1.25M21.5 16.212c.69 0 1.25.56 1.25 1.25v5.2a1.25 1.25 0 1 1-2.5 0v-5.2c0-.69.56-1.25 1.25-1.25"/><path d="M6.325 3.868C7.535 3.222 8.725 3 11.333 3h9.334c2.609 0 3.799.222 5.008.868a5.92 5.92 0 0 1 2.457 2.457c.646 1.21.868 2.4.868 5.008v9.334c0 2.609-.222 3.799-.868 5.008a5.92 5.92 0 0 1-2.457 2.457c-1.21.646-2.4.868-5.008.868h-9.334c-2.609 0-3.799-.222-5.008-.868a5.92 5.92 0 0 1-2.457-2.457c-.646-1.21-.868-2.4-.868-5.008v-9.334c0-2.609.222-3.799.868-5.008a5.92 5.92 0 0 1 2.457-2.457M11.333 5.5c-2.479 0-3.169.22-3.829.573-.62.331-1.1.81-1.431 1.431-.353.66-.573 1.35-.573 3.829v9.334c0 2.479.22 3.168.573 3.829.331.62.81 1.1 1.431 1.431.66.353 1.35.573 3.829.573h9.334c2.479 0 3.168-.22 3.829-.573.62-.332 1.1-.81 1.431-1.431.353-.66.573-1.35.573-3.829v-9.334c0-2.479-.22-3.169-.573-3.829a3.42 3.42 0 0 0-1.431-1.431c-.66-.353-1.35-.573-3.829-.573z"/></g></symbol><symbol xmlns="http://www.w3.org/2000/svg" fill="none" viewBox="0 0 32 32" id="privacy_circle_fill_purple_32"><path fill="url(#m242cac7ba)" d="M16 31.75c8.698 0 15.75-7.052 15.75-15.75S24.698.25 16 .25.25 7.302.25 16 7.302 31.75 16 31.75"/><path fill="#fff" d="M24.95 14.335c.44.66.504 1.57.165 2.283l-2.296 4.821c-1.303 2.737-4.643 4.847-7.678 4.847h-.855a6.856 6.856 0 0 1-6.857-6.865v-6.74a2.353 2.353 0 0 1 3-2.264v-.628a2.357 2.357 0 0 1 3.06-2.253 2.356 2.356 0 0 1 2.297-1.822c1.26 0 2.288.986 2.354 2.232a2.356 2.356 0 0 1 3.003 2.272v3.655c1.113-1.096 2.878-.933 3.807.462M9.786 12.042a.64.64 0 0 0-.643.639v6.74a5.14 5.14 0 0 0 5.143 5.15h.855c2.377 0 5.112-1.732 6.13-3.869l2.296-4.82a.67.67 0 0 0-.043-.596c-.367-.55-.963-.556-1.328-.009l-1.867 2.8c-.494.741-.9.623-.9-.276v-7.583a.64.64 0 0 0-.643-.647.64.64 0 0 0-.643.64v4.935a.856.856 0 0 1-.857.854.853.853 0 0 1-.857-.853V8.073a.642.642 0 1 0-1.286 0v7.074a.86.86 0 0 1-.857.853.854.854 0 0 1-.857-.855V9.788a.643.643 0 1 0-1.286.001v5.775a.864.864 0 0 1-.857.864.854.854 0 0 1-.857-.856V12.69a.644.644 0 0 0-.643-.648"/><defs><linearGradient id="m242cac7ba" x1=".25" x2="31.75" y1=".25" y2="31.75" gradientUnits="userSpaceOnUse"><stop stop-color="#FF5263"/><stop offset="1" stop-color="#FF3347"/></linearGradient></defs></symbol><symbol xmlns="http://www.w3.org/2000/svg" fill="none" viewBox="0 0 32 32" id="prometey_circle_fill_red_32"><path fill="url(#m9a3b37bda)" d="M0 16C0 7.163 7.163 0 16 0s16 7.163 16 16-7.163 16-16 16S0 24.837 0 16"/><path fill="#fff" d="M15.275 6.066a.333.333 0 0 1 .524.34q-.07.315-.177.48c-2.517 3.886-1.412 6.222.285 6.473 1.756.26 3.04-.916 2.765-3.455L18.553 8.8a.307.307 0 0 1 .474-.288q.855.565 2.048 2.05c2.83 3.53 2.94 6.483 2.924 7.753-.057 4.554-3.428 7.686-8 7.686S8 22.869 8 18.314c.02-3.448 1.762-8.302 6.57-11.734q.27-.192.705-.514"/><defs><linearGradient id="m9a3b37bda" x1="-16" x2="16" y1="16" y2="48" gradientUnits="userSpaceOnUse"><stop stop-color="#FF5263"/><stop offset="1" stop-color="#FF3347"/></linearGradient></defs></symbol><symbol xmlns="http://www.w3.org/2000/svg" fill="currentColor" viewBox="0 0 32 32" id="search_outline_32"><path fill-rule="evenodd" d="M7.929 7.929A9.97 9.97 0 0 1 15 5a9.97 9.97 0 0 1 7.071 2.929A9.97 9.97 0 0 1 25 15a9.97 9.97 0 0 1-2.929 7.071A9.97 9.97 0 0 1 15 25a9.97 9.97 0 0 1-7.071-2.929A9.97 9.97 0 0 1 5 15a9.97 9.97 0 0 1 2.929-7.071M15 7.5a7.47 7.47 0 0 0-5.303 2.197A7.47 7.47 0 0 0 7.5 15a7.47 7.47 0 0 0 2.197 5.303A7.47 7.47 0 0 0 15 22.5a7.47 7.47 0 0 0 5.303-2.197A7.47 7.47 0 0 0 22.5 15a7.47 7.47 0 0 0-2.197-5.303A7.47 7.47 0 0 0 15 7.5" clip-rule="evenodd"/><path fill-rule="evenodd" d="M21.624 21.357a1.25 1.25 0 0 1 1.768 0l4.752 4.751a1.25 1.25 0 0 1-1.768 1.768l-4.752-4.752a1.25 1.25 0 0 1 0-1.767" clip-rule="evenodd"/></symbol><symbol xmlns="http://www.w3.org/2000/svg" fill="currentColor" viewBox="0 0 32 32" id="send_circle_32"><path fill-rule="evenodd" d="M16 32c8.837 0 16-7.163 16-16S24.837 0 16 0 0 7.163 0 16s7.163 16 16 16m-1-9a1 1 0 1 0 2 0V11.414l4.293 4.293a1 1 0 0 0 1.414-1.414l-6-6a1 1 0 0 0-1.414 0l-6 6a1 1 0 1 0 1.414 1.414L15 11.414z" clip-rule="evenodd"/></symbol><symbol fill="none" viewBox="0 0 32 32" xmlns="http://www.w3.org/2000/svg" id="song_outline_32"><path fill="currentColor" d="m25.493 3.12.007.13v2.691a4.6 4.6 0 0 1-3.246 4.4l-.208.058-4.546 1.173V22.69c0 6.112-6.004 9.252-9.278 6.015-1.451-1.435-1.632-3.856-.423-5.801 1.26-2.03 3.766-3.268 7.2-3.393l.002-11.19c-.035-2.463 1.163-4.21 3.434-4.966l.24-.076c.92-.28 2.676-.691 5.316-1.251a1.25 1.25 0 0 1 1.502 1.092M15 22l-.317.02c-2.416.175-4.004 1.004-4.751 2.198-.624.998-.538 2.144.052 2.723 1.58 1.552 5.017-.233 5.017-4.296zM23 4.797l-1.59.36c-1.056.246-1.787.437-2.184.57-1.161.386-1.691 1.094-1.724 2.37l-.002.892 3.922-1.01a2.1 2.1 0 0 0 1.571-1.87L23 5.941z"/></symbol><symbol viewBox="0 0 32 32" xmlns="http://www.w3.org/2000/svg" id="spinner_32"><path fill="currentColor" d="M16 32a1.5 1.5 0 0 1 0-3c7.18 0 13-5.82 13-13S23.18 3 16 3 3 8.82 3 16c0 1.557.273 3.074.8 4.502A1.5 1.5 0 1 1 .986 21.54 16 16 0 0 1 0 16C0 7.163 7.163 0 16 0s16 7.163 16 16-7.163 16-16 16"/></symbol><symbol fill="none" viewBox="0 0 32 32" xmlns="http://www.w3.org/2000/svg" id="square_4_outline_32"><g fill="currentColor" fill-rule="evenodd" clip-rule="evenodd"><path d="M9.048 14.25h-.096c-.66 0-1.228 0-1.696-.038-.494-.04-.985-.13-1.458-.37a3.75 3.75 0 0 1-1.64-1.64c-.24-.472-.33-.964-.37-1.458-.038-.468-.038-1.037-.038-1.696v-.096c0-.66 0-1.228.038-1.696.04-.494.13-.985.37-1.458a3.75 3.75 0 0 1 1.64-1.64c.473-.24.964-.33 1.458-.37.468-.038 1.037-.038 1.696-.038h.096c.66 0 1.228 0 1.696.038.494.04.986.13 1.459.37a3.75 3.75 0 0 1 1.638 1.64c.241.473.33.964.37 1.458.039.468.039 1.037.039 1.696v.096c0 .66 0 1.228-.038 1.696-.04.494-.13.986-.37 1.459a3.75 3.75 0 0 1-1.64 1.638c-.472.241-.964.33-1.458.37-.468.039-1.037.039-1.696.039m1.492-2.53c.34-.028.466-.075.528-.106a1.25 1.25 0 0 0 .546-.546c.031-.062.078-.188.106-.528.029-.354.03-.82.03-1.54s-.001-1.186-.03-1.54c-.028-.34-.075-.466-.106-.527a1.25 1.25 0 0 0-.546-.547c-.062-.031-.188-.078-.528-.106-.354-.029-.82-.03-1.54-.03s-1.186.001-1.54.03c-.34.028-.466.075-.527.106a1.25 1.25 0 0 0-.547.547c-.031.061-.078.187-.106.527-.029.354-.03.82-.03 1.54s.001 1.186.03 1.54c.028.34.075.466.106.528.12.235.311.426.547.546.061.031.187.078.527.106.354.029.82.03 1.54.03s1.186-.001 1.54-.03M9.048 27.25h-.096c-.66 0-1.228 0-1.696-.038-.494-.04-.985-.13-1.458-.37a3.75 3.75 0 0 1-1.64-1.64c-.24-.473-.33-.964-.37-1.458-.038-.468-.038-1.037-.038-1.696v-.096c0-.66 0-1.228.038-1.696.04-.494.13-.985.37-1.458a3.75 3.75 0 0 1 1.64-1.64c.473-.24.964-.33 1.458-.37.468-.038 1.037-.038 1.696-.038h.096c.66 0 1.228 0 1.696.038.494.04.986.13 1.459.37a3.75 3.75 0 0 1 1.638 1.64c.241.473.33.964.37 1.458.039.468.039 1.037.039 1.696v.096c0 .66 0 1.228-.038 1.696-.04.494-.13.986-.37 1.459a3.75 3.75 0 0 1-1.64 1.638c-.472.241-.964.33-1.458.37-.468.039-1.037.039-1.696.039m1.492-2.53c.34-.028.466-.075.528-.106a1.25 1.25 0 0 0 .546-.547c.031-.061.078-.187.106-.527.029-.354.03-.82.03-1.54s-.001-1.186-.03-1.54c-.028-.34-.075-.466-.106-.527a1.25 1.25 0 0 0-.546-.547c-.062-.031-.188-.078-.528-.106-.354-.029-.82-.03-1.54-.03s-1.186.001-1.54.03c-.34.028-.466.075-.527.106a1.25 1.25 0 0 0-.547.547c-.031.061-.078.187-.106.527-.029.354-.03.82-.03 1.54s.001 1.186.03 1.54c.028.34.075.466.106.527.12.236.311.427.547.547.061.031.187.078.527.106.354.029.82.03 1.54.03s1.186-.001 1.54-.03M22.048 14.25h-.096c-.66 0-1.228 0-1.696-.038-.494-.04-.985-.13-1.458-.37a3.75 3.75 0 0 1-1.64-1.64c-.24-.472-.33-.964-.37-1.458-.038-.468-.038-1.037-.038-1.696v-.096c0-.66 0-1.228.038-1.696.04-.494.13-.985.37-1.458a3.75 3.75 0 0 1 1.64-1.64c.473-.24.964-.33 1.458-.37.468-.038 1.037-.038 1.696-.038h.096c.66 0 1.228 0 1.696.038.494.04.986.13 1.459.37a3.75 3.75 0 0 1 1.638 1.64c.241.473.33.964.37 1.458.039.468.039 1.037.039 1.696v.096c0 .66 0 1.228-.038 1.696-.04.494-.13.986-.37 1.459a3.75 3.75 0 0 1-1.64 1.638c-.473.241-.964.33-1.458.37-.468.039-1.037.039-1.696.039m1.492-2.53c.34-.028.466-.075.528-.106a1.25 1.25 0 0 0 .546-.546c.031-.062.078-.188.106-.528.029-.354.03-.82.03-1.54s-.001-1.186-.03-1.54c-.028-.34-.075-.466-.106-.527a1.25 1.25 0 0 0-.546-.547c-.062-.031-.188-.078-.528-.106-.354-.029-.82-.03-1.54-.03s-1.186.001-1.54.03c-.34.028-.466.075-.527.106a1.25 1.25 0 0 0-.547.547c-.031.061-.078.187-.106.527-.029.354-.03.82-.03 1.54s.001 1.186.03 1.54c.028.34.075.466.106.528.12.235.311.426.547.546.061.031.187.078.527.106.354.029.82.03 1.54.03s1.186-.001 1.54-.03M22.048 27.25h-.096c-.66 0-1.228 0-1.696-.038-.494-.04-.985-.13-1.458-.37a3.75 3.75 0 0 1-1.64-1.64c-.24-.473-.33-.964-.37-1.458-.038-.468-.038-1.037-.038-1.696v-.096c0-.66 0-1.228.038-1.696.04-.494.13-.985.37-1.458a3.75 3.75 0 0 1 1.64-1.64c.473-.24.964-.33 1.458-.37.468-.038 1.037-.038 1.696-.038h.096c.66 0 1.228 0 1.696.038.494.04.986.13 1.459.37a3.75 3.75 0 0 1 1.638 1.64c.241.473.33.964.37 1.458.039.468.039 1.037.039 1.696v.096c0 .66 0 1.228-.038 1.696-.04.494-.13.986-.37 1.459a3.75 3.75 0 0 1-1.64 1.638c-.473.241-.964.33-1.458.37-.468.039-1.037.039-1.696.039m1.492-2.53c.34-.028.466-.075.528-.106a1.25 1.25 0 0 0 .546-.547c.031-.061.078-.187.106-.527.029-.354.03-.82.03-1.54s-.001-1.186-.03-1.54c-.028-.34-.075-.466-.106-.527a1.25 1.25 0 0 0-.546-.547c-.062-.031-.188-.078-.528-.106-.354-.029-.82-.03-1.54-.03s-1.186.001-1.54.03c-.34.028-.466.075-.527.106a1.25 1.25 0 0 0-.547.547c-.031.061-.078.187-.106.527-.029.354-.03.82-.03 1.54s.001 1.186.03 1.54c.028.34.075.466.106.527.12.236.311.427.547.547.061.031.187.078.527.106.354.029.82.03 1.54.03s1.186-.001 1.54-.03"/></g></symbol><symbol xmlns="http://www.w3.org/2000/svg" fill="none" viewBox="0 0 32 32" id="stars_circle_fill_violet_32"><rect width="32" height="32" fill="url(#m23e58f1aa)" rx="16"/><path fill="#fff" fill-rule="evenodd" d="M16.813 12.077c-.408 1.193-.956 2.398-1.647 3.089s-1.896 1.239-3.089 1.647a19 19 0 0 1-.912.288l-.315.09c-.434.12-.434.927 0 1.047a25 25 0 0 1 1.002.303l.225.075c1.193.408 2.398.956 3.089 1.647.69.69 1.239 1.896 1.647 3.088a19 19 0 0 1 .288.912l.09.316c.12.433.927.433 1.047 0a25 25 0 0 1 .303-1.003l.075-.224c.408-1.193.956-2.398 1.647-3.09.69-.69 1.896-1.238 3.088-1.646l.226-.075a21 21 0 0 1 1.002-.303c.433-.12.433-.927 0-1.048a25 25 0 0 1-1.003-.302l-.224-.075c-1.193-.408-2.398-.956-3.09-1.647-.69-.691-1.238-1.896-1.646-3.089a20 20 0 0 1-.378-1.227c-.12-.434-.927-.434-1.048 0a24 24 0 0 1-.377 1.227" clip-rule="evenodd"/><path fill="#fff" d="M10.72 7.015a.457.457 0 0 0-.868 0L9.504 8.06A2.29 2.29 0 0 1 8.06 9.504l-1.044.348a.457.457 0 0 0 0 .867l1.044.348a2.29 2.29 0 0 1 1.445 1.446l.348 1.043a.457.457 0 0 0 .867 0l.348-1.043a2.29 2.29 0 0 1 1.446-1.446l1.043-.348a.457.457 0 0 0 0-.867l-1.043-.348a2.29 2.29 0 0 1-1.446-1.445z"/><defs><linearGradient id="m23e58f1aa" x1="-16" x2="16" y1="16" y2="48" gradientUnits="userSpaceOnUse"><stop stop-color="#C48AFF"/><stop offset="1" stop-color="#AA65F0"/></linearGradient></defs></symbol><symbol xmlns="http://www.w3.org/2000/svg" fill="currentColor" viewBox="0 0 32 32" id="stars_outline_32"><path d="M6.904 2.394a.615.615 0 0 1 1.148 0l.866 2.254c.238.62.728 1.112 1.348 1.352l2.343.907a.615.615 0 0 1 0 1.146l-2.337.905a2.36 2.36 0 0 0-1.352 1.36l-.867 2.287a.615.615 0 0 1-1.15 0l-.87-2.292a2.36 2.36 0 0 0-1.34-1.357l-2.304-.904a.615.615 0 0 1 0-1.144l2.309-.906a2.36 2.36 0 0 0 1.338-1.348z"/><path fill-rule="evenodd" d="M15.385 15.376c.968-.968 1.74-2.72 2.318-4.478a36 36 0 0 0 .712-2.507c.127-.518 1.068-.518 1.196 0l.078.313a36 36 0 0 0 .634 2.194c.578 1.759 1.35 3.51 2.318 4.478.969.969 2.715 1.74 4.47 2.318a36 36 0 0 0 2.502.713c.516.128.516 1.067 0 1.195q-.155.038-.315.079a36 36 0 0 0-2.188.634c-1.754.578-3.5 1.35-4.469 2.318s-1.74 2.719-2.318 4.477a36 36 0 0 0-.712 2.507c-.128.517-1.068.517-1.196 0a38 38 0 0 0-.475-1.75 30 30 0 0 0-.237-.757c-.578-1.758-1.35-3.509-2.318-4.477-.97-.97-2.724-1.74-4.487-2.319a36 36 0 0 0-2.512-.712c-.517-.127-.517-1.068 0-1.195l.313-.079a36 36 0 0 0 2.199-.633c1.763-.579 3.518-1.35 4.487-2.319m1.768 1.768c.772-.772 1.38-1.772 1.86-2.77.48.998 1.088 1.998 1.86 2.77s1.77 1.38 2.767 1.86c-.996.48-1.995 1.089-2.767 1.86-.772.773-1.38 1.773-1.86 2.77-.48-.997-1.088-1.997-1.86-2.77-.773-.772-1.774-1.38-2.772-1.86.998-.48 1.999-1.087 2.771-1.86Z" clip-rule="evenodd"/></symbol><symbol fill="none" viewBox="0 0 32 32" xmlns="http://www.w3.org/2000/svg" id="story_outline_32"><g fill="currentColor" fill-rule="evenodd" clip-rule="evenodd"><path d="M6.325 3.868C7.535 3.222 8.725 3 11.333 3h9.334c2.609 0 3.799.222 5.008.868a5.92 5.92 0 0 1 2.457 2.457c.646 1.21.868 2.4.868 5.008v9.334c0 2.609-.222 3.799-.868 5.008a5.92 5.92 0 0 1-2.457 2.457c-1.21.646-2.4.868-5.008.868h-9.334c-2.609 0-3.799-.222-5.008-.868a5.92 5.92 0 0 1-2.457-2.457c-.646-1.21-.868-2.4-.868-5.008v-9.334c0-2.609.222-3.799.868-5.008a5.92 5.92 0 0 1 2.457-2.457M11.333 5.5c-2.479 0-3.169.22-3.829.573-.62.331-1.1.81-1.431 1.431-.353.66-.573 1.35-.573 3.829v9.334c0 2.479.22 3.168.573 3.829.331.62.81 1.1 1.431 1.431.66.353 1.35.573 3.829.573h9.334c2.479 0 3.168-.22 3.829-.573.62-.332 1.1-.81 1.431-1.431.353-.66.573-1.35.573-3.829v-9.334c0-2.479-.22-3.169-.573-3.829a3.42 3.42 0 0 0-1.431-1.431c-.66-.353-1.35-.573-3.829-.573z"/><path d="M16 22a6 6 0 1 0 0-12 6 6 0 0 0 0 12m0-2.5a3.5 3.5 0 1 0 0-7 3.5 3.5 0 0 0 0 7"/></g></symbol><symbol fill="none" viewBox="0 0 32 32" xmlns="http://www.w3.org/2000/svg" id="tear_off_flyer_outline_32"><path fill="#3f8ae0" fill-rule="evenodd" d="M6.325 3.868C7.535 3.222 8.725 3 11.333 3h9.334c2.609 0 3.799.222 5.008.868a5.92 5.92 0 0 1 2.457 2.457c.646 1.21.868 2.4.868 5.008v9.334c0 2.609-.222 3.799-.868 5.008a5.92 5.92 0 0 1-2.457 2.457c-1.21.646-2.4.868-5.008.868h-9.334c-2.609 0-3.799-.222-5.008-.868a5.92 5.92 0 0 1-2.457-2.457c-.646-1.21-.868-2.4-.868-5.008v-9.334c0-2.609.222-3.799.868-5.008a5.92 5.92 0 0 1 2.457-2.457M13.5 26.49v-3.236a1.25 1.25 0 0 0-2.5 0v3.235c-2.21-.02-2.866-.225-3.496-.562a3.42 3.42 0 0 1-1.431-1.431c-.353-.66-.573-1.35-.573-3.829v-9.334c0-2.479.22-3.169.573-3.829.331-.62.81-1.1 1.431-1.431.66-.353 1.35-.573 3.829-.573h9.334c2.479 0 3.168.22 3.829.573.62.331 1.1.81 1.431 1.431.353.66.573 1.35.573 3.829v9.334c0 2.479-.22 3.168-.573 3.829-.332.62-.81 1.1-1.431 1.431-.58.31-1.682.508-3.496.554v-3.237a1.25 1.25 0 1 0-2.5 0v3.246zM8 11.25c0-.69.56-1.25 1.25-1.25h13.493a1.25 1.25 0 0 1 0 2.5H9.25c-.69 0-1.25-.56-1.25-1.25m0 6c0-.69.56-1.25 1.25-1.25h13.493a1.25 1.25 0 0 1 0 2.5H9.25c-.69 0-1.25-.56-1.25-1.25" clip-rule="evenodd"/></symbol><symbol xmlns="http://www.w3.org/2000/svg" fill="none" viewBox="0 0 32 32" id="ticket_outline_32"><path fill="currentColor" fill-rule="evenodd" d="M17.391 1.208a4.25 4.25 0 0 1 2.625 0c.561.182 1.025.5 1.466.875.663.563 1.263 1.2 1.878 1.814a1.25 1.25 0 0 1 .087 1.67c-.694.856-.637 2.092.129 2.857.765.766 2 .823 2.857.129a1.25 1.25 0 0 1 1.67.087c.614.615 1.25 1.214 1.814 1.878.374.441.693.905.875 1.466a4.25 4.25 0 0 1 0 2.625c-.182.561-.5 1.025-.875 1.466-.358.422-.834.897-1.397 1.461L17.536 28.52c-.563.563-1.04 1.039-1.46 1.397-.442.374-.906.693-1.467.875a4.25 4.25 0 0 1-2.625 0c-.561-.182-1.025-.5-1.466-.875-.663-.563-1.263-1.2-1.878-1.814a1.25 1.25 0 0 1-.087-1.67c.694-.856.637-2.092-.129-2.857-.765-.766-2-.823-2.857-.129a1.25 1.25 0 0 1-1.67-.087l-.416-.417c-.564-.564-1.04-1.04-1.398-1.46-.374-.442-.693-.906-.875-1.467a4.25 4.25 0 0 1 0-2.625c.182-.561.5-1.025.875-1.466.358-.422.834-.897 1.397-1.461L14.464 3.48c.564-.564 1.04-1.04 1.46-1.398.442-.374.906-.693 1.467-.875m1.853 2.376a1.75 1.75 0 0 0-1.08 0c-.124.04-.3.13-.623.404-.334.284-.738.686-1.346 1.294L13.62 7.857l1.015 1.014a1.25 1.25 0 0 1-1.766 1.767l-1.015-1.015-6.572 6.572c-.608.608-1.01 1.012-1.294 1.346-.275.324-.364.5-.404.622a1.75 1.75 0 0 0 0 1.08c.04.124.13.3.404.623.232.273.543.593.98 1.032 1.714-.795 3.81-.502 5.223.911s1.706 3.51.91 5.222c.44.438.76.75 1.034.981.323.275.498.364.621.404a1.75 1.75 0 0 0 1.08 0c.124-.04.3-.13.623-.404.334-.284.738-.686 1.346-1.294l6.572-6.572-1.015-1.014a1.25 1.25 0 0 1 1.766-1.767l1.015 1.015 2.575-2.575c.608-.608 1.01-1.012 1.294-1.346.275-.324.364-.5.404-.622a1.75 1.75 0 0 0 0-1.08c-.04-.124-.13-.3-.404-.622a19 19 0 0 0-.98-1.033c-1.714.795-3.81.502-5.223-.911s-1.706-3.51-.91-5.222c-.44-.438-.76-.75-1.034-.981-.323-.275-.498-.364-.621-.404m-2.874 8.781a1.25 1.25 0 0 1 1.766 0l1.499 1.499a1.249 1.249 0 1 1-1.766 1.766l-1.5-1.499a1.25 1.25 0 0 1 0-1.766" clip-rule="evenodd"/></symbol><symbol xmlns="http://www.w3.org/2000/svg" fill="currentColor" viewBox="0 0 32 32" id="user_square_on_square_32"><path fill-rule="evenodd" d="M12.404 4c-.52 0-.985 0-1.37.031-.41.034-.84.11-1.26.323a3.25 3.25 0 0 0-1.42 1.42c-.214.42-.289.85-.323 1.26C8 7.42 8 7.885 8 8.405v11.192c0 .52 0 .984.031 1.37.034.41.11.84.323 1.26a3.25 3.25 0 0 0 1.42 1.42c.42.213.85.289 1.26.323.386.031.85.031 1.37.031h11.192c.52 0 .984 0 1.37-.031.41-.034.84-.11 1.26-.323a3.25 3.25 0 0 0 1.42-1.42c.213-.42.289-.85.323-1.26.031-.386.031-.85.031-1.37V8.404c0-.52 0-.984-.031-1.37-.034-.41-.11-.84-.323-1.26a3.25 3.25 0 0 0-1.42-1.42c-.42-.214-.85-.289-1.26-.323C24.58 4 24.115 4 23.595 4zm8.097 7.5a2.5 2.5 0 1 0-4.999-.002 2.5 2.5 0 0 0 4.999.002M13 17.75l-.001.622c0 .347.281.628.628.628l8.744.001a.63.63 0 0 0 .628-.628v-.622c0-2.187-3.33-2.813-5-2.813-1.668 0-5 .625-5 2.812ZM3 13v7.667c0 2.609.222 3.799.868 5.008a5.92 5.92 0 0 0 2.457 2.457c1.21.646 2.4.868 5.008.868H20a2.5 2.5 0 0 0 2.5-2.5H11.333c-2.479 0-3.169-.22-3.829-.573a3.42 3.42 0 0 1-1.431-1.431c-.353-.66-.573-1.35-.573-3.829V10.5A2.5 2.5 0 0 0 3 13"/></symbol><symbol xmlns="http://www.w3.org/2000/svg" fill="currentColor" viewBox="0 0 32 32" id="user_square_on_square_outline_32"><path fill-rule="evenodd" d="M12.404 4h11.192c.52 0 .984 0 1.37.031.41.034.84.11 1.26.323a3.25 3.25 0 0 1 1.42 1.42c.213.42.289.85.323 1.26.031.386.031.85.031 1.37v11.192c0 .52 0 .984-.031 1.37-.034.41-.11.84-.323 1.26a3.25 3.25 0 0 1-1.42 1.42c-.42.213-.85.289-1.26.323-.386.031-.85.031-1.37.031H12.404c-.52 0-.984 0-1.37-.031-.41-.034-.84-.11-1.26-.323a3.25 3.25 0 0 1-1.42-1.42c-.214-.42-.289-.85-.323-1.26A18 18 0 0 1 8 19.595V8.404c0-.52 0-.984.031-1.37.034-.41.11-.84.323-1.26a3.25 3.25 0 0 1 1.42-1.42c.42-.214.85-.289 1.26-.323C11.42 4 11.885 4 12.405 4ZM10.91 6.582a.75.75 0 0 0-.327.328c-.005.009-.038.074-.059.328-.022.271-.023.631-.023 1.212v11.1c0 .58.001.941.023 1.212.02.254.054.32.059.328a.75.75 0 0 0 .327.328c.01.005.075.038.33.059.27.022.63.023 1.211.023h11.1c.58 0 .941-.001 1.212-.023.254-.02.32-.054.328-.059a.75.75 0 0 0 .328-.328c.005-.009.038-.074.059-.328.022-.271.023-.631.023-1.212V8.45c0-.58-.001-.941-.023-1.212-.02-.254-.054-.32-.059-.328a.75.75 0 0 0-.328-.328c-.009-.005-.074-.038-.328-.059-.271-.022-.631-.023-1.212-.023h-11.1c-.58 0-.941.001-1.212.023-.254.02-.32.054-.329.059M18.001 9a2.5 2.5 0 1 1 0 4.999 2.5 2.5 0 0 1 0-4.999M13 18.37v-.621c0-2.187 3.332-2.812 5-2.812 1.67 0 5 .626 5 2.813v.622a.63.63 0 0 1-.628.628l-8.744-.001a.63.63 0 0 1-.628-.628ZM3 20.667V13a2.5 2.5 0 0 1 2.5-2.5v10.167c0 2.479.22 3.169.573 3.829.331.62.81 1.1 1.431 1.431.66.353 1.35.573 3.829.573H22.5A2.5 2.5 0 0 1 20 29h-8.667c-2.609 0-3.799-.222-5.008-.868a5.92 5.92 0 0 1-2.457-2.457c-.646-1.21-.868-2.4-.868-5.008" clip-rule="evenodd"/></symbol><symbol xmlns="http://www.w3.org/2000/svg" fill="none" viewBox="0 0 32 32" id="users_circle_fill_blue_32"><path fill="url(#m6053dcdba)" d="M0 16C0 7.163 7.163 0 16 0s16 7.163 16 16-7.163 16-16 16S0 24.837 0 16"/><path fill="#fff" d="M21 16.5c2.294 0 6.5.857 6.5 4.286 0 1.5-.382 1.714-1.147 1.714h-6.09c.158-.488.237-1.062.237-1.714 0-1.723-.631-3.067-1.672-4.062.783-.16 1.548-.224 2.172-.224m-9 0c2.294 0 6.5.857 6.5 4.286 0 1.5-.382 1.714-1.147 1.714H6.647c-.765 0-1.147-.214-1.147-1.714 0-3.429 4.206-4.286 6.5-4.286M12 9a3 3 0 1 1 0 6 3 3 0 1 1 0-6m9 0a3 3 0 1 1 0 6 3 3 0 1 1 0-6"/><defs><linearGradient id="m6053dcdba" x1="-16" x2="16" y1="16" y2="48" gradientUnits="userSpaceOnUse"><stop stop-color="#70B2FF"/><stop offset="1" stop-color="#5C9CE6"/></linearGradient></defs></symbol><symbol xmlns="http://www.w3.org/2000/svg" fill="currentColor" viewBox="0 0 32 32" id="video_square_outline_32"><path fill-rule="evenodd" d="M6.325 3.868C7.535 3.222 8.725 3 11.333 3h9.334c2.609 0 3.799.222 5.008.868a5.92 5.92 0 0 1 2.457 2.457c.646 1.21.868 2.4.868 5.008v9.334c0 2.609-.222 3.799-.868 5.008a5.92 5.92 0 0 1-2.457 2.457c-1.21.646-2.4.868-5.008.868h-9.334c-2.609 0-3.799-.222-5.008-.868a5.92 5.92 0 0 1-2.457-2.457c-.646-1.21-.868-2.4-.868-5.008v-9.334c0-2.609.222-3.799.868-5.008a5.92 5.92 0 0 1 2.457-2.457M11.333 5.5c-2.479 0-3.169.22-3.829.573-.62.331-1.1.81-1.431 1.431-.353.66-.573 1.35-.573 3.829v9.334c0 2.479.22 3.168.573 3.829.331.62.81 1.1 1.431 1.431.66.353 1.35.573 3.829.573h9.334c2.479 0 3.168-.22 3.829-.573.62-.331 1.1-.81 1.431-1.431.353-.66.573-1.35.573-3.829v-9.334c0-2.479-.22-3.169-.573-3.829a3.42 3.42 0 0 0-1.431-1.431c-.66-.353-1.35-.573-3.829-.573zm2.631 7.034c-.348-.123-.613.101-.655.312A16 16 0 0 0 13 15.97c0 1.091.11 2.156.321 3.185.043.211.309.434.656.31a16.4 16.4 0 0 0 5.381-3.173.38.38 0 0 0 .142-.29.38.38 0 0 0-.142-.29 16.4 16.4 0 0 0-5.394-3.178m.833-2.357c-1.73-.612-3.587.42-3.94 2.178a18.4 18.4 0 0 0-.357 3.615c0 1.26.128 2.494.372 3.686.359 1.752 2.214 2.778 3.94 2.166a18.9 18.9 0 0 0 6.204-3.66 2.864 2.864 0 0 0 0-4.32 18.9 18.9 0 0 0-6.219-3.665" clip-rule="evenodd"/></symbol><symbol viewBox="0 0 32 32" version="1.1" xmlns="http://www.w3.org/2000/svg" xmlns:xlink="http://www.w3.org/1999/xlink" id="videos_32"><g fill="none" fill-rule="evenodd"><path d="M0 0h32v32H0z"/><path fill="currentColor" d="M9 3h14a4 4 0 0 1 4 4v17a4 4 0 0 1-4 4H9a4 4 0 0 1-4-4V7a4 4 0 0 1 4-4m-.25 3a.75.75 0 0 0-.75.75v1c0 .414.336.75.75.75h1a.75.75 0 0 0 .75-.75v-1A.75.75 0 0 0 9.75 6zm0 5.5a.75.75 0 0 0-.75.75v1c0 .414.336.75.75.75h1a.75.75 0 0 0 .75-.75v-1a.75.75 0 0 0-.75-.75zm0 5.5a.75.75 0 0 0-.75.75v1c0 .414.336.75.75.75h1a.75.75 0 0 0 .75-.75v-1a.75.75 0 0 0-.75-.75zm0 5.5a.75.75 0 0 0-.75.75v1c0 .414.336.75.75.75h1a.75.75 0 0 0 .75-.75v-1a.75.75 0 0 0-.75-.75zM22.25 6a.75.75 0 0 0-.75.75v1c0 .414.336.75.75.75h1a.75.75 0 0 0 .75-.75v-1a.75.75 0 0 0-.75-.75zm0 5.5a.75.75 0 0 0-.75.75v1c0 .414.336.75.75.75h1a.75.75 0 0 0 .75-.75v-1a.75.75 0 0 0-.75-.75zm0 5.5a.75.75 0 0 0-.75.75v1c0 .414.336.75.75.75h1a.75.75 0 0 0 .75-.75v-1a.75.75 0 0 0-.75-.75zm0 5.5a.75.75 0 0 0-.75.75v1c0 .414.336.75.75.75h1a.75.75 0 0 0 .75-.75v-1a.75.75 0 0 0-.75-.75z"/></g></symbol><symbol fill="none" viewBox="0 0 32 32" xmlns="http://www.w3.org/2000/svg" id="write_32"><path fill="currentColor" d="m19.643 8.311 4.045 4.045L10.405 25.64a7.6 7.6 0 0 1-3.167 1.902l-3.317 1.013a.381.381 0 0 1-.476-.476l1.013-3.317a7.6 7.6 0 0 1 1.902-3.167zm5.659-3.232 1.62 1.62c.628.628.668 1.621.118 2.295l-.117.13-2.022 2.02L20.855 7.1l2.022-2.02c.67-.67 1.755-.67 2.425 0"/></symbol></svg>