<svg xmlns="http://www.w3.org/2000/svg"><symbol xmlns="http://www.w3.org/2000/svg" fill="currentColor" viewBox="0 0 48 48" id="add_award_outline_48"><path fill-rule="evenodd" d="M20.385 4.496a5.11 5.11 0 0 1 7.23 0l1.857 1.86a2.11 2.11 0 0 0 1.678.61l2.617-.23a5.11 5.11 0 0 1 5.539 4.647l.228 2.618a2.11 2.11 0 0 0 .892 1.546l2.154 1.506a5.11 5.11 0 0 1 1.255 7.12l-1.508 2.152a2.11 2.11 0 0 0-.31 1.758l.681 2.538a5.11 5.11 0 0 1-3.615 6.262l-2.538.678a2.11 2.11 0 0 0-1.368 1.148l-1.11 2.382a5.11 5.11 0 0 1-6.794 2.473l-2.38-1.112a2.11 2.11 0 0 0-1.786 0l-2.38 1.112a5.11 5.11 0 0 1-6.795-2.473l-1.11-2.382a2.11 2.11 0 0 0-1.367-1.148l-2.538-.678a5.11 5.11 0 0 1-3.615-6.262l.681-2.538a2.11 2.11 0 0 0-.31-1.758l-1.508-2.152a5.11 5.11 0 0 1 1.255-7.12l2.154-1.506A2.11 2.11 0 0 0 8.466 14l.228-2.618a5.11 5.11 0 0 1 5.539-4.647l2.617.23a2.11 2.11 0 0 0 1.678-.61l1.857-1.86Zm5.108 2.12a2.11 2.11 0 0 0-2.986 0l-1.857 1.86a5.11 5.11 0 0 1-4.063 1.478l-2.617-.23a2.11 2.11 0 0 0-2.287 1.919l-.228 2.618a5.11 5.11 0 0 1-2.162 3.744L7.14 19.511a2.11 2.11 0 0 0-.519 2.94l1.509 2.152a5.11 5.11 0 0 1 .75 4.258L8.2 31.4a2.11 2.11 0 0 0 1.492 2.585l2.538.68a5.11 5.11 0 0 1 3.313 2.779l1.109 2.382a2.11 2.11 0 0 0 2.805 1.02l2.381-1.111a5.11 5.11 0 0 1 4.324 0l2.38 1.112a2.11 2.11 0 0 0 2.806-1.021l1.11-2.383a5.11 5.11 0 0 1 3.312-2.779l2.538-.679a2.11 2.11 0 0 0 1.493-2.585l-.681-2.538a5.11 5.11 0 0 1 .75-4.258l1.509-2.152a2.11 2.11 0 0 0-.519-2.94l-2.153-1.506a5.11 5.11 0 0 1-2.162-3.744l-.228-2.618a2.11 2.11 0 0 0-2.287-1.919l-2.617.23a5.11 5.11 0 0 1-4.063-1.479l-1.857-1.858ZM24 16a1.5 1.5 0 0 1 1.5 1.5v5h5a1.5 1.5 0 1 1 0 3h-5v5a1.5 1.5 0 0 1-3 0v-5h-5a1.5 1.5 0 0 1 0-3h5v-5A1.5 1.5 0 0 1 24 16" clip-rule="evenodd"/></symbol><symbol xmlns="http://www.w3.org/2000/svg" fill="currentColor" viewBox="0 0 48 48" id="add_outline_48"><path d="M24.5 7c1.105 0 1.5.895 1.5 2v13h13c1.105 0 2 .395 2 1.5s-.895 1.5-2 1.5H26v14c0 1.105-.395 2-1.5 2s-1.5-.895-1.5-2V25H9c-1.105 0-2-.395-2-1.5S7.895 22 9 22h14V9c0-1.105.395-2 1.5-2"/></symbol><symbol xmlns="http://www.w3.org/2000/svg" fill="none" viewBox="0 0 48 48" id="arrow_down_outline_48"><path fill="currentColor" fill-rule="evenodd" d="M24 9a1.5 1.5 0 0 1 1.5 1.5v23.48l9.961-9.562a1.5 1.5 0 0 1 2.078 2.164l-12.5 12a1.5 1.5 0 0 1-2.078 0l-12.5-12a1.5 1.5 0 0 1 2.078-2.164L22.5 33.98V10.5A1.5 1.5 0 0 1 24 9" clip-rule="evenodd"/></symbol><symbol xmlns="http://www.w3.org/2000/svg" fill="none" viewBox="0 0 48 48" id="arrow_left_outline_48"><path fill="currentColor" fill-rule="evenodd" d="M23.539 10.418a1.5 1.5 0 0 1 .043 2.12L14.02 22.5H37.5a1.5 1.5 0 0 1 0 3H14.02l9.562 9.961a1.5 1.5 0 0 1-2.164 2.078l-12-12.5a1.5 1.5 0 0 1 0-2.078l12-12.5a1.5 1.5 0 0 1 2.12-.043" clip-rule="evenodd"/></symbol><symbol xmlns="http://www.w3.org/2000/svg" fill="none" viewBox="0 0 48 48" id="arrow_right_outline_48"><path fill="currentColor" fill-rule="evenodd" d="M24.461 10.418a1.5 1.5 0 0 1 2.121.043l12 12.5a1.5 1.5 0 0 1 0 2.078l-12 12.5a1.5 1.5 0 0 1-2.164-2.078L33.98 25.5H10.5a1.5 1.5 0 0 1 0-3h23.48l-9.562-9.961a1.5 1.5 0 0 1 .043-2.121" clip-rule="evenodd"/></symbol><symbol xmlns="http://www.w3.org/2000/svg" fill="none" viewBox="0 0 48 48" id="arrow_up_outline_48"><path fill="currentColor" fill-rule="evenodd" d="M22.961 9.418a1.5 1.5 0 0 1 2.078 0l12.5 12a1.5 1.5 0 0 1-2.078 2.164L25.5 14.02V37.5a1.5 1.5 0 0 1-3 0V14.02l-9.961 9.562a1.5 1.5 0 0 1-2.078-2.164z" clip-rule="evenodd"/></symbol><symbol fill="none" viewBox="0 0 48 48" xmlns="http://www.w3.org/2000/svg" id="block_48"><path fill="currentColor" d="M24 4C12.954 4 4 12.954 4 24s8.954 20 20 20 20-8.954 20-20S35.046 4 24 4m17 20c0 9.389-7.611 17-17 17-4.154 0-7.96-1.49-10.914-3.965l23.949-23.949A16.93 16.93 0 0 1 41 24M24 7c4.154 0 7.96 1.49 10.913 3.964L10.964 34.913A16.93 16.93 0 0 1 7 24c0-9.389 7.611-17 17-17"/></symbol><symbol fill="none" viewBox="0 0 48 48" xmlns="http://www.w3.org/2000/svg" id="block_outline_48"><path fill="currentColor" d="M24 44C12.954 44 4 35.046 4 24S12.954 4 24 4s20 8.954 20 20-8.954 20-20 20m17-20c0-9.389-7.611-17-17-17-4.154 0-7.96 1.49-10.914 3.965l23.949 23.949A16.93 16.93 0 0 0 41 24M24 41c4.154 0 7.96-1.49 10.913-3.964L10.964 13.087A16.93 16.93 0 0 0 7 24c0 9.389 7.611 17 17 17"/></symbol><symbol viewBox="0 0 48 48" version="1.1" xmlns="http://www.w3.org/2000/svg" xmlns:xlink="http://www.w3.org/1999/xlink" id="camera_48"><g fill="none" fill-rule="evenodd"><path d="M0 0h48v48H0z"/><path fill="currentColor" d="M10.364 12h.909c1.36 0 2.84-.993 3.568-1.891s1.396-1.729 1.436-1.777C17.07 7.402 17.878 7 19.257 7H24v33H11.273C7.256 40 4 36.816 4 32.889V19.11C4 14.667 6 12 10.364 12m27.272 0h-.909c-1.36 0-2.84-.993-3.568-1.891s-1.396-1.729-1.436-1.777C30.93 7.402 30.122 7 28.743 7H24v33h12.727C40.744 40 44 36.816 44 32.889V19.11C44 14.667 42 12 37.636 12M15 25c0 4.968 4.032 9 9 9s9-4.032 9-9-4.032-9-9-9-9 4.032-9 9m2.25 0A6.75 6.75 0 0 1 24 18.25 6.75 6.75 0 0 1 30.75 25 6.75 6.75 0 0 1 24 31.75 6.75 6.75 0 0 1 17.25 25"/></g></symbol><symbol fill="none" viewBox="0 0 48 48" xmlns="http://www.w3.org/2000/svg" id="camera_outline_48"><path fill="currentColor" d="M28.328 5h-8.942c-1.613 0-2.767.49-3.778 1.592l-.177.201c-.03.037-1.024 1.274-1.377 1.711-.35.435-1.287.803-2.197.803H11.5c-4.41 0-7.5 3.417-7.5 8.391v14.908c0 4.498 3.82 8.391 8.714 8.391H35c4.924 0 9.004-3.933 9.004-8.39V17.697c0-4.974-3.09-8.391-7.5-8.391h-.647c-.91 0-1.846-.368-2.197-.803l-1.377-1.71C31.23 5.548 30.036 5 28.328 5m0 3c.765 0 1.127.14 1.557.608l.109.124 1.33 1.655c.977 1.21 2.78 1.92 4.533 1.92h.647c2.682 0 4.5 2.01 4.5 5.391v14.908c0 2.776-2.712 5.391-6.004 5.391H12.714C9.49 37.997 7 35.46 7 32.607V17.697c0-3.381 1.818-5.391 4.5-5.391h.357c1.753 0 3.557-.71 4.533-1.92l1.33-1.655c.482-.569.837-.732 1.666-.732zM24 15.5a8.5 8.5 0 1 0 0 17 8.5 8.5 0 0 0 0-17m0 3a5.5 5.5 0 1 1 0 11 5.5 5.5 0 0 1 0-11"/></symbol><symbol xmlns="http://www.w3.org/2000/svg" fill="none" viewBox="0 0 48 48" id="cancel_outline_48"><path fill="currentColor" fill-rule="evenodd" d="M10.44 10.44a1.5 1.5 0 0 1 2.12 0L24 21.878l11.44-11.44a1.5 1.5 0 0 1 2.12 2.122L26.122 24l11.44 11.44a1.5 1.5 0 0 1-2.122 2.12L24 26.122l-11.44 11.44a1.5 1.5 0 0 1-2.12-2.122L21.878 24l-11.44-11.44a1.5 1.5 0 0 1 0-2.12" clip-rule="evenodd"/></symbol><symbol xmlns="http://www.w3.org/2000/svg" fill="none" viewBox="0 0 48 48" id="chevron_down_outline_48"><path fill="currentColor" fill-rule="evenodd" d="M11.368 19.516a1.5 1.5 0 0 1 2.116-.148L24 28.512l10.516-9.144a1.5 1.5 0 0 1 1.968 2.264l-11.5 10a1.5 1.5 0 0 1-1.968 0l-11.5-10a1.5 1.5 0 0 1-.148-2.116" clip-rule="evenodd"/></symbol><symbol xmlns="http://www.w3.org/2000/svg" fill="none" viewBox="0 0 48 48" id="chevron_left_outline_48"><path fill="currentColor" fill-rule="evenodd" d="M30.537 11.416a1.5 1.5 0 0 1 .047 2.12L20.576 24l10.008 10.463a1.5 1.5 0 1 1-2.168 2.074l-11-11.5a1.5 1.5 0 0 1 0-2.074l11-11.5a1.5 1.5 0 0 1 2.12-.047" clip-rule="evenodd"/></symbol><symbol xmlns="http://www.w3.org/2000/svg" fill="none" viewBox="0 0 48 48" id="chevron_right_outline_48"><path fill="currentColor" fill-rule="evenodd" d="M17.463 11.416a1.5 1.5 0 0 1 2.121.047l11 11.5a1.5 1.5 0 0 1 0 2.074l-11 11.5a1.5 1.5 0 1 1-2.168-2.074L27.424 24 17.416 13.537a1.5 1.5 0 0 1 .047-2.121" clip-rule="evenodd"/></symbol><symbol xmlns="http://www.w3.org/2000/svg" fill="none" viewBox="0 0 48 48" id="chevron_up_outline_48"><path fill="currentColor" fill-rule="evenodd" d="M23.016 16.368a1.5 1.5 0 0 1 1.968 0l11.5 10a1.5 1.5 0 0 1-1.968 2.264L24 19.488l-10.516 9.144a1.5 1.5 0 0 1-1.968-2.264z" clip-rule="evenodd"/></symbol><symbol xmlns="http://www.w3.org/2000/svg" fill="currentColor" viewBox="0 0 48 48" id="compass_48"><path fill-rule="evenodd" d="M44 24c0 11.046-8.954 20-20 20S4 35.046 4 24 12.954 4 24 4s20 8.954 20 20m-11.98-8.979L19.392 17.89a2 2 0 0 0-1.507 1.508L15.02 32.022a.8.8 0 0 0 .957.958l12.61-2.859a2 2 0 0 0 1.508-1.506l2.881-12.635a.8.8 0 0 0-.957-.959ZM24 27a3 3 0 1 0 0-6 3 3 0 0 0 0 6" clip-rule="evenodd"/><path d="M24 27a3 3 0 1 0 0-6 3 3 0 0 0 0 6m20-3c0 11.046-8.954 20-20 20S4 35.046 4 24 12.954 4 24 4s20 8.954 20 20m-11.98-8.979L19.392 17.89a2 2 0 0 0-1.507 1.508L15.02 32.022a.8.8 0 0 0 .957.958l12.61-2.859a2 2 0 0 0 1.508-1.506l2.881-12.635a.8.8 0 0 0-.957-.959Z" clip-rule="evenodd"/></symbol><symbol xmlns="http://www.w3.org/2000/svg" fill="currentColor" viewBox="0 0 48 48" id="document_arrow_up_outline_48"><path fill-rule="evenodd" d="M22.833 4.006h1.165c1.69 0 3.305.703 4.456 1.942l5.126 5.513 5.916 5.92c.96.96 1.5 2.263 1.5 3.62v.313a1.5 1.5 0 0 1-3 0v-.312H27.5a4.5 4.5 0 0 1-4.5-4.5V7.006h-.1c-2.545 0-4.363.001-5.789.117-1.408.115-2.3.335-3.016.7a7.5 7.5 0 0 0-3.277 3.278c-.365.716-.585 1.608-.7 3.016C10 15.542 10 17.36 10 19.906v8.2c0 2.545.001 4.364.118 5.79.115 1.408.335 2.3.7 3.015a7.5 7.5 0 0 0 3.277 3.278c.716.365 1.608.585 3.016.7 1.425.116 3.244.117 5.789.117h7.607a1.5 1.5 0 0 1 0 3h-7.674c-2.463 0-4.404 0-5.966-.127-1.594-.13-2.925-.4-4.134-1.017a10.5 10.5 0 0 1-4.589-4.589c-.616-1.209-.886-2.54-1.016-4.133C7 32.578 7 30.637 7 28.173V19.84c0-2.464 0-4.405.128-5.966.13-1.594.4-2.925 1.016-4.134a10.5 10.5 0 0 1 4.59-4.589c1.208-.616 2.54-.886 4.133-1.017 1.562-.127 3.503-.127 5.966-.127Zm13.043 13.996H27.5a1.5 1.5 0 0 1-1.5-1.5V7.744q.135.115.257.246l5.162 5.553zm1.679 7.439a1.5 1.5 0 0 0-2.122 0l-5.993 5.993a1.5 1.5 0 1 0 2.122 2.123l3.431-3.431V43.5a1.5 1.5 0 0 0 3.002 0V30.126l3.443 3.442a1.5 1.5 0 0 0 2.122-2.122z"/></symbol><symbol fill="none" viewBox="0 0 48 48" xmlns="http://www.w3.org/2000/svg" id="donate_outline_48"><g fill="currentColor" fill-rule="evenodd" clip-rule="evenodd"><path d="M24 45c11.598 0 21-9.402 21-21S35.598 3 24 3 3 12.402 3 24s9.402 21 21 21m0-3c9.941 0 18-8.059 18-18S33.941 6 24 6 6 14.059 6 24s8.059 18 18 18"/><path d="m24 15.406-2.405 5.783-6.244.5 4.757 4.076-1.453 6.092L24 28.592l5.345 3.265-1.453-6.092 4.757-4.075-6.244-.5zm-2.498-1.807a2.705 2.705 0 0 1 4.996 0l1.974 4.746 5.124.411a2.705 2.705 0 0 1 1.543 4.75l-3.904 3.345 1.193 5a2.705 2.705 0 0 1-4.041 2.936L24 32.107l-4.387 2.68a2.705 2.705 0 0 1-4.041-2.936l1.193-5-3.904-3.344a2.705 2.705 0 0 1 1.543-4.75l5.124-.412z"/></g></symbol><symbol xmlns="http://www.w3.org/2000/svg" fill="currentColor" viewBox="0 0 48 48" id="film_strip_play_48"><path fill-rule="evenodd" d="M4.872 11.368C4 13.08 4 15.32 4 19.8v8.4c0 4.48 0 6.72.872 8.432a8 8 0 0 0 3.496 3.496C10.08 41 12.32 41 16.8 41h14.4c4.48 0 6.72 0 8.432-.872a8 8 0 0 0 3.496-3.496C44 34.92 44 32.68 44 28.2v-8.4c0-4.48 0-6.72-.872-8.432a8 8 0 0 0-3.496-3.496C37.92 7 35.68 7 31.2 7H16.8c-4.48 0-6.72 0-8.432.872a8 8 0 0 0-3.496 3.496m3.237 3.178C8 14.76 8 15.04 8 15.6v.8c0 .56 0 .84.109 1.054a1 1 0 0 0 .437.437C8.76 18 9.04 18 9.6 18h.8c.56 0 .84 0 1.054-.109a1 1 0 0 0 .437-.437C12 17.24 12 16.96 12 16.4v-.8c0-.56 0-.84-.109-1.054a1 1 0 0 0-.437-.437C11.24 14 10.96 14 10.4 14h-.8c-.56 0-.84 0-1.054.109a1 1 0 0 0-.437.437m28 0C36 14.76 36 15.04 36 15.6v.8c0 .56 0 .84.109 1.054a1 1 0 0 0 .437.437C36.76 18 37.04 18 37.6 18h.8c.56 0 .84 0 1.054-.109a1 1 0 0 0 .437-.437C40 17.24 40 16.96 40 16.4v-.8c0-.56 0-.84-.109-1.054a1 1 0 0 0-.437-.437C39.24 14 38.96 14 38.4 14h-.8c-.56 0-.84 0-1.054.109a1 1 0 0 0-.437.437M8 23.6c0-.56 0-.84.109-1.054a1 1 0 0 1 .437-.437C8.76 22 9.04 22 9.6 22h.8c.56 0 .84 0 1.054.109a1 1 0 0 1 .437.437C12 22.76 12 23.04 12 23.6v.8c0 .56 0 .84-.109 1.054a1 1 0 0 1-.437.437C11.24 26 10.96 26 10.4 26h-.8c-.56 0-.84 0-1.054-.109a1 1 0 0 1-.437-.437C8 25.24 8 24.96 8 24.4zm28.109-1.054C36 22.76 36 23.04 36 23.6v.8c0 .56 0 .84.109 1.054a1 1 0 0 0 .437.437C36.76 26 37.04 26 37.6 26h.8c.56 0 .84 0 1.054-.109a1 1 0 0 0 .437-.437C40 25.24 40 24.96 40 24.4v-.8c0-.56 0-.84-.109-1.054a1 1 0 0 0-.437-.437C39.24 22 38.96 22 38.4 22h-.8c-.56 0-.84 0-1.054.109a1 1 0 0 0-.437.437M8 31.6c0-.56 0-.84.109-1.054a1 1 0 0 1 .437-.437C8.76 30 9.04 30 9.6 30h.8c.56 0 .84 0 1.054.109a1 1 0 0 1 .437.437C12 30.76 12 31.04 12 31.6v.8c0 .56 0 .84-.109 1.054a1 1 0 0 1-.437.437C11.24 34 10.96 34 10.4 34h-.8c-.56 0-.84 0-1.054-.109a1 1 0 0 1-.437-.437C8 33.24 8 32.96 8 32.4zm28.109-1.054C36 30.76 36 31.04 36 31.6v.8c0 .56 0 .84.109 1.054a1 1 0 0 0 .437.437C36.76 34 37.04 34 37.6 34h.8c.56 0 .84 0 1.054-.109a1 1 0 0 0 .437-.437C40 33.24 40 32.96 40 32.4v-.8c0-.56 0-.84-.109-1.054a1 1 0 0 0-.437-.437C39.24 30 38.96 30 38.4 30h-.8c-.56 0-.84 0-1.054.109a1 1 0 0 0-.437.437M19 27.372v-6.744c0-1.168 0-1.751.245-2.091.215-.297.544-.49.908-.532.418-.047.927.238 1.946.809l6.022 3.372c1.058.593 1.588.89 1.764 1.28.153.34.153.729 0 1.069-.176.39-.706.686-1.764 1.279l-6.022 3.372c-1.019.571-1.528.856-1.946.809a1.3 1.3 0 0 1-.907-.532C19 29.123 19 28.54 19 27.373Z" clip-rule="evenodd"/></symbol><symbol xmlns="http://www.w3.org/2000/svg" fill="currentColor" viewBox="0 0 48 48" id="forward_48"><path d="M32.46 7.533a1.157 1.157 0 0 1-.003 1.961l-7.658 4.823c-.78.491-1.799-.065-1.799-.981v-3.3c-7.265.512-13 6.568-13 13.964 0 7.732 6.268 14 14 14 5.98 0 11.089-3.75 13.094-9.032a1.5 1.5 0 1 1 2.805 1.064C37.466 36.441 31.267 41 24 41c-9.389 0-17-7.611-17-17 0-9.053 7.077-16.453 16-16.971V3.664c0-.918 1.022-1.473 1.801-.98l7.658 4.85Z"/></symbol><symbol fill="none" viewBox="0 0 48 48" xmlns="http://www.w3.org/2000/svg" id="game_48"><path fill="currentColor" d="M34.492 12c9.625 0 10.5 15.75 10.5 21s-.875 7-4.375 7C37 40 33.625 31 31 31H16.992c-2.625 0-5.992 9-9.626 9-3.5 0-4.375-1.75-4.375-7s.875-21 10.5-21zM15 16.5h-.5a1 1 0 0 0-1 1V20H11a1 1 0 0 0-.984.82L10 21v.5a1 1 0 0 0 1 1h2.5V25a1 1 0 0 0 .82.984l.18.016h.5a1 1 0 0 0 1-1v-2.5h2.5a1 1 0 0 0 .984-.82l.016-.18V21a1 1 0 0 0-1-1H16v-2.5a1 1 0 0 0-.82-.984zm18.5 7H33a1 1 0 0 0-1 1v.5a1 1 0 0 0 1 1h.5a1 1 0 0 0 1-1v-.5a1 1 0 0 0-1-1M30 20h-.5a1 1 0 0 0-1 1v.5a1 1 0 0 0 1 1h.5a1 1 0 0 0 1-1V21a1 1 0 0 0-1-1m7 0h-.5a1 1 0 0 0-1 1v.5a1 1 0 0 0 1 1h.5a1 1 0 0 0 1-1V21a1 1 0 0 0-1-1m-3.5-3.5H33a1 1 0 0 0-1 1v.5a1 1 0 0 0 1 1h.5a1 1 0 0 0 1-1v-.5a1 1 0 0 0-1-1"/></symbol><symbol xmlns="http://www.w3.org/2000/svg" fill="none" viewBox="0 0 48 48" id="hide_circle_fill_purple_48"><circle cx="24" cy="24" r="24" fill="url(#meb0c2709a)"/><path fill="#fff" d="m18.213 15.797 1.977 1.977 1.695 1.694 2.032 2.034h.002l2.58 2.579v.004l2.032 2.032.001-.003 2.284 2.285-.002.001 1.386 1.387a1 1 0 0 1-1.32 1.498l-.095-.084-1.639-1.638C27.689 30.409 25.95 31 24 31c-6 0-10-5.6-10-7 0-.89 1.618-3.48 4.34-5.247L16.8 17.21a1 1 0 0 1 1.414-1.414ZM19 24a5 5 0 0 0 8.322 3.737l-1.774-1.773a2.5 2.5 0 0 1-3.51-3.512l-1.775-1.774A4.98 4.98 0 0 0 19 24m5-7c6 0 10 5.6 10 7 0 .552-.621 1.756-1.74 3.012l-3.266-3.265a5 5 0 0 0-4.741-4.74l-1.87-1.87A9.6 9.6 0 0 1 24 17"/><defs><linearGradient id="meb0c2709a" x1="0" x2="48" y1="0" y2="48" gradientUnits="userSpaceOnUse"><stop stop-color="#A393F5"/><stop offset="1" stop-color="#735CE6"/></linearGradient></defs></symbol><symbol xmlns="http://www.w3.org/2000/svg" fill="currentColor" viewBox="0 0 48 48" id="hide_outline_48"><path fill-rule="evenodd" d="M12.56 8.44a1.5 1.5 0 0 0-2.12 2.12l2.491 2.492a25 25 0 0 0-2.696 1.731c-1.88 1.386-3.442 2.955-4.533 4.55S4 22.535 4 24s.61 3.071 1.702 4.668c1.09 1.594 2.653 3.163 4.533 4.549C13.998 35.989 19.007 38 24 38c3.827 0 7.654-1.182 10.913-2.966l2.526 2.527a1.5 1.5 0 0 0 2.122-2.122zm20.13 24.37-3.845-3.845A7 7 0 0 1 23.89 31C20.145 31 17 28.075 17 24.334c0-1.976.886-3.734 2.268-4.944l-4.13-4.131a2 2 0 0 1-.175.106 22.4 22.4 0 0 0-2.949 1.834c-1.662 1.224-2.97 2.56-3.836 3.827C7.292 22.322 7 23.343 7 24s.292 1.678 1.178 2.974c.867 1.266 2.174 2.603 3.836 3.827C15.367 33.271 19.767 35 24 35c2.944 0 5.976-.836 8.69-2.189ZM21.398 21.52c-.868.683-1.398 1.7-1.398 2.815C20 26.299 21.681 28 23.89 28c1.127 0 2.13-.45 2.834-1.155l-5.326-5.326ZM24 13c-.279 0-.492.003-.797.02-.4.023-.698.046-1.013.086a1.5 1.5 0 1 1-.38-2.976c.416-.053.792-.08 1.223-.105.383-.022.658-.025.967-.025 4.993 0 10.002 2.011 13.765 4.783 1.88 1.386 3.443 2.955 4.533 4.55C43.39 20.928 44 22.535 44 24c0 1.456-.655 3.21-1.722 4.695a73 73 0 0 1-1.288 1.718 1.5 1.5 0 1 1-2.38-1.826c.352-.46.853-1.114 1.231-1.641C40.651 25.819 41 24.665 41 24c0-.657-.292-1.678-1.178-2.974-.867-1.266-2.174-2.603-3.836-3.827C32.633 14.729 28.233 13 24 13"/></symbol><symbol viewBox="0 0 48 48" fill="none" xmlns="http://www.w3.org/2000/svg" id="like_48"><path fill="currentColor" d="M4 19.537C4 13.165 9.082 8 15.35 8c3.255 0 6.153 1.503 8.65 4.395C26.497 9.503 29.395 8 32.65 8 38.918 8 44 13.165 44 19.537c0 6.386-2.513 9.582-13.032 17.898l-4.833 3.82a3.434 3.434 0 0 1-4.27 0l-4.833-3.82C6.513 29.119 4 25.923 4 19.536"/></symbol><symbol fill="none" viewBox="0 0 48 48" xmlns="http://www.w3.org/2000/svg" id="linked_48"><path fill="currentColor" d="M29.712 18.288a9.633 9.633 0 0 1 0 13.624l-7.266 7.266c-3.763 3.762-9.862 3.762-13.624 0s-3.763-9.862 0-13.624l.3-.3a1.927 1.927 0 0 1 2.725 2.725l-.3.3a5.78 5.78 0 0 0 8.174 8.175l7.266-7.267a5.78 5.78 0 0 0 0-8.174 1.927 1.927 0 0 1 2.725-2.725m9.466-9.466c3.762 3.762 3.762 9.862 0 13.624l-.435.435a1.927 1.927 0 1 1-2.725-2.725l.436-.435a5.78 5.78 0 1 0-8.175-8.175l-7.266 7.267a5.78 5.78 0 0 0 0 8.174 1.927 1.927 0 0 1-2.725 2.725 9.633 9.633 0 0 1 0-13.624l7.266-7.266c3.762-3.763 9.862-3.763 13.624 0"/></symbol><symbol xmlns="http://www.w3.org/2000/svg" fill="none" viewBox="0 0 48 48" id="lock_circle_fill_green_48"><rect width="48" height="48" fill="url(#m7a319e21a)" rx="24"/><rect width="47.5" height="47.5" x=".25" y=".25" rx="23.75"/><path fill="#fff" d="M24 11a6 6 0 0 1 6 6l.002 2.023c.843.052 1.38.2 1.935.496.663.355 1.19.881 1.544 1.544.385.72.519 1.413.519 2.783v6.308c0 1.37-.134 2.063-.519 2.783a3.73 3.73 0 0 1-1.544 1.544c-.72.385-1.413.519-2.783.519H18.846c-1.37 0-2.063-.134-2.783-.519a3.73 3.73 0 0 1-1.544-1.544c-.385-.72-.519-1.413-.519-2.783v-6.308c0-1.37.134-2.063.519-2.783a3.73 3.73 0 0 1 1.544-1.544c.555-.297 1.093-.444 1.936-.496L18 17a6 6 0 0 1 6-6m5.154 10H18.846c-1.068 0-1.449.073-1.84.282q-.47.253-.724.724c-.209.391-.282.772-.282 1.84v6.308c0 1.068.073 1.449.282 1.84q.253.47.724.724c.391.209.772.282 1.84.282h10.308c1.068 0 1.449-.073 1.84-.282q.47-.253.724-.724c.209-.391.282-.772.282-1.84v-6.308c0-1.068-.073-1.449-.282-1.84a1.73 1.73 0 0 0-.724-.724c-.391-.209-.772-.282-1.84-.282M24 24a1 1 0 0 1 1 1v3a1 1 0 1 1-2 0v-3a1 1 0 0 1 1-1m0-11a4 4 0 0 0-4 4v2h8v-2a4 4 0 0 0-4-4"/><defs><linearGradient id="m7a319e21a" x1="-24" x2="24" y1="24" y2="72" gradientUnits="userSpaceOnUse"><stop stop-color="#50C750"/><stop offset="1" stop-color="#32B332"/></linearGradient></defs></symbol><symbol xmlns="http://www.w3.org/2000/svg" fill="none" viewBox="0 0 48 48" id="market_fill_blue_48"><rect width="48" height="48" fill="url(#med5b9713a)" rx="24"/><path fill="#fff" fill-rule="evenodd" d="M17 17c0-2.378.983-4.165 2.387-5.335C20.757 10.523 22.485 10 24 10s3.243.523 4.613 1.665C30.017 12.835 31 14.622 31 17h2.253c.955 0 1.302.1 1.65.286.35.187.624.461.81.81.188.35.287.696.287 1.651v9.11c0 2.484-.259 3.385-.744 4.293a5.06 5.06 0 0 1-2.106 2.106c-.908.485-1.809.744-4.292.744h-9.716c-2.483 0-3.384-.259-4.292-.744a5.06 5.06 0 0 1-2.106-2.106c-.484-.908-.744-1.81-.744-4.292v-9.111c0-.955.1-1.302.286-1.65a1.94 1.94 0 0 1 .81-.81c.35-.188.696-.287 1.651-.287zm2.5 0c0-1.622.642-2.71 1.488-3.415A4.84 4.84 0 0 1 24 12.5a4.84 4.84 0 0 1 3.012 1.085c.846.705 1.488 1.793 1.488 3.415zm-1.177 2.429h-.074c-.281 0-.497.051-.679.148-.181.097-.324.24-.421.422a1.4 1.4 0 0 0-.149.678v.074c0 .281.052.497.149.679.097.181.24.324.421.421.182.097.398.149.679.149h.074c.28 0 .497-.052.678-.149s.325-.24.422-.421c.097-.182.148-.398.148-.679v-.074c0-.28-.051-.497-.148-.678a1 1 0 0 0-.422-.422 1.4 1.4 0 0 0-.678-.148M31 20.677c0-.28-.052-.497-.149-.678a1 1 0 0 0-.421-.422 1.4 1.4 0 0 0-.679-.148h-.074c-.28 0-.497.051-.678.148a1 1 0 0 0-.422.422 1.4 1.4 0 0 0-.148.678v.074c0 .281.051.497.148.679.097.181.24.324.422.421.181.097.397.149.678.149h.074c.281 0 .497-.052.679-.149.181-.097.324-.24.421-.421.097-.182.149-.398.149-.679z" clip-rule="evenodd"/><defs><linearGradient id="med5b9713a" x1="0" x2="49.256" y1="0" y2="1.326" gradientUnits="userSpaceOnUse"><stop stop-color="#70B2FF"/><stop offset="1" stop-color="#5C9CE6"/></linearGradient></defs></symbol><symbol fill="none" viewBox="0 0 48 48" xmlns="http://www.w3.org/2000/svg" id="mention_outline_48"><path fill="currentColor" fill-rule="evenodd" d="M5 23.94C5 36.148 13.31 43.4 24.835 43.4c2.934 0 5.54-.376 7.276-.962 1.409-.47 1.902-1.104 1.902-1.925 0-.822-.54-1.338-1.503-1.338-.234 0-.54.023-.915.094-2.113.516-3.732.845-6.033.845-10.093 0-16.9-5.869-16.9-16.032 0-9.836 6.314-16.62 15.915-16.62 8.38 0 15.163 5.141 15.163 14.601 0 4.93-1.784 8.38-4.39 8.38-1.69 0-2.605-.916-2.605-2.512V16.29c0-1.315-.751-2.113-2.018-2.113-1.245 0-2.02.798-2.02 2.113v1.173h-.234c-.962-2.089-3.145-3.286-5.727-3.286-4.671 0-7.981 3.943-7.981 9.741 0 5.892 3.31 9.93 8.145 9.93 2.723 0 4.835-1.362 5.868-3.756h.235c.422 2.37 2.629 3.755 5.54 3.755 5.469 0 8.849-5.046 8.849-12.065 0-10.703-7.864-17.581-18.779-17.581C13.028 4.2 5 11.97 5 23.94m18.732 6.245c-2.911 0-4.625-2.348-4.625-6.244 0-3.873 1.737-6.174 4.625-6.174 2.957 0 4.835 2.395 4.835 6.15 0 3.85-1.901 6.268-4.835 6.268" clip-rule="evenodd"/></symbol><symbol xmlns="http://www.w3.org/2000/svg" fill="currentColor" viewBox="0 0 48 48" id="mute_48"><path d="M4 24.471v-.942c0-1.96 0-2.94.381-3.69a3.5 3.5 0 0 1 1.53-1.529c.749-.381 1.729-.381 3.689-.381h2.733c.025 0 .037 0 .049-.003a.1.1 0 0 0 .029-.012.2.2 0 0 0 .036-.033L21.9 8.315A4.43 4.43 0 0 1 25.05 7 2.95 2.95 0 0 1 28 9.951V38.05A2.95 2.95 0 0 1 25.049 41a4.43 4.43 0 0 1-3.149-1.315l-9.453-9.566a.2.2 0 0 0-.036-.033.1.1 0 0 0-.03-.012c-.01-.003-.023-.003-.048-.003H9.6c-1.96 0-2.94 0-3.689-.381a3.5 3.5 0 0 1-1.53-1.53C4 27.412 4 26.432 4 24.471m28.44-6.031a1.5 1.5 0 0 1 2.12 0L38 21.878l3.44-3.44a1.5 1.5 0 0 1 2.12 2.122L40.122 24l3.44 3.44a1.5 1.5 0 0 1-2.122 2.12L38 26.122l-3.44 3.44a1.5 1.5 0 0 1-2.12-2.122L35.878 24l-3.44-3.44a1.5 1.5 0 0 1 0-2.12Z"/></symbol><symbol fill="none" viewBox="0 0 48 48" xmlns="http://www.w3.org/2000/svg" id="newsfeed_outline_48"><g fill="currentColor"><path fill-rule="evenodd" d="M36 8H13a5 5 0 0 0-5 5v22a5 5 0 0 0 5 5h23a5 5 0 0 0 5-5V13a5 5 0 0 0-5-5M13 5a8 8 0 0 0-8 8v22a8 8 0 0 0 8 8h23a8 8 0 0 0 8-8V13a8 8 0 0 0-8-8z" clip-rule="evenodd"/><path d="M8 17h33v3H8z"/></g></symbol><symbol viewBox="0 0 48 48" fill="none" xmlns="http://www.w3.org/2000/svg" id="notebook_circle_fill_blue_48"><circle cx="24" cy="24" r="24" fill="url(#mffda0363a)"/><path fill="#fff" d="M28.907 20.293a1 1 0 0 1 0 1.414l-5.6 5.6a1 1 0 0 1-1.407.008l-2.6-2.546a1 1 0 0 1 1.4-1.429l1.893 1.853 4.9-4.9a1 1 0 0 1 1.414 0"/><path fill="#fff" fill-rule="evenodd" d="M20 12.5a1 1 0 1 0-2 0v.642c-.453.077-.872.2-1.27.403a5 5 0 0 0-2.185 2.185c-.302.592-.428 1.232-.487 1.961C14 18.4 14 19.273 14 20.357v7.286c0 1.084 0 1.958.058 2.666.06.729.185 1.369.487 1.961a5 5 0 0 0 2.185 2.185c.592.302 1.232.428 1.961.487.708.058 1.582.058 2.666.058h5.286c1.084 0 1.958 0 2.666-.058.729-.06 1.369-.185 1.961-.487a5 5 0 0 0 2.185-2.185c.302-.592.428-1.233.487-1.961C34 29.6 34 28.727 34 27.643v-7.286c0-1.084 0-1.958-.058-2.666-.06-.729-.185-1.369-.487-1.961a5 5 0 0 0-2.185-2.185 4.4 4.4 0 0 0-1.27-.403V12.5a1 1 0 1 0-2 0v.505Q27.383 13 26.643 13H25v-.5a1 1 0 1 0-2 0v.5h-1.643q-.74-.001-1.357.005zm8 2.506A107 107 0 0 0 26.6 15H25v.5a1 1 0 1 1-2 0V15h-1.6c-.538 0-.998 0-1.4.006v.494a1 1 0 1 1-2 0v-.312q-.208.06-.362.139a3 3 0 0 0-1.311 1.311c-.134.263-.226.611-.276 1.216-.05.617-.051 1.41-.051 2.546v7.2c0 1.137 0 1.929.051 2.546.05.605.142.953.276 1.216a3 3 0 0 0 1.311 1.311c.263.134.611.226 1.216.276.617.05 1.41.051 2.546.051h5.2c1.137 0 1.929 0 2.546-.051.605-.05.953-.142 1.216-.276a3 3 0 0 0 1.311-1.311c.134-.263.226-.611.276-1.216.05-.617.051-1.41.051-2.546v-7.2c0-1.137 0-1.929-.051-2.546-.05-.605-.142-.953-.276-1.216a3 3 0 0 0-1.311-1.311 2 2 0 0 0-.362-.14v.313a1 1 0 1 1-2 0z" clip-rule="evenodd"/><defs><linearGradient id="mffda0363a" x1="0" x2="49.256" y1="0" y2="1.326" gradientUnits="userSpaceOnUse"><stop stop-color="#70B2FF"/><stop offset="1" stop-color="#5C9CE6"/></linearGradient></defs></symbol><symbol fill="none" viewBox="0 0 48 48" xmlns="http://www.w3.org/2000/svg" id="palette_48"><path fill="currentColor" d="M24 6C14.06 6 6 14.06 6 24s8.06 18 18 18c1.66 0 3-1.34 3-3 0-.78-.3-1.48-.78-2.02-.46-.52-.76-1.22-.76-1.98 0-1.66 1.34-3 3-3H32c5.52 0 10-4.48 10-10 0-8.84-8.06-16-18-16M13 24c-1.66 0-3-1.34-3-3s1.34-3 3-3 3 1.34 3 3-1.34 3-3 3m6-8c-1.66 0-3-1.34-3-3s1.34-3 3-3 3 1.34 3 3-1.34 3-3 3m10 0c-1.66 0-3-1.34-3-3s1.34-3 3-3 3 1.34 3 3-1.34 3-3 3m6 8c-1.66 0-3-1.34-3-3s1.34-3 3-3 3 1.34 3 3-1.34 3-3 3"/></symbol><symbol viewBox="0 0 48 48" version="1.1" xmlns="http://www.w3.org/2000/svg" xmlns:xlink="http://www.w3.org/1999/xlink" id="pause_48"><g fill="none" fill-rule="evenodd"><path d="M0 0h48v48H0z"/><path fill="currentColor" d="M13.424 8h5.152A2.424 2.424 0 0 1 21 10.424v27.152A2.424 2.424 0 0 1 18.576 40h-5.152A2.424 2.424 0 0 1 11 37.576V10.424A2.424 2.424 0 0 1 13.424 8m16 0h5.152A2.424 2.424 0 0 1 37 10.424v27.152A2.424 2.424 0 0 1 34.576 40h-5.152A2.424 2.424 0 0 1 27 37.576V10.424A2.424 2.424 0 0 1 29.424 8"/></g></symbol><symbol xmlns="http://www.w3.org/2000/svg" fill="currentColor" viewBox="0 0 48 48" id="picture_outline_48"><path fill-rule="evenodd" d="M8.827 5.64c1.598-.855 3.178-1.14 6.685-1.14h16.975c3.508 0 5.088.285 6.686 1.14a7.7 7.7 0 0 1 3.187 3.187c.855 1.598 1.14 3.178 1.14 6.685v16.975c0 3.508-.285 5.088-1.14 6.686a7.7 7.7 0 0 1-3.187 3.187c-1.598.855-3.178 1.14-6.686 1.14H15.512c-3.507 0-5.087-.285-6.685-1.14a7.7 7.7 0 0 1-3.187-3.187c-.855-1.598-1.14-3.178-1.14-6.686V15.512c0-3.507.285-5.087 1.14-6.685A7.7 7.7 0 0 1 8.827 5.64m6.685 1.86c-3.369 0-4.34.287-5.27.785a4.7 4.7 0 0 0-1.957 1.957c-.498.93-.785 1.901-.785 5.27v16.975c0 3.37.287 4.34.785 5.271a4.7 4.7 0 0 0 1.957 1.956c.93.498 1.901.786 5.27.786h16.975c3.37 0 4.34-.288 5.271-.785a4.7 4.7 0 0 0 1.956-1.957c.498-.93.786-1.901.786-5.27V15.511c0-3.369-.288-4.34-.785-5.27a4.7 4.7 0 0 0-1.957-1.957c-.93-.498-1.901-.785-5.27-.785H15.511Z" clip-rule="evenodd"/><path fill-rule="evenodd" d="M16.167 31.927 8.184 39.91l-2.12-2.121 8.616-8.617a2 2 0 0 1 2.666-.146l3.94 3.16 7.223-8.736a2 2 0 0 1 2.892-.2l11.613 10.644-2.028 2.212-10.836-9.933-7.18 8.685a2 2 0 0 1-2.793.286z" clip-rule="evenodd"/><path d="M20 17a3 3 0 1 1-6 0 3 3 0 0 1 6 0"/></symbol><symbol viewBox="0 0 48 48" version="1.1" xmlns="http://www.w3.org/2000/svg" xmlns:xlink="http://www.w3.org/1999/xlink" id="play_48"><g fill="none" fill-rule="evenodd"><path d="M0 0h48v48H0z"/><path fill="currentColor" d="m14.4 8.764 24.02 13.85a1.6 1.6 0 0 1 0 2.773L14.4 39.237A1.6 1.6 0 0 1 12 37.85v-27.7a1.6 1.6 0 0 1 2.4-1.386"/></g></symbol><symbol viewBox="0 0 48 48" version="1.1" xmlns="http://www.w3.org/2000/svg" xmlns:xlink="http://www.w3.org/1999/xlink" id="playlist_48"><g fill="none" fill-rule="evenodd"><path d="M0 0h48v48H0z"/><path fill="currentColor" d="M27.66 13c.74 0 1.34.6 1.34 1.34v1.32c0 .74-.6 1.34-1.34 1.34H6.34C5.6 17 5 16.4 5 15.66v-1.32C5 13.6 5.6 13 6.34 13zm0 8c.74 0 1.34.6 1.34 1.34v1.32c0 .74-.6 1.34-1.34 1.34H6.34C5.6 25 5 24.4 5 23.66v-1.32C5 21.6 5.6 21 6.34 21zm8.317-2.553v12.397c0 6.017-1.167 7.178-5.833 7.79-2.224.292-4.834-.718-4.834-4.216 0-1.708 1.07-3.33 3.282-3.755 1.69-.323-.43.077 3.392-.633.928-.172 1.033-.504 1.033-1.211l-.003-5.592h-.01V17.47s-.007-2.745 0-4.117c.009-1.641 1.215-2.297 3.861-2.831 0 0 4.031-.765 6.247-1.167.49-.09.865.093.865.656 0 0-.015 3.496 0 5.406.004.554-.225.805-.787.905-2.242.398-6.486 1.147-6.486 1.147-.499.123-.727.473-.727.978M6.34 33C5.6 33 5 32.4 5 31.66v-1.32C5 29.6 5.6 29 6.34 29h15.32c.74 0 1.34.6 1.34 1.34v1.32c0 .74-.6 1.34-1.34 1.34z"/></g></symbol><symbol fill="none" viewBox="0 0 48 48" xmlns="http://www.w3.org/2000/svg" id="podcast_48"><path fill="currentColor" d="M24 10c1.84 0 3.566.498 5.047 1.365s2.72 2.106 3.588 3.588S34 18.159 34 20v12c0 1.84-.497 3.566-1.365 5.047s-2.106 2.72-3.588 3.588a10 10 0 0 1-3.046 1.165L26 44.2a1.8 1.8 0 0 1-1.8 1.8h-.4a1.8 1.8 0 0 1-1.8-1.8l-.003-2.4a10 10 0 0 1-3.044-1.165c-1.482-.868-2.72-2.106-3.588-3.588S14 33.841 14 32V20c0-1.84.498-3.566 1.365-5.047s2.106-2.72 3.588-3.588S22.159 10 24 10m0 3.5a6.45 6.45 0 0 0-3.278.885 6.55 6.55 0 0 0-2.337 2.337A6.45 6.45 0 0 0 17.5 20h3.512c.419 0 .774.084 1.067.24.293.157.524.388.68.68.157.294.241.65.241 1.068v.024c0 .419-.083.774-.24 1.067a1.64 1.64 0 0 1-.68.68c-.294.157-.65.241-1.068.241H17.5v4h3.512c.419 0 .774.084 1.067.24.293.157.524.388.68.68.157.294.241.65.241 1.068v.024c0 .419-.083.774-.24 1.067a1.64 1.64 0 0 1-.68.68c-.294.157-.65.241-1.068.241H17.5l.014.437a6.44 6.44 0 0 0 .871 2.841 6.55 6.55 0 0 0 2.337 2.337c.985.577 2.105.885 3.278.885s2.293-.308 3.278-.885a6.55 6.55 0 0 0 2.337-2.337 6.45 6.45 0 0 0 .885-3.276L29.488 32c-.419 0-.774-.084-1.067-.24a1.64 1.64 0 0 1-.68-.68q-.239-.441-.241-1.068v-.024c0-.419.083-.774.24-1.067.157-.294.387-.524.68-.68q.441-.239 1.068-.241H30.5v-4.002L29.488 24c-.419 0-.774-.084-1.067-.24a1.64 1.64 0 0 1-.68-.68q-.239-.441-.241-1.068v-.024c0-.419.083-.774.24-1.067.157-.294.387-.524.68-.68q.441-.239 1.068-.241l1.012-.002-.014-.435a6.44 6.44 0 0 0-.871-2.841 6.55 6.55 0 0 0-2.337-2.337A6.45 6.45 0 0 0 24 13.5M24 1c10.057 0 18.29 7.814 18.956 17.703.539.406.962.968 1.196 1.635Q45 22.745 45 26c0 3.255-.282 4.057-.848 5.662a3.5 3.5 0 0 1-3.3 2.338H40a3 3 0 0 1-3-3V21a3 3 0 0 1 2.381-2.936C38.43 10.419 31.906 4.5 24 4.5S9.57 10.42 8.62 18.068A2.994 2.994 0 0 1 11 21v10a3 3 0 0 1-3 3h-.851a3.5 3.5 0 0 1-3.301-2.338Q3 29.255 3 26c0-3.255.283-4.057.848-5.662a3.5 3.5 0 0 1 1.196-1.634C5.71 8.814 13.943 1 24 1"/></symbol><symbol fill="none" viewBox="0 0 48 48" xmlns="http://www.w3.org/2000/svg" id="replay_48"><path fill="currentColor" d="M15.537 7.533a1.157 1.157 0 0 0 .003 1.961l7.658 4.823c.78.491 1.798-.065 1.798-.981v-3.3c7.265.512 13 6.568 13 13.964 0 7.732-6.268 14-14 14-5.98 0-11.088-3.75-13.093-9.032a1.5 1.5 0 0 0-2.805 1.064C10.531 36.441 16.73 41 23.996 41c9.39 0 17-7.611 17-17 0-9.053-7.076-16.453-16-16.971V3.664c0-.918-1.021-1.473-1.8-.98z"/></symbol><symbol fill="none" viewBox="0 0 48 48" xmlns="http://www.w3.org/2000/svg" id="services_48"><path fill="currentColor" d="M29 42h10a3 3 0 0 0 3-3V29a3 3 0 0 0-3-3H29a3 3 0 0 0-3 3v10a3 3 0 0 0 3 3m-7-3V29a3 3 0 0 0-3-3H9a3 3 0 0 0-3 3v10a3 3 0 0 0 3 3h10a3 3 0 0 0 3-3M9 22h10a3 3 0 0 0 3-3V9a3 3 0 0 0-3-3H9a3 3 0 0 0-3 3v10a3 3 0 0 0 3 3m15.121-5.199L31.2 23.88a3 3 0 0 0 4.242 0L42.52 16.8a2.996 2.996 0 0 0 .002-4.24q-.001-.002-.004 0l-7.078-7.065a3 3 0 0 0-4.238 0l-7.078 7.065a2.996 2.996 0 0 0-.005 4.24q0 .002.003 0"/></symbol><symbol xmlns="http://www.w3.org/2000/svg" fill="currentColor" viewBox="0 0 48 48" id="skip_back_48"><path d="M14 21.817c.631-.505 1.627-1.054 3.084-1.857l13.009-7.172c2.268-1.25 3.402-1.875 4.332-1.778a2.9 2.9 0 0 1 2.026 1.134c.549.73.549 1.991.549 4.511v14.69c0 2.52 0 3.78-.549 4.51a2.9 2.9 0 0 1-2.026 1.135c-.93.097-2.064-.528-4.332-1.778L17.084 28.04c-1.457-.803-2.453-1.352-3.084-1.857V34.5a1.5 1.5 0 0 1-3 0v-21a1.5 1.5 0 0 1 3 0z"/></symbol><symbol xmlns="http://www.w3.org/2000/svg" fill="currentColor" viewBox="0 0 48 48" id="skip_forward_48"><path d="m30.916 28.04-13.009 7.172c-2.268 1.25-3.402 1.875-4.332 1.778a2.9 2.9 0 0 1-2.026-1.134C11 35.126 11 33.865 11 31.345v-14.69c0-2.52 0-3.78.549-4.51a2.9 2.9 0 0 1 2.026-1.135c.93-.097 2.064.528 4.332 1.778l13.009 7.172c1.457.803 2.453 1.352 3.084 1.857V13.5a1.5 1.5 0 0 1 3 0v21a1.5 1.5 0 0 1-3 0v-8.317c-.631.505-1.627 1.054-3.084 1.857"/></symbol><symbol viewBox="0 0 48 48" version="1.1" xmlns="http://www.w3.org/2000/svg" xmlns:xlink="http://www.w3.org/1999/xlink" id="skip_next_48"><g fill="none" fill-rule="evenodd"><path d="M48 0H0v48h48z"/><path fill="currentColor" d="M23.953 23.162 11.8 16.165A1.2 1.2 0 0 0 10 17.205v14.588a1.2 1.2 0 0 0 1.799 1.04l12.154-6.996v5.957a1.2 1.2 0 0 0 1.8 1.04l12.67-7.294a1.2 1.2 0 0 0 0-2.08l-12.67-7.293a1.2 1.2 0 0 0-1.8 1.04z"/></g></symbol><symbol viewBox="0 0 48 48" version="1.1" xmlns="http://www.w3.org/2000/svg" xmlns:xlink="http://www.w3.org/1999/xlink" id="skip_previous_48"><g fill="none" fill-rule="evenodd"><path d="M48 0H0v48h48z"/><path fill="currentColor" d="M24 22.679v-5.87a1.2 1.2 0 0 0-1.792-1.045L9.51 22.956a1.2 1.2 0 0 0 0 2.089l12.697 7.192a1.2 1.2 0 0 0 1.791-1.044V25.32l12.21 6.916A1.2 1.2 0 0 0 38 31.192V16.807a1.2 1.2 0 0 0-1.791-1.044z"/></g></symbol><symbol xmlns="http://www.w3.org/2000/svg" fill="none" viewBox="0 0 48 48" id="stars_circle_fill_violet_48"><path fill="url(#m8adfb0bea)" fill-rule="evenodd" d="M24 48c13.255 0 24-10.745 24-24S37.255 0 24 0 0 10.745 0 24s10.745 24 24 24" clip-rule="evenodd"/><path fill="#fff" fill-rule="evenodd" d="M25.138 18.508c-.572 1.67-1.339 3.357-2.306 4.324s-2.655 1.734-4.324 2.306a28 28 0 0 1-1.718.528c-.607.169-.607 1.3 0 1.468a34 34 0 0 1 1.403.423l.315.105c1.67.572 3.357 1.339 4.324 2.306s1.734 2.655 2.306 4.324a28 28 0 0 1 .403 1.277q.065.224.125.441c.169.607 1.3.607 1.468 0a33 33 0 0 1 .528-1.718c.572-1.67 1.339-3.357 2.306-4.324s2.655-1.734 4.324-2.306a27 27 0 0 1 1.277-.403q.224-.065.441-.125c.607-.169.607-1.3 0-1.468a33 33 0 0 1-1.718-.528c-1.67-.572-3.357-1.339-4.324-2.306s-1.734-2.654-2.306-4.324a28 28 0 0 1-.403-1.277l-.125-.441c-.169-.607-1.3-.607-1.468 0a33 33 0 0 1-.528 1.718" clip-rule="evenodd"/><path fill="#fff" d="M16.607 11.421c-.194-.583-1.02-.583-1.214 0l-.487 1.461a3.2 3.2 0 0 1-2.024 2.024l-1.46.487c-.584.194-.584 1.02 0 1.214l1.46.487a3.2 3.2 0 0 1 2.024 2.024l.487 1.46c.194.584 1.02.584 1.214 0l.487-1.46a3.2 3.2 0 0 1 2.024-2.024l1.46-.487c.584-.194.584-1.02 0-1.214l-1.46-.487a3.2 3.2 0 0 1-2.024-2.024z"/><defs><linearGradient id="m8adfb0bea" x1="-24" x2="24" y1="24" y2="72" gradientUnits="userSpaceOnUse"><stop stop-color="#C48AFF"/><stop offset="1" stop-color="#AA65F0"/></linearGradient></defs></symbol><symbol xmlns="http://www.w3.org/2000/svg" fill="currentColor" viewBox="0 0 48 48" id="story_48"><path fill-rule="evenodd" d="M5 21.8c0-5.88 0-8.82 1.144-11.067a10.5 10.5 0 0 1 4.59-4.589C12.978 5 15.918 5 21.8 5h4.4c5.88 0 8.82 0 11.067 1.144a10.5 10.5 0 0 1 4.589 4.59C43 12.978 43 15.918 43 21.8v4.4c0 5.88 0 8.82-1.144 11.067a10.5 10.5 0 0 1-4.59 4.589C35.022 43 32.082 43 26.2 43h-4.4c-5.88 0-8.82 0-11.067-1.144a10.5 10.5 0 0 1-4.589-4.59C5 35.022 5 32.082 5 26.2zM34 24c0 5.523-4.477 10-10 10s-10-4.477-10-10 4.477-10 10-10 10 4.477 10 10m-10 7a7 7 0 1 0 0-14 7 7 0 0 0 0 14" clip-rule="evenodd"/><path d="M24 31a7 7 0 1 0 0-14 7 7 0 0 0 0 14"/><path fill-rule="evenodd" d="M5 21.8c0-5.88 0-8.82 1.144-11.067a10.5 10.5 0 0 1 4.59-4.589C12.978 5 15.918 5 21.8 5h4.4c5.88 0 8.82 0 11.067 1.144a10.5 10.5 0 0 1 4.589 4.59C43 12.978 43 15.918 43 21.8v4.4c0 5.88 0 8.82-1.144 11.067a10.5 10.5 0 0 1-4.59 4.589C35.022 43 32.082 43 26.2 43h-4.4c-5.88 0-8.82 0-11.067-1.144a10.5 10.5 0 0 1-4.589-4.59C5 35.022 5 32.082 5 26.2zM34 24c0 5.523-4.477 10-10 10s-10-4.477-10-10 4.477-10 10-10 10 4.477 10 10" clip-rule="evenodd"/></symbol><symbol xmlns="http://www.w3.org/2000/svg" fill="currentColor" viewBox="0 0 48 48" id="subtitles_48"><path fill-rule="evenodd" d="M28.167 7h-8.334c-2.463 0-4.404 0-5.966.128-1.594.13-2.925.4-4.134 1.016a10.5 10.5 0 0 0-4.589 4.59c-.616 1.208-.886 2.54-1.016 4.133C4 18.429 4 20.37 4 22.833v2.334c0 2.463 0 4.404.128 5.966.13 1.594.4 2.925 1.016 4.134a10.5 10.5 0 0 0 4.59 4.589c1.208.616 2.54.886 4.133 1.016 1.562.128 3.502.128 5.966.128h8.334c2.463 0 4.404 0 5.966-.128 1.594-.13 2.925-.4 4.134-1.016a10.5 10.5 0 0 0 4.589-4.59c.616-1.208.886-2.54 1.016-4.133.128-1.562.128-3.502.128-5.966v-2.334c0-2.463 0-4.404-.128-5.966-.13-1.594-.4-2.925-1.016-4.134a10.5 10.5 0 0 0-4.59-4.589c-1.208-.616-2.54-.886-4.133-1.016C32.571 7 30.63 7 28.167 7M13.5 28a1.5 1.5 0 0 0 0 3h11a1.5 1.5 0 0 0 0-3zM12 22.5a1.5 1.5 0 0 1 1.5-1.5h4a1.5 1.5 0 0 1 0 3h-4a1.5 1.5 0 0 1-1.5-1.5M30.5 28a1.5 1.5 0 0 0 0 3h4a1.5 1.5 0 0 0 0-3zM22 22.5a1.5 1.5 0 0 1 1.5-1.5h11a1.5 1.5 0 0 1 0 3h-11a1.5 1.5 0 0 1-1.5-1.5" clip-rule="evenodd"/></symbol><symbol xmlns="http://www.w3.org/2000/svg" fill="currentColor" viewBox="0 0 48 48" id="subtitles_slash_48"><path fill-rule="evenodd" d="M6.56 4.44a1.5 1.5 0 1 0-2.12 2.12l3.088 3.09a10.5 10.5 0 0 0-2.384 3.083c-.616 1.21-.886 2.54-1.016 4.134C4 18.429 4 20.369 4 22.833v2.334c0 2.463 0 4.404.128 5.966.13 1.594.4 2.925 1.016 4.134a10.5 10.5 0 0 0 4.59 4.589c1.208.616 2.54.886 4.133 1.016 1.562.128 3.502.128 5.966.128h8.334c2.463 0 4.404 0 5.966-.128 1.437-.117 2.66-.348 3.773-.844l3.533 3.533a1.5 1.5 0 0 0 2.122-2.122l-37-37ZM13.5 28a1.5 1.5 0 0 0 0 3h11a1.5 1.5 0 0 0 0-3zM12 22.5a1.5 1.5 0 0 1 1.5-1.5h4a1.5 1.5 0 0 1 0 3h-4a1.5 1.5 0 0 1-1.5-1.5M34.5 24h-4.139l12.052 12.051q.237-.381.443-.784c.616-1.21.886-2.54 1.016-4.134.128-1.562.128-3.502.128-5.966v-2.334c0-2.463 0-4.404-.128-5.966-.13-1.594-.4-2.925-1.016-4.134a10.5 10.5 0 0 0-4.59-4.589c-1.208-.616-2.54-.886-4.133-1.016C32.571 7 30.63 7 28.167 7h-8.334c-2.463 0-4.404 0-5.966.128l-.347.03L27.36 21h7.14a1.5 1.5 0 0 1 0 3"/></symbol><symbol fill="none" viewBox="0 0 48 24" xmlns="http://www.w3.org/2000/svg" id="swipe_up_48"><path fill="currentColor" d="M39.21 16.106a2.25 2.25 0 1 0 1.58-4.213l-16-6a2.25 2.25 0 0 0-1.58 0l-16 6a2.25 2.25 0 0 0 1.58 4.213L24 10.402z"/></symbol><symbol xmlns="http://www.w3.org/2000/svg" fill="none" viewBox="0 0 48 48" id="text_outline_48"><path fill="currentColor" d="m39.472 34.001.231.005v1.17c0 1.07.63 1.724 1.638 1.724 1.034 0 1.659-.531 1.659-1.704V23.187C43 19.032 40.135 17 35.5 17c-1.887 0-3.246.402-4.363 1.049C29.75 18.95 29 19.95 29 21.35c0 .95.8 1.65 1.5 1.65s1.1-.2 1.5-.8c.9-1.4 2.022-2.2 3.5-2.2 2.522 0 4.108 1 4.108 3.206V25H34.5c-4.322 0-6.5 2.173-6.5 5.815S30.348 37 34.14 37c2.437 0 4.177-1.115 5.332-2.999m-8.222-3.26C31.25 28.9 32.6 28 34.8 28h4.808v1.855c0 2.358-2.017 4.146-4.606 4.146-2.284 0-3.752-1.323-3.752-3.26M6.696 36.997c1.045 0 1.555-.63 1.914-1.739L10.684 29h9.612l2.078 6.258c.36 1.09.874 1.742 1.912 1.742 1.12 0 1.714-.663 1.714-1.53 0-.352-.081-.84-.233-1.246l-8.159-22.22C17.135 10.71 16.872 10 15.5 10c-1.338 0-1.656.697-2.129 1.99L5.245 34.21c-.152.444-.245.908-.245 1.278 0 .85.603 1.509 1.696 1.509M11.666 26l3.759-11.485h.132L19.314 26z"/></symbol><symbol xmlns="http://www.w3.org/2000/svg" fill="none" viewBox="0 0 48 48" id="ugc_chat_sticker_circle_fill_blue_48"><rect width="48" height="48" fill="url(#m8e855664a)" rx="24"/><path fill="#fff" d="M23.042 12.136v3.853c0 4.972 4.042 9.003 9.03 9.003h4.678c-1.266 4.635-6.028 8.082-11.71 8.082-1.186 0-2.332-.15-3.415-.43a24 24 0 0 1-3.803 2.664q-.347.196-.805.421l-.318.153a1.217 1.217 0 0 1-1.609-.546 1.15 1.15 0 0 1-.034-.95q.285-.693.451-1.213a23 23 0 0 0 .81-3.377C14.26 27.904 13 25.347 13 22.533c0-5.226 4.343-9.564 10.042-10.397M25.048 12v3.989c0 3.867 3.145 7.002 7.023 7.002H37z"/><defs><linearGradient id="m8e855664a" x1="0" x2="49.256" y1="0" y2="1.326" gradientUnits="userSpaceOnUse"><stop stop-color="#70B2FF"/><stop offset="1" stop-color="#5C9CE6"/></linearGradient></defs></symbol><symbol xmlns="http://www.w3.org/2000/svg" fill="none" viewBox="0 0 48 48" id="user_add_circle_fill_blue_48"><circle cx="24" cy="24" r="24" fill="url(#m4ea7d5e8a)"/><path fill="#fff" d="M32 20c0-2.21-1.79-4-4-4s-4 1.79-4 4 1.79 4 4 4 4-1.79 4-4m-15-1.5a1 1 0 0 0-1 1V22h-2.5a1 1 0 1 0 0 2H16v2.5a1 1 0 1 0 2 0V24h2.5a1 1 0 1 0 0-2H18v-2.5a1 1 0 0 0-1-1M20 30v1a1 1 0 0 0 1 1h14a1 1 0 0 0 1-1v-1c0-3.5-5.33-4.5-8-4.5s-8 1-8 4.5"/><defs><linearGradient id="m4ea7d5e8a" x1="0" x2="48" y1="0" y2="48" gradientUnits="userSpaceOnUse"><stop stop-color="#6CF"/><stop offset="1" stop-color="#3F8AE0"/></linearGradient></defs></symbol><symbol xmlns="http://www.w3.org/2000/svg" fill="currentColor" viewBox="0 0 48 48" id="user_rectangle_horizontal_outline_48"><path fill-rule="evenodd" d="M31 21a7 7 0 1 1-14 0 7 7 0 0 1 14 0m-3 0a4 4 0 1 1-8 0 4 4 0 0 1 8 0M19.833 7h8.334c2.463 0 4.404 0 5.966.128 1.594.13 2.925.4 4.134 1.016a10.5 10.5 0 0 1 4.589 4.59c.616 1.208.886 2.54 1.016 4.133.128 1.562.128 3.502.128 5.966v2.334c0 2.463 0 4.404-.128 5.966-.13 1.594-.4 2.925-1.016 4.134a10.5 10.5 0 0 1-4.59 4.589c-1.208.616-2.54.886-4.133 1.016C32.571 41 30.63 41 28.167 41h-8.334c-2.463 0-4.404 0-5.966-.128-1.594-.13-2.925-.4-4.134-1.016a10.5 10.5 0 0 1-4.589-4.59c-.616-1.208-.886-2.54-1.016-4.133C4 29.571 4 27.63 4 25.167v-2.334c0-2.463 0-4.404.128-5.966.13-1.594.4-2.925 1.016-4.134a10.5 10.5 0 0 1 4.59-4.589c1.208-.616 2.54-.886 4.133-1.016C15.429 7 17.37 7 19.833 7m-5.722 3.118c-1.408.115-2.3.335-3.016.7a7.5 7.5 0 0 0-3.278 3.277c-.364.716-.584 1.608-.7 3.016C7.002 18.536 7 20.355 7 22.9v2.2c0 2.545.001 4.363.118 5.789.115 1.408.335 2.3.7 3.016a7.5 7.5 0 0 0 3.277 3.277c.271.139.567.256.907.355L12 37.32C12 32.287 17.577 30 24 30s12 2.287 12 7.32q0 .112-.002.217c.34-.099.636-.216.907-.355a7.5 7.5 0 0 0 3.277-3.277c.365-.716.585-1.608.7-3.016C41 29.464 41 27.645 41 25.1v-2.2c0-2.545-.001-4.363-.118-5.789-.115-1.408-.335-2.3-.7-3.016a7.5 7.5 0 0 0-3.277-3.277c-.716-.365-1.608-.585-3.016-.7C32.464 10 30.645 10 28.1 10h-8.2c-2.545 0-4.363.001-5.789.118M28.1 38c2.026 0 3.592 0 4.865-.06.02-.152.035-.355.035-.62 0-1.16-.543-2.102-2.03-2.915C29.37 33.531 26.923 33 24 33s-5.37.53-6.97 1.405c-1.487.813-2.03 1.756-2.03 2.916 0 .264.015.467.034.62 1.274.058 2.84.059 4.866.059z" clip-rule="evenodd"/></symbol><symbol fill="none" viewBox="0 0 48 48" xmlns="http://www.w3.org/2000/svg" id="video_48"><path fill="currentColor" fill-rule="evenodd" d="M33.308 5.5c2.675 0 3.645.278 4.623.801a5.45 5.45 0 0 1 2.268 2.268c.523.978.801 1.948.801 4.623v21.616c0 2.675-.278 3.645-.801 4.622A5.45 5.45 0 0 1 37.93 41.7c-.978.522-1.948.801-4.623.801H14.692c-2.675 0-3.645-.279-4.622-.801A5.45 5.45 0 0 1 7.8 39.43C7.278 38.454 7 37.483 7 34.808V13.192c0-2.675.278-3.645.801-4.623a5.45 5.45 0 0 1 2.269-2.268c.977-.523 1.947-.801 4.622-.801zM13 14.1c0-.56 0-.84.109-1.054a1 1 0 0 1 .437-.437c.214-.109.494-.109 1.054-.109h1.8c.56 0 .84 0 1.054.109a1 1 0 0 1 .437.437C18 13.26 18 13.54 18 14.1v1.8c0 .56 0 .84-.109 1.054a1 1 0 0 1-.437.437c-.214.109-.494.109-1.054.109h-1.8c-.56 0-.84 0-1.054-.109a1 1 0 0 1-.437-.437C13 16.74 13 16.46 13 15.9zm17.109-1.054C30 13.26 30 13.54 30 14.1v1.8c0 .56 0 .84.109 1.054a1 1 0 0 0 .437.437c.214.109.494.109 1.054.109h1.8c.56 0 .84 0 1.054-.109a1 1 0 0 0 .437-.437C35 16.74 35 16.46 35 15.9v-1.8c0-.56 0-.84-.109-1.054a1 1 0 0 0-.437-.437c-.214-.109-.494-.109-1.054-.109h-1.8c-.56 0-.84 0-1.054.109a1 1 0 0 0-.437.437M13 23.1c0-.56 0-.84.109-1.054a1 1 0 0 1 .437-.437c.214-.109.494-.109 1.054-.109h1.8c.56 0 .84 0 1.054.109a1 1 0 0 1 .437.437C18 22.26 18 22.54 18 23.1v1.8c0 .56 0 .84-.109 1.054a1 1 0 0 1-.437.437c-.214.109-.494.109-1.054.109h-1.8c-.56 0-.84 0-1.054-.109a1 1 0 0 1-.437-.437C13 25.74 13 25.46 13 24.9zm17.109-1.054C30 22.26 30 22.54 30 23.1v1.8c0 .56 0 .84.109 1.054a1 1 0 0 0 .437.437c.214.109.494.109 1.054.109h1.8c.56 0 .84 0 1.054-.109a1 1 0 0 0 .437-.437C35 25.74 35 25.46 35 24.9v-1.8c0-.56 0-.84-.109-1.054a1 1 0 0 0-.437-.437c-.214-.109-.494-.109-1.054-.109h-1.8c-.56 0-.84 0-1.054.109a1 1 0 0 0-.437.437M13 32.1c0-.56 0-.84.109-1.054a1 1 0 0 1 .437-.437c.214-.109.494-.109 1.054-.109h1.8c.56 0 .84 0 1.054.109a1 1 0 0 1 .437.437C18 31.26 18 31.54 18 32.1v1.8c0 .56 0 .84-.109 1.054a1 1 0 0 1-.437.437c-.214.109-.494.109-1.054.109h-1.8c-.56 0-.84 0-1.054-.109a1 1 0 0 1-.437-.437C13 34.74 13 34.46 13 33.9zm17.109-1.054C30 31.26 30 31.54 30 32.1v1.8c0 .56 0 .84.109 1.054a1 1 0 0 0 .437.437c.214.109.494.109 1.054.109h1.8c.56 0 .84 0 1.054-.109a1 1 0 0 0 .437-.437C35 34.74 35 34.46 35 33.9v-1.8c0-.56 0-.84-.109-1.054a1 1 0 0 0-.437-.437c-.214-.109-.494-.109-1.054-.109h-1.8c-.56 0-.84 0-1.054.109a1 1 0 0 0-.437.437" clip-rule="evenodd"/></symbol><symbol xmlns="http://www.w3.org/2000/svg" fill="currentColor" viewBox="0 0 48 48" id="volume_48"><path d="M4 24.471v-.942c0-1.96 0-2.94.381-3.69a3.5 3.5 0 0 1 1.53-1.529c.749-.381 1.729-.381 3.689-.381h2.733c.025 0 .037 0 .049-.003a.1.1 0 0 0 .029-.012.2.2 0 0 0 .036-.033L21.9 8.315A4.43 4.43 0 0 1 25.05 7 2.95 2.95 0 0 1 28 9.951V38.05A2.95 2.95 0 0 1 25.049 41a4.43 4.43 0 0 1-3.149-1.315l-9.453-9.566a.2.2 0 0 0-.036-.033.1.1 0 0 0-.03-.012c-.01-.003-.023-.003-.048-.003H9.6c-1.96 0-2.94 0-3.689-.381a3.5 3.5 0 0 1-1.53-1.53C4 27.412 4 26.432 4 24.471m32.372-11.96a1.5 1.5 0 0 1 2.117-.139C41.818 15.29 44 19.111 44 24s-2.182 8.71-5.511 11.628a1.5 1.5 0 1 1-1.978-2.256C39.315 30.915 41 27.872 41 24s-1.685-6.915-4.489-9.372a1.5 1.5 0 0 1-.139-2.117m-3.007 4.764a1.5 1.5 0 1 0-1.73 2.45C33.123 20.776 34 22.33 34 24s-.877 3.224-2.365 4.275a1.5 1.5 0 1 0 1.73 2.45C35.535 29.194 37 26.78 37 24s-1.465-5.194-3.635-6.725"/></symbol><symbol fill="none" viewBox="0 0 48 48" xmlns="http://www.w3.org/2000/svg" id="writebar_done_48"><path fill="currentColor" d="M24 7c9.389 0 17 7.611 17 17s-7.611 17-17 17S7 33.389 7 24 14.611 7 24 7m6.957 12.126a1 1 0 0 0-1.414 0L21.5 27.17l-3.46-3.46a1 1 0 1 0-1.414 1.415l4.167 4.166a1 1 0 0 0 1.414 0l8.75-8.75a1 1 0 0 0 0-1.414"/></symbol><symbol fill="none" viewBox="0 0 48 48" xmlns="http://www.w3.org/2000/svg" id="writebar_send_48"><path fill="currentColor" d="M24 7c9.389 0 17 7.611 17 17s-7.611 17-17 17S7 33.389 7 24 14.611 7 24 7m0 10h-.018l-.071.004za1 1 0 0 0-.52.146 1 1 0 0 0-.097.067l-.008.007-.082.073-5.5 5.5a1 1 0 0 0 1.414 1.414L23 20.414V30.5a1 1 0 1 0 2 0V20.414l3.793 3.793a1 1 0 0 0 1.414-1.414l-5.5-5.5-.082-.073-.008-.007.09.08a1 1 0 0 0-.559-.282 1 1 0 0 0-.129-.01z"/></symbol></svg>